M48
; DRILL file {KiCad (5.1.4)-1} date 02.09.2019 16:39:39
; FORMAT={-:-/ absolute / inch / decimal}
; #@! TF.CreationDate,2019-09-02T16:39:39+02:00
; #@! TF.GenerationSoftware,Kicad,Pcbnew,(5.1.4)-1
; #@! TF.FileFunction,Plated,1,2,PTH
FMAT,2
INCH
T1C0.0157
T2C0.0354
T3C0.0394
T4C0.0591
T5C0.0669
%
G90
G05
T1
X2.225Y-3.025
X2.575Y-1.875
X2.75Y-4.125
X2.85Y-1.725
X2.925Y-1.65
X3.425Y-2.025
X3.5Y-2.15
X3.5Y-4.225
X3.525Y-3.625
X3.625Y-1.55
X3.625Y-2.15
X3.675Y-1.325
X3.675Y-4.225
X3.675Y-4.525
X3.75Y-3.8
X3.925Y-1.55
X3.95Y-4.375
X4.025Y-2.25
X4.05Y-4.375
X4.1Y-2.675
X4.1Y-3.4
X4.1Y-3.8
X4.2Y-2.325
X4.35Y-2.675
X4.375Y-4.0
X4.425Y-1.8
X4.425Y-1.975
X4.425Y-2.125
X4.425Y-2.325
X4.52Y-2.48
X4.625Y-2.325
X4.8Y-2.325
X4.85Y-1.675
X5.025Y-3.925
X5.2Y-2.975
X5.3Y-3.15
X5.4Y-2.775
T2
X2.55Y-1.725
X2.6207Y-1.6543
X2.1Y-2.85
X2.1Y-2.95
X4.9793Y-4.1457
X5.05Y-4.075
X4.025Y-1.65
X4.025Y-1.75
X4.025Y-1.85
X3.65Y-3.4
X3.75Y-3.4
X3.85Y-3.4
X3.95Y-3.4
X3.75Y-1.2
X3.85Y-1.2
X3.35Y-2.9
X3.35Y-3.0
X3.35Y-3.1
X3.35Y-3.2
X3.35Y-3.3
X3.35Y-3.4
X3.35Y-3.5
X3.35Y-3.6
X3.35Y-3.7
X3.35Y-3.8
X3.35Y-3.9
X3.35Y-4.0
X3.35Y-4.1
X3.35Y-4.2
X3.35Y-4.3
X4.25Y-2.9
X4.25Y-3.0
X4.25Y-3.1
X4.25Y-3.2
X4.25Y-3.3
X4.25Y-3.4
X4.25Y-3.5
X4.25Y-3.6
X4.25Y-3.7
X4.25Y-3.8
X4.25Y-3.9
X4.25Y-4.0
X4.25Y-4.1
X4.25Y-4.2
X4.25Y-4.3
X4.525Y-2.875
X4.625Y-2.875
X4.725Y-2.875
X4.81Y-3.38
X3.125Y-2.325
X3.125Y-2.425
X3.125Y-2.525
X3.125Y-2.625
X3.125Y-3.365
X3.125Y-3.465
X5.5Y-2.85
X5.5Y-2.95
X3.75Y-4.6
X3.85Y-4.6
X2.5543Y-4.0793
X2.625Y-4.15
X4.975Y-1.65
X5.0457Y-1.7207
X3.7Y-2.7
X3.8Y-2.7
X3.9Y-2.7
X3.15Y-1.55
X3.15Y-1.65
X3.15Y-1.75
X3.15Y-1.85
X3.15Y-1.95
X3.15Y-2.05
T3
X4.5516Y-4.2
X4.65Y-4.2
X2.575Y-3.725
X5.075Y-3.725
T4
X4.5874Y-3.7661
X3.0126Y-3.7661
T5
X4.4874Y-3.6661
X4.4874Y-3.8661
X4.6874Y-3.6661
X4.6874Y-3.8661
X2.9126Y-3.6661
X2.9126Y-3.8661
X3.1126Y-3.6661
X3.1126Y-3.8661
T0
M30
