G04 #@! TF.GenerationSoftware,KiCad,Pcbnew,(5.1.4)-1*
G04 #@! TF.CreationDate,2019-08-22T16:08:33+02:00*
G04 #@! TF.ProjectId,OpenMQTTGatewayPCB,4f70656e-4d51-4545-9447-617465776179,1*
G04 #@! TF.SameCoordinates,Original*
G04 #@! TF.FileFunction,Soldermask,Bot*
G04 #@! TF.FilePolarity,Negative*
%FSLAX46Y46*%
G04 Gerber Fmt 4.6, Leading zero omitted, Abs format (unit mm)*
G04 Created by KiCad (PCBNEW (5.1.4)-1) date 2019-08-22 16:08:33*
%MOMM*%
%LPD*%
G04 APERTURE LIST*
%ADD10C,0.100000*%
G04 APERTURE END LIST*
D10*
G36*
X98067395Y-115925546D02*
G01*
X98240466Y-115997234D01*
X98240467Y-115997235D01*
X98396227Y-116101310D01*
X98528690Y-116233773D01*
X98528691Y-116233775D01*
X98632766Y-116389534D01*
X98704454Y-116562605D01*
X98741000Y-116746333D01*
X98741000Y-116933667D01*
X98704454Y-117117395D01*
X98632766Y-117290466D01*
X98632765Y-117290467D01*
X98528690Y-117446227D01*
X98396227Y-117578690D01*
X98317818Y-117631081D01*
X98240466Y-117682766D01*
X98067395Y-117754454D01*
X97883667Y-117791000D01*
X97696333Y-117791000D01*
X97512605Y-117754454D01*
X97339534Y-117682766D01*
X97262182Y-117631081D01*
X97183773Y-117578690D01*
X97051310Y-117446227D01*
X96947235Y-117290467D01*
X96947234Y-117290466D01*
X96875546Y-117117395D01*
X96839000Y-116933667D01*
X96839000Y-116746333D01*
X96875546Y-116562605D01*
X96947234Y-116389534D01*
X97051309Y-116233775D01*
X97051310Y-116233773D01*
X97183773Y-116101310D01*
X97339533Y-115997235D01*
X97339534Y-115997234D01*
X97512605Y-115925546D01*
X97696333Y-115889000D01*
X97883667Y-115889000D01*
X98067395Y-115925546D01*
X98067395Y-115925546D01*
G37*
G36*
X96201000Y-117791000D02*
G01*
X94299000Y-117791000D01*
X94299000Y-115889000D01*
X96201000Y-115889000D01*
X96201000Y-117791000D01*
X96201000Y-117791000D01*
G37*
G36*
X85367395Y-108305546D02*
G01*
X85540466Y-108377234D01*
X85540467Y-108377235D01*
X85696227Y-108481310D01*
X85828690Y-108613773D01*
X85828691Y-108613775D01*
X85932766Y-108769534D01*
X86004454Y-108942605D01*
X86041000Y-109126333D01*
X86041000Y-109313667D01*
X86004454Y-109497395D01*
X85932766Y-109670466D01*
X85932765Y-109670467D01*
X85828690Y-109826227D01*
X85696227Y-109958690D01*
X85617818Y-110011081D01*
X85540466Y-110062766D01*
X85367395Y-110134454D01*
X85183667Y-110171000D01*
X84996333Y-110171000D01*
X84812605Y-110134454D01*
X84639534Y-110062766D01*
X84562182Y-110011081D01*
X84483773Y-109958690D01*
X84351310Y-109826227D01*
X84247235Y-109670467D01*
X84247234Y-109670466D01*
X84175546Y-109497395D01*
X84139000Y-109313667D01*
X84139000Y-109126333D01*
X84175546Y-108942605D01*
X84247234Y-108769534D01*
X84351309Y-108613775D01*
X84351310Y-108613773D01*
X84483773Y-108481310D01*
X84639533Y-108377235D01*
X84639534Y-108377234D01*
X84812605Y-108305546D01*
X84996333Y-108269000D01*
X85183667Y-108269000D01*
X85367395Y-108305546D01*
X85367395Y-108305546D01*
G37*
G36*
X108227395Y-108305546D02*
G01*
X108400466Y-108377234D01*
X108400467Y-108377235D01*
X108556227Y-108481310D01*
X108688690Y-108613773D01*
X108688691Y-108613775D01*
X108792766Y-108769534D01*
X108864454Y-108942605D01*
X108901000Y-109126333D01*
X108901000Y-109313667D01*
X108864454Y-109497395D01*
X108792766Y-109670466D01*
X108792765Y-109670467D01*
X108688690Y-109826227D01*
X108556227Y-109958690D01*
X108477818Y-110011081D01*
X108400466Y-110062766D01*
X108227395Y-110134454D01*
X108043667Y-110171000D01*
X107856333Y-110171000D01*
X107672605Y-110134454D01*
X107499534Y-110062766D01*
X107422182Y-110011081D01*
X107343773Y-109958690D01*
X107211310Y-109826227D01*
X107107235Y-109670467D01*
X107107234Y-109670466D01*
X107035546Y-109497395D01*
X106999000Y-109313667D01*
X106999000Y-109126333D01*
X107035546Y-108942605D01*
X107107234Y-108769534D01*
X107211309Y-108613775D01*
X107211310Y-108613773D01*
X107343773Y-108481310D01*
X107499533Y-108377235D01*
X107499534Y-108377234D01*
X107672605Y-108305546D01*
X107856333Y-108269000D01*
X108043667Y-108269000D01*
X108227395Y-108305546D01*
X108227395Y-108305546D01*
G37*
G36*
X118286626Y-105642037D02*
G01*
X118456465Y-105693557D01*
X118456467Y-105693558D01*
X118612989Y-105777221D01*
X118750186Y-105889814D01*
X118833448Y-105991271D01*
X118862778Y-106027009D01*
X118946443Y-106183534D01*
X118997963Y-106353373D01*
X119011000Y-106485742D01*
X119011000Y-106874257D01*
X118997963Y-107006626D01*
X118946443Y-107176466D01*
X118862778Y-107332991D01*
X118833448Y-107368729D01*
X118750186Y-107470186D01*
X118655250Y-107548097D01*
X118612991Y-107582778D01*
X118456466Y-107666443D01*
X118286627Y-107717963D01*
X118110000Y-107735359D01*
X117933374Y-107717963D01*
X117763535Y-107666443D01*
X117607010Y-107582778D01*
X117469815Y-107470185D01*
X117357222Y-107332991D01*
X117273557Y-107176466D01*
X117222037Y-107006627D01*
X117209000Y-106874258D01*
X117209000Y-106485743D01*
X117222037Y-106353374D01*
X117273557Y-106183535D01*
X117295983Y-106141579D01*
X117357221Y-106027011D01*
X117469814Y-105889814D01*
X117571271Y-105806552D01*
X117607009Y-105777222D01*
X117763534Y-105693557D01*
X117933373Y-105642037D01*
X118110000Y-105624641D01*
X118286626Y-105642037D01*
X118286626Y-105642037D01*
G37*
G36*
X116368600Y-105632989D02*
G01*
X116401652Y-105643015D01*
X116432103Y-105659292D01*
X116458799Y-105681201D01*
X116480708Y-105707897D01*
X116496985Y-105738348D01*
X116507011Y-105771400D01*
X116511000Y-105811903D01*
X116511000Y-107548097D01*
X116507011Y-107588600D01*
X116496985Y-107621652D01*
X116480708Y-107652103D01*
X116458799Y-107678799D01*
X116432103Y-107700708D01*
X116401652Y-107716985D01*
X116368600Y-107727011D01*
X116328097Y-107731000D01*
X114891903Y-107731000D01*
X114851400Y-107727011D01*
X114818348Y-107716985D01*
X114787897Y-107700708D01*
X114761201Y-107678799D01*
X114739292Y-107652103D01*
X114723015Y-107621652D01*
X114712989Y-107588600D01*
X114709000Y-107548097D01*
X114709000Y-105811903D01*
X114712989Y-105771400D01*
X114723015Y-105738348D01*
X114739292Y-105707897D01*
X114761201Y-105681201D01*
X114787897Y-105659292D01*
X114818348Y-105643015D01*
X114851400Y-105632989D01*
X114891903Y-105629000D01*
X116328097Y-105629000D01*
X116368600Y-105632989D01*
X116368600Y-105632989D01*
G37*
G36*
X108227395Y-105765546D02*
G01*
X108400466Y-105837234D01*
X108400467Y-105837235D01*
X108556227Y-105941310D01*
X108688690Y-106073773D01*
X108688691Y-106073775D01*
X108792766Y-106229534D01*
X108864454Y-106402605D01*
X108901000Y-106586333D01*
X108901000Y-106773667D01*
X108864454Y-106957395D01*
X108792766Y-107130466D01*
X108792765Y-107130467D01*
X108688690Y-107286227D01*
X108556227Y-107418690D01*
X108485422Y-107466000D01*
X108400466Y-107522766D01*
X108227395Y-107594454D01*
X108043667Y-107631000D01*
X107856333Y-107631000D01*
X107672605Y-107594454D01*
X107499534Y-107522766D01*
X107414578Y-107466000D01*
X107343773Y-107418690D01*
X107211310Y-107286227D01*
X107107235Y-107130467D01*
X107107234Y-107130466D01*
X107035546Y-106957395D01*
X106999000Y-106773667D01*
X106999000Y-106586333D01*
X107035546Y-106402605D01*
X107107234Y-106229534D01*
X107211309Y-106073775D01*
X107211310Y-106073773D01*
X107343773Y-105941310D01*
X107499533Y-105837235D01*
X107499534Y-105837234D01*
X107672605Y-105765546D01*
X107856333Y-105729000D01*
X108043667Y-105729000D01*
X108227395Y-105765546D01*
X108227395Y-105765546D01*
G37*
G36*
X85367395Y-105765546D02*
G01*
X85540466Y-105837234D01*
X85540467Y-105837235D01*
X85696227Y-105941310D01*
X85828690Y-106073773D01*
X85828691Y-106073775D01*
X85932766Y-106229534D01*
X86004454Y-106402605D01*
X86041000Y-106586333D01*
X86041000Y-106773667D01*
X86004454Y-106957395D01*
X85932766Y-107130466D01*
X85932765Y-107130467D01*
X85828690Y-107286227D01*
X85696227Y-107418690D01*
X85625422Y-107466000D01*
X85540466Y-107522766D01*
X85367395Y-107594454D01*
X85183667Y-107631000D01*
X84996333Y-107631000D01*
X84812605Y-107594454D01*
X84639534Y-107522766D01*
X84554578Y-107466000D01*
X84483773Y-107418690D01*
X84351310Y-107286227D01*
X84247235Y-107130467D01*
X84247234Y-107130466D01*
X84175546Y-106957395D01*
X84139000Y-106773667D01*
X84139000Y-106586333D01*
X84175546Y-106402605D01*
X84247234Y-106229534D01*
X84351309Y-106073775D01*
X84351310Y-106073773D01*
X84483773Y-105941310D01*
X84639533Y-105837235D01*
X84639534Y-105837234D01*
X84812605Y-105765546D01*
X84996333Y-105729000D01*
X85183667Y-105729000D01*
X85367395Y-105765546D01*
X85367395Y-105765546D01*
G37*
G36*
X78870295Y-104046333D02*
G01*
X79001579Y-104072447D01*
X79302042Y-104196903D01*
X79572451Y-104377585D01*
X79802415Y-104607549D01*
X79964806Y-104850584D01*
X79983098Y-104877960D01*
X80107553Y-105178422D01*
X80171000Y-105497389D01*
X80171000Y-105822611D01*
X80147389Y-105941309D01*
X80107553Y-106141579D01*
X79983097Y-106442042D01*
X79802415Y-106712451D01*
X79572451Y-106942415D01*
X79302042Y-107123097D01*
X79302041Y-107123098D01*
X79302040Y-107123098D01*
X79214037Y-107159550D01*
X79001579Y-107247553D01*
X78895256Y-107268702D01*
X78682611Y-107311000D01*
X78357389Y-107311000D01*
X78144744Y-107268702D01*
X78038421Y-107247553D01*
X77825963Y-107159550D01*
X77737960Y-107123098D01*
X77737959Y-107123098D01*
X77737958Y-107123097D01*
X77467549Y-106942415D01*
X77237585Y-106712451D01*
X77056903Y-106442042D01*
X76932447Y-106141579D01*
X76892611Y-105941309D01*
X76869000Y-105822611D01*
X76869000Y-105497389D01*
X76932447Y-105178422D01*
X77056902Y-104877960D01*
X77075194Y-104850584D01*
X77237585Y-104607549D01*
X77467549Y-104377585D01*
X77737958Y-104196903D01*
X78038421Y-104072447D01*
X78169705Y-104046333D01*
X78357389Y-104009000D01*
X78682611Y-104009000D01*
X78870295Y-104046333D01*
X78870295Y-104046333D01*
G37*
G36*
X68019917Y-105410000D02*
G01*
X66675000Y-106754917D01*
X65330083Y-105410000D01*
X66675000Y-104065083D01*
X68019917Y-105410000D01*
X68019917Y-105410000D01*
G37*
G36*
X126751344Y-104386597D02*
G01*
X126924415Y-104458285D01*
X126924416Y-104458286D01*
X127080176Y-104562361D01*
X127212639Y-104694824D01*
X127212640Y-104694826D01*
X127316715Y-104850585D01*
X127388403Y-105023656D01*
X127424949Y-105207384D01*
X127424949Y-105394718D01*
X127388403Y-105578446D01*
X127316715Y-105751517D01*
X127276366Y-105811903D01*
X127212639Y-105907278D01*
X127080176Y-106039741D01*
X127029243Y-106073773D01*
X126924415Y-106143817D01*
X126751344Y-106215505D01*
X126567616Y-106252051D01*
X126380282Y-106252051D01*
X126196554Y-106215505D01*
X126023483Y-106143817D01*
X125918655Y-106073773D01*
X125867722Y-106039741D01*
X125735259Y-105907278D01*
X125671532Y-105811903D01*
X125631183Y-105751517D01*
X125559495Y-105578446D01*
X125522949Y-105394718D01*
X125522949Y-105207384D01*
X125559495Y-105023656D01*
X125631183Y-104850585D01*
X125735258Y-104694826D01*
X125735259Y-104694824D01*
X125867722Y-104562361D01*
X126023482Y-104458286D01*
X126023483Y-104458285D01*
X126196554Y-104386597D01*
X126380282Y-104350051D01*
X126567616Y-104350051D01*
X126751344Y-104386597D01*
X126751344Y-104386597D01*
G37*
G36*
X108227395Y-103225546D02*
G01*
X108400466Y-103297234D01*
X108400467Y-103297235D01*
X108556227Y-103401310D01*
X108688690Y-103533773D01*
X108688691Y-103533775D01*
X108792766Y-103689534D01*
X108864454Y-103862605D01*
X108901000Y-104046333D01*
X108901000Y-104233667D01*
X108864454Y-104417395D01*
X108792766Y-104590466D01*
X108792765Y-104590467D01*
X108688690Y-104746227D01*
X108556227Y-104878690D01*
X108477818Y-104931081D01*
X108400466Y-104982766D01*
X108227395Y-105054454D01*
X108043667Y-105091000D01*
X107856333Y-105091000D01*
X107672605Y-105054454D01*
X107499534Y-104982766D01*
X107422182Y-104931081D01*
X107343773Y-104878690D01*
X107211310Y-104746227D01*
X107107235Y-104590467D01*
X107107234Y-104590466D01*
X107035546Y-104417395D01*
X106999000Y-104233667D01*
X106999000Y-104046333D01*
X107035546Y-103862605D01*
X107107234Y-103689534D01*
X107211309Y-103533775D01*
X107211310Y-103533773D01*
X107343773Y-103401310D01*
X107499533Y-103297235D01*
X107499534Y-103297234D01*
X107672605Y-103225546D01*
X107856333Y-103189000D01*
X108043667Y-103189000D01*
X108227395Y-103225546D01*
X108227395Y-103225546D01*
G37*
G36*
X85367395Y-103225546D02*
G01*
X85540466Y-103297234D01*
X85540467Y-103297235D01*
X85696227Y-103401310D01*
X85828690Y-103533773D01*
X85828691Y-103533775D01*
X85932766Y-103689534D01*
X86004454Y-103862605D01*
X86041000Y-104046333D01*
X86041000Y-104233667D01*
X86004454Y-104417395D01*
X85932766Y-104590466D01*
X85932765Y-104590467D01*
X85828690Y-104746227D01*
X85696227Y-104878690D01*
X85617818Y-104931081D01*
X85540466Y-104982766D01*
X85367395Y-105054454D01*
X85183667Y-105091000D01*
X84996333Y-105091000D01*
X84812605Y-105054454D01*
X84639534Y-104982766D01*
X84562182Y-104931081D01*
X84483773Y-104878690D01*
X84351310Y-104746227D01*
X84247235Y-104590467D01*
X84247234Y-104590466D01*
X84175546Y-104417395D01*
X84139000Y-104233667D01*
X84139000Y-104046333D01*
X84175546Y-103862605D01*
X84247234Y-103689534D01*
X84351309Y-103533775D01*
X84351310Y-103533773D01*
X84483773Y-103401310D01*
X84639533Y-103297235D01*
X84639534Y-103297234D01*
X84812605Y-103225546D01*
X84996333Y-103189000D01*
X85183667Y-103189000D01*
X85367395Y-103225546D01*
X85367395Y-103225546D01*
G37*
G36*
X129614917Y-103505000D02*
G01*
X128270000Y-104849917D01*
X126925083Y-103505000D01*
X128270000Y-102160083D01*
X129614917Y-103505000D01*
X129614917Y-103505000D01*
G37*
G36*
X65156344Y-102699495D02*
G01*
X65329415Y-102771183D01*
X65329416Y-102771184D01*
X65485176Y-102875259D01*
X65617639Y-103007722D01*
X65617640Y-103007724D01*
X65721715Y-103163483D01*
X65793403Y-103336554D01*
X65829949Y-103520282D01*
X65829949Y-103707616D01*
X65793403Y-103891344D01*
X65721715Y-104064415D01*
X65721268Y-104065084D01*
X65617639Y-104220176D01*
X65485176Y-104352639D01*
X65406767Y-104405030D01*
X65329415Y-104456715D01*
X65156344Y-104528403D01*
X64972616Y-104564949D01*
X64785282Y-104564949D01*
X64601554Y-104528403D01*
X64428483Y-104456715D01*
X64351131Y-104405030D01*
X64272722Y-104352639D01*
X64140259Y-104220176D01*
X64036630Y-104065084D01*
X64036183Y-104064415D01*
X63964495Y-103891344D01*
X63927949Y-103707616D01*
X63927949Y-103520282D01*
X63964495Y-103336554D01*
X64036183Y-103163483D01*
X64140258Y-103007724D01*
X64140259Y-103007722D01*
X64272722Y-102875259D01*
X64428482Y-102771184D01*
X64428483Y-102771183D01*
X64601554Y-102699495D01*
X64785282Y-102662949D01*
X64972616Y-102662949D01*
X65156344Y-102699495D01*
X65156344Y-102699495D01*
G37*
G36*
X108227395Y-100685546D02*
G01*
X108400466Y-100757234D01*
X108400467Y-100757235D01*
X108556227Y-100861310D01*
X108688690Y-100993773D01*
X108688691Y-100993775D01*
X108792766Y-101149534D01*
X108864454Y-101322605D01*
X108901000Y-101506333D01*
X108901000Y-101693667D01*
X108864454Y-101877395D01*
X108792766Y-102050466D01*
X108792765Y-102050467D01*
X108688690Y-102206227D01*
X108556227Y-102338690D01*
X108477818Y-102391081D01*
X108400466Y-102442766D01*
X108227395Y-102514454D01*
X108043667Y-102551000D01*
X107856333Y-102551000D01*
X107672605Y-102514454D01*
X107499534Y-102442766D01*
X107422182Y-102391081D01*
X107343773Y-102338690D01*
X107211310Y-102206227D01*
X107107235Y-102050467D01*
X107107234Y-102050466D01*
X107035546Y-101877395D01*
X106999000Y-101693667D01*
X106999000Y-101506333D01*
X107035546Y-101322605D01*
X107107234Y-101149534D01*
X107211309Y-100993775D01*
X107211310Y-100993773D01*
X107343773Y-100861310D01*
X107499533Y-100757235D01*
X107499534Y-100757234D01*
X107672605Y-100685546D01*
X107856333Y-100649000D01*
X108043667Y-100649000D01*
X108227395Y-100685546D01*
X108227395Y-100685546D01*
G37*
G36*
X85367395Y-100685546D02*
G01*
X85540466Y-100757234D01*
X85540467Y-100757235D01*
X85696227Y-100861310D01*
X85828690Y-100993773D01*
X85828691Y-100993775D01*
X85932766Y-101149534D01*
X86004454Y-101322605D01*
X86041000Y-101506333D01*
X86041000Y-101693667D01*
X86004454Y-101877395D01*
X85932766Y-102050466D01*
X85932765Y-102050467D01*
X85828690Y-102206227D01*
X85696227Y-102338690D01*
X85617818Y-102391081D01*
X85540466Y-102442766D01*
X85367395Y-102514454D01*
X85183667Y-102551000D01*
X84996333Y-102551000D01*
X84812605Y-102514454D01*
X84639534Y-102442766D01*
X84562182Y-102391081D01*
X84483773Y-102338690D01*
X84351310Y-102206227D01*
X84247235Y-102050467D01*
X84247234Y-102050466D01*
X84175546Y-101877395D01*
X84139000Y-101693667D01*
X84139000Y-101506333D01*
X84175546Y-101322605D01*
X84247234Y-101149534D01*
X84351309Y-100993775D01*
X84351310Y-100993773D01*
X84483773Y-100861310D01*
X84639533Y-100757235D01*
X84639534Y-100757234D01*
X84812605Y-100685546D01*
X84996333Y-100649000D01*
X85183667Y-100649000D01*
X85367395Y-100685546D01*
X85367395Y-100685546D01*
G37*
G36*
X85367395Y-98145546D02*
G01*
X85540466Y-98217234D01*
X85540467Y-98217235D01*
X85696227Y-98321310D01*
X85828690Y-98453773D01*
X85828691Y-98453775D01*
X85932766Y-98609534D01*
X86004454Y-98782605D01*
X86041000Y-98966333D01*
X86041000Y-99153667D01*
X86004454Y-99337395D01*
X85932766Y-99510466D01*
X85932765Y-99510467D01*
X85828690Y-99666227D01*
X85696227Y-99798690D01*
X85617818Y-99851081D01*
X85540466Y-99902766D01*
X85367395Y-99974454D01*
X85183667Y-100011000D01*
X84996333Y-100011000D01*
X84812605Y-99974454D01*
X84639534Y-99902766D01*
X84562182Y-99851081D01*
X84483773Y-99798690D01*
X84351310Y-99666227D01*
X84247235Y-99510467D01*
X84247234Y-99510466D01*
X84175546Y-99337395D01*
X84139000Y-99153667D01*
X84139000Y-98966333D01*
X84175546Y-98782605D01*
X84247234Y-98609534D01*
X84351309Y-98453775D01*
X84351310Y-98453773D01*
X84483773Y-98321310D01*
X84639533Y-98217235D01*
X84639534Y-98217234D01*
X84812605Y-98145546D01*
X84996333Y-98109000D01*
X85183667Y-98109000D01*
X85367395Y-98145546D01*
X85367395Y-98145546D01*
G37*
G36*
X108227395Y-98145546D02*
G01*
X108400466Y-98217234D01*
X108400467Y-98217235D01*
X108556227Y-98321310D01*
X108688690Y-98453773D01*
X108688691Y-98453775D01*
X108792766Y-98609534D01*
X108864454Y-98782605D01*
X108901000Y-98966333D01*
X108901000Y-99153667D01*
X108864454Y-99337395D01*
X108792766Y-99510466D01*
X108792765Y-99510467D01*
X108688690Y-99666227D01*
X108556227Y-99798690D01*
X108477818Y-99851081D01*
X108400466Y-99902766D01*
X108227395Y-99974454D01*
X108043667Y-100011000D01*
X107856333Y-100011000D01*
X107672605Y-99974454D01*
X107499534Y-99902766D01*
X107422182Y-99851081D01*
X107343773Y-99798690D01*
X107211310Y-99666227D01*
X107107235Y-99510467D01*
X107107234Y-99510466D01*
X107035546Y-99337395D01*
X106999000Y-99153667D01*
X106999000Y-98966333D01*
X107035546Y-98782605D01*
X107107234Y-98609534D01*
X107211309Y-98453775D01*
X107211310Y-98453773D01*
X107343773Y-98321310D01*
X107499533Y-98217235D01*
X107499534Y-98217234D01*
X107672605Y-98145546D01*
X107856333Y-98109000D01*
X108043667Y-98109000D01*
X108227395Y-98145546D01*
X108227395Y-98145546D01*
G37*
G36*
X79251560Y-97039064D02*
G01*
X79403027Y-97069193D01*
X79617045Y-97157842D01*
X79617046Y-97157843D01*
X79809654Y-97286539D01*
X79973461Y-97450346D01*
X80059258Y-97578751D01*
X80102158Y-97642955D01*
X80190807Y-97856973D01*
X80190807Y-97856975D01*
X80236000Y-98084173D01*
X80236000Y-98315827D01*
X80234909Y-98321310D01*
X80190807Y-98543027D01*
X80102158Y-98757045D01*
X80102157Y-98757046D01*
X79973461Y-98949654D01*
X79809654Y-99113461D01*
X79749484Y-99153665D01*
X79617045Y-99242158D01*
X79403027Y-99330807D01*
X79251560Y-99360936D01*
X79175827Y-99376000D01*
X78944173Y-99376000D01*
X78868440Y-99360936D01*
X78716973Y-99330807D01*
X78502955Y-99242158D01*
X78370516Y-99153665D01*
X78310346Y-99113461D01*
X78146539Y-98949654D01*
X78017843Y-98757046D01*
X78017842Y-98757045D01*
X77929193Y-98543027D01*
X77885091Y-98321310D01*
X77884000Y-98315827D01*
X77884000Y-98084173D01*
X77929193Y-97856975D01*
X77929193Y-97856973D01*
X78017842Y-97642955D01*
X78060742Y-97578751D01*
X78146539Y-97450346D01*
X78310346Y-97286539D01*
X78502954Y-97157843D01*
X78502955Y-97157842D01*
X78716973Y-97069193D01*
X78868440Y-97039064D01*
X78944173Y-97024000D01*
X79175827Y-97024000D01*
X79251560Y-97039064D01*
X79251560Y-97039064D01*
G37*
G36*
X74171560Y-97039064D02*
G01*
X74323027Y-97069193D01*
X74537045Y-97157842D01*
X74537046Y-97157843D01*
X74729654Y-97286539D01*
X74893461Y-97450346D01*
X74979258Y-97578751D01*
X75022158Y-97642955D01*
X75110807Y-97856973D01*
X75110807Y-97856975D01*
X75156000Y-98084173D01*
X75156000Y-98315827D01*
X75154909Y-98321310D01*
X75110807Y-98543027D01*
X75022158Y-98757045D01*
X75022157Y-98757046D01*
X74893461Y-98949654D01*
X74729654Y-99113461D01*
X74669484Y-99153665D01*
X74537045Y-99242158D01*
X74323027Y-99330807D01*
X74171560Y-99360936D01*
X74095827Y-99376000D01*
X73864173Y-99376000D01*
X73788440Y-99360936D01*
X73636973Y-99330807D01*
X73422955Y-99242158D01*
X73290516Y-99153665D01*
X73230346Y-99113461D01*
X73066539Y-98949654D01*
X72937843Y-98757046D01*
X72937842Y-98757045D01*
X72849193Y-98543027D01*
X72805091Y-98321310D01*
X72804000Y-98315827D01*
X72804000Y-98084173D01*
X72849193Y-97856975D01*
X72849193Y-97856973D01*
X72937842Y-97642955D01*
X72980742Y-97578751D01*
X73066539Y-97450346D01*
X73230346Y-97286539D01*
X73422954Y-97157843D01*
X73422955Y-97157842D01*
X73636973Y-97069193D01*
X73788440Y-97039064D01*
X73864173Y-97024000D01*
X74095827Y-97024000D01*
X74171560Y-97039064D01*
X74171560Y-97039064D01*
G37*
G36*
X114171560Y-97039064D02*
G01*
X114323027Y-97069193D01*
X114537045Y-97157842D01*
X114537046Y-97157843D01*
X114729654Y-97286539D01*
X114893461Y-97450346D01*
X114979258Y-97578751D01*
X115022158Y-97642955D01*
X115110807Y-97856973D01*
X115110807Y-97856975D01*
X115156000Y-98084173D01*
X115156000Y-98315827D01*
X115154909Y-98321310D01*
X115110807Y-98543027D01*
X115022158Y-98757045D01*
X115022157Y-98757046D01*
X114893461Y-98949654D01*
X114729654Y-99113461D01*
X114669484Y-99153665D01*
X114537045Y-99242158D01*
X114323027Y-99330807D01*
X114171560Y-99360936D01*
X114095827Y-99376000D01*
X113864173Y-99376000D01*
X113788440Y-99360936D01*
X113636973Y-99330807D01*
X113422955Y-99242158D01*
X113290516Y-99153665D01*
X113230346Y-99113461D01*
X113066539Y-98949654D01*
X112937843Y-98757046D01*
X112937842Y-98757045D01*
X112849193Y-98543027D01*
X112805091Y-98321310D01*
X112804000Y-98315827D01*
X112804000Y-98084173D01*
X112849193Y-97856975D01*
X112849193Y-97856973D01*
X112937842Y-97642955D01*
X112980742Y-97578751D01*
X113066539Y-97450346D01*
X113230346Y-97286539D01*
X113422954Y-97157843D01*
X113422955Y-97157842D01*
X113636973Y-97069193D01*
X113788440Y-97039064D01*
X113864173Y-97024000D01*
X114095827Y-97024000D01*
X114171560Y-97039064D01*
X114171560Y-97039064D01*
G37*
G36*
X119251560Y-97039064D02*
G01*
X119403027Y-97069193D01*
X119617045Y-97157842D01*
X119617046Y-97157843D01*
X119809654Y-97286539D01*
X119973461Y-97450346D01*
X120059258Y-97578751D01*
X120102158Y-97642955D01*
X120190807Y-97856973D01*
X120190807Y-97856975D01*
X120236000Y-98084173D01*
X120236000Y-98315827D01*
X120234909Y-98321310D01*
X120190807Y-98543027D01*
X120102158Y-98757045D01*
X120102157Y-98757046D01*
X119973461Y-98949654D01*
X119809654Y-99113461D01*
X119749484Y-99153665D01*
X119617045Y-99242158D01*
X119403027Y-99330807D01*
X119251560Y-99360936D01*
X119175827Y-99376000D01*
X118944173Y-99376000D01*
X118868440Y-99360936D01*
X118716973Y-99330807D01*
X118502955Y-99242158D01*
X118370516Y-99153665D01*
X118310346Y-99113461D01*
X118146539Y-98949654D01*
X118017843Y-98757046D01*
X118017842Y-98757045D01*
X117929193Y-98543027D01*
X117885091Y-98321310D01*
X117884000Y-98315827D01*
X117884000Y-98084173D01*
X117929193Y-97856975D01*
X117929193Y-97856973D01*
X118017842Y-97642955D01*
X118060742Y-97578751D01*
X118146539Y-97450346D01*
X118310346Y-97286539D01*
X118502954Y-97157843D01*
X118502955Y-97157842D01*
X118716973Y-97069193D01*
X118868440Y-97039064D01*
X118944173Y-97024000D01*
X119175827Y-97024000D01*
X119251560Y-97039064D01*
X119251560Y-97039064D01*
G37*
G36*
X108227395Y-95605546D02*
G01*
X108400466Y-95677234D01*
X108400467Y-95677235D01*
X108556227Y-95781310D01*
X108688690Y-95913773D01*
X108688691Y-95913775D01*
X108792766Y-96069534D01*
X108864454Y-96242605D01*
X108901000Y-96426333D01*
X108901000Y-96613667D01*
X108864454Y-96797395D01*
X108792766Y-96970466D01*
X108792765Y-96970467D01*
X108688690Y-97126227D01*
X108556227Y-97258690D01*
X108514548Y-97286539D01*
X108400466Y-97362766D01*
X108227395Y-97434454D01*
X108043667Y-97471000D01*
X107856333Y-97471000D01*
X107672605Y-97434454D01*
X107499534Y-97362766D01*
X107385452Y-97286539D01*
X107343773Y-97258690D01*
X107211310Y-97126227D01*
X107107235Y-96970467D01*
X107107234Y-96970466D01*
X107035546Y-96797395D01*
X106999000Y-96613667D01*
X106999000Y-96426333D01*
X107035546Y-96242605D01*
X107107234Y-96069534D01*
X107211309Y-95913775D01*
X107211310Y-95913773D01*
X107343773Y-95781310D01*
X107499533Y-95677235D01*
X107499534Y-95677234D01*
X107672605Y-95605546D01*
X107856333Y-95569000D01*
X108043667Y-95569000D01*
X108227395Y-95605546D01*
X108227395Y-95605546D01*
G37*
G36*
X85367395Y-95605546D02*
G01*
X85540466Y-95677234D01*
X85540467Y-95677235D01*
X85696227Y-95781310D01*
X85828690Y-95913773D01*
X85828691Y-95913775D01*
X85932766Y-96069534D01*
X86004454Y-96242605D01*
X86041000Y-96426333D01*
X86041000Y-96613667D01*
X86004454Y-96797395D01*
X85932766Y-96970466D01*
X85932765Y-96970467D01*
X85828690Y-97126227D01*
X85696227Y-97258690D01*
X85654548Y-97286539D01*
X85540466Y-97362766D01*
X85367395Y-97434454D01*
X85183667Y-97471000D01*
X84996333Y-97471000D01*
X84812605Y-97434454D01*
X84639534Y-97362766D01*
X84525452Y-97286539D01*
X84483773Y-97258690D01*
X84351310Y-97126227D01*
X84247235Y-96970467D01*
X84247234Y-96970466D01*
X84175546Y-96797395D01*
X84139000Y-96613667D01*
X84139000Y-96426333D01*
X84175546Y-96242605D01*
X84247234Y-96069534D01*
X84351309Y-95913775D01*
X84351310Y-95913773D01*
X84483773Y-95781310D01*
X84639533Y-95677235D01*
X84639534Y-95677234D01*
X84812605Y-95605546D01*
X84996333Y-95569000D01*
X85183667Y-95569000D01*
X85367395Y-95605546D01*
X85367395Y-95605546D01*
G37*
G36*
X116695271Y-94597783D02*
G01*
X116833858Y-94625350D01*
X117029677Y-94706461D01*
X117205910Y-94824216D01*
X117355784Y-94974090D01*
X117473539Y-95150323D01*
X117554650Y-95346142D01*
X117596000Y-95554023D01*
X117596000Y-95765977D01*
X117554650Y-95973858D01*
X117473539Y-96169677D01*
X117355784Y-96345910D01*
X117205910Y-96495784D01*
X117029677Y-96613539D01*
X116833858Y-96694650D01*
X116695271Y-96722217D01*
X116625978Y-96736000D01*
X116414022Y-96736000D01*
X116344729Y-96722217D01*
X116206142Y-96694650D01*
X116010323Y-96613539D01*
X115834090Y-96495784D01*
X115684216Y-96345910D01*
X115566461Y-96169677D01*
X115485350Y-95973858D01*
X115444000Y-95765977D01*
X115444000Y-95554023D01*
X115485350Y-95346142D01*
X115566461Y-95150323D01*
X115684216Y-94974090D01*
X115834090Y-94824216D01*
X116010323Y-94706461D01*
X116206142Y-94625350D01*
X116344729Y-94597783D01*
X116414022Y-94584000D01*
X116625978Y-94584000D01*
X116695271Y-94597783D01*
X116695271Y-94597783D01*
G37*
G36*
X76695271Y-94597783D02*
G01*
X76833858Y-94625350D01*
X77029677Y-94706461D01*
X77205910Y-94824216D01*
X77355784Y-94974090D01*
X77473539Y-95150323D01*
X77554650Y-95346142D01*
X77596000Y-95554023D01*
X77596000Y-95765977D01*
X77554650Y-95973858D01*
X77473539Y-96169677D01*
X77355784Y-96345910D01*
X77205910Y-96495784D01*
X77029677Y-96613539D01*
X76833858Y-96694650D01*
X76695271Y-96722217D01*
X76625978Y-96736000D01*
X76414022Y-96736000D01*
X76344729Y-96722217D01*
X76206142Y-96694650D01*
X76010323Y-96613539D01*
X75834090Y-96495784D01*
X75684216Y-96345910D01*
X75566461Y-96169677D01*
X75485350Y-95973858D01*
X75444000Y-95765977D01*
X75444000Y-95554023D01*
X75485350Y-95346142D01*
X75566461Y-95150323D01*
X75684216Y-94974090D01*
X75834090Y-94824216D01*
X76010323Y-94706461D01*
X76206142Y-94625350D01*
X76344729Y-94597783D01*
X76414022Y-94584000D01*
X76625978Y-94584000D01*
X76695271Y-94597783D01*
X76695271Y-94597783D01*
G37*
G36*
X129806000Y-95516000D02*
G01*
X128004000Y-95516000D01*
X128004000Y-93714000D01*
X129806000Y-93714000D01*
X129806000Y-95516000D01*
X129806000Y-95516000D01*
G37*
G36*
X66306000Y-95516000D02*
G01*
X64504000Y-95516000D01*
X64504000Y-93714000D01*
X66306000Y-93714000D01*
X66306000Y-95516000D01*
X66306000Y-95516000D01*
G37*
G36*
X85367395Y-93065546D02*
G01*
X85540466Y-93137234D01*
X85540467Y-93137235D01*
X85696227Y-93241310D01*
X85828690Y-93373773D01*
X85828691Y-93373775D01*
X85932766Y-93529534D01*
X86004454Y-93702605D01*
X86041000Y-93886333D01*
X86041000Y-94073667D01*
X86004454Y-94257395D01*
X85932766Y-94430466D01*
X85932765Y-94430467D01*
X85828690Y-94586227D01*
X85696227Y-94718690D01*
X85617818Y-94771081D01*
X85540466Y-94822766D01*
X85367395Y-94894454D01*
X85183667Y-94931000D01*
X84996333Y-94931000D01*
X84812605Y-94894454D01*
X84639534Y-94822766D01*
X84562182Y-94771081D01*
X84483773Y-94718690D01*
X84351310Y-94586227D01*
X84247235Y-94430467D01*
X84247234Y-94430466D01*
X84175546Y-94257395D01*
X84139000Y-94073667D01*
X84139000Y-93886333D01*
X84175546Y-93702605D01*
X84247234Y-93529534D01*
X84351309Y-93373775D01*
X84351310Y-93373773D01*
X84483773Y-93241310D01*
X84639533Y-93137235D01*
X84639534Y-93137234D01*
X84812605Y-93065546D01*
X84996333Y-93029000D01*
X85183667Y-93029000D01*
X85367395Y-93065546D01*
X85367395Y-93065546D01*
G37*
G36*
X108227395Y-93065546D02*
G01*
X108400466Y-93137234D01*
X108400467Y-93137235D01*
X108556227Y-93241310D01*
X108688690Y-93373773D01*
X108688691Y-93373775D01*
X108792766Y-93529534D01*
X108864454Y-93702605D01*
X108901000Y-93886333D01*
X108901000Y-94073667D01*
X108864454Y-94257395D01*
X108792766Y-94430466D01*
X108792765Y-94430467D01*
X108688690Y-94586227D01*
X108556227Y-94718690D01*
X108477818Y-94771081D01*
X108400466Y-94822766D01*
X108227395Y-94894454D01*
X108043667Y-94931000D01*
X107856333Y-94931000D01*
X107672605Y-94894454D01*
X107499534Y-94822766D01*
X107422182Y-94771081D01*
X107343773Y-94718690D01*
X107211310Y-94586227D01*
X107107235Y-94430467D01*
X107107234Y-94430466D01*
X107035546Y-94257395D01*
X106999000Y-94073667D01*
X106999000Y-93886333D01*
X107035546Y-93702605D01*
X107107234Y-93529534D01*
X107211309Y-93373775D01*
X107211310Y-93373773D01*
X107343773Y-93241310D01*
X107499533Y-93137235D01*
X107499534Y-93137234D01*
X107672605Y-93065546D01*
X107856333Y-93029000D01*
X108043667Y-93029000D01*
X108227395Y-93065546D01*
X108227395Y-93065546D01*
G37*
G36*
X74171560Y-91959064D02*
G01*
X74323027Y-91989193D01*
X74537045Y-92077842D01*
X74537046Y-92077843D01*
X74729654Y-92206539D01*
X74893461Y-92370346D01*
X74979258Y-92498751D01*
X75022158Y-92562955D01*
X75110807Y-92776973D01*
X75110807Y-92776975D01*
X75156000Y-93004173D01*
X75156000Y-93235827D01*
X75154909Y-93241310D01*
X75110807Y-93463027D01*
X75022158Y-93677045D01*
X75022157Y-93677046D01*
X74893461Y-93869654D01*
X74729654Y-94033461D01*
X74669484Y-94073665D01*
X74537045Y-94162158D01*
X74323027Y-94250807D01*
X74171560Y-94280936D01*
X74095827Y-94296000D01*
X73864173Y-94296000D01*
X73788440Y-94280936D01*
X73636973Y-94250807D01*
X73422955Y-94162158D01*
X73290516Y-94073665D01*
X73230346Y-94033461D01*
X73066539Y-93869654D01*
X72937843Y-93677046D01*
X72937842Y-93677045D01*
X72849193Y-93463027D01*
X72805091Y-93241310D01*
X72804000Y-93235827D01*
X72804000Y-93004173D01*
X72849193Y-92776975D01*
X72849193Y-92776973D01*
X72937842Y-92562955D01*
X72980742Y-92498751D01*
X73066539Y-92370346D01*
X73230346Y-92206539D01*
X73422954Y-92077843D01*
X73422955Y-92077842D01*
X73636973Y-91989193D01*
X73788440Y-91959064D01*
X73864173Y-91944000D01*
X74095827Y-91944000D01*
X74171560Y-91959064D01*
X74171560Y-91959064D01*
G37*
G36*
X119251560Y-91959064D02*
G01*
X119403027Y-91989193D01*
X119617045Y-92077842D01*
X119617046Y-92077843D01*
X119809654Y-92206539D01*
X119973461Y-92370346D01*
X120059258Y-92498751D01*
X120102158Y-92562955D01*
X120190807Y-92776973D01*
X120190807Y-92776975D01*
X120236000Y-93004173D01*
X120236000Y-93235827D01*
X120234909Y-93241310D01*
X120190807Y-93463027D01*
X120102158Y-93677045D01*
X120102157Y-93677046D01*
X119973461Y-93869654D01*
X119809654Y-94033461D01*
X119749484Y-94073665D01*
X119617045Y-94162158D01*
X119403027Y-94250807D01*
X119251560Y-94280936D01*
X119175827Y-94296000D01*
X118944173Y-94296000D01*
X118868440Y-94280936D01*
X118716973Y-94250807D01*
X118502955Y-94162158D01*
X118370516Y-94073665D01*
X118310346Y-94033461D01*
X118146539Y-93869654D01*
X118017843Y-93677046D01*
X118017842Y-93677045D01*
X117929193Y-93463027D01*
X117885091Y-93241310D01*
X117884000Y-93235827D01*
X117884000Y-93004173D01*
X117929193Y-92776975D01*
X117929193Y-92776973D01*
X118017842Y-92562955D01*
X118060742Y-92498751D01*
X118146539Y-92370346D01*
X118310346Y-92206539D01*
X118502954Y-92077843D01*
X118502955Y-92077842D01*
X118716973Y-91989193D01*
X118868440Y-91959064D01*
X118944173Y-91944000D01*
X119175827Y-91944000D01*
X119251560Y-91959064D01*
X119251560Y-91959064D01*
G37*
G36*
X114171560Y-91959064D02*
G01*
X114323027Y-91989193D01*
X114537045Y-92077842D01*
X114537046Y-92077843D01*
X114729654Y-92206539D01*
X114893461Y-92370346D01*
X114979258Y-92498751D01*
X115022158Y-92562955D01*
X115110807Y-92776973D01*
X115110807Y-92776975D01*
X115156000Y-93004173D01*
X115156000Y-93235827D01*
X115154909Y-93241310D01*
X115110807Y-93463027D01*
X115022158Y-93677045D01*
X115022157Y-93677046D01*
X114893461Y-93869654D01*
X114729654Y-94033461D01*
X114669484Y-94073665D01*
X114537045Y-94162158D01*
X114323027Y-94250807D01*
X114171560Y-94280936D01*
X114095827Y-94296000D01*
X113864173Y-94296000D01*
X113788440Y-94280936D01*
X113636973Y-94250807D01*
X113422955Y-94162158D01*
X113290516Y-94073665D01*
X113230346Y-94033461D01*
X113066539Y-93869654D01*
X112937843Y-93677046D01*
X112937842Y-93677045D01*
X112849193Y-93463027D01*
X112805091Y-93241310D01*
X112804000Y-93235827D01*
X112804000Y-93004173D01*
X112849193Y-92776975D01*
X112849193Y-92776973D01*
X112937842Y-92562955D01*
X112980742Y-92498751D01*
X113066539Y-92370346D01*
X113230346Y-92206539D01*
X113422954Y-92077843D01*
X113422955Y-92077842D01*
X113636973Y-91989193D01*
X113788440Y-91959064D01*
X113864173Y-91944000D01*
X114095827Y-91944000D01*
X114171560Y-91959064D01*
X114171560Y-91959064D01*
G37*
G36*
X79251560Y-91959064D02*
G01*
X79403027Y-91989193D01*
X79617045Y-92077842D01*
X79617046Y-92077843D01*
X79809654Y-92206539D01*
X79973461Y-92370346D01*
X80059258Y-92498751D01*
X80102158Y-92562955D01*
X80190807Y-92776973D01*
X80190807Y-92776975D01*
X80236000Y-93004173D01*
X80236000Y-93235827D01*
X80234909Y-93241310D01*
X80190807Y-93463027D01*
X80102158Y-93677045D01*
X80102157Y-93677046D01*
X79973461Y-93869654D01*
X79809654Y-94033461D01*
X79749484Y-94073665D01*
X79617045Y-94162158D01*
X79403027Y-94250807D01*
X79251560Y-94280936D01*
X79175827Y-94296000D01*
X78944173Y-94296000D01*
X78868440Y-94280936D01*
X78716973Y-94250807D01*
X78502955Y-94162158D01*
X78370516Y-94073665D01*
X78310346Y-94033461D01*
X78146539Y-93869654D01*
X78017843Y-93677046D01*
X78017842Y-93677045D01*
X77929193Y-93463027D01*
X77885091Y-93241310D01*
X77884000Y-93235827D01*
X77884000Y-93004173D01*
X77929193Y-92776975D01*
X77929193Y-92776973D01*
X78017842Y-92562955D01*
X78060742Y-92498751D01*
X78146539Y-92370346D01*
X78310346Y-92206539D01*
X78502954Y-92077843D01*
X78502955Y-92077842D01*
X78716973Y-91989193D01*
X78868440Y-91959064D01*
X78944173Y-91944000D01*
X79175827Y-91944000D01*
X79251560Y-91959064D01*
X79251560Y-91959064D01*
G37*
G36*
X108227395Y-90525546D02*
G01*
X108400466Y-90597234D01*
X108400467Y-90597235D01*
X108556227Y-90701310D01*
X108688690Y-90833773D01*
X108688691Y-90833775D01*
X108792766Y-90989534D01*
X108864454Y-91162605D01*
X108901000Y-91346333D01*
X108901000Y-91533667D01*
X108864454Y-91717395D01*
X108792766Y-91890466D01*
X108792765Y-91890467D01*
X108688690Y-92046227D01*
X108556227Y-92178690D01*
X108514548Y-92206539D01*
X108400466Y-92282766D01*
X108227395Y-92354454D01*
X108043667Y-92391000D01*
X107856333Y-92391000D01*
X107672605Y-92354454D01*
X107499534Y-92282766D01*
X107385452Y-92206539D01*
X107343773Y-92178690D01*
X107211310Y-92046227D01*
X107107235Y-91890467D01*
X107107234Y-91890466D01*
X107035546Y-91717395D01*
X106999000Y-91533667D01*
X106999000Y-91346333D01*
X107035546Y-91162605D01*
X107107234Y-90989534D01*
X107211309Y-90833775D01*
X107211310Y-90833773D01*
X107343773Y-90701310D01*
X107499533Y-90597235D01*
X107499534Y-90597234D01*
X107672605Y-90525546D01*
X107856333Y-90489000D01*
X108043667Y-90489000D01*
X108227395Y-90525546D01*
X108227395Y-90525546D01*
G37*
G36*
X85367395Y-90525546D02*
G01*
X85540466Y-90597234D01*
X85540467Y-90597235D01*
X85696227Y-90701310D01*
X85828690Y-90833773D01*
X85828691Y-90833775D01*
X85932766Y-90989534D01*
X86004454Y-91162605D01*
X86041000Y-91346333D01*
X86041000Y-91533667D01*
X86004454Y-91717395D01*
X85932766Y-91890466D01*
X85932765Y-91890467D01*
X85828690Y-92046227D01*
X85696227Y-92178690D01*
X85654548Y-92206539D01*
X85540466Y-92282766D01*
X85367395Y-92354454D01*
X85183667Y-92391000D01*
X84996333Y-92391000D01*
X84812605Y-92354454D01*
X84639534Y-92282766D01*
X84525452Y-92206539D01*
X84483773Y-92178690D01*
X84351310Y-92046227D01*
X84247235Y-91890467D01*
X84247234Y-91890466D01*
X84175546Y-91717395D01*
X84139000Y-91533667D01*
X84139000Y-91346333D01*
X84175546Y-91162605D01*
X84247234Y-90989534D01*
X84351309Y-90833775D01*
X84351310Y-90833773D01*
X84483773Y-90701310D01*
X84639533Y-90597235D01*
X84639534Y-90597234D01*
X84812605Y-90525546D01*
X84996333Y-90489000D01*
X85183667Y-90489000D01*
X85367395Y-90525546D01*
X85367395Y-90525546D01*
G37*
G36*
X85367395Y-87985546D02*
G01*
X85540466Y-88057234D01*
X85540467Y-88057235D01*
X85696227Y-88161310D01*
X85828690Y-88293773D01*
X85828691Y-88293775D01*
X85932766Y-88449534D01*
X86004454Y-88622605D01*
X86041000Y-88806333D01*
X86041000Y-88993667D01*
X86004454Y-89177395D01*
X85932766Y-89350466D01*
X85932765Y-89350467D01*
X85828690Y-89506227D01*
X85696227Y-89638690D01*
X85617818Y-89691081D01*
X85540466Y-89742766D01*
X85367395Y-89814454D01*
X85183667Y-89851000D01*
X84996333Y-89851000D01*
X84812605Y-89814454D01*
X84639534Y-89742766D01*
X84562182Y-89691081D01*
X84483773Y-89638690D01*
X84351310Y-89506227D01*
X84247235Y-89350467D01*
X84247234Y-89350466D01*
X84175546Y-89177395D01*
X84139000Y-88993667D01*
X84139000Y-88806333D01*
X84175546Y-88622605D01*
X84247234Y-88449534D01*
X84351309Y-88293775D01*
X84351310Y-88293773D01*
X84483773Y-88161310D01*
X84639533Y-88057235D01*
X84639534Y-88057234D01*
X84812605Y-87985546D01*
X84996333Y-87949000D01*
X85183667Y-87949000D01*
X85367395Y-87985546D01*
X85367395Y-87985546D01*
G37*
G36*
X108227395Y-87985546D02*
G01*
X108400466Y-88057234D01*
X108400467Y-88057235D01*
X108556227Y-88161310D01*
X108688690Y-88293773D01*
X108688691Y-88293775D01*
X108792766Y-88449534D01*
X108864454Y-88622605D01*
X108901000Y-88806333D01*
X108901000Y-88993667D01*
X108864454Y-89177395D01*
X108792766Y-89350466D01*
X108792765Y-89350467D01*
X108688690Y-89506227D01*
X108556227Y-89638690D01*
X108477818Y-89691081D01*
X108400466Y-89742766D01*
X108227395Y-89814454D01*
X108043667Y-89851000D01*
X107856333Y-89851000D01*
X107672605Y-89814454D01*
X107499534Y-89742766D01*
X107422182Y-89691081D01*
X107343773Y-89638690D01*
X107211310Y-89506227D01*
X107107235Y-89350467D01*
X107107234Y-89350466D01*
X107035546Y-89177395D01*
X106999000Y-88993667D01*
X106999000Y-88806333D01*
X107035546Y-88622605D01*
X107107234Y-88449534D01*
X107211309Y-88293775D01*
X107211310Y-88293773D01*
X107343773Y-88161310D01*
X107499533Y-88057235D01*
X107499534Y-88057234D01*
X107672605Y-87985546D01*
X107856333Y-87949000D01*
X108043667Y-87949000D01*
X108227395Y-87985546D01*
X108227395Y-87985546D01*
G37*
G36*
X79652395Y-87096546D02*
G01*
X79825466Y-87168234D01*
X79825467Y-87168235D01*
X79981227Y-87272310D01*
X80113690Y-87404773D01*
X80113691Y-87404775D01*
X80217766Y-87560534D01*
X80289454Y-87733605D01*
X80326000Y-87917333D01*
X80326000Y-88104667D01*
X80289454Y-88288395D01*
X80217766Y-88461466D01*
X80217765Y-88461467D01*
X80113690Y-88617227D01*
X79981227Y-88749690D01*
X79902818Y-88802081D01*
X79825466Y-88853766D01*
X79652395Y-88925454D01*
X79468667Y-88962000D01*
X79281333Y-88962000D01*
X79097605Y-88925454D01*
X78924534Y-88853766D01*
X78847182Y-88802081D01*
X78768773Y-88749690D01*
X78636310Y-88617227D01*
X78532235Y-88461467D01*
X78532234Y-88461466D01*
X78460546Y-88288395D01*
X78424000Y-88104667D01*
X78424000Y-87917333D01*
X78460546Y-87733605D01*
X78532234Y-87560534D01*
X78636309Y-87404775D01*
X78636310Y-87404773D01*
X78768773Y-87272310D01*
X78924533Y-87168235D01*
X78924534Y-87168234D01*
X79097605Y-87096546D01*
X79281333Y-87060000D01*
X79468667Y-87060000D01*
X79652395Y-87096546D01*
X79652395Y-87096546D01*
G37*
G36*
X85367395Y-85445546D02*
G01*
X85540466Y-85517234D01*
X85540467Y-85517235D01*
X85696227Y-85621310D01*
X85828690Y-85753773D01*
X85828691Y-85753775D01*
X85932766Y-85909534D01*
X86004454Y-86082605D01*
X86041000Y-86266333D01*
X86041000Y-86453667D01*
X86004454Y-86637395D01*
X85932766Y-86810466D01*
X85932765Y-86810467D01*
X85828690Y-86966227D01*
X85696227Y-87098690D01*
X85617818Y-87151081D01*
X85540466Y-87202766D01*
X85367395Y-87274454D01*
X85183667Y-87311000D01*
X84996333Y-87311000D01*
X84812605Y-87274454D01*
X84639534Y-87202766D01*
X84562182Y-87151081D01*
X84483773Y-87098690D01*
X84351310Y-86966227D01*
X84247235Y-86810467D01*
X84247234Y-86810466D01*
X84175546Y-86637395D01*
X84139000Y-86453667D01*
X84139000Y-86266333D01*
X84175546Y-86082605D01*
X84247234Y-85909534D01*
X84351309Y-85753775D01*
X84351310Y-85753773D01*
X84483773Y-85621310D01*
X84639533Y-85517235D01*
X84639534Y-85517234D01*
X84812605Y-85445546D01*
X84996333Y-85409000D01*
X85183667Y-85409000D01*
X85367395Y-85445546D01*
X85367395Y-85445546D01*
G37*
G36*
X98067395Y-85445546D02*
G01*
X98240466Y-85517234D01*
X98240467Y-85517235D01*
X98396227Y-85621310D01*
X98528690Y-85753773D01*
X98528691Y-85753775D01*
X98632766Y-85909534D01*
X98704454Y-86082605D01*
X98741000Y-86266333D01*
X98741000Y-86453667D01*
X98704454Y-86637395D01*
X98632766Y-86810466D01*
X98632765Y-86810467D01*
X98528690Y-86966227D01*
X98396227Y-87098690D01*
X98317818Y-87151081D01*
X98240466Y-87202766D01*
X98067395Y-87274454D01*
X97883667Y-87311000D01*
X97696333Y-87311000D01*
X97512605Y-87274454D01*
X97339534Y-87202766D01*
X97262182Y-87151081D01*
X97183773Y-87098690D01*
X97051310Y-86966227D01*
X96947235Y-86810467D01*
X96947234Y-86810466D01*
X96875546Y-86637395D01*
X96839000Y-86453667D01*
X96839000Y-86266333D01*
X96875546Y-86082605D01*
X96947234Y-85909534D01*
X97051309Y-85753775D01*
X97051310Y-85753773D01*
X97183773Y-85621310D01*
X97339533Y-85517235D01*
X97339534Y-85517234D01*
X97512605Y-85445546D01*
X97696333Y-85409000D01*
X97883667Y-85409000D01*
X98067395Y-85445546D01*
X98067395Y-85445546D01*
G37*
G36*
X95527395Y-85445546D02*
G01*
X95700466Y-85517234D01*
X95700467Y-85517235D01*
X95856227Y-85621310D01*
X95988690Y-85753773D01*
X95988691Y-85753775D01*
X96092766Y-85909534D01*
X96164454Y-86082605D01*
X96201000Y-86266333D01*
X96201000Y-86453667D01*
X96164454Y-86637395D01*
X96092766Y-86810466D01*
X96092765Y-86810467D01*
X95988690Y-86966227D01*
X95856227Y-87098690D01*
X95777818Y-87151081D01*
X95700466Y-87202766D01*
X95527395Y-87274454D01*
X95343667Y-87311000D01*
X95156333Y-87311000D01*
X94972605Y-87274454D01*
X94799534Y-87202766D01*
X94722182Y-87151081D01*
X94643773Y-87098690D01*
X94511310Y-86966227D01*
X94407235Y-86810467D01*
X94407234Y-86810466D01*
X94335546Y-86637395D01*
X94299000Y-86453667D01*
X94299000Y-86266333D01*
X94335546Y-86082605D01*
X94407234Y-85909534D01*
X94511309Y-85753775D01*
X94511310Y-85753773D01*
X94643773Y-85621310D01*
X94799533Y-85517235D01*
X94799534Y-85517234D01*
X94972605Y-85445546D01*
X95156333Y-85409000D01*
X95343667Y-85409000D01*
X95527395Y-85445546D01*
X95527395Y-85445546D01*
G37*
G36*
X92987395Y-85445546D02*
G01*
X93160466Y-85517234D01*
X93160467Y-85517235D01*
X93316227Y-85621310D01*
X93448690Y-85753773D01*
X93448691Y-85753775D01*
X93552766Y-85909534D01*
X93624454Y-86082605D01*
X93661000Y-86266333D01*
X93661000Y-86453667D01*
X93624454Y-86637395D01*
X93552766Y-86810466D01*
X93552765Y-86810467D01*
X93448690Y-86966227D01*
X93316227Y-87098690D01*
X93237818Y-87151081D01*
X93160466Y-87202766D01*
X92987395Y-87274454D01*
X92803667Y-87311000D01*
X92616333Y-87311000D01*
X92432605Y-87274454D01*
X92259534Y-87202766D01*
X92182182Y-87151081D01*
X92103773Y-87098690D01*
X91971310Y-86966227D01*
X91867235Y-86810467D01*
X91867234Y-86810466D01*
X91795546Y-86637395D01*
X91759000Y-86453667D01*
X91759000Y-86266333D01*
X91795546Y-86082605D01*
X91867234Y-85909534D01*
X91971309Y-85753775D01*
X91971310Y-85753773D01*
X92103773Y-85621310D01*
X92259533Y-85517235D01*
X92259534Y-85517234D01*
X92432605Y-85445546D01*
X92616333Y-85409000D01*
X92803667Y-85409000D01*
X92987395Y-85445546D01*
X92987395Y-85445546D01*
G37*
G36*
X108227395Y-85445546D02*
G01*
X108400466Y-85517234D01*
X108400467Y-85517235D01*
X108556227Y-85621310D01*
X108688690Y-85753773D01*
X108688691Y-85753775D01*
X108792766Y-85909534D01*
X108864454Y-86082605D01*
X108901000Y-86266333D01*
X108901000Y-86453667D01*
X108864454Y-86637395D01*
X108792766Y-86810466D01*
X108792765Y-86810467D01*
X108688690Y-86966227D01*
X108556227Y-87098690D01*
X108477818Y-87151081D01*
X108400466Y-87202766D01*
X108227395Y-87274454D01*
X108043667Y-87311000D01*
X107856333Y-87311000D01*
X107672605Y-87274454D01*
X107499534Y-87202766D01*
X107422182Y-87151081D01*
X107343773Y-87098690D01*
X107211310Y-86966227D01*
X107107235Y-86810467D01*
X107107234Y-86810466D01*
X107035546Y-86637395D01*
X106999000Y-86453667D01*
X106999000Y-86266333D01*
X107035546Y-86082605D01*
X107107234Y-85909534D01*
X107211309Y-85753775D01*
X107211310Y-85753773D01*
X107343773Y-85621310D01*
X107499533Y-85517235D01*
X107499534Y-85517234D01*
X107672605Y-85445546D01*
X107856333Y-85409000D01*
X108043667Y-85409000D01*
X108227395Y-85445546D01*
X108227395Y-85445546D01*
G37*
G36*
X100607395Y-85445546D02*
G01*
X100780466Y-85517234D01*
X100780467Y-85517235D01*
X100936227Y-85621310D01*
X101068690Y-85753773D01*
X101068691Y-85753775D01*
X101172766Y-85909534D01*
X101244454Y-86082605D01*
X101281000Y-86266333D01*
X101281000Y-86453667D01*
X101244454Y-86637395D01*
X101172766Y-86810466D01*
X101172765Y-86810467D01*
X101068690Y-86966227D01*
X100936227Y-87098690D01*
X100857818Y-87151081D01*
X100780466Y-87202766D01*
X100607395Y-87274454D01*
X100423667Y-87311000D01*
X100236333Y-87311000D01*
X100052605Y-87274454D01*
X99879534Y-87202766D01*
X99802182Y-87151081D01*
X99723773Y-87098690D01*
X99591310Y-86966227D01*
X99487235Y-86810467D01*
X99487234Y-86810466D01*
X99415546Y-86637395D01*
X99379000Y-86453667D01*
X99379000Y-86266333D01*
X99415546Y-86082605D01*
X99487234Y-85909534D01*
X99591309Y-85753775D01*
X99591310Y-85753773D01*
X99723773Y-85621310D01*
X99879533Y-85517235D01*
X99879534Y-85517234D01*
X100052605Y-85445546D01*
X100236333Y-85409000D01*
X100423667Y-85409000D01*
X100607395Y-85445546D01*
X100607395Y-85445546D01*
G37*
G36*
X122451395Y-84937546D02*
G01*
X122624466Y-85009234D01*
X122701818Y-85060919D01*
X122780227Y-85113310D01*
X122912690Y-85245773D01*
X122912691Y-85245775D01*
X123016766Y-85401534D01*
X123088454Y-85574605D01*
X123125000Y-85758333D01*
X123125000Y-85945667D01*
X123088454Y-86129395D01*
X123016766Y-86302466D01*
X122965081Y-86379818D01*
X122912690Y-86458227D01*
X122780227Y-86590690D01*
X122710328Y-86637395D01*
X122624466Y-86694766D01*
X122451395Y-86766454D01*
X122267667Y-86803000D01*
X122080333Y-86803000D01*
X121896605Y-86766454D01*
X121723534Y-86694766D01*
X121637672Y-86637395D01*
X121567773Y-86590690D01*
X121435310Y-86458227D01*
X121382919Y-86379818D01*
X121331234Y-86302466D01*
X121259546Y-86129395D01*
X121223000Y-85945667D01*
X121223000Y-85758333D01*
X121259546Y-85574605D01*
X121331234Y-85401534D01*
X121435309Y-85245775D01*
X121435310Y-85245773D01*
X121567773Y-85113310D01*
X121646182Y-85060919D01*
X121723534Y-85009234D01*
X121896605Y-84937546D01*
X122080333Y-84901000D01*
X122267667Y-84901000D01*
X122451395Y-84937546D01*
X122451395Y-84937546D01*
G37*
G36*
X79652395Y-84556546D02*
G01*
X79825466Y-84628234D01*
X79825467Y-84628235D01*
X79981227Y-84732310D01*
X80113690Y-84864773D01*
X80113691Y-84864775D01*
X80217766Y-85020534D01*
X80289454Y-85193605D01*
X80326000Y-85377333D01*
X80326000Y-85564667D01*
X80289454Y-85748395D01*
X80217766Y-85921466D01*
X80201595Y-85945667D01*
X80113690Y-86077227D01*
X79981227Y-86209690D01*
X79902818Y-86262081D01*
X79825466Y-86313766D01*
X79652395Y-86385454D01*
X79468667Y-86422000D01*
X79281333Y-86422000D01*
X79097605Y-86385454D01*
X78924534Y-86313766D01*
X78847182Y-86262081D01*
X78768773Y-86209690D01*
X78636310Y-86077227D01*
X78548405Y-85945667D01*
X78532234Y-85921466D01*
X78460546Y-85748395D01*
X78424000Y-85564667D01*
X78424000Y-85377333D01*
X78460546Y-85193605D01*
X78532234Y-85020534D01*
X78636309Y-84864775D01*
X78636310Y-84864773D01*
X78768773Y-84732310D01*
X78924533Y-84628235D01*
X78924534Y-84628234D01*
X79097605Y-84556546D01*
X79281333Y-84520000D01*
X79468667Y-84520000D01*
X79652395Y-84556546D01*
X79652395Y-84556546D01*
G37*
G36*
X108227395Y-82905546D02*
G01*
X108400466Y-82977234D01*
X108400467Y-82977235D01*
X108556227Y-83081310D01*
X108688690Y-83213773D01*
X108688691Y-83213775D01*
X108792766Y-83369534D01*
X108864454Y-83542605D01*
X108901000Y-83726333D01*
X108901000Y-83913667D01*
X108864454Y-84097395D01*
X108792766Y-84270466D01*
X108792765Y-84270467D01*
X108688690Y-84426227D01*
X108556227Y-84558690D01*
X108477818Y-84611081D01*
X108400466Y-84662766D01*
X108227395Y-84734454D01*
X108043667Y-84771000D01*
X107856333Y-84771000D01*
X107672605Y-84734454D01*
X107499534Y-84662766D01*
X107422182Y-84611081D01*
X107343773Y-84558690D01*
X107211310Y-84426227D01*
X107107235Y-84270467D01*
X107107234Y-84270466D01*
X107035546Y-84097395D01*
X106999000Y-83913667D01*
X106999000Y-83726333D01*
X107035546Y-83542605D01*
X107107234Y-83369534D01*
X107211309Y-83213775D01*
X107211310Y-83213773D01*
X107343773Y-83081310D01*
X107499533Y-82977235D01*
X107499534Y-82977234D01*
X107672605Y-82905546D01*
X107856333Y-82869000D01*
X108043667Y-82869000D01*
X108227395Y-82905546D01*
X108227395Y-82905546D01*
G37*
G36*
X85367395Y-82905546D02*
G01*
X85540466Y-82977234D01*
X85540467Y-82977235D01*
X85696227Y-83081310D01*
X85828690Y-83213773D01*
X85828691Y-83213775D01*
X85932766Y-83369534D01*
X86004454Y-83542605D01*
X86041000Y-83726333D01*
X86041000Y-83913667D01*
X86004454Y-84097395D01*
X85932766Y-84270466D01*
X85932765Y-84270467D01*
X85828690Y-84426227D01*
X85696227Y-84558690D01*
X85617818Y-84611081D01*
X85540466Y-84662766D01*
X85367395Y-84734454D01*
X85183667Y-84771000D01*
X84996333Y-84771000D01*
X84812605Y-84734454D01*
X84639534Y-84662766D01*
X84562182Y-84611081D01*
X84483773Y-84558690D01*
X84351310Y-84426227D01*
X84247235Y-84270467D01*
X84247234Y-84270466D01*
X84175546Y-84097395D01*
X84139000Y-83913667D01*
X84139000Y-83726333D01*
X84175546Y-83542605D01*
X84247234Y-83369534D01*
X84351309Y-83213775D01*
X84351310Y-83213773D01*
X84483773Y-83081310D01*
X84639533Y-82977235D01*
X84639534Y-82977234D01*
X84812605Y-82905546D01*
X84996333Y-82869000D01*
X85183667Y-82869000D01*
X85367395Y-82905546D01*
X85367395Y-82905546D01*
G37*
G36*
X108227395Y-80365546D02*
G01*
X108400466Y-80437234D01*
X108400467Y-80437235D01*
X108556227Y-80541310D01*
X108688690Y-80673773D01*
X108688691Y-80673775D01*
X108792766Y-80829534D01*
X108864454Y-81002605D01*
X108901000Y-81186333D01*
X108901000Y-81373667D01*
X108864454Y-81557395D01*
X108792766Y-81730466D01*
X108792765Y-81730467D01*
X108688690Y-81886227D01*
X108556227Y-82018690D01*
X108477818Y-82071081D01*
X108400466Y-82122766D01*
X108227395Y-82194454D01*
X108043667Y-82231000D01*
X107856333Y-82231000D01*
X107672605Y-82194454D01*
X107499534Y-82122766D01*
X107422182Y-82071081D01*
X107343773Y-82018690D01*
X107211310Y-81886227D01*
X107107235Y-81730467D01*
X107107234Y-81730466D01*
X107035546Y-81557395D01*
X106999000Y-81373667D01*
X106999000Y-81186333D01*
X107035546Y-81002605D01*
X107107234Y-80829534D01*
X107211309Y-80673775D01*
X107211310Y-80673773D01*
X107343773Y-80541310D01*
X107499533Y-80437235D01*
X107499534Y-80437234D01*
X107672605Y-80365546D01*
X107856333Y-80329000D01*
X108043667Y-80329000D01*
X108227395Y-80365546D01*
X108227395Y-80365546D01*
G37*
G36*
X85367395Y-80365546D02*
G01*
X85540466Y-80437234D01*
X85540467Y-80437235D01*
X85696227Y-80541310D01*
X85828690Y-80673773D01*
X85828691Y-80673775D01*
X85932766Y-80829534D01*
X86004454Y-81002605D01*
X86041000Y-81186333D01*
X86041000Y-81373667D01*
X86004454Y-81557395D01*
X85932766Y-81730466D01*
X85932765Y-81730467D01*
X85828690Y-81886227D01*
X85696227Y-82018690D01*
X85617818Y-82071081D01*
X85540466Y-82122766D01*
X85367395Y-82194454D01*
X85183667Y-82231000D01*
X84996333Y-82231000D01*
X84812605Y-82194454D01*
X84639534Y-82122766D01*
X84562182Y-82071081D01*
X84483773Y-82018690D01*
X84351310Y-81886227D01*
X84247235Y-81730467D01*
X84247234Y-81730466D01*
X84175546Y-81557395D01*
X84139000Y-81373667D01*
X84139000Y-81186333D01*
X84175546Y-81002605D01*
X84247234Y-80829534D01*
X84351309Y-80673775D01*
X84351310Y-80673773D01*
X84483773Y-80541310D01*
X84639533Y-80437235D01*
X84639534Y-80437234D01*
X84812605Y-80365546D01*
X84996333Y-80329000D01*
X85183667Y-80329000D01*
X85367395Y-80365546D01*
X85367395Y-80365546D01*
G37*
G36*
X108227395Y-77825546D02*
G01*
X108400466Y-77897234D01*
X108400467Y-77897235D01*
X108556227Y-78001310D01*
X108688690Y-78133773D01*
X108688691Y-78133775D01*
X108792766Y-78289534D01*
X108864454Y-78462605D01*
X108901000Y-78646333D01*
X108901000Y-78833667D01*
X108864454Y-79017395D01*
X108792766Y-79190466D01*
X108792765Y-79190467D01*
X108688690Y-79346227D01*
X108556227Y-79478690D01*
X108477818Y-79531081D01*
X108400466Y-79582766D01*
X108227395Y-79654454D01*
X108043667Y-79691000D01*
X107856333Y-79691000D01*
X107672605Y-79654454D01*
X107499534Y-79582766D01*
X107422182Y-79531081D01*
X107343773Y-79478690D01*
X107211310Y-79346227D01*
X107107235Y-79190467D01*
X107107234Y-79190466D01*
X107035546Y-79017395D01*
X106999000Y-78833667D01*
X106999000Y-78646333D01*
X107035546Y-78462605D01*
X107107234Y-78289534D01*
X107211309Y-78133775D01*
X107211310Y-78133773D01*
X107343773Y-78001310D01*
X107499533Y-77897235D01*
X107499534Y-77897234D01*
X107672605Y-77825546D01*
X107856333Y-77789000D01*
X108043667Y-77789000D01*
X108227395Y-77825546D01*
X108227395Y-77825546D01*
G37*
G36*
X85367395Y-77825546D02*
G01*
X85540466Y-77897234D01*
X85540467Y-77897235D01*
X85696227Y-78001310D01*
X85828690Y-78133773D01*
X85828691Y-78133775D01*
X85932766Y-78289534D01*
X86004454Y-78462605D01*
X86041000Y-78646333D01*
X86041000Y-78833667D01*
X86004454Y-79017395D01*
X85932766Y-79190466D01*
X85932765Y-79190467D01*
X85828690Y-79346227D01*
X85696227Y-79478690D01*
X85617818Y-79531081D01*
X85540466Y-79582766D01*
X85367395Y-79654454D01*
X85183667Y-79691000D01*
X84996333Y-79691000D01*
X84812605Y-79654454D01*
X84639534Y-79582766D01*
X84562182Y-79531081D01*
X84483773Y-79478690D01*
X84351310Y-79346227D01*
X84247235Y-79190467D01*
X84247234Y-79190466D01*
X84175546Y-79017395D01*
X84139000Y-78833667D01*
X84139000Y-78646333D01*
X84175546Y-78462605D01*
X84247234Y-78289534D01*
X84351309Y-78133775D01*
X84351310Y-78133773D01*
X84483773Y-78001310D01*
X84639533Y-77897235D01*
X84639534Y-77897234D01*
X84812605Y-77825546D01*
X84996333Y-77789000D01*
X85183667Y-77789000D01*
X85367395Y-77825546D01*
X85367395Y-77825546D01*
G37*
G36*
X108227395Y-75285546D02*
G01*
X108400466Y-75357234D01*
X108477818Y-75408919D01*
X108556227Y-75461310D01*
X108688690Y-75593773D01*
X108688691Y-75593775D01*
X108792766Y-75749534D01*
X108864454Y-75922605D01*
X108901000Y-76106333D01*
X108901000Y-76293667D01*
X108864454Y-76477395D01*
X108792766Y-76650466D01*
X108792765Y-76650467D01*
X108688690Y-76806227D01*
X108556227Y-76938690D01*
X108477818Y-76991081D01*
X108400466Y-77042766D01*
X108227395Y-77114454D01*
X108043667Y-77151000D01*
X107856333Y-77151000D01*
X107672605Y-77114454D01*
X107499534Y-77042766D01*
X107422182Y-76991081D01*
X107343773Y-76938690D01*
X107211310Y-76806227D01*
X107107235Y-76650467D01*
X107107234Y-76650466D01*
X107035546Y-76477395D01*
X106999000Y-76293667D01*
X106999000Y-76106333D01*
X107035546Y-75922605D01*
X107107234Y-75749534D01*
X107211309Y-75593775D01*
X107211310Y-75593773D01*
X107343773Y-75461310D01*
X107422182Y-75408919D01*
X107499534Y-75357234D01*
X107672605Y-75285546D01*
X107856333Y-75249000D01*
X108043667Y-75249000D01*
X108227395Y-75285546D01*
X108227395Y-75285546D01*
G37*
G36*
X85367395Y-75285546D02*
G01*
X85540466Y-75357234D01*
X85617818Y-75408919D01*
X85696227Y-75461310D01*
X85828690Y-75593773D01*
X85828691Y-75593775D01*
X85932766Y-75749534D01*
X86004454Y-75922605D01*
X86041000Y-76106333D01*
X86041000Y-76293667D01*
X86004454Y-76477395D01*
X85932766Y-76650466D01*
X85932765Y-76650467D01*
X85828690Y-76806227D01*
X85696227Y-76938690D01*
X85617818Y-76991081D01*
X85540466Y-77042766D01*
X85367395Y-77114454D01*
X85183667Y-77151000D01*
X84996333Y-77151000D01*
X84812605Y-77114454D01*
X84639534Y-77042766D01*
X84562182Y-76991081D01*
X84483773Y-76938690D01*
X84351310Y-76806227D01*
X84247235Y-76650467D01*
X84247234Y-76650466D01*
X84175546Y-76477395D01*
X84139000Y-76293667D01*
X84139000Y-76106333D01*
X84175546Y-75922605D01*
X84247234Y-75749534D01*
X84351309Y-75593775D01*
X84351310Y-75593773D01*
X84483773Y-75461310D01*
X84562182Y-75408919D01*
X84639534Y-75357234D01*
X84812605Y-75285546D01*
X84996333Y-75249000D01*
X85183667Y-75249000D01*
X85367395Y-75285546D01*
X85367395Y-75285546D01*
G37*
G36*
X54291000Y-75881000D02*
G01*
X52389000Y-75881000D01*
X52389000Y-73979000D01*
X54291000Y-73979000D01*
X54291000Y-75881000D01*
X54291000Y-75881000D01*
G37*
G36*
X139977395Y-74015546D02*
G01*
X140150466Y-74087234D01*
X140227818Y-74138919D01*
X140306227Y-74191310D01*
X140438690Y-74323773D01*
X140438691Y-74323775D01*
X140542766Y-74479534D01*
X140614454Y-74652605D01*
X140651000Y-74836333D01*
X140651000Y-75023667D01*
X140614454Y-75207395D01*
X140542766Y-75380466D01*
X140542765Y-75380467D01*
X140438690Y-75536227D01*
X140306227Y-75668690D01*
X140227818Y-75721081D01*
X140150466Y-75772766D01*
X139977395Y-75844454D01*
X139793667Y-75881000D01*
X139606333Y-75881000D01*
X139422605Y-75844454D01*
X139249534Y-75772766D01*
X139172182Y-75721081D01*
X139093773Y-75668690D01*
X138961310Y-75536227D01*
X138857235Y-75380467D01*
X138857234Y-75380466D01*
X138785546Y-75207395D01*
X138749000Y-75023667D01*
X138749000Y-74836333D01*
X138785546Y-74652605D01*
X138857234Y-74479534D01*
X138961309Y-74323775D01*
X138961310Y-74323773D01*
X139093773Y-74191310D01*
X139172182Y-74138919D01*
X139249534Y-74087234D01*
X139422605Y-74015546D01*
X139606333Y-73979000D01*
X139793667Y-73979000D01*
X139977395Y-74015546D01*
X139977395Y-74015546D01*
G37*
G36*
X85367395Y-72745546D02*
G01*
X85540466Y-72817234D01*
X85617818Y-72868919D01*
X85696227Y-72921310D01*
X85828690Y-73053773D01*
X85828691Y-73053775D01*
X85932766Y-73209534D01*
X86004454Y-73382605D01*
X86041000Y-73566333D01*
X86041000Y-73753667D01*
X86004454Y-73937395D01*
X85932766Y-74110466D01*
X85932765Y-74110467D01*
X85828690Y-74266227D01*
X85696227Y-74398690D01*
X85617818Y-74451081D01*
X85540466Y-74502766D01*
X85367395Y-74574454D01*
X85183667Y-74611000D01*
X84996333Y-74611000D01*
X84812605Y-74574454D01*
X84639534Y-74502766D01*
X84562182Y-74451081D01*
X84483773Y-74398690D01*
X84351310Y-74266227D01*
X84247235Y-74110467D01*
X84247234Y-74110466D01*
X84175546Y-73937395D01*
X84139000Y-73753667D01*
X84139000Y-73566333D01*
X84175546Y-73382605D01*
X84247234Y-73209534D01*
X84351309Y-73053775D01*
X84351310Y-73053773D01*
X84483773Y-72921310D01*
X84562182Y-72868919D01*
X84639534Y-72817234D01*
X84812605Y-72745546D01*
X84996333Y-72709000D01*
X85183667Y-72709000D01*
X85367395Y-72745546D01*
X85367395Y-72745546D01*
G37*
G36*
X108227395Y-72745546D02*
G01*
X108400466Y-72817234D01*
X108477818Y-72868919D01*
X108556227Y-72921310D01*
X108688690Y-73053773D01*
X108688691Y-73053775D01*
X108792766Y-73209534D01*
X108864454Y-73382605D01*
X108901000Y-73566333D01*
X108901000Y-73753667D01*
X108864454Y-73937395D01*
X108792766Y-74110466D01*
X108792765Y-74110467D01*
X108688690Y-74266227D01*
X108556227Y-74398690D01*
X108477818Y-74451081D01*
X108400466Y-74502766D01*
X108227395Y-74574454D01*
X108043667Y-74611000D01*
X107856333Y-74611000D01*
X107672605Y-74574454D01*
X107499534Y-74502766D01*
X107422182Y-74451081D01*
X107343773Y-74398690D01*
X107211310Y-74266227D01*
X107107235Y-74110467D01*
X107107234Y-74110466D01*
X107035546Y-73937395D01*
X106999000Y-73753667D01*
X106999000Y-73566333D01*
X107035546Y-73382605D01*
X107107234Y-73209534D01*
X107211309Y-73053775D01*
X107211310Y-73053773D01*
X107343773Y-72921310D01*
X107422182Y-72868919D01*
X107499534Y-72817234D01*
X107672605Y-72745546D01*
X107856333Y-72709000D01*
X108043667Y-72709000D01*
X108227395Y-72745546D01*
X108227395Y-72745546D01*
G37*
G36*
X115212395Y-72110546D02*
G01*
X115385466Y-72182234D01*
X115385467Y-72182235D01*
X115541227Y-72286310D01*
X115673690Y-72418773D01*
X115673691Y-72418775D01*
X115777766Y-72574534D01*
X115849454Y-72747605D01*
X115886000Y-72931333D01*
X115886000Y-73118667D01*
X115849454Y-73302395D01*
X115777766Y-73475466D01*
X115777765Y-73475467D01*
X115673690Y-73631227D01*
X115541227Y-73763690D01*
X115462818Y-73816081D01*
X115385466Y-73867766D01*
X115212395Y-73939454D01*
X115028667Y-73976000D01*
X114841333Y-73976000D01*
X114657605Y-73939454D01*
X114484534Y-73867766D01*
X114407182Y-73816081D01*
X114328773Y-73763690D01*
X114196310Y-73631227D01*
X114092235Y-73475467D01*
X114092234Y-73475466D01*
X114020546Y-73302395D01*
X113984000Y-73118667D01*
X113984000Y-72931333D01*
X114020546Y-72747605D01*
X114092234Y-72574534D01*
X114196309Y-72418775D01*
X114196310Y-72418773D01*
X114328773Y-72286310D01*
X114484533Y-72182235D01*
X114484534Y-72182234D01*
X114657605Y-72110546D01*
X114841333Y-72074000D01*
X115028667Y-72074000D01*
X115212395Y-72110546D01*
X115212395Y-72110546D01*
G37*
G36*
X117752395Y-72110546D02*
G01*
X117925466Y-72182234D01*
X117925467Y-72182235D01*
X118081227Y-72286310D01*
X118213690Y-72418773D01*
X118213691Y-72418775D01*
X118317766Y-72574534D01*
X118389454Y-72747605D01*
X118426000Y-72931333D01*
X118426000Y-73118667D01*
X118389454Y-73302395D01*
X118317766Y-73475466D01*
X118317765Y-73475467D01*
X118213690Y-73631227D01*
X118081227Y-73763690D01*
X118002818Y-73816081D01*
X117925466Y-73867766D01*
X117752395Y-73939454D01*
X117568667Y-73976000D01*
X117381333Y-73976000D01*
X117197605Y-73939454D01*
X117024534Y-73867766D01*
X116947182Y-73816081D01*
X116868773Y-73763690D01*
X116736310Y-73631227D01*
X116632235Y-73475467D01*
X116632234Y-73475466D01*
X116560546Y-73302395D01*
X116524000Y-73118667D01*
X116524000Y-72931333D01*
X116560546Y-72747605D01*
X116632234Y-72574534D01*
X116736309Y-72418775D01*
X116736310Y-72418773D01*
X116868773Y-72286310D01*
X117024533Y-72182235D01*
X117024534Y-72182234D01*
X117197605Y-72110546D01*
X117381333Y-72074000D01*
X117568667Y-72074000D01*
X117752395Y-72110546D01*
X117752395Y-72110546D01*
G37*
G36*
X120292395Y-72110546D02*
G01*
X120465466Y-72182234D01*
X120465467Y-72182235D01*
X120621227Y-72286310D01*
X120753690Y-72418773D01*
X120753691Y-72418775D01*
X120857766Y-72574534D01*
X120929454Y-72747605D01*
X120966000Y-72931333D01*
X120966000Y-73118667D01*
X120929454Y-73302395D01*
X120857766Y-73475466D01*
X120857765Y-73475467D01*
X120753690Y-73631227D01*
X120621227Y-73763690D01*
X120542818Y-73816081D01*
X120465466Y-73867766D01*
X120292395Y-73939454D01*
X120108667Y-73976000D01*
X119921333Y-73976000D01*
X119737605Y-73939454D01*
X119564534Y-73867766D01*
X119487182Y-73816081D01*
X119408773Y-73763690D01*
X119276310Y-73631227D01*
X119172235Y-73475467D01*
X119172234Y-73475466D01*
X119100546Y-73302395D01*
X119064000Y-73118667D01*
X119064000Y-72931333D01*
X119100546Y-72747605D01*
X119172234Y-72574534D01*
X119276309Y-72418775D01*
X119276310Y-72418773D01*
X119408773Y-72286310D01*
X119564533Y-72182235D01*
X119564534Y-72182234D01*
X119737605Y-72110546D01*
X119921333Y-72074000D01*
X120108667Y-72074000D01*
X120292395Y-72110546D01*
X120292395Y-72110546D01*
G37*
G36*
X140651000Y-73341000D02*
G01*
X138749000Y-73341000D01*
X138749000Y-71439000D01*
X140651000Y-71439000D01*
X140651000Y-73341000D01*
X140651000Y-73341000D01*
G37*
G36*
X53617395Y-71475546D02*
G01*
X53790466Y-71547234D01*
X53790467Y-71547235D01*
X53946227Y-71651310D01*
X54078690Y-71783773D01*
X54078691Y-71783775D01*
X54182766Y-71939534D01*
X54254454Y-72112605D01*
X54291000Y-72296333D01*
X54291000Y-72483667D01*
X54254454Y-72667395D01*
X54182766Y-72840466D01*
X54182765Y-72840467D01*
X54078690Y-72996227D01*
X53946227Y-73128690D01*
X53867818Y-73181081D01*
X53790466Y-73232766D01*
X53617395Y-73304454D01*
X53433667Y-73341000D01*
X53246333Y-73341000D01*
X53062605Y-73304454D01*
X52889534Y-73232766D01*
X52812182Y-73181081D01*
X52733773Y-73128690D01*
X52601310Y-72996227D01*
X52497235Y-72840467D01*
X52497234Y-72840466D01*
X52425546Y-72667395D01*
X52389000Y-72483667D01*
X52389000Y-72296333D01*
X52425546Y-72112605D01*
X52497234Y-71939534D01*
X52601309Y-71783775D01*
X52601310Y-71783773D01*
X52733773Y-71651310D01*
X52889533Y-71547235D01*
X52889534Y-71547234D01*
X53062605Y-71475546D01*
X53246333Y-71439000D01*
X53433667Y-71439000D01*
X53617395Y-71475546D01*
X53617395Y-71475546D01*
G37*
G36*
X99337395Y-67665546D02*
G01*
X99510466Y-67737234D01*
X99510467Y-67737235D01*
X99666227Y-67841310D01*
X99798690Y-67973773D01*
X99798691Y-67973775D01*
X99902766Y-68129534D01*
X99974454Y-68302605D01*
X100011000Y-68486333D01*
X100011000Y-68673667D01*
X99974454Y-68857395D01*
X99902766Y-69030466D01*
X99902765Y-69030467D01*
X99798690Y-69186227D01*
X99666227Y-69318690D01*
X99587818Y-69371081D01*
X99510466Y-69422766D01*
X99337395Y-69494454D01*
X99153667Y-69531000D01*
X98966333Y-69531000D01*
X98782605Y-69494454D01*
X98609534Y-69422766D01*
X98532182Y-69371081D01*
X98453773Y-69318690D01*
X98321310Y-69186227D01*
X98217235Y-69030467D01*
X98217234Y-69030466D01*
X98145546Y-68857395D01*
X98109000Y-68673667D01*
X98109000Y-68486333D01*
X98145546Y-68302605D01*
X98217234Y-68129534D01*
X98321309Y-67973775D01*
X98321310Y-67973773D01*
X98453773Y-67841310D01*
X98609533Y-67737235D01*
X98609534Y-67737234D01*
X98782605Y-67665546D01*
X98966333Y-67629000D01*
X99153667Y-67629000D01*
X99337395Y-67665546D01*
X99337395Y-67665546D01*
G37*
G36*
X94257395Y-67665546D02*
G01*
X94430466Y-67737234D01*
X94430467Y-67737235D01*
X94586227Y-67841310D01*
X94718690Y-67973773D01*
X94718691Y-67973775D01*
X94822766Y-68129534D01*
X94894454Y-68302605D01*
X94931000Y-68486333D01*
X94931000Y-68673667D01*
X94894454Y-68857395D01*
X94822766Y-69030466D01*
X94822765Y-69030467D01*
X94718690Y-69186227D01*
X94586227Y-69318690D01*
X94507818Y-69371081D01*
X94430466Y-69422766D01*
X94257395Y-69494454D01*
X94073667Y-69531000D01*
X93886333Y-69531000D01*
X93702605Y-69494454D01*
X93529534Y-69422766D01*
X93452182Y-69371081D01*
X93373773Y-69318690D01*
X93241310Y-69186227D01*
X93137235Y-69030467D01*
X93137234Y-69030466D01*
X93065546Y-68857395D01*
X93029000Y-68673667D01*
X93029000Y-68486333D01*
X93065546Y-68302605D01*
X93137234Y-68129534D01*
X93241309Y-67973775D01*
X93241310Y-67973773D01*
X93373773Y-67841310D01*
X93529533Y-67737235D01*
X93529534Y-67737234D01*
X93702605Y-67665546D01*
X93886333Y-67629000D01*
X94073667Y-67629000D01*
X94257395Y-67665546D01*
X94257395Y-67665546D01*
G37*
G36*
X96797395Y-67665546D02*
G01*
X96970466Y-67737234D01*
X96970467Y-67737235D01*
X97126227Y-67841310D01*
X97258690Y-67973773D01*
X97258691Y-67973775D01*
X97362766Y-68129534D01*
X97434454Y-68302605D01*
X97471000Y-68486333D01*
X97471000Y-68673667D01*
X97434454Y-68857395D01*
X97362766Y-69030466D01*
X97362765Y-69030467D01*
X97258690Y-69186227D01*
X97126227Y-69318690D01*
X97047818Y-69371081D01*
X96970466Y-69422766D01*
X96797395Y-69494454D01*
X96613667Y-69531000D01*
X96426333Y-69531000D01*
X96242605Y-69494454D01*
X96069534Y-69422766D01*
X95992182Y-69371081D01*
X95913773Y-69318690D01*
X95781310Y-69186227D01*
X95677235Y-69030467D01*
X95677234Y-69030466D01*
X95605546Y-68857395D01*
X95569000Y-68673667D01*
X95569000Y-68486333D01*
X95605546Y-68302605D01*
X95677234Y-68129534D01*
X95781309Y-67973775D01*
X95781310Y-67973773D01*
X95913773Y-67841310D01*
X96069533Y-67737235D01*
X96069534Y-67737234D01*
X96242605Y-67665546D01*
X96426333Y-67629000D01*
X96613667Y-67629000D01*
X96797395Y-67665546D01*
X96797395Y-67665546D01*
G37*
G36*
X79652395Y-65760546D02*
G01*
X79825466Y-65832234D01*
X79825467Y-65832235D01*
X79981227Y-65936310D01*
X80113690Y-66068773D01*
X80113691Y-66068775D01*
X80217766Y-66224534D01*
X80289454Y-66397605D01*
X80326000Y-66581333D01*
X80326000Y-66768667D01*
X80289454Y-66952395D01*
X80217766Y-67125466D01*
X80217765Y-67125467D01*
X80113690Y-67281227D01*
X79981227Y-67413690D01*
X79902818Y-67466081D01*
X79825466Y-67517766D01*
X79652395Y-67589454D01*
X79468667Y-67626000D01*
X79281333Y-67626000D01*
X79097605Y-67589454D01*
X78924534Y-67517766D01*
X78847182Y-67466081D01*
X78768773Y-67413690D01*
X78636310Y-67281227D01*
X78532235Y-67125467D01*
X78532234Y-67125466D01*
X78460546Y-66952395D01*
X78424000Y-66768667D01*
X78424000Y-66581333D01*
X78460546Y-66397605D01*
X78532234Y-66224534D01*
X78636309Y-66068775D01*
X78636310Y-66068773D01*
X78768773Y-65936310D01*
X78924533Y-65832235D01*
X78924534Y-65832234D01*
X79097605Y-65760546D01*
X79281333Y-65724000D01*
X79468667Y-65724000D01*
X79652395Y-65760546D01*
X79652395Y-65760546D01*
G37*
G36*
X79652395Y-63220546D02*
G01*
X79825466Y-63292234D01*
X79825467Y-63292235D01*
X79981227Y-63396310D01*
X80113690Y-63528773D01*
X80113691Y-63528775D01*
X80217766Y-63684534D01*
X80289454Y-63857605D01*
X80326000Y-64041333D01*
X80326000Y-64228667D01*
X80289454Y-64412395D01*
X80217766Y-64585466D01*
X80217765Y-64585467D01*
X80113690Y-64741227D01*
X79981227Y-64873690D01*
X79902818Y-64926081D01*
X79825466Y-64977766D01*
X79652395Y-65049454D01*
X79468667Y-65086000D01*
X79281333Y-65086000D01*
X79097605Y-65049454D01*
X78924534Y-64977766D01*
X78847182Y-64926081D01*
X78768773Y-64873690D01*
X78636310Y-64741227D01*
X78532235Y-64585467D01*
X78532234Y-64585466D01*
X78460546Y-64412395D01*
X78424000Y-64228667D01*
X78424000Y-64041333D01*
X78460546Y-63857605D01*
X78532234Y-63684534D01*
X78636309Y-63528775D01*
X78636310Y-63528773D01*
X78768773Y-63396310D01*
X78924533Y-63292235D01*
X78924534Y-63292234D01*
X79097605Y-63220546D01*
X79281333Y-63184000D01*
X79468667Y-63184000D01*
X79652395Y-63220546D01*
X79652395Y-63220546D01*
G37*
G36*
X79652395Y-60680546D02*
G01*
X79825466Y-60752234D01*
X79825467Y-60752235D01*
X79981227Y-60856310D01*
X80113690Y-60988773D01*
X80113691Y-60988775D01*
X80217766Y-61144534D01*
X80289454Y-61317605D01*
X80326000Y-61501333D01*
X80326000Y-61688667D01*
X80289454Y-61872395D01*
X80217766Y-62045466D01*
X80217765Y-62045467D01*
X80113690Y-62201227D01*
X79981227Y-62333690D01*
X79902818Y-62386081D01*
X79825466Y-62437766D01*
X79652395Y-62509454D01*
X79468667Y-62546000D01*
X79281333Y-62546000D01*
X79097605Y-62509454D01*
X78924534Y-62437766D01*
X78847182Y-62386081D01*
X78768773Y-62333690D01*
X78636310Y-62201227D01*
X78532235Y-62045467D01*
X78532234Y-62045466D01*
X78460546Y-61872395D01*
X78424000Y-61688667D01*
X78424000Y-61501333D01*
X78460546Y-61317605D01*
X78532234Y-61144534D01*
X78636309Y-60988775D01*
X78636310Y-60988773D01*
X78768773Y-60856310D01*
X78924533Y-60752235D01*
X78924534Y-60752234D01*
X79097605Y-60680546D01*
X79281333Y-60644000D01*
X79468667Y-60644000D01*
X79652395Y-60680546D01*
X79652395Y-60680546D01*
G37*
G36*
X96895256Y-58051298D02*
G01*
X97001579Y-58072447D01*
X97302042Y-58196903D01*
X97572451Y-58377585D01*
X97802415Y-58607549D01*
X97983097Y-58877958D01*
X98095228Y-59148665D01*
X98107553Y-59178422D01*
X98171000Y-59497389D01*
X98171000Y-59822611D01*
X98141791Y-59969453D01*
X98107553Y-60141579D01*
X97983097Y-60442042D01*
X97802415Y-60712451D01*
X97572451Y-60942415D01*
X97302042Y-61123097D01*
X97001579Y-61247553D01*
X96895256Y-61268702D01*
X96682611Y-61311000D01*
X96357389Y-61311000D01*
X96144744Y-61268702D01*
X96038421Y-61247553D01*
X95737958Y-61123097D01*
X95467549Y-60942415D01*
X95237585Y-60712451D01*
X95056903Y-60442042D01*
X94932447Y-60141579D01*
X94898209Y-59969453D01*
X94869000Y-59822611D01*
X94869000Y-59497389D01*
X94932447Y-59178422D01*
X94944773Y-59148665D01*
X95056903Y-58877958D01*
X95237585Y-58607549D01*
X95467549Y-58377585D01*
X95737958Y-58196903D01*
X96038421Y-58072447D01*
X96144744Y-58051298D01*
X96357389Y-58009000D01*
X96682611Y-58009000D01*
X96895256Y-58051298D01*
X96895256Y-58051298D01*
G37*
G36*
X79652395Y-58140546D02*
G01*
X79825466Y-58212234D01*
X79825467Y-58212235D01*
X79981227Y-58316310D01*
X80113690Y-58448773D01*
X80113691Y-58448775D01*
X80217766Y-58604534D01*
X80289454Y-58777605D01*
X80326000Y-58961333D01*
X80326000Y-59148667D01*
X80289454Y-59332395D01*
X80217766Y-59505466D01*
X80217765Y-59505467D01*
X80113690Y-59661227D01*
X79981227Y-59793690D01*
X79937946Y-59822609D01*
X79825466Y-59897766D01*
X79652395Y-59969454D01*
X79468667Y-60006000D01*
X79281333Y-60006000D01*
X79097605Y-59969454D01*
X78924534Y-59897766D01*
X78812054Y-59822609D01*
X78768773Y-59793690D01*
X78636310Y-59661227D01*
X78532235Y-59505467D01*
X78532234Y-59505466D01*
X78460546Y-59332395D01*
X78424000Y-59148667D01*
X78424000Y-58961333D01*
X78460546Y-58777605D01*
X78532234Y-58604534D01*
X78636309Y-58448775D01*
X78636310Y-58448773D01*
X78768773Y-58316310D01*
X78924533Y-58212235D01*
X78924534Y-58212234D01*
X79097605Y-58140546D01*
X79281333Y-58104000D01*
X79468667Y-58104000D01*
X79652395Y-58140546D01*
X79652395Y-58140546D01*
G37*
G36*
X121895256Y-52051298D02*
G01*
X122001579Y-52072447D01*
X122214037Y-52160450D01*
X122221799Y-52163665D01*
X122302042Y-52196903D01*
X122572451Y-52377585D01*
X122802415Y-52607549D01*
X122983097Y-52877958D01*
X123107553Y-53178421D01*
X123171000Y-53497391D01*
X123171000Y-53822609D01*
X123107553Y-54141579D01*
X122983097Y-54442042D01*
X122802415Y-54712451D01*
X122572451Y-54942415D01*
X122302042Y-55123097D01*
X122001579Y-55247553D01*
X121895256Y-55268702D01*
X121682611Y-55311000D01*
X121357389Y-55311000D01*
X121144744Y-55268702D01*
X121038421Y-55247553D01*
X120737958Y-55123097D01*
X120467549Y-54942415D01*
X120237585Y-54712451D01*
X120056903Y-54442042D01*
X119932447Y-54141579D01*
X119869000Y-53822609D01*
X119869000Y-53497391D01*
X119932447Y-53178421D01*
X120056903Y-52877958D01*
X120237585Y-52607549D01*
X120467549Y-52377585D01*
X120737958Y-52196903D01*
X120818202Y-52163665D01*
X120825963Y-52160450D01*
X121038421Y-52072447D01*
X121144744Y-52051298D01*
X121357389Y-52009000D01*
X121682611Y-52009000D01*
X121895256Y-52051298D01*
X121895256Y-52051298D01*
G37*
G36*
X80287395Y-51155546D02*
G01*
X80460466Y-51227234D01*
X80460467Y-51227235D01*
X80616227Y-51331310D01*
X80748690Y-51463773D01*
X80748691Y-51463775D01*
X80852766Y-51619534D01*
X80924454Y-51792605D01*
X80961000Y-51976333D01*
X80961000Y-52163667D01*
X80924454Y-52347395D01*
X80852766Y-52520466D01*
X80852765Y-52520467D01*
X80748690Y-52676227D01*
X80616227Y-52808690D01*
X80537818Y-52861081D01*
X80460466Y-52912766D01*
X80287395Y-52984454D01*
X80103667Y-53021000D01*
X79916333Y-53021000D01*
X79732605Y-52984454D01*
X79559534Y-52912766D01*
X79482182Y-52861081D01*
X79403773Y-52808690D01*
X79271310Y-52676227D01*
X79167235Y-52520467D01*
X79167234Y-52520466D01*
X79095546Y-52347395D01*
X79059000Y-52163667D01*
X79059000Y-51976333D01*
X79095546Y-51792605D01*
X79167234Y-51619534D01*
X79271309Y-51463775D01*
X79271310Y-51463773D01*
X79403773Y-51331310D01*
X79559533Y-51227235D01*
X79559534Y-51227234D01*
X79732605Y-51155546D01*
X79916333Y-51119000D01*
X80103667Y-51119000D01*
X80287395Y-51155546D01*
X80287395Y-51155546D01*
G37*
G36*
X80287395Y-48615546D02*
G01*
X80460466Y-48687234D01*
X80460467Y-48687235D01*
X80616227Y-48791310D01*
X80748690Y-48923773D01*
X80748691Y-48923775D01*
X80852766Y-49079534D01*
X80924454Y-49252605D01*
X80961000Y-49436333D01*
X80961000Y-49623667D01*
X80924454Y-49807395D01*
X80852766Y-49980466D01*
X80852765Y-49980467D01*
X80748690Y-50136227D01*
X80616227Y-50268690D01*
X80537818Y-50321081D01*
X80460466Y-50372766D01*
X80287395Y-50444454D01*
X80103667Y-50481000D01*
X79916333Y-50481000D01*
X79732605Y-50444454D01*
X79559534Y-50372766D01*
X79482182Y-50321081D01*
X79403773Y-50268690D01*
X79271310Y-50136227D01*
X79167235Y-49980467D01*
X79167234Y-49980466D01*
X79095546Y-49807395D01*
X79059000Y-49623667D01*
X79059000Y-49436333D01*
X79095546Y-49252605D01*
X79167234Y-49079534D01*
X79271309Y-48923775D01*
X79271310Y-48923773D01*
X79403773Y-48791310D01*
X79559533Y-48687235D01*
X79559534Y-48687234D01*
X79732605Y-48615546D01*
X79916333Y-48579000D01*
X80103667Y-48579000D01*
X80287395Y-48615546D01*
X80287395Y-48615546D01*
G37*
G36*
X80287395Y-46075546D02*
G01*
X80460466Y-46147234D01*
X80460467Y-46147235D01*
X80616227Y-46251310D01*
X80748690Y-46383773D01*
X80748691Y-46383775D01*
X80852766Y-46539534D01*
X80924454Y-46712605D01*
X80961000Y-46896333D01*
X80961000Y-47083667D01*
X80924454Y-47267395D01*
X80852766Y-47440466D01*
X80852765Y-47440467D01*
X80748690Y-47596227D01*
X80616227Y-47728690D01*
X80537818Y-47781081D01*
X80460466Y-47832766D01*
X80287395Y-47904454D01*
X80103667Y-47941000D01*
X79916333Y-47941000D01*
X79732605Y-47904454D01*
X79559534Y-47832766D01*
X79482182Y-47781081D01*
X79403773Y-47728690D01*
X79271310Y-47596227D01*
X79167235Y-47440467D01*
X79167234Y-47440466D01*
X79095546Y-47267395D01*
X79059000Y-47083667D01*
X79059000Y-46896333D01*
X79095546Y-46712605D01*
X79167234Y-46539534D01*
X79271309Y-46383775D01*
X79271310Y-46383773D01*
X79403773Y-46251310D01*
X79559533Y-46147235D01*
X79559534Y-46147234D01*
X79732605Y-46075546D01*
X79916333Y-46039000D01*
X80103667Y-46039000D01*
X80287395Y-46075546D01*
X80287395Y-46075546D01*
G37*
G36*
X103186000Y-47941000D02*
G01*
X101284000Y-47941000D01*
X101284000Y-46039000D01*
X103186000Y-46039000D01*
X103186000Y-47941000D01*
X103186000Y-47941000D01*
G37*
G36*
X102512395Y-43535546D02*
G01*
X102685466Y-43607234D01*
X102762818Y-43658919D01*
X102841227Y-43711310D01*
X102973690Y-43843773D01*
X102973691Y-43843775D01*
X103077766Y-43999534D01*
X103149454Y-44172605D01*
X103186000Y-44356333D01*
X103186000Y-44543667D01*
X103149454Y-44727395D01*
X103077766Y-44900466D01*
X103077765Y-44900467D01*
X102973690Y-45056227D01*
X102841227Y-45188690D01*
X102762818Y-45241081D01*
X102685466Y-45292766D01*
X102512395Y-45364454D01*
X102328667Y-45401000D01*
X102141333Y-45401000D01*
X101957605Y-45364454D01*
X101784534Y-45292766D01*
X101707182Y-45241081D01*
X101628773Y-45188690D01*
X101496310Y-45056227D01*
X101392235Y-44900467D01*
X101392234Y-44900466D01*
X101320546Y-44727395D01*
X101284000Y-44543667D01*
X101284000Y-44356333D01*
X101320546Y-44172605D01*
X101392234Y-43999534D01*
X101496309Y-43843775D01*
X101496310Y-43843773D01*
X101628773Y-43711310D01*
X101707182Y-43658919D01*
X101784534Y-43607234D01*
X101957605Y-43535546D01*
X102141333Y-43499000D01*
X102328667Y-43499000D01*
X102512395Y-43535546D01*
X102512395Y-43535546D01*
G37*
G36*
X80287395Y-43535546D02*
G01*
X80460466Y-43607234D01*
X80537818Y-43658919D01*
X80616227Y-43711310D01*
X80748690Y-43843773D01*
X80748691Y-43843775D01*
X80852766Y-43999534D01*
X80924454Y-44172605D01*
X80961000Y-44356333D01*
X80961000Y-44543667D01*
X80924454Y-44727395D01*
X80852766Y-44900466D01*
X80852765Y-44900467D01*
X80748690Y-45056227D01*
X80616227Y-45188690D01*
X80537818Y-45241081D01*
X80460466Y-45292766D01*
X80287395Y-45364454D01*
X80103667Y-45401000D01*
X79916333Y-45401000D01*
X79732605Y-45364454D01*
X79559534Y-45292766D01*
X79482182Y-45241081D01*
X79403773Y-45188690D01*
X79271310Y-45056227D01*
X79167235Y-44900467D01*
X79167234Y-44900466D01*
X79095546Y-44727395D01*
X79059000Y-44543667D01*
X79059000Y-44356333D01*
X79095546Y-44172605D01*
X79167234Y-43999534D01*
X79271309Y-43843775D01*
X79271310Y-43843773D01*
X79403773Y-43711310D01*
X79482182Y-43658919D01*
X79559534Y-43607234D01*
X79732605Y-43535546D01*
X79916333Y-43499000D01*
X80103667Y-43499000D01*
X80287395Y-43535546D01*
X80287395Y-43535546D01*
G37*
G36*
X66114917Y-43815000D02*
G01*
X64770000Y-45159917D01*
X63425083Y-43815000D01*
X64770000Y-42470083D01*
X66114917Y-43815000D01*
X66114917Y-43815000D01*
G37*
G36*
X128438446Y-42791597D02*
G01*
X128611517Y-42863285D01*
X128611518Y-42863286D01*
X128767278Y-42967361D01*
X128899741Y-43099824D01*
X128899742Y-43099826D01*
X129003817Y-43255585D01*
X129075505Y-43428656D01*
X129112051Y-43612384D01*
X129112051Y-43799718D01*
X129075505Y-43983446D01*
X129003817Y-44156517D01*
X129003816Y-44156518D01*
X128899741Y-44312278D01*
X128767278Y-44444741D01*
X128688869Y-44497132D01*
X128611517Y-44548817D01*
X128438446Y-44620505D01*
X128254718Y-44657051D01*
X128067384Y-44657051D01*
X127883656Y-44620505D01*
X127710585Y-44548817D01*
X127633233Y-44497132D01*
X127554824Y-44444741D01*
X127422361Y-44312278D01*
X127318286Y-44156518D01*
X127318285Y-44156517D01*
X127246597Y-43983446D01*
X127210051Y-43799718D01*
X127210051Y-43612384D01*
X127246597Y-43428656D01*
X127318285Y-43255585D01*
X127422360Y-43099826D01*
X127422361Y-43099824D01*
X127554824Y-42967361D01*
X127710584Y-42863286D01*
X127710585Y-42863285D01*
X127883656Y-42791597D01*
X128067384Y-42755051D01*
X128254718Y-42755051D01*
X128438446Y-42791597D01*
X128438446Y-42791597D01*
G37*
G36*
X127709917Y-41910000D02*
G01*
X126365000Y-43254917D01*
X125020083Y-41910000D01*
X126365000Y-40565083D01*
X127709917Y-41910000D01*
X127709917Y-41910000D01*
G37*
G36*
X66843446Y-41104495D02*
G01*
X67016517Y-41176183D01*
X67016518Y-41176184D01*
X67172278Y-41280259D01*
X67304741Y-41412722D01*
X67357132Y-41491131D01*
X67408817Y-41568483D01*
X67480505Y-41741554D01*
X67517051Y-41925282D01*
X67517051Y-42112616D01*
X67480505Y-42296344D01*
X67408817Y-42469415D01*
X67377538Y-42516227D01*
X67304741Y-42625176D01*
X67172278Y-42757639D01*
X67093869Y-42810030D01*
X67016517Y-42861715D01*
X66843446Y-42933403D01*
X66659718Y-42969949D01*
X66472384Y-42969949D01*
X66288656Y-42933403D01*
X66115585Y-42861715D01*
X66038233Y-42810030D01*
X65959824Y-42757639D01*
X65827361Y-42625176D01*
X65754564Y-42516227D01*
X65723285Y-42469415D01*
X65651597Y-42296344D01*
X65615051Y-42112616D01*
X65615051Y-41925282D01*
X65651597Y-41741554D01*
X65723285Y-41568483D01*
X65774970Y-41491131D01*
X65827361Y-41412722D01*
X65959824Y-41280259D01*
X66115584Y-41176184D01*
X66115585Y-41176183D01*
X66288656Y-41104495D01*
X66472384Y-41067949D01*
X66659718Y-41067949D01*
X66843446Y-41104495D01*
X66843446Y-41104495D01*
G37*
G36*
X80287395Y-40995546D02*
G01*
X80460466Y-41067234D01*
X80460467Y-41067235D01*
X80616227Y-41171310D01*
X80748690Y-41303773D01*
X80748691Y-41303775D01*
X80852766Y-41459534D01*
X80924454Y-41632605D01*
X80961000Y-41816333D01*
X80961000Y-42003667D01*
X80924454Y-42187395D01*
X80852766Y-42360466D01*
X80852765Y-42360467D01*
X80748690Y-42516227D01*
X80616227Y-42648690D01*
X80537818Y-42701081D01*
X80460466Y-42752766D01*
X80287395Y-42824454D01*
X80103667Y-42861000D01*
X79916333Y-42861000D01*
X79732605Y-42824454D01*
X79559534Y-42752766D01*
X79482182Y-42701081D01*
X79403773Y-42648690D01*
X79271310Y-42516227D01*
X79167235Y-42360467D01*
X79167234Y-42360466D01*
X79095546Y-42187395D01*
X79059000Y-42003667D01*
X79059000Y-41816333D01*
X79095546Y-41632605D01*
X79167234Y-41459534D01*
X79271309Y-41303775D01*
X79271310Y-41303773D01*
X79403773Y-41171310D01*
X79559533Y-41067235D01*
X79559534Y-41067234D01*
X79732605Y-40995546D01*
X79916333Y-40959000D01*
X80103667Y-40959000D01*
X80287395Y-40995546D01*
X80287395Y-40995546D01*
G37*
G36*
X102512395Y-40995546D02*
G01*
X102685466Y-41067234D01*
X102685467Y-41067235D01*
X102841227Y-41171310D01*
X102973690Y-41303773D01*
X102973691Y-41303775D01*
X103077766Y-41459534D01*
X103149454Y-41632605D01*
X103186000Y-41816333D01*
X103186000Y-42003667D01*
X103149454Y-42187395D01*
X103077766Y-42360466D01*
X103077765Y-42360467D01*
X102973690Y-42516227D01*
X102841227Y-42648690D01*
X102762818Y-42701081D01*
X102685466Y-42752766D01*
X102512395Y-42824454D01*
X102328667Y-42861000D01*
X102141333Y-42861000D01*
X101957605Y-42824454D01*
X101784534Y-42752766D01*
X101707182Y-42701081D01*
X101628773Y-42648690D01*
X101496310Y-42516227D01*
X101392235Y-42360467D01*
X101392234Y-42360466D01*
X101320546Y-42187395D01*
X101284000Y-42003667D01*
X101284000Y-41816333D01*
X101320546Y-41632605D01*
X101392234Y-41459534D01*
X101496309Y-41303775D01*
X101496310Y-41303773D01*
X101628773Y-41171310D01*
X101784533Y-41067235D01*
X101784534Y-41067234D01*
X101957605Y-40995546D01*
X102141333Y-40959000D01*
X102328667Y-40959000D01*
X102512395Y-40995546D01*
X102512395Y-40995546D01*
G37*
G36*
X80287395Y-38455546D02*
G01*
X80460466Y-38527234D01*
X80460467Y-38527235D01*
X80616227Y-38631310D01*
X80748690Y-38763773D01*
X80748691Y-38763775D01*
X80852766Y-38919534D01*
X80924454Y-39092605D01*
X80961000Y-39276333D01*
X80961000Y-39463667D01*
X80924454Y-39647395D01*
X80852766Y-39820466D01*
X80852765Y-39820467D01*
X80748690Y-39976227D01*
X80616227Y-40108690D01*
X80537818Y-40161081D01*
X80460466Y-40212766D01*
X80287395Y-40284454D01*
X80103667Y-40321000D01*
X79916333Y-40321000D01*
X79732605Y-40284454D01*
X79559534Y-40212766D01*
X79482182Y-40161081D01*
X79403773Y-40108690D01*
X79271310Y-39976227D01*
X79167235Y-39820467D01*
X79167234Y-39820466D01*
X79095546Y-39647395D01*
X79059000Y-39463667D01*
X79059000Y-39276333D01*
X79095546Y-39092605D01*
X79167234Y-38919534D01*
X79271309Y-38763775D01*
X79271310Y-38763773D01*
X79403773Y-38631310D01*
X79559533Y-38527235D01*
X79559534Y-38527234D01*
X79732605Y-38455546D01*
X79916333Y-38419000D01*
X80103667Y-38419000D01*
X80287395Y-38455546D01*
X80287395Y-38455546D01*
G37*
G36*
X98067395Y-29565546D02*
G01*
X98240466Y-29637234D01*
X98240467Y-29637235D01*
X98396227Y-29741310D01*
X98528690Y-29873773D01*
X98528691Y-29873775D01*
X98632766Y-30029534D01*
X98704454Y-30202605D01*
X98741000Y-30386333D01*
X98741000Y-30573667D01*
X98704454Y-30757395D01*
X98632766Y-30930466D01*
X98632765Y-30930467D01*
X98528690Y-31086227D01*
X98396227Y-31218690D01*
X98317818Y-31271081D01*
X98240466Y-31322766D01*
X98067395Y-31394454D01*
X97883667Y-31431000D01*
X97696333Y-31431000D01*
X97512605Y-31394454D01*
X97339534Y-31322766D01*
X97262182Y-31271081D01*
X97183773Y-31218690D01*
X97051310Y-31086227D01*
X96947235Y-30930467D01*
X96947234Y-30930466D01*
X96875546Y-30757395D01*
X96839000Y-30573667D01*
X96839000Y-30386333D01*
X96875546Y-30202605D01*
X96947234Y-30029534D01*
X97051309Y-29873775D01*
X97051310Y-29873773D01*
X97183773Y-29741310D01*
X97339533Y-29637235D01*
X97339534Y-29637234D01*
X97512605Y-29565546D01*
X97696333Y-29529000D01*
X97883667Y-29529000D01*
X98067395Y-29565546D01*
X98067395Y-29565546D01*
G37*
G36*
X96201000Y-31431000D02*
G01*
X94299000Y-31431000D01*
X94299000Y-29529000D01*
X96201000Y-29529000D01*
X96201000Y-31431000D01*
X96201000Y-31431000D01*
G37*
M02*
