G04 #@! TF.GenerationSoftware,KiCad,Pcbnew,(5.1.2)-1*
G04 #@! TF.CreationDate,2019-07-31T22:00:42+02:00*
G04 #@! TF.ProjectId,OpenMQTTGatewayPCB,4f70656e-4d51-4545-9447-617465776179,1*
G04 #@! TF.SameCoordinates,Original*
G04 #@! TF.FileFunction,Legend,Bot*
G04 #@! TF.FilePolarity,Positive*
%FSLAX46Y46*%
G04 Gerber Fmt 4.6, Leading zero omitted, Abs format (unit mm)*
G04 Created by KiCad (PCBNEW (5.1.2)-1) date 2019-07-31 22:00:42*
%MOMM*%
%LPD*%
G04 APERTURE LIST*
%ADD10C,0.300000*%
%ADD11C,0.150000*%
%ADD12C,0.010000*%
%ADD13C,0.120000*%
G04 APERTURE END LIST*
D10*
X97139047Y-36052142D02*
X96853333Y-36147380D01*
X96758095Y-36242619D01*
X96662857Y-36433095D01*
X96662857Y-36718809D01*
X96758095Y-36909285D01*
X96853333Y-37004523D01*
X97043809Y-37099761D01*
X97805714Y-37099761D01*
X97805714Y-35099761D01*
X97139047Y-35099761D01*
X96948571Y-35195000D01*
X96853333Y-35290238D01*
X96758095Y-35480714D01*
X96758095Y-35671190D01*
X96853333Y-35861666D01*
X96948571Y-35956904D01*
X97139047Y-36052142D01*
X97805714Y-36052142D01*
X96091428Y-35099761D02*
X94948571Y-35099761D01*
X95520000Y-37099761D02*
X95520000Y-35099761D01*
X128095476Y-79993333D02*
X128000238Y-80183809D01*
X128000238Y-80564761D01*
X128095476Y-80755238D01*
X128285952Y-80850476D01*
X129047857Y-80850476D01*
X129238333Y-80755238D01*
X129333571Y-80564761D01*
X129333571Y-80183809D01*
X129238333Y-79993333D01*
X129047857Y-79898095D01*
X128857380Y-79898095D01*
X128666904Y-80850476D01*
X128000238Y-79040952D02*
X130000238Y-79040952D01*
X129238333Y-79040952D02*
X129333571Y-78850476D01*
X129333571Y-78469523D01*
X129238333Y-78279047D01*
X129143095Y-78183809D01*
X128952619Y-78088571D01*
X128381190Y-78088571D01*
X128190714Y-78183809D01*
X128095476Y-78279047D01*
X128000238Y-78469523D01*
X128000238Y-78850476D01*
X128095476Y-79040952D01*
X128000238Y-77231428D02*
X129333571Y-77231428D01*
X128952619Y-77231428D02*
X129143095Y-77136190D01*
X129238333Y-77040952D01*
X129333571Y-76850476D01*
X129333571Y-76660000D01*
X128000238Y-75993333D02*
X129333571Y-75993333D01*
X130000238Y-75993333D02*
X129905000Y-76088571D01*
X129809761Y-75993333D01*
X129905000Y-75898095D01*
X130000238Y-75993333D01*
X129809761Y-75993333D01*
X129333571Y-75326666D02*
X129333571Y-74564761D01*
X130000238Y-75040952D02*
X128285952Y-75040952D01*
X128095476Y-74945714D01*
X128000238Y-74755238D01*
X128000238Y-74564761D01*
X128000238Y-73898095D02*
X130000238Y-73898095D01*
X128000238Y-73040952D02*
X129047857Y-73040952D01*
X129238333Y-73136190D01*
X129333571Y-73326666D01*
X129333571Y-73612380D01*
X129238333Y-73802857D01*
X129143095Y-73898095D01*
X128000238Y-72088571D02*
X129333571Y-72088571D01*
X130000238Y-72088571D02*
X129905000Y-72183809D01*
X129809761Y-72088571D01*
X129905000Y-71993333D01*
X130000238Y-72088571D01*
X129809761Y-72088571D01*
X128000238Y-70850476D02*
X128095476Y-71040952D01*
X128285952Y-71136190D01*
X130000238Y-71136190D01*
X128190714Y-70088571D02*
X128095476Y-69993333D01*
X128000238Y-70088571D01*
X128095476Y-70183809D01*
X128190714Y-70088571D01*
X128000238Y-70088571D01*
X128095476Y-68279047D02*
X128000238Y-68469523D01*
X128000238Y-68850476D01*
X128095476Y-69040952D01*
X128190714Y-69136190D01*
X128381190Y-69231428D01*
X128952619Y-69231428D01*
X129143095Y-69136190D01*
X129238333Y-69040952D01*
X129333571Y-68850476D01*
X129333571Y-68469523D01*
X129238333Y-68279047D01*
X128000238Y-67421904D02*
X130000238Y-67421904D01*
X128000238Y-66564761D02*
X129047857Y-66564761D01*
X129238333Y-66660000D01*
X129333571Y-66850476D01*
X129333571Y-67136190D01*
X129238333Y-67326666D01*
X129143095Y-67421904D01*
D11*
X66275714Y-87567142D02*
X65385238Y-87567142D01*
X65280476Y-87619523D01*
X65228095Y-87671904D01*
X65175714Y-87776666D01*
X65175714Y-87933809D01*
X65228095Y-88038571D01*
X65594761Y-87567142D02*
X65542380Y-87671904D01*
X65542380Y-87881428D01*
X65594761Y-87986190D01*
X65647142Y-88038571D01*
X65751904Y-88090952D01*
X66066190Y-88090952D01*
X66170952Y-88038571D01*
X66223333Y-87986190D01*
X66275714Y-87881428D01*
X66275714Y-87671904D01*
X66223333Y-87567142D01*
X65542380Y-87043333D02*
X66275714Y-87043333D01*
X66642380Y-87043333D02*
X66590000Y-87095714D01*
X66537619Y-87043333D01*
X66590000Y-86990952D01*
X66642380Y-87043333D01*
X66537619Y-87043333D01*
X66275714Y-86676666D02*
X66275714Y-86257619D01*
X66642380Y-86519523D02*
X65699523Y-86519523D01*
X65594761Y-86467142D01*
X65542380Y-86362380D01*
X65542380Y-86257619D01*
X65542380Y-85890952D02*
X66642380Y-85890952D01*
X65542380Y-85419523D02*
X66118571Y-85419523D01*
X66223333Y-85471904D01*
X66275714Y-85576666D01*
X66275714Y-85733809D01*
X66223333Y-85838571D01*
X66170952Y-85890952D01*
X66275714Y-84424285D02*
X65542380Y-84424285D01*
X66275714Y-84895714D02*
X65699523Y-84895714D01*
X65594761Y-84843333D01*
X65542380Y-84738571D01*
X65542380Y-84581428D01*
X65594761Y-84476666D01*
X65647142Y-84424285D01*
X65542380Y-83900476D02*
X66642380Y-83900476D01*
X66223333Y-83900476D02*
X66275714Y-83795714D01*
X66275714Y-83586190D01*
X66223333Y-83481428D01*
X66170952Y-83429047D01*
X66066190Y-83376666D01*
X65751904Y-83376666D01*
X65647142Y-83429047D01*
X65594761Y-83481428D01*
X65542380Y-83586190D01*
X65542380Y-83795714D01*
X65594761Y-83900476D01*
X65647142Y-82905238D02*
X65594761Y-82852857D01*
X65542380Y-82905238D01*
X65594761Y-82957619D01*
X65647142Y-82905238D01*
X65542380Y-82905238D01*
X65594761Y-81910000D02*
X65542380Y-82014761D01*
X65542380Y-82224285D01*
X65594761Y-82329047D01*
X65647142Y-82381428D01*
X65751904Y-82433809D01*
X66066190Y-82433809D01*
X66170952Y-82381428D01*
X66223333Y-82329047D01*
X66275714Y-82224285D01*
X66275714Y-82014761D01*
X66223333Y-81910000D01*
X65542380Y-81281428D02*
X65594761Y-81386190D01*
X65647142Y-81438571D01*
X65751904Y-81490952D01*
X66066190Y-81490952D01*
X66170952Y-81438571D01*
X66223333Y-81386190D01*
X66275714Y-81281428D01*
X66275714Y-81124285D01*
X66223333Y-81019523D01*
X66170952Y-80967142D01*
X66066190Y-80914761D01*
X65751904Y-80914761D01*
X65647142Y-80967142D01*
X65594761Y-81019523D01*
X65542380Y-81124285D01*
X65542380Y-81281428D01*
X65542380Y-80443333D02*
X66275714Y-80443333D01*
X66170952Y-80443333D02*
X66223333Y-80390952D01*
X66275714Y-80286190D01*
X66275714Y-80129047D01*
X66223333Y-80024285D01*
X66118571Y-79971904D01*
X65542380Y-79971904D01*
X66118571Y-79971904D02*
X66223333Y-79919523D01*
X66275714Y-79814761D01*
X66275714Y-79657619D01*
X66223333Y-79552857D01*
X66118571Y-79500476D01*
X65542380Y-79500476D01*
X66694761Y-78190952D02*
X65280476Y-79133809D01*
X65594761Y-77405238D02*
X65542380Y-77510000D01*
X65542380Y-77719523D01*
X65594761Y-77824285D01*
X65699523Y-77876666D01*
X66118571Y-77876666D01*
X66223333Y-77824285D01*
X66275714Y-77719523D01*
X66275714Y-77510000D01*
X66223333Y-77405238D01*
X66118571Y-77352857D01*
X66013809Y-77352857D01*
X65909047Y-77876666D01*
X65542380Y-76881428D02*
X66642380Y-76881428D01*
X66223333Y-76881428D02*
X66275714Y-76776666D01*
X66275714Y-76567142D01*
X66223333Y-76462380D01*
X66170952Y-76410000D01*
X66066190Y-76357619D01*
X65751904Y-76357619D01*
X65647142Y-76410000D01*
X65594761Y-76462380D01*
X65542380Y-76567142D01*
X65542380Y-76776666D01*
X65594761Y-76881428D01*
X65542380Y-75886190D02*
X66275714Y-75886190D01*
X66066190Y-75886190D02*
X66170952Y-75833809D01*
X66223333Y-75781428D01*
X66275714Y-75676666D01*
X66275714Y-75571904D01*
X65542380Y-75205238D02*
X66275714Y-75205238D01*
X66642380Y-75205238D02*
X66590000Y-75257619D01*
X66537619Y-75205238D01*
X66590000Y-75152857D01*
X66642380Y-75205238D01*
X66537619Y-75205238D01*
X66275714Y-74838571D02*
X66275714Y-74419523D01*
X66642380Y-74681428D02*
X65699523Y-74681428D01*
X65594761Y-74629047D01*
X65542380Y-74524285D01*
X65542380Y-74419523D01*
X65542380Y-74052857D02*
X66642380Y-74052857D01*
X65542380Y-73581428D02*
X66118571Y-73581428D01*
X66223333Y-73633809D01*
X66275714Y-73738571D01*
X66275714Y-73895714D01*
X66223333Y-74000476D01*
X66170952Y-74052857D01*
X65542380Y-73057619D02*
X66275714Y-73057619D01*
X66642380Y-73057619D02*
X66590000Y-73110000D01*
X66537619Y-73057619D01*
X66590000Y-73005238D01*
X66642380Y-73057619D01*
X66537619Y-73057619D01*
X65542380Y-72376666D02*
X65594761Y-72481428D01*
X65699523Y-72533809D01*
X66642380Y-72533809D01*
X66275714Y-71957619D02*
X65332857Y-71957619D01*
X65228095Y-72009999D01*
X65175714Y-72114761D01*
X65175714Y-72167142D01*
X66642380Y-71957619D02*
X66590000Y-72010000D01*
X66537619Y-71957619D01*
X66590000Y-71905238D01*
X66642380Y-71957619D01*
X66537619Y-71957619D01*
X65542380Y-71276666D02*
X65594761Y-71381428D01*
X65647142Y-71433809D01*
X65751904Y-71486190D01*
X66066190Y-71486190D01*
X66170952Y-71433809D01*
X66223333Y-71381428D01*
X66275714Y-71276666D01*
X66275714Y-71119523D01*
X66223333Y-71014761D01*
X66170952Y-70962380D01*
X66066190Y-70910000D01*
X65751904Y-70910000D01*
X65647142Y-70962380D01*
X65594761Y-71014761D01*
X65542380Y-71119523D01*
X65542380Y-71276666D01*
X66275714Y-70438571D02*
X65542380Y-70438571D01*
X66170952Y-70438571D02*
X66223333Y-70386190D01*
X66275714Y-70281428D01*
X66275714Y-70124285D01*
X66223333Y-70019523D01*
X66118571Y-69967142D01*
X65542380Y-69967142D01*
X65542380Y-68971904D02*
X66118571Y-68971904D01*
X66223333Y-69024285D01*
X66275714Y-69129047D01*
X66275714Y-69338571D01*
X66223333Y-69443333D01*
X65594761Y-68971904D02*
X65542380Y-69076666D01*
X65542380Y-69338571D01*
X65594761Y-69443333D01*
X65699523Y-69495714D01*
X65804285Y-69495714D01*
X65909047Y-69443333D01*
X65961428Y-69338571D01*
X65961428Y-69076666D01*
X66013809Y-68971904D01*
X65594761Y-68500476D02*
X65542380Y-68395714D01*
X65542380Y-68186190D01*
X65594761Y-68081428D01*
X65699523Y-68029047D01*
X65751904Y-68029047D01*
X65856666Y-68081428D01*
X65909047Y-68186190D01*
X65909047Y-68343333D01*
X65961428Y-68448095D01*
X66066190Y-68500476D01*
X66118571Y-68500476D01*
X66223333Y-68448095D01*
X66275714Y-68343333D01*
X66275714Y-68186190D01*
X66223333Y-68081428D01*
X66694761Y-66771904D02*
X65280476Y-67714761D01*
X66642380Y-66195714D02*
X66642380Y-65986190D01*
X66590000Y-65881428D01*
X66485238Y-65776666D01*
X66275714Y-65724285D01*
X65909047Y-65724285D01*
X65699523Y-65776666D01*
X65594761Y-65881428D01*
X65542380Y-65986190D01*
X65542380Y-66195714D01*
X65594761Y-66300476D01*
X65699523Y-66405238D01*
X65909047Y-66457619D01*
X66275714Y-66457619D01*
X66485238Y-66405238D01*
X66590000Y-66300476D01*
X66642380Y-66195714D01*
X65542380Y-65252857D02*
X66642380Y-65252857D01*
X65856666Y-64886190D01*
X66642380Y-64519523D01*
X65542380Y-64519523D01*
X66590000Y-63419523D02*
X66642380Y-63524285D01*
X66642380Y-63681428D01*
X66590000Y-63838571D01*
X66485238Y-63943333D01*
X66380476Y-63995714D01*
X66170952Y-64048095D01*
X66013809Y-64048095D01*
X65804285Y-63995714D01*
X65699523Y-63943333D01*
X65594761Y-63838571D01*
X65542380Y-63681428D01*
X65542380Y-63576666D01*
X65594761Y-63419523D01*
X65647142Y-63367142D01*
X66013809Y-63367142D01*
X66013809Y-63576666D01*
X65437619Y-63157619D02*
X65437619Y-62319523D01*
X65542380Y-62057619D02*
X66642380Y-62057619D01*
X66642380Y-61638571D01*
X66590000Y-61533809D01*
X66537619Y-61481428D01*
X66432857Y-61429047D01*
X66275714Y-61429047D01*
X66170952Y-61481428D01*
X66118571Y-61533809D01*
X66066190Y-61638571D01*
X66066190Y-62057619D01*
X65647142Y-60329047D02*
X65594761Y-60381428D01*
X65542380Y-60538571D01*
X65542380Y-60643333D01*
X65594761Y-60800476D01*
X65699523Y-60905238D01*
X65804285Y-60957619D01*
X66013809Y-61009999D01*
X66170952Y-61009999D01*
X66380476Y-60957619D01*
X66485238Y-60905238D01*
X66590000Y-60800476D01*
X66642380Y-60643333D01*
X66642380Y-60538571D01*
X66590000Y-60381428D01*
X66537619Y-60329047D01*
X66118571Y-59490952D02*
X66066190Y-59333809D01*
X66013809Y-59281428D01*
X65909047Y-59229047D01*
X65751904Y-59229047D01*
X65647142Y-59281428D01*
X65594761Y-59333809D01*
X65542380Y-59438571D01*
X65542380Y-59857619D01*
X66642380Y-59857619D01*
X66642380Y-59490952D01*
X66590000Y-59386190D01*
X66537619Y-59333809D01*
X66432857Y-59281428D01*
X66328095Y-59281428D01*
X66223333Y-59333809D01*
X66170952Y-59386190D01*
X66118571Y-59490952D01*
X66118571Y-59857619D01*
X63714285Y-89707619D02*
X62904761Y-89707619D01*
X62809523Y-89755238D01*
X62761904Y-89802857D01*
X62714285Y-89898095D01*
X62714285Y-90040952D01*
X62761904Y-90136190D01*
X63095238Y-89707619D02*
X63047619Y-89802857D01*
X63047619Y-89993333D01*
X63095238Y-90088571D01*
X63142857Y-90136190D01*
X63238095Y-90183809D01*
X63523809Y-90183809D01*
X63619047Y-90136190D01*
X63666666Y-90088571D01*
X63714285Y-89993333D01*
X63714285Y-89802857D01*
X63666666Y-89707619D01*
X63047619Y-89231428D02*
X63714285Y-89231428D01*
X64047619Y-89231428D02*
X64000000Y-89279047D01*
X63952380Y-89231428D01*
X64000000Y-89183809D01*
X64047619Y-89231428D01*
X63952380Y-89231428D01*
X63714285Y-88898095D02*
X63714285Y-88517142D01*
X64047619Y-88755238D02*
X63190476Y-88755238D01*
X63095238Y-88707619D01*
X63047619Y-88612380D01*
X63047619Y-88517142D01*
X63047619Y-88183809D02*
X64047619Y-88183809D01*
X63047619Y-87755238D02*
X63571428Y-87755238D01*
X63666666Y-87802857D01*
X63714285Y-87898095D01*
X63714285Y-88040952D01*
X63666666Y-88136190D01*
X63619047Y-88183809D01*
X63714285Y-86850476D02*
X63047619Y-86850476D01*
X63714285Y-87279047D02*
X63190476Y-87279047D01*
X63095238Y-87231428D01*
X63047619Y-87136190D01*
X63047619Y-86993333D01*
X63095238Y-86898095D01*
X63142857Y-86850476D01*
X63047619Y-86374285D02*
X64047619Y-86374285D01*
X63666666Y-86374285D02*
X63714285Y-86279047D01*
X63714285Y-86088571D01*
X63666666Y-85993333D01*
X63619047Y-85945714D01*
X63523809Y-85898095D01*
X63238095Y-85898095D01*
X63142857Y-85945714D01*
X63095238Y-85993333D01*
X63047619Y-86088571D01*
X63047619Y-86279047D01*
X63095238Y-86374285D01*
X63142857Y-85469523D02*
X63095238Y-85421904D01*
X63047619Y-85469523D01*
X63095238Y-85517142D01*
X63142857Y-85469523D01*
X63047619Y-85469523D01*
X63095238Y-84564761D02*
X63047619Y-84660000D01*
X63047619Y-84850476D01*
X63095238Y-84945714D01*
X63142857Y-84993333D01*
X63238095Y-85040952D01*
X63523809Y-85040952D01*
X63619047Y-84993333D01*
X63666666Y-84945714D01*
X63714285Y-84850476D01*
X63714285Y-84660000D01*
X63666666Y-84564761D01*
X63047619Y-83993333D02*
X63095238Y-84088571D01*
X63142857Y-84136190D01*
X63238095Y-84183809D01*
X63523809Y-84183809D01*
X63619047Y-84136190D01*
X63666666Y-84088571D01*
X63714285Y-83993333D01*
X63714285Y-83850476D01*
X63666666Y-83755238D01*
X63619047Y-83707619D01*
X63523809Y-83660000D01*
X63238095Y-83660000D01*
X63142857Y-83707619D01*
X63095238Y-83755238D01*
X63047619Y-83850476D01*
X63047619Y-83993333D01*
X63047619Y-83231428D02*
X63714285Y-83231428D01*
X63619047Y-83231428D02*
X63666666Y-83183809D01*
X63714285Y-83088571D01*
X63714285Y-82945714D01*
X63666666Y-82850476D01*
X63571428Y-82802857D01*
X63047619Y-82802857D01*
X63571428Y-82802857D02*
X63666666Y-82755238D01*
X63714285Y-82660000D01*
X63714285Y-82517142D01*
X63666666Y-82421904D01*
X63571428Y-82374285D01*
X63047619Y-82374285D01*
X64095238Y-81183809D02*
X62809523Y-82040952D01*
X63047619Y-80326666D02*
X63047619Y-80898095D01*
X63047619Y-80612380D02*
X64047619Y-80612380D01*
X63904761Y-80707619D01*
X63809523Y-80802857D01*
X63761904Y-80898095D01*
X63714285Y-80040952D02*
X63714285Y-79660000D01*
X64047619Y-79898095D02*
X63190476Y-79898095D01*
X63095238Y-79850476D01*
X63047619Y-79755238D01*
X63047619Y-79660000D01*
X63095238Y-78945714D02*
X63047619Y-79040952D01*
X63047619Y-79231428D01*
X63095238Y-79326666D01*
X63190476Y-79374285D01*
X63571428Y-79374285D01*
X63666666Y-79326666D01*
X63714285Y-79231428D01*
X63714285Y-79040952D01*
X63666666Y-78945714D01*
X63571428Y-78898095D01*
X63476190Y-78898095D01*
X63380952Y-79374285D01*
X63095238Y-78040952D02*
X63047619Y-78136190D01*
X63047619Y-78326666D01*
X63095238Y-78421904D01*
X63142857Y-78469523D01*
X63238095Y-78517142D01*
X63523809Y-78517142D01*
X63619047Y-78469523D01*
X63666666Y-78421904D01*
X63714285Y-78326666D01*
X63714285Y-78136190D01*
X63666666Y-78040952D01*
X63047619Y-77612380D02*
X64047619Y-77612380D01*
X63047619Y-77183809D02*
X63571428Y-77183809D01*
X63666666Y-77231428D01*
X63714285Y-77326666D01*
X63714285Y-77469523D01*
X63666666Y-77564761D01*
X63619047Y-77612380D01*
X63714285Y-76707619D02*
X63047619Y-76707619D01*
X63619047Y-76707619D02*
X63666666Y-76660000D01*
X63714285Y-76564761D01*
X63714285Y-76421904D01*
X63666666Y-76326666D01*
X63571428Y-76279047D01*
X63047619Y-76279047D01*
X63047619Y-75660000D02*
X63095238Y-75755238D01*
X63142857Y-75802857D01*
X63238095Y-75850476D01*
X63523809Y-75850476D01*
X63619047Y-75802857D01*
X63666666Y-75755238D01*
X63714285Y-75660000D01*
X63714285Y-75517142D01*
X63666666Y-75421904D01*
X63619047Y-75374285D01*
X63523809Y-75326666D01*
X63238095Y-75326666D01*
X63142857Y-75374285D01*
X63095238Y-75421904D01*
X63047619Y-75517142D01*
X63047619Y-75660000D01*
X63714285Y-74898095D02*
X62714285Y-74898095D01*
X63666666Y-74898095D02*
X63714285Y-74802857D01*
X63714285Y-74612380D01*
X63666666Y-74517142D01*
X63619047Y-74469523D01*
X63523809Y-74421904D01*
X63238095Y-74421904D01*
X63142857Y-74469523D01*
X63095238Y-74517142D01*
X63047619Y-74612380D01*
X63047619Y-74802857D01*
X63095238Y-74898095D01*
X63047619Y-73993333D02*
X64047619Y-73993333D01*
X63047619Y-73564761D02*
X63571428Y-73564761D01*
X63666666Y-73612380D01*
X63714285Y-73707619D01*
X63714285Y-73850476D01*
X63666666Y-73945714D01*
X63619047Y-73993333D01*
X63047619Y-73088571D02*
X63714285Y-73088571D01*
X64047619Y-73088571D02*
X64000000Y-73136190D01*
X63952380Y-73088571D01*
X64000000Y-73040952D01*
X64047619Y-73088571D01*
X63952380Y-73088571D01*
X63047619Y-72469523D02*
X63095238Y-72564761D01*
X63190476Y-72612380D01*
X64047619Y-72612380D01*
X63095238Y-71707619D02*
X63047619Y-71802857D01*
X63047619Y-71993333D01*
X63095238Y-72088571D01*
X63190476Y-72136190D01*
X63571428Y-72136190D01*
X63666666Y-72088571D01*
X63714285Y-71993333D01*
X63714285Y-71802857D01*
X63666666Y-71707619D01*
X63571428Y-71660000D01*
X63476190Y-71660000D01*
X63380952Y-72136190D01*
X64095238Y-70517142D02*
X62809523Y-71374285D01*
X64047619Y-69993333D02*
X64047619Y-69802857D01*
X64000000Y-69707619D01*
X63904761Y-69612380D01*
X63714285Y-69564761D01*
X63380952Y-69564761D01*
X63190476Y-69612380D01*
X63095238Y-69707619D01*
X63047619Y-69802857D01*
X63047619Y-69993333D01*
X63095238Y-70088571D01*
X63190476Y-70183809D01*
X63380952Y-70231428D01*
X63714285Y-70231428D01*
X63904761Y-70183809D01*
X64000000Y-70088571D01*
X64047619Y-69993333D01*
X63714285Y-69136190D02*
X62714285Y-69136190D01*
X63666666Y-69136190D02*
X63714285Y-69040952D01*
X63714285Y-68850476D01*
X63666666Y-68755238D01*
X63619047Y-68707619D01*
X63523809Y-68660000D01*
X63238095Y-68660000D01*
X63142857Y-68707619D01*
X63095238Y-68755238D01*
X63047619Y-68850476D01*
X63047619Y-69040952D01*
X63095238Y-69136190D01*
X63095238Y-67850476D02*
X63047619Y-67945714D01*
X63047619Y-68136190D01*
X63095238Y-68231428D01*
X63190476Y-68279047D01*
X63571428Y-68279047D01*
X63666666Y-68231428D01*
X63714285Y-68136190D01*
X63714285Y-67945714D01*
X63666666Y-67850476D01*
X63571428Y-67802857D01*
X63476190Y-67802857D01*
X63380952Y-68279047D01*
X63714285Y-67374285D02*
X63047619Y-67374285D01*
X63619047Y-67374285D02*
X63666666Y-67326666D01*
X63714285Y-67231428D01*
X63714285Y-67088571D01*
X63666666Y-66993333D01*
X63571428Y-66945714D01*
X63047619Y-66945714D01*
X63047619Y-66469523D02*
X64047619Y-66469523D01*
X63333333Y-66136190D01*
X64047619Y-65802857D01*
X63047619Y-65802857D01*
X62952380Y-64660000D02*
X63000000Y-64755238D01*
X63095238Y-64850476D01*
X63238095Y-64993333D01*
X63285714Y-65088571D01*
X63285714Y-65183809D01*
X63047619Y-65136190D02*
X63095238Y-65231428D01*
X63190476Y-65326666D01*
X63380952Y-65374285D01*
X63714285Y-65374285D01*
X63904761Y-65326666D01*
X64000000Y-65231428D01*
X64047619Y-65136190D01*
X64047619Y-64945714D01*
X64000000Y-64850476D01*
X63904761Y-64755238D01*
X63714285Y-64707619D01*
X63380952Y-64707619D01*
X63190476Y-64755238D01*
X63095238Y-64850476D01*
X63047619Y-64945714D01*
X63047619Y-65136190D01*
X64047619Y-64421904D02*
X64047619Y-63850476D01*
X63047619Y-64136190D02*
X64047619Y-64136190D01*
X64047619Y-63660000D02*
X64047619Y-63088571D01*
X63047619Y-63374285D02*
X64047619Y-63374285D01*
X64000000Y-62231428D02*
X64047619Y-62326666D01*
X64047619Y-62469523D01*
X64000000Y-62612380D01*
X63904761Y-62707619D01*
X63809523Y-62755238D01*
X63619047Y-62802857D01*
X63476190Y-62802857D01*
X63285714Y-62755238D01*
X63190476Y-62707619D01*
X63095238Y-62612380D01*
X63047619Y-62469523D01*
X63047619Y-62374285D01*
X63095238Y-62231428D01*
X63142857Y-62183809D01*
X63476190Y-62183809D01*
X63476190Y-62374285D01*
X63047619Y-61326666D02*
X63571428Y-61326666D01*
X63666666Y-61374285D01*
X63714285Y-61469523D01*
X63714285Y-61660000D01*
X63666666Y-61755238D01*
X63095238Y-61326666D02*
X63047619Y-61421904D01*
X63047619Y-61660000D01*
X63095238Y-61755238D01*
X63190476Y-61802857D01*
X63285714Y-61802857D01*
X63380952Y-61755238D01*
X63428571Y-61660000D01*
X63428571Y-61421904D01*
X63476190Y-61326666D01*
X63714285Y-60993333D02*
X63714285Y-60612380D01*
X64047619Y-60850476D02*
X63190476Y-60850476D01*
X63095238Y-60802857D01*
X63047619Y-60707619D01*
X63047619Y-60612380D01*
X63095238Y-59898095D02*
X63047619Y-59993333D01*
X63047619Y-60183809D01*
X63095238Y-60279047D01*
X63190476Y-60326666D01*
X63571428Y-60326666D01*
X63666666Y-60279047D01*
X63714285Y-60183809D01*
X63714285Y-59993333D01*
X63666666Y-59898095D01*
X63571428Y-59850476D01*
X63476190Y-59850476D01*
X63380952Y-60326666D01*
X63714285Y-59517142D02*
X63047619Y-59326666D01*
X63523809Y-59136190D01*
X63047619Y-58945714D01*
X63714285Y-58755238D01*
X63047619Y-57945714D02*
X63571428Y-57945714D01*
X63666666Y-57993333D01*
X63714285Y-58088571D01*
X63714285Y-58279047D01*
X63666666Y-58374285D01*
X63095238Y-57945714D02*
X63047619Y-58040952D01*
X63047619Y-58279047D01*
X63095238Y-58374285D01*
X63190476Y-58421904D01*
X63285714Y-58421904D01*
X63380952Y-58374285D01*
X63428571Y-58279047D01*
X63428571Y-58040952D01*
X63476190Y-57945714D01*
X63714285Y-57564761D02*
X63047619Y-57326666D01*
X63714285Y-57088571D02*
X63047619Y-57326666D01*
X62809523Y-57421904D01*
X62761904Y-57469523D01*
X62714285Y-57564761D01*
D12*
G36*
X81566828Y-72913465D02*
G01*
X80969637Y-72800883D01*
X80798390Y-72385469D01*
X80627143Y-71970056D01*
X80966022Y-71471698D01*
X81060378Y-71332132D01*
X81144625Y-71205972D01*
X81214917Y-71099105D01*
X81267408Y-71017418D01*
X81298251Y-70966799D01*
X81304902Y-70953014D01*
X81287797Y-70928180D01*
X81240511Y-70875112D01*
X81169083Y-70799760D01*
X81079555Y-70708071D01*
X80977966Y-70605993D01*
X80870357Y-70499474D01*
X80762768Y-70394464D01*
X80661240Y-70296909D01*
X80571814Y-70212758D01*
X80500529Y-70147960D01*
X80453427Y-70108462D01*
X80437663Y-70099020D01*
X80408602Y-70112609D01*
X80344934Y-70150707D01*
X80252888Y-70209306D01*
X80138691Y-70284403D01*
X80008571Y-70371991D01*
X79934354Y-70422746D01*
X79798833Y-70515255D01*
X79676539Y-70597460D01*
X79573560Y-70665370D01*
X79495982Y-70715000D01*
X79449894Y-70742360D01*
X79440208Y-70746471D01*
X79412681Y-70737151D01*
X79348527Y-70711746D01*
X79256765Y-70674089D01*
X79146416Y-70628014D01*
X79026500Y-70577354D01*
X78906036Y-70525941D01*
X78794046Y-70477611D01*
X78699548Y-70436194D01*
X78631563Y-70405526D01*
X78599112Y-70389438D01*
X78597835Y-70388489D01*
X78591638Y-70363228D01*
X78577815Y-70295954D01*
X78557723Y-70193640D01*
X78532721Y-70063259D01*
X78504169Y-69911784D01*
X78487704Y-69823406D01*
X78456886Y-69661548D01*
X78427561Y-69515351D01*
X78401334Y-69392213D01*
X78379809Y-69299531D01*
X78364590Y-69244699D01*
X78359762Y-69233677D01*
X78327081Y-69222881D01*
X78253270Y-69214171D01*
X78146963Y-69207540D01*
X78016788Y-69202982D01*
X77871379Y-69200491D01*
X77719365Y-69200062D01*
X77569378Y-69201689D01*
X77430049Y-69205365D01*
X77310010Y-69211085D01*
X77217890Y-69218842D01*
X77162323Y-69228632D01*
X77150755Y-69234504D01*
X77136890Y-69269601D01*
X77117067Y-69343972D01*
X77093616Y-69447777D01*
X77068864Y-69571181D01*
X77060857Y-69614259D01*
X77022814Y-69821953D01*
X76992176Y-69986016D01*
X76967726Y-70111870D01*
X76948246Y-70204935D01*
X76932519Y-70270633D01*
X76919327Y-70314383D01*
X76907451Y-70341608D01*
X76895675Y-70357728D01*
X76893347Y-70359983D01*
X76855855Y-70382497D01*
X76782890Y-70416842D01*
X76683388Y-70459589D01*
X76566282Y-70507308D01*
X76440507Y-70556570D01*
X76314998Y-70603945D01*
X76198690Y-70646005D01*
X76100516Y-70679320D01*
X76029412Y-70700459D01*
X75994313Y-70705995D01*
X75993083Y-70705534D01*
X75964394Y-70686777D01*
X75901270Y-70644224D01*
X75810282Y-70582347D01*
X75698000Y-70505618D01*
X75570995Y-70418509D01*
X75534902Y-70393701D01*
X75404052Y-70305247D01*
X75284664Y-70227412D01*
X75183593Y-70164434D01*
X75107696Y-70120555D01*
X75063828Y-70100015D01*
X75058438Y-70099020D01*
X75030111Y-70116278D01*
X74973994Y-70163964D01*
X74896118Y-70235950D01*
X74802515Y-70326103D01*
X74699214Y-70428295D01*
X74592249Y-70536394D01*
X74487649Y-70644272D01*
X74391446Y-70745796D01*
X74309671Y-70834838D01*
X74248355Y-70905267D01*
X74213529Y-70950953D01*
X74207843Y-70963591D01*
X74221235Y-70993009D01*
X74257356Y-71053239D01*
X74310119Y-71134470D01*
X74352588Y-71196970D01*
X74430515Y-71310215D01*
X74522271Y-71444326D01*
X74613880Y-71578845D01*
X74662909Y-71651167D01*
X74828485Y-71895962D01*
X74717380Y-72101449D01*
X74668707Y-72195064D01*
X74630874Y-72274670D01*
X74609297Y-72328533D01*
X74606294Y-72342243D01*
X74628462Y-72358730D01*
X74691106Y-72391255D01*
X74788446Y-72437391D01*
X74914706Y-72494710D01*
X75064105Y-72560784D01*
X75230867Y-72633185D01*
X75409213Y-72709484D01*
X75593364Y-72787254D01*
X75777543Y-72864066D01*
X75955970Y-72937494D01*
X76122868Y-73005108D01*
X76272458Y-73064480D01*
X76398962Y-73113184D01*
X76496601Y-73148790D01*
X76559598Y-73168870D01*
X76581234Y-73172100D01*
X76608831Y-73146504D01*
X76653630Y-73090461D01*
X76706321Y-73015689D01*
X76710490Y-73009413D01*
X76865186Y-72816155D01*
X77045664Y-72660326D01*
X77246153Y-72543276D01*
X77460881Y-72466355D01*
X77684078Y-72430914D01*
X77909974Y-72438303D01*
X78132796Y-72489873D01*
X78346776Y-72586974D01*
X78393591Y-72615542D01*
X78582637Y-72764132D01*
X78734443Y-72939673D01*
X78848221Y-73136090D01*
X78923180Y-73347307D01*
X78958533Y-73567247D01*
X78953488Y-73789837D01*
X78907256Y-74008999D01*
X78819049Y-74218658D01*
X78688076Y-74412739D01*
X78634918Y-74472774D01*
X78468516Y-74625565D01*
X78293343Y-74736903D01*
X78096989Y-74813277D01*
X77902538Y-74855813D01*
X77683913Y-74866314D01*
X77464203Y-74831299D01*
X77250835Y-74754327D01*
X77051233Y-74638953D01*
X76872826Y-74488734D01*
X76723038Y-74307227D01*
X76707249Y-74283373D01*
X76655543Y-74207799D01*
X76610743Y-74150349D01*
X76582138Y-74122883D01*
X76581234Y-74122483D01*
X76550291Y-74128380D01*
X76480064Y-74151755D01*
X76376330Y-74190179D01*
X76244865Y-74241223D01*
X76091448Y-74302458D01*
X75921854Y-74371456D01*
X75741862Y-74445786D01*
X75557247Y-74523022D01*
X75373787Y-74600732D01*
X75197259Y-74676489D01*
X75033441Y-74747863D01*
X74888108Y-74812426D01*
X74767038Y-74867748D01*
X74676008Y-74911400D01*
X74620795Y-74940954D01*
X74606294Y-74952856D01*
X74617586Y-74989223D01*
X74647870Y-75057270D01*
X74691735Y-75145263D01*
X74717380Y-75193649D01*
X74828485Y-75399137D01*
X74662909Y-75643932D01*
X74578085Y-75768894D01*
X74484739Y-75905705D01*
X74396847Y-76033911D01*
X74352588Y-76098129D01*
X74291937Y-76188449D01*
X74243874Y-76264929D01*
X74214485Y-76317593D01*
X74208273Y-76334698D01*
X74225032Y-76359595D01*
X74271819Y-76414695D01*
X74343775Y-76494657D01*
X74436043Y-76594139D01*
X74543765Y-76707800D01*
X74612929Y-76779685D01*
X74736498Y-76905449D01*
X74847021Y-77014137D01*
X74939770Y-77101355D01*
X75010018Y-77162711D01*
X75053035Y-77193809D01*
X75061765Y-77196792D01*
X75094971Y-77182947D01*
X75162113Y-77144688D01*
X75256392Y-77086258D01*
X75371010Y-77011903D01*
X75499172Y-76925865D01*
X75534902Y-76901397D01*
X75664766Y-76812245D01*
X75781686Y-76732262D01*
X75879093Y-76665920D01*
X75950416Y-76617689D01*
X75989085Y-76592043D01*
X75993083Y-76589565D01*
X76023900Y-76593271D01*
X76091656Y-76612939D01*
X76187416Y-76645140D01*
X76302246Y-76686445D01*
X76427211Y-76733425D01*
X76553376Y-76782651D01*
X76671807Y-76830692D01*
X76773570Y-76874119D01*
X76849729Y-76909504D01*
X76891351Y-76933416D01*
X76893347Y-76935116D01*
X76905242Y-76949738D01*
X76917005Y-76974435D01*
X76929854Y-77014628D01*
X76945006Y-77075737D01*
X76963679Y-77163183D01*
X76987090Y-77282388D01*
X77016458Y-77438773D01*
X77053000Y-77637757D01*
X77060857Y-77680840D01*
X77085528Y-77808529D01*
X77109662Y-77919847D01*
X77130931Y-78004955D01*
X77147007Y-78054017D01*
X77150755Y-78060595D01*
X77183982Y-78071436D01*
X77258234Y-78080247D01*
X77364879Y-78087024D01*
X77495288Y-78091760D01*
X77640828Y-78094450D01*
X77792869Y-78095087D01*
X77942779Y-78093666D01*
X78081927Y-78090180D01*
X78201683Y-78084624D01*
X78293414Y-78076992D01*
X78348489Y-78067278D01*
X78359762Y-78061422D01*
X78371132Y-78028820D01*
X78389631Y-77954582D01*
X78413653Y-77846104D01*
X78441593Y-77710783D01*
X78471847Y-77556015D01*
X78487704Y-77471692D01*
X78517611Y-77311704D01*
X78544705Y-77169033D01*
X78567624Y-77050652D01*
X78585012Y-76963535D01*
X78595508Y-76914655D01*
X78597835Y-76906610D01*
X78624069Y-76893013D01*
X78687260Y-76864271D01*
X78778378Y-76824215D01*
X78888398Y-76776676D01*
X79008290Y-76725485D01*
X79129028Y-76674474D01*
X79241584Y-76627474D01*
X79336929Y-76588316D01*
X79406038Y-76560831D01*
X79439881Y-76548851D01*
X79441360Y-76548628D01*
X79468058Y-76562209D01*
X79529495Y-76600285D01*
X79619566Y-76658853D01*
X79732165Y-76733912D01*
X79861185Y-76821460D01*
X79935294Y-76872353D01*
X80071178Y-76965091D01*
X80194546Y-77047459D01*
X80299158Y-77115439D01*
X80378772Y-77165012D01*
X80427148Y-77192158D01*
X80437993Y-77196079D01*
X80463235Y-77179225D01*
X80517131Y-77132632D01*
X80593642Y-77062251D01*
X80686732Y-76974035D01*
X80790360Y-76873935D01*
X80898491Y-76767902D01*
X81005085Y-76661889D01*
X81104105Y-76561848D01*
X81189513Y-76473730D01*
X81255270Y-76403487D01*
X81295339Y-76357072D01*
X81304902Y-76341544D01*
X81291455Y-76316261D01*
X81253680Y-76255789D01*
X81195420Y-76166008D01*
X81120521Y-76052797D01*
X81032830Y-75922036D01*
X80966022Y-75823400D01*
X80627143Y-75325043D01*
X80798390Y-74909629D01*
X80969637Y-74494216D01*
X81566828Y-74381634D01*
X82164020Y-74269051D01*
X82164020Y-73026048D01*
X81566828Y-72913465D01*
X81566828Y-72913465D01*
G37*
X81566828Y-72913465D02*
X80969637Y-72800883D01*
X80798390Y-72385469D01*
X80627143Y-71970056D01*
X80966022Y-71471698D01*
X81060378Y-71332132D01*
X81144625Y-71205972D01*
X81214917Y-71099105D01*
X81267408Y-71017418D01*
X81298251Y-70966799D01*
X81304902Y-70953014D01*
X81287797Y-70928180D01*
X81240511Y-70875112D01*
X81169083Y-70799760D01*
X81079555Y-70708071D01*
X80977966Y-70605993D01*
X80870357Y-70499474D01*
X80762768Y-70394464D01*
X80661240Y-70296909D01*
X80571814Y-70212758D01*
X80500529Y-70147960D01*
X80453427Y-70108462D01*
X80437663Y-70099020D01*
X80408602Y-70112609D01*
X80344934Y-70150707D01*
X80252888Y-70209306D01*
X80138691Y-70284403D01*
X80008571Y-70371991D01*
X79934354Y-70422746D01*
X79798833Y-70515255D01*
X79676539Y-70597460D01*
X79573560Y-70665370D01*
X79495982Y-70715000D01*
X79449894Y-70742360D01*
X79440208Y-70746471D01*
X79412681Y-70737151D01*
X79348527Y-70711746D01*
X79256765Y-70674089D01*
X79146416Y-70628014D01*
X79026500Y-70577354D01*
X78906036Y-70525941D01*
X78794046Y-70477611D01*
X78699548Y-70436194D01*
X78631563Y-70405526D01*
X78599112Y-70389438D01*
X78597835Y-70388489D01*
X78591638Y-70363228D01*
X78577815Y-70295954D01*
X78557723Y-70193640D01*
X78532721Y-70063259D01*
X78504169Y-69911784D01*
X78487704Y-69823406D01*
X78456886Y-69661548D01*
X78427561Y-69515351D01*
X78401334Y-69392213D01*
X78379809Y-69299531D01*
X78364590Y-69244699D01*
X78359762Y-69233677D01*
X78327081Y-69222881D01*
X78253270Y-69214171D01*
X78146963Y-69207540D01*
X78016788Y-69202982D01*
X77871379Y-69200491D01*
X77719365Y-69200062D01*
X77569378Y-69201689D01*
X77430049Y-69205365D01*
X77310010Y-69211085D01*
X77217890Y-69218842D01*
X77162323Y-69228632D01*
X77150755Y-69234504D01*
X77136890Y-69269601D01*
X77117067Y-69343972D01*
X77093616Y-69447777D01*
X77068864Y-69571181D01*
X77060857Y-69614259D01*
X77022814Y-69821953D01*
X76992176Y-69986016D01*
X76967726Y-70111870D01*
X76948246Y-70204935D01*
X76932519Y-70270633D01*
X76919327Y-70314383D01*
X76907451Y-70341608D01*
X76895675Y-70357728D01*
X76893347Y-70359983D01*
X76855855Y-70382497D01*
X76782890Y-70416842D01*
X76683388Y-70459589D01*
X76566282Y-70507308D01*
X76440507Y-70556570D01*
X76314998Y-70603945D01*
X76198690Y-70646005D01*
X76100516Y-70679320D01*
X76029412Y-70700459D01*
X75994313Y-70705995D01*
X75993083Y-70705534D01*
X75964394Y-70686777D01*
X75901270Y-70644224D01*
X75810282Y-70582347D01*
X75698000Y-70505618D01*
X75570995Y-70418509D01*
X75534902Y-70393701D01*
X75404052Y-70305247D01*
X75284664Y-70227412D01*
X75183593Y-70164434D01*
X75107696Y-70120555D01*
X75063828Y-70100015D01*
X75058438Y-70099020D01*
X75030111Y-70116278D01*
X74973994Y-70163964D01*
X74896118Y-70235950D01*
X74802515Y-70326103D01*
X74699214Y-70428295D01*
X74592249Y-70536394D01*
X74487649Y-70644272D01*
X74391446Y-70745796D01*
X74309671Y-70834838D01*
X74248355Y-70905267D01*
X74213529Y-70950953D01*
X74207843Y-70963591D01*
X74221235Y-70993009D01*
X74257356Y-71053239D01*
X74310119Y-71134470D01*
X74352588Y-71196970D01*
X74430515Y-71310215D01*
X74522271Y-71444326D01*
X74613880Y-71578845D01*
X74662909Y-71651167D01*
X74828485Y-71895962D01*
X74717380Y-72101449D01*
X74668707Y-72195064D01*
X74630874Y-72274670D01*
X74609297Y-72328533D01*
X74606294Y-72342243D01*
X74628462Y-72358730D01*
X74691106Y-72391255D01*
X74788446Y-72437391D01*
X74914706Y-72494710D01*
X75064105Y-72560784D01*
X75230867Y-72633185D01*
X75409213Y-72709484D01*
X75593364Y-72787254D01*
X75777543Y-72864066D01*
X75955970Y-72937494D01*
X76122868Y-73005108D01*
X76272458Y-73064480D01*
X76398962Y-73113184D01*
X76496601Y-73148790D01*
X76559598Y-73168870D01*
X76581234Y-73172100D01*
X76608831Y-73146504D01*
X76653630Y-73090461D01*
X76706321Y-73015689D01*
X76710490Y-73009413D01*
X76865186Y-72816155D01*
X77045664Y-72660326D01*
X77246153Y-72543276D01*
X77460881Y-72466355D01*
X77684078Y-72430914D01*
X77909974Y-72438303D01*
X78132796Y-72489873D01*
X78346776Y-72586974D01*
X78393591Y-72615542D01*
X78582637Y-72764132D01*
X78734443Y-72939673D01*
X78848221Y-73136090D01*
X78923180Y-73347307D01*
X78958533Y-73567247D01*
X78953488Y-73789837D01*
X78907256Y-74008999D01*
X78819049Y-74218658D01*
X78688076Y-74412739D01*
X78634918Y-74472774D01*
X78468516Y-74625565D01*
X78293343Y-74736903D01*
X78096989Y-74813277D01*
X77902538Y-74855813D01*
X77683913Y-74866314D01*
X77464203Y-74831299D01*
X77250835Y-74754327D01*
X77051233Y-74638953D01*
X76872826Y-74488734D01*
X76723038Y-74307227D01*
X76707249Y-74283373D01*
X76655543Y-74207799D01*
X76610743Y-74150349D01*
X76582138Y-74122883D01*
X76581234Y-74122483D01*
X76550291Y-74128380D01*
X76480064Y-74151755D01*
X76376330Y-74190179D01*
X76244865Y-74241223D01*
X76091448Y-74302458D01*
X75921854Y-74371456D01*
X75741862Y-74445786D01*
X75557247Y-74523022D01*
X75373787Y-74600732D01*
X75197259Y-74676489D01*
X75033441Y-74747863D01*
X74888108Y-74812426D01*
X74767038Y-74867748D01*
X74676008Y-74911400D01*
X74620795Y-74940954D01*
X74606294Y-74952856D01*
X74617586Y-74989223D01*
X74647870Y-75057270D01*
X74691735Y-75145263D01*
X74717380Y-75193649D01*
X74828485Y-75399137D01*
X74662909Y-75643932D01*
X74578085Y-75768894D01*
X74484739Y-75905705D01*
X74396847Y-76033911D01*
X74352588Y-76098129D01*
X74291937Y-76188449D01*
X74243874Y-76264929D01*
X74214485Y-76317593D01*
X74208273Y-76334698D01*
X74225032Y-76359595D01*
X74271819Y-76414695D01*
X74343775Y-76494657D01*
X74436043Y-76594139D01*
X74543765Y-76707800D01*
X74612929Y-76779685D01*
X74736498Y-76905449D01*
X74847021Y-77014137D01*
X74939770Y-77101355D01*
X75010018Y-77162711D01*
X75053035Y-77193809D01*
X75061765Y-77196792D01*
X75094971Y-77182947D01*
X75162113Y-77144688D01*
X75256392Y-77086258D01*
X75371010Y-77011903D01*
X75499172Y-76925865D01*
X75534902Y-76901397D01*
X75664766Y-76812245D01*
X75781686Y-76732262D01*
X75879093Y-76665920D01*
X75950416Y-76617689D01*
X75989085Y-76592043D01*
X75993083Y-76589565D01*
X76023900Y-76593271D01*
X76091656Y-76612939D01*
X76187416Y-76645140D01*
X76302246Y-76686445D01*
X76427211Y-76733425D01*
X76553376Y-76782651D01*
X76671807Y-76830692D01*
X76773570Y-76874119D01*
X76849729Y-76909504D01*
X76891351Y-76933416D01*
X76893347Y-76935116D01*
X76905242Y-76949738D01*
X76917005Y-76974435D01*
X76929854Y-77014628D01*
X76945006Y-77075737D01*
X76963679Y-77163183D01*
X76987090Y-77282388D01*
X77016458Y-77438773D01*
X77053000Y-77637757D01*
X77060857Y-77680840D01*
X77085528Y-77808529D01*
X77109662Y-77919847D01*
X77130931Y-78004955D01*
X77147007Y-78054017D01*
X77150755Y-78060595D01*
X77183982Y-78071436D01*
X77258234Y-78080247D01*
X77364879Y-78087024D01*
X77495288Y-78091760D01*
X77640828Y-78094450D01*
X77792869Y-78095087D01*
X77942779Y-78093666D01*
X78081927Y-78090180D01*
X78201683Y-78084624D01*
X78293414Y-78076992D01*
X78348489Y-78067278D01*
X78359762Y-78061422D01*
X78371132Y-78028820D01*
X78389631Y-77954582D01*
X78413653Y-77846104D01*
X78441593Y-77710783D01*
X78471847Y-77556015D01*
X78487704Y-77471692D01*
X78517611Y-77311704D01*
X78544705Y-77169033D01*
X78567624Y-77050652D01*
X78585012Y-76963535D01*
X78595508Y-76914655D01*
X78597835Y-76906610D01*
X78624069Y-76893013D01*
X78687260Y-76864271D01*
X78778378Y-76824215D01*
X78888398Y-76776676D01*
X79008290Y-76725485D01*
X79129028Y-76674474D01*
X79241584Y-76627474D01*
X79336929Y-76588316D01*
X79406038Y-76560831D01*
X79439881Y-76548851D01*
X79441360Y-76548628D01*
X79468058Y-76562209D01*
X79529495Y-76600285D01*
X79619566Y-76658853D01*
X79732165Y-76733912D01*
X79861185Y-76821460D01*
X79935294Y-76872353D01*
X80071178Y-76965091D01*
X80194546Y-77047459D01*
X80299158Y-77115439D01*
X80378772Y-77165012D01*
X80427148Y-77192158D01*
X80437993Y-77196079D01*
X80463235Y-77179225D01*
X80517131Y-77132632D01*
X80593642Y-77062251D01*
X80686732Y-76974035D01*
X80790360Y-76873935D01*
X80898491Y-76767902D01*
X81005085Y-76661889D01*
X81104105Y-76561848D01*
X81189513Y-76473730D01*
X81255270Y-76403487D01*
X81295339Y-76357072D01*
X81304902Y-76341544D01*
X81291455Y-76316261D01*
X81253680Y-76255789D01*
X81195420Y-76166008D01*
X81120521Y-76052797D01*
X81032830Y-75922036D01*
X80966022Y-75823400D01*
X80627143Y-75325043D01*
X80798390Y-74909629D01*
X80969637Y-74494216D01*
X81566828Y-74381634D01*
X82164020Y-74269051D01*
X82164020Y-73026048D01*
X81566828Y-72913465D01*
G36*
X73312528Y-70096363D02*
G01*
X73286359Y-70010710D01*
X73253293Y-69955563D01*
X73227145Y-69937599D01*
X73196148Y-69942543D01*
X73147453Y-69974628D01*
X73112965Y-70001757D01*
X73050617Y-70057683D01*
X73024385Y-70099701D01*
X73026097Y-70135520D01*
X73053137Y-70241776D01*
X73051909Y-70319811D01*
X73021265Y-70383180D01*
X73003330Y-70404454D01*
X72940221Y-70472549D01*
X72116078Y-70472549D01*
X72116078Y-70746471D01*
X73311372Y-70746471D01*
X73311372Y-70609510D01*
X73308121Y-70527281D01*
X73296574Y-70484856D01*
X73274048Y-70472555D01*
X73273380Y-70472549D01*
X73249785Y-70466740D01*
X73252862Y-70440469D01*
X73269885Y-70404069D01*
X73301561Y-70328889D01*
X73320619Y-70267842D01*
X73325504Y-70189292D01*
X73312528Y-70096363D01*
X73312528Y-70096363D01*
G37*
X73312528Y-70096363D02*
X73286359Y-70010710D01*
X73253293Y-69955563D01*
X73227145Y-69937599D01*
X73196148Y-69942543D01*
X73147453Y-69974628D01*
X73112965Y-70001757D01*
X73050617Y-70057683D01*
X73024385Y-70099701D01*
X73026097Y-70135520D01*
X73053137Y-70241776D01*
X73051909Y-70319811D01*
X73021265Y-70383180D01*
X73003330Y-70404454D01*
X72940221Y-70472549D01*
X72116078Y-70472549D01*
X72116078Y-70746471D01*
X73311372Y-70746471D01*
X73311372Y-70609510D01*
X73308121Y-70527281D01*
X73296574Y-70484856D01*
X73274048Y-70472555D01*
X73273380Y-70472549D01*
X73249785Y-70466740D01*
X73252862Y-70440469D01*
X73269885Y-70404069D01*
X73301561Y-70328889D01*
X73320619Y-70267842D01*
X73325504Y-70189292D01*
X73312528Y-70096363D01*
G36*
X73290801Y-75153240D02*
G01*
X73261198Y-75091264D01*
X73218439Y-75031241D01*
X73169225Y-74985514D01*
X73106456Y-74952207D01*
X73023029Y-74929445D01*
X72911841Y-74915353D01*
X72765791Y-74908058D01*
X72577777Y-74905682D01*
X72558088Y-74905645D01*
X72116078Y-74905098D01*
X72116078Y-75179020D01*
X72523565Y-75179020D01*
X72674529Y-75179215D01*
X72783944Y-75180564D01*
X72860067Y-75184212D01*
X72911152Y-75191304D01*
X72945455Y-75202987D01*
X72971232Y-75220406D01*
X72996702Y-75244671D01*
X73051429Y-75329565D01*
X73061584Y-75422239D01*
X73026983Y-75510527D01*
X73001230Y-75541230D01*
X72977018Y-75563771D01*
X72951088Y-75579954D01*
X72915292Y-75590832D01*
X72861481Y-75597458D01*
X72781507Y-75600885D01*
X72667221Y-75602166D01*
X72528093Y-75602353D01*
X72116078Y-75602353D01*
X72116078Y-75876275D01*
X73311372Y-75876275D01*
X73311372Y-75739314D01*
X73308121Y-75657084D01*
X73296574Y-75614660D01*
X73274048Y-75602359D01*
X73273380Y-75602353D01*
X73251319Y-75596646D01*
X73253823Y-75571473D01*
X73278063Y-75521422D01*
X73313729Y-75407906D01*
X73317695Y-75278055D01*
X73290801Y-75153240D01*
X73290801Y-75153240D01*
G37*
X73290801Y-75153240D02*
X73261198Y-75091264D01*
X73218439Y-75031241D01*
X73169225Y-74985514D01*
X73106456Y-74952207D01*
X73023029Y-74929445D01*
X72911841Y-74915353D01*
X72765791Y-74908058D01*
X72577777Y-74905682D01*
X72558088Y-74905645D01*
X72116078Y-74905098D01*
X72116078Y-75179020D01*
X72523565Y-75179020D01*
X72674529Y-75179215D01*
X72783944Y-75180564D01*
X72860067Y-75184212D01*
X72911152Y-75191304D01*
X72945455Y-75202987D01*
X72971232Y-75220406D01*
X72996702Y-75244671D01*
X73051429Y-75329565D01*
X73061584Y-75422239D01*
X73026983Y-75510527D01*
X73001230Y-75541230D01*
X72977018Y-75563771D01*
X72951088Y-75579954D01*
X72915292Y-75590832D01*
X72861481Y-75597458D01*
X72781507Y-75600885D01*
X72667221Y-75602166D01*
X72528093Y-75602353D01*
X72116078Y-75602353D01*
X72116078Y-75876275D01*
X73311372Y-75876275D01*
X73311372Y-75739314D01*
X73308121Y-75657084D01*
X73296574Y-75614660D01*
X73274048Y-75602359D01*
X73273380Y-75602353D01*
X73251319Y-75596646D01*
X73253823Y-75571473D01*
X73278063Y-75521422D01*
X73313729Y-75407906D01*
X73317695Y-75278055D01*
X73290801Y-75153240D01*
G36*
X73315645Y-68356713D02*
G01*
X73300155Y-68292949D01*
X73243431Y-68170700D01*
X73156798Y-68066166D01*
X73052926Y-67993820D01*
X73029604Y-67983881D01*
X72968516Y-67970246D01*
X72878147Y-67960702D01*
X72786810Y-67957451D01*
X72614118Y-67957451D01*
X72614118Y-68318530D01*
X72613555Y-68467454D01*
X72610136Y-68572368D01*
X72601269Y-68639063D01*
X72584359Y-68673334D01*
X72556811Y-68680972D01*
X72516032Y-68667771D01*
X72468317Y-68644123D01*
X72388686Y-68578157D01*
X72349013Y-68486488D01*
X72350305Y-68374445D01*
X72393486Y-68247528D01*
X72446776Y-68137842D01*
X72374809Y-68046827D01*
X72302843Y-67955812D01*
X72223731Y-68041437D01*
X72148983Y-68155750D01*
X72103916Y-68296334D01*
X72091304Y-68447551D01*
X72113921Y-68593764D01*
X72121595Y-68617353D01*
X72188704Y-68745859D01*
X72288753Y-68841449D01*
X72424729Y-68906139D01*
X72599620Y-68941943D01*
X72603368Y-68942360D01*
X72793968Y-68945566D01*
X72861965Y-68932607D01*
X72861965Y-68679608D01*
X72851509Y-68656373D01*
X72843500Y-68593290D01*
X72838927Y-68500294D01*
X72838235Y-68441362D01*
X72838668Y-68331463D01*
X72841422Y-68262748D01*
X72848679Y-68226595D01*
X72862624Y-68214385D01*
X72885438Y-68217496D01*
X72894265Y-68220106D01*
X72977200Y-68264656D01*
X73044040Y-68334721D01*
X73073411Y-68396554D01*
X73071638Y-68478699D01*
X73035010Y-68561938D01*
X72974366Y-68631762D01*
X72900544Y-68673663D01*
X72861965Y-68679608D01*
X72861965Y-68932607D01*
X72961605Y-68913615D01*
X73102289Y-68850227D01*
X73212026Y-68759122D01*
X73286826Y-68644022D01*
X73322696Y-68508645D01*
X73315645Y-68356713D01*
X73315645Y-68356713D01*
G37*
X73315645Y-68356713D02*
X73300155Y-68292949D01*
X73243431Y-68170700D01*
X73156798Y-68066166D01*
X73052926Y-67993820D01*
X73029604Y-67983881D01*
X72968516Y-67970246D01*
X72878147Y-67960702D01*
X72786810Y-67957451D01*
X72614118Y-67957451D01*
X72614118Y-68318530D01*
X72613555Y-68467454D01*
X72610136Y-68572368D01*
X72601269Y-68639063D01*
X72584359Y-68673334D01*
X72556811Y-68680972D01*
X72516032Y-68667771D01*
X72468317Y-68644123D01*
X72388686Y-68578157D01*
X72349013Y-68486488D01*
X72350305Y-68374445D01*
X72393486Y-68247528D01*
X72446776Y-68137842D01*
X72374809Y-68046827D01*
X72302843Y-67955812D01*
X72223731Y-68041437D01*
X72148983Y-68155750D01*
X72103916Y-68296334D01*
X72091304Y-68447551D01*
X72113921Y-68593764D01*
X72121595Y-68617353D01*
X72188704Y-68745859D01*
X72288753Y-68841449D01*
X72424729Y-68906139D01*
X72599620Y-68941943D01*
X72603368Y-68942360D01*
X72793968Y-68945566D01*
X72861965Y-68932607D01*
X72861965Y-68679608D01*
X72851509Y-68656373D01*
X72843500Y-68593290D01*
X72838927Y-68500294D01*
X72838235Y-68441362D01*
X72838668Y-68331463D01*
X72841422Y-68262748D01*
X72848679Y-68226595D01*
X72862624Y-68214385D01*
X72885438Y-68217496D01*
X72894265Y-68220106D01*
X72977200Y-68264656D01*
X73044040Y-68334721D01*
X73073411Y-68396554D01*
X73071638Y-68478699D01*
X73035010Y-68561938D01*
X72974366Y-68631762D01*
X72900544Y-68673663D01*
X72861965Y-68679608D01*
X72861965Y-68932607D01*
X72961605Y-68913615D01*
X73102289Y-68850227D01*
X73212026Y-68759122D01*
X73286826Y-68644022D01*
X73322696Y-68508645D01*
X73315645Y-68356713D01*
G36*
X73300944Y-69269024D02*
G01*
X73239652Y-69124744D01*
X73209815Y-69079301D01*
X73163964Y-69021221D01*
X73127911Y-68984762D01*
X73116168Y-68978432D01*
X73090111Y-68996307D01*
X73045895Y-69042050D01*
X73015035Y-69078672D01*
X72934480Y-69178912D01*
X73001082Y-69258065D01*
X73044079Y-69319231D01*
X73058921Y-69378871D01*
X73055296Y-69447128D01*
X73028348Y-69555518D01*
X72972413Y-69630128D01*
X72881986Y-69675470D01*
X72751565Y-69696053D01*
X72751483Y-69696058D01*
X72605710Y-69694278D01*
X72498755Y-69666613D01*
X72425936Y-69611429D01*
X72401277Y-69573808D01*
X72370569Y-69473895D01*
X72370551Y-69367178D01*
X72400345Y-69274331D01*
X72414902Y-69252353D01*
X72452086Y-69197235D01*
X72458180Y-69154141D01*
X72430504Y-69107665D01*
X72380795Y-69056284D01*
X72296884Y-68974954D01*
X72222454Y-69065251D01*
X72138451Y-69204764D01*
X72097053Y-69362088D01*
X72100050Y-69526497D01*
X72127500Y-69634469D01*
X72195380Y-69760669D01*
X72302169Y-69861599D01*
X72377549Y-69907452D01*
X72485703Y-69944590D01*
X72622682Y-69963173D01*
X72771136Y-69963316D01*
X72913719Y-69945135D01*
X73033082Y-69908745D01*
X73045320Y-69903013D01*
X73165345Y-69818135D01*
X73252733Y-69703218D01*
X73305671Y-69567341D01*
X73322346Y-69419583D01*
X73300944Y-69269024D01*
X73300944Y-69269024D01*
G37*
X73300944Y-69269024D02*
X73239652Y-69124744D01*
X73209815Y-69079301D01*
X73163964Y-69021221D01*
X73127911Y-68984762D01*
X73116168Y-68978432D01*
X73090111Y-68996307D01*
X73045895Y-69042050D01*
X73015035Y-69078672D01*
X72934480Y-69178912D01*
X73001082Y-69258065D01*
X73044079Y-69319231D01*
X73058921Y-69378871D01*
X73055296Y-69447128D01*
X73028348Y-69555518D01*
X72972413Y-69630128D01*
X72881986Y-69675470D01*
X72751565Y-69696053D01*
X72751483Y-69696058D01*
X72605710Y-69694278D01*
X72498755Y-69666613D01*
X72425936Y-69611429D01*
X72401277Y-69573808D01*
X72370569Y-69473895D01*
X72370551Y-69367178D01*
X72400345Y-69274331D01*
X72414902Y-69252353D01*
X72452086Y-69197235D01*
X72458180Y-69154141D01*
X72430504Y-69107665D01*
X72380795Y-69056284D01*
X72296884Y-68974954D01*
X72222454Y-69065251D01*
X72138451Y-69204764D01*
X72097053Y-69362088D01*
X72100050Y-69526497D01*
X72127500Y-69634469D01*
X72195380Y-69760669D01*
X72302169Y-69861599D01*
X72377549Y-69907452D01*
X72485703Y-69944590D01*
X72622682Y-69963173D01*
X72771136Y-69963316D01*
X72913719Y-69945135D01*
X73033082Y-69908745D01*
X73045320Y-69903013D01*
X73165345Y-69818135D01*
X73252733Y-69703218D01*
X73305671Y-69567341D01*
X73322346Y-69419583D01*
X73300944Y-69269024D01*
G36*
X72923755Y-71692746D02*
G01*
X72741121Y-71690392D01*
X72602400Y-71681793D01*
X72501853Y-71664640D01*
X72433746Y-71636626D01*
X72392341Y-71595443D01*
X72371903Y-71538783D01*
X72366682Y-71468628D01*
X72372532Y-71395152D01*
X72393907Y-71339343D01*
X72436542Y-71298891D01*
X72506175Y-71271491D01*
X72608540Y-71254833D01*
X72749376Y-71246611D01*
X72923755Y-71244510D01*
X73311372Y-71244510D01*
X73311372Y-70970589D01*
X72116078Y-70970589D01*
X72116078Y-71107549D01*
X72119424Y-71190116D01*
X72131174Y-71232632D01*
X72153480Y-71244510D01*
X72173346Y-71251664D01*
X72169143Y-71280135D01*
X72141029Y-71337524D01*
X72097658Y-71469055D01*
X72100730Y-71608562D01*
X72147826Y-71742235D01*
X72185029Y-71805892D01*
X72225309Y-71854447D01*
X72275709Y-71889919D01*
X72343271Y-71914326D01*
X72435035Y-71929687D01*
X72558045Y-71938018D01*
X72719341Y-71941338D01*
X72844072Y-71941765D01*
X73311372Y-71941765D01*
X73311372Y-71692746D01*
X72923755Y-71692746D01*
X72923755Y-71692746D01*
G37*
X72923755Y-71692746D02*
X72741121Y-71690392D01*
X72602400Y-71681793D01*
X72501853Y-71664640D01*
X72433746Y-71636626D01*
X72392341Y-71595443D01*
X72371903Y-71538783D01*
X72366682Y-71468628D01*
X72372532Y-71395152D01*
X72393907Y-71339343D01*
X72436542Y-71298891D01*
X72506175Y-71271491D01*
X72608540Y-71254833D01*
X72749376Y-71246611D01*
X72923755Y-71244510D01*
X73311372Y-71244510D01*
X73311372Y-70970589D01*
X72116078Y-70970589D01*
X72116078Y-71107549D01*
X72119424Y-71190116D01*
X72131174Y-71232632D01*
X72153480Y-71244510D01*
X72173346Y-71251664D01*
X72169143Y-71280135D01*
X72141029Y-71337524D01*
X72097658Y-71469055D01*
X72100730Y-71608562D01*
X72147826Y-71742235D01*
X72185029Y-71805892D01*
X72225309Y-71854447D01*
X72275709Y-71889919D01*
X72343271Y-71914326D01*
X72435035Y-71929687D01*
X72558045Y-71938018D01*
X72719341Y-71941338D01*
X72844072Y-71941765D01*
X73311372Y-71941765D01*
X73311372Y-71692746D01*
X72923755Y-71692746D01*
G36*
X73296636Y-72450453D02*
G01*
X73228041Y-72324498D01*
X73119755Y-72225953D01*
X73031685Y-72179522D01*
X72953899Y-72159588D01*
X72843007Y-72146672D01*
X72715262Y-72141137D01*
X72586916Y-72143346D01*
X72474221Y-72153663D01*
X72414031Y-72165714D01*
X72331689Y-72206366D01*
X72244230Y-72276770D01*
X72167749Y-72361618D01*
X72118345Y-72445603D01*
X72117561Y-72447651D01*
X72095973Y-72551866D01*
X72095438Y-72675373D01*
X72115092Y-72792739D01*
X72130845Y-72838058D01*
X72197034Y-72954780D01*
X72283754Y-73038376D01*
X72398562Y-73093299D01*
X72549018Y-73124005D01*
X72627827Y-73130953D01*
X72726855Y-73130067D01*
X72726855Y-72863138D01*
X72582355Y-72854146D01*
X72472240Y-72828264D01*
X72401884Y-72787132D01*
X72381765Y-72757828D01*
X72367735Y-72682749D01*
X72371889Y-72593506D01*
X72392078Y-72516350D01*
X72403185Y-72496117D01*
X72467877Y-72442735D01*
X72566881Y-72407500D01*
X72687368Y-72392502D01*
X72816506Y-72399828D01*
X72894225Y-72416201D01*
X72984229Y-72463210D01*
X73040491Y-72537418D01*
X73059943Y-72626791D01*
X73039519Y-72719293D01*
X72989563Y-72790347D01*
X72948345Y-72827688D01*
X72907719Y-72849482D01*
X72852736Y-72859870D01*
X72768451Y-72862994D01*
X72726855Y-72863138D01*
X72726855Y-73130067D01*
X72838126Y-73129070D01*
X73010577Y-73094820D01*
X73145186Y-73028198D01*
X73241960Y-72929201D01*
X73300906Y-72797825D01*
X73307741Y-72769615D01*
X73323787Y-72600074D01*
X73296636Y-72450453D01*
X73296636Y-72450453D01*
G37*
X73296636Y-72450453D02*
X73228041Y-72324498D01*
X73119755Y-72225953D01*
X73031685Y-72179522D01*
X72953899Y-72159588D01*
X72843007Y-72146672D01*
X72715262Y-72141137D01*
X72586916Y-72143346D01*
X72474221Y-72153663D01*
X72414031Y-72165714D01*
X72331689Y-72206366D01*
X72244230Y-72276770D01*
X72167749Y-72361618D01*
X72118345Y-72445603D01*
X72117561Y-72447651D01*
X72095973Y-72551866D01*
X72095438Y-72675373D01*
X72115092Y-72792739D01*
X72130845Y-72838058D01*
X72197034Y-72954780D01*
X72283754Y-73038376D01*
X72398562Y-73093299D01*
X72549018Y-73124005D01*
X72627827Y-73130953D01*
X72726855Y-73130067D01*
X72726855Y-72863138D01*
X72582355Y-72854146D01*
X72472240Y-72828264D01*
X72401884Y-72787132D01*
X72381765Y-72757828D01*
X72367735Y-72682749D01*
X72371889Y-72593506D01*
X72392078Y-72516350D01*
X72403185Y-72496117D01*
X72467877Y-72442735D01*
X72566881Y-72407500D01*
X72687368Y-72392502D01*
X72816506Y-72399828D01*
X72894225Y-72416201D01*
X72984229Y-72463210D01*
X73040491Y-72537418D01*
X73059943Y-72626791D01*
X73039519Y-72719293D01*
X72989563Y-72790347D01*
X72948345Y-72827688D01*
X72907719Y-72849482D01*
X72852736Y-72859870D01*
X72768451Y-72862994D01*
X72726855Y-72863138D01*
X72726855Y-73130067D01*
X72838126Y-73129070D01*
X73010577Y-73094820D01*
X73145186Y-73028198D01*
X73241960Y-72929201D01*
X73300906Y-72797825D01*
X73307741Y-72769615D01*
X73323787Y-72600074D01*
X73296636Y-72450453D01*
G36*
X73315655Y-73632241D02*
G01*
X73297771Y-73537941D01*
X73260367Y-73440110D01*
X73255598Y-73429657D01*
X73216588Y-73355469D01*
X73180336Y-73304090D01*
X73157113Y-73287483D01*
X73119239Y-73303298D01*
X73063356Y-73341712D01*
X73042495Y-73358763D01*
X72960382Y-73429031D01*
X73013832Y-73519621D01*
X73049439Y-73605836D01*
X73068471Y-73705451D01*
X73069674Y-73800981D01*
X73051790Y-73874939D01*
X73040627Y-73892688D01*
X72989447Y-73926488D01*
X72930491Y-73930596D01*
X72884433Y-73905304D01*
X72875501Y-73890344D01*
X72864408Y-73845514D01*
X72851370Y-73766714D01*
X72838912Y-73669574D01*
X72836958Y-73651654D01*
X72809970Y-73495635D01*
X72764127Y-73382477D01*
X72695197Y-73307431D01*
X72598946Y-73265747D01*
X72481383Y-73252762D01*
X72347746Y-73270701D01*
X72242805Y-73328950D01*
X72166370Y-73427745D01*
X72118252Y-73567318D01*
X72099268Y-73722255D01*
X72099496Y-73848602D01*
X72116738Y-73951087D01*
X72140543Y-74021079D01*
X72182022Y-74109517D01*
X72230158Y-74191246D01*
X72251345Y-74220295D01*
X72312324Y-74295000D01*
X72403492Y-74204902D01*
X72494661Y-74114804D01*
X72426872Y-74012368D01*
X72375958Y-73909626D01*
X72349327Y-73799913D01*
X72346517Y-73694449D01*
X72367065Y-73604454D01*
X72410507Y-73541146D01*
X72447162Y-73520704D01*
X72505947Y-73523771D01*
X72550901Y-73574566D01*
X72581943Y-73672952D01*
X72596290Y-73780744D01*
X72623663Y-73946635D01*
X72675307Y-74069876D01*
X72752734Y-74152114D01*
X72857456Y-74194999D01*
X72981613Y-74200940D01*
X73111298Y-74171594D01*
X73209323Y-74104691D01*
X73276134Y-73999629D01*
X73312180Y-73855810D01*
X73319246Y-73749262D01*
X73315655Y-73632241D01*
X73315655Y-73632241D01*
G37*
X73315655Y-73632241D02*
X73297771Y-73537941D01*
X73260367Y-73440110D01*
X73255598Y-73429657D01*
X73216588Y-73355469D01*
X73180336Y-73304090D01*
X73157113Y-73287483D01*
X73119239Y-73303298D01*
X73063356Y-73341712D01*
X73042495Y-73358763D01*
X72960382Y-73429031D01*
X73013832Y-73519621D01*
X73049439Y-73605836D01*
X73068471Y-73705451D01*
X73069674Y-73800981D01*
X73051790Y-73874939D01*
X73040627Y-73892688D01*
X72989447Y-73926488D01*
X72930491Y-73930596D01*
X72884433Y-73905304D01*
X72875501Y-73890344D01*
X72864408Y-73845514D01*
X72851370Y-73766714D01*
X72838912Y-73669574D01*
X72836958Y-73651654D01*
X72809970Y-73495635D01*
X72764127Y-73382477D01*
X72695197Y-73307431D01*
X72598946Y-73265747D01*
X72481383Y-73252762D01*
X72347746Y-73270701D01*
X72242805Y-73328950D01*
X72166370Y-73427745D01*
X72118252Y-73567318D01*
X72099268Y-73722255D01*
X72099496Y-73848602D01*
X72116738Y-73951087D01*
X72140543Y-74021079D01*
X72182022Y-74109517D01*
X72230158Y-74191246D01*
X72251345Y-74220295D01*
X72312324Y-74295000D01*
X72403492Y-74204902D01*
X72494661Y-74114804D01*
X72426872Y-74012368D01*
X72375958Y-73909626D01*
X72349327Y-73799913D01*
X72346517Y-73694449D01*
X72367065Y-73604454D01*
X72410507Y-73541146D01*
X72447162Y-73520704D01*
X72505947Y-73523771D01*
X72550901Y-73574566D01*
X72581943Y-73672952D01*
X72596290Y-73780744D01*
X72623663Y-73946635D01*
X72675307Y-74069876D01*
X72752734Y-74152114D01*
X72857456Y-74194999D01*
X72981613Y-74200940D01*
X73111298Y-74171594D01*
X73209323Y-74104691D01*
X73276134Y-73999629D01*
X73312180Y-73855810D01*
X73319246Y-73749262D01*
X73315655Y-73632241D01*
G36*
X73283646Y-76346796D02*
G01*
X73271963Y-76321981D01*
X73209049Y-76236094D01*
X73117231Y-76154879D01*
X73016132Y-76094236D01*
X72969651Y-76076988D01*
X72886624Y-76061251D01*
X72786287Y-76051867D01*
X72744853Y-76050728D01*
X72614118Y-76050589D01*
X72614118Y-76803047D01*
X72545637Y-76787007D01*
X72464645Y-76747637D01*
X72394649Y-76678806D01*
X72349559Y-76596919D01*
X72340196Y-76544737D01*
X72351559Y-76473971D01*
X72380057Y-76389540D01*
X72393169Y-76360858D01*
X72446142Y-76254791D01*
X72377099Y-76164272D01*
X72330403Y-76112039D01*
X72291860Y-76084247D01*
X72280548Y-76082840D01*
X72253132Y-76107668D01*
X72211468Y-76162083D01*
X72178963Y-76211472D01*
X72120532Y-76344748D01*
X72094085Y-76494161D01*
X72100961Y-76642249D01*
X72136904Y-76760295D01*
X72213899Y-76881982D01*
X72315272Y-76968460D01*
X72446430Y-77022559D01*
X72612776Y-77047109D01*
X72688892Y-77049286D01*
X72863315Y-77040573D01*
X72868389Y-77039503D01*
X72868389Y-76790173D01*
X72852032Y-76783306D01*
X72843012Y-76755083D01*
X72839146Y-76696873D01*
X72838251Y-76600042D01*
X72838235Y-76562757D01*
X72839587Y-76449317D01*
X72844495Y-76377378D01*
X72854240Y-76338687D01*
X72870101Y-76324995D01*
X72875195Y-76324510D01*
X72915674Y-76340137D01*
X72972379Y-76379247D01*
X72992234Y-76396061D01*
X73048389Y-76458481D01*
X73070468Y-76523547D01*
X73072314Y-76558603D01*
X73049234Y-76653442D01*
X72987241Y-76732973D01*
X72897198Y-76783423D01*
X72894265Y-76784317D01*
X72868389Y-76790173D01*
X72868389Y-77039503D01*
X73000657Y-77011601D01*
X73110539Y-76959410D01*
X73188539Y-76895579D01*
X73273118Y-76777567D01*
X73318314Y-76638842D01*
X73322400Y-76491290D01*
X73283646Y-76346796D01*
X73283646Y-76346796D01*
G37*
X73283646Y-76346796D02*
X73271963Y-76321981D01*
X73209049Y-76236094D01*
X73117231Y-76154879D01*
X73016132Y-76094236D01*
X72969651Y-76076988D01*
X72886624Y-76061251D01*
X72786287Y-76051867D01*
X72744853Y-76050728D01*
X72614118Y-76050589D01*
X72614118Y-76803047D01*
X72545637Y-76787007D01*
X72464645Y-76747637D01*
X72394649Y-76678806D01*
X72349559Y-76596919D01*
X72340196Y-76544737D01*
X72351559Y-76473971D01*
X72380057Y-76389540D01*
X72393169Y-76360858D01*
X72446142Y-76254791D01*
X72377099Y-76164272D01*
X72330403Y-76112039D01*
X72291860Y-76084247D01*
X72280548Y-76082840D01*
X72253132Y-76107668D01*
X72211468Y-76162083D01*
X72178963Y-76211472D01*
X72120532Y-76344748D01*
X72094085Y-76494161D01*
X72100961Y-76642249D01*
X72136904Y-76760295D01*
X72213899Y-76881982D01*
X72315272Y-76968460D01*
X72446430Y-77022559D01*
X72612776Y-77047109D01*
X72688892Y-77049286D01*
X72863315Y-77040573D01*
X72868389Y-77039503D01*
X72868389Y-76790173D01*
X72852032Y-76783306D01*
X72843012Y-76755083D01*
X72839146Y-76696873D01*
X72838251Y-76600042D01*
X72838235Y-76562757D01*
X72839587Y-76449317D01*
X72844495Y-76377378D01*
X72854240Y-76338687D01*
X72870101Y-76324995D01*
X72875195Y-76324510D01*
X72915674Y-76340137D01*
X72972379Y-76379247D01*
X72992234Y-76396061D01*
X73048389Y-76458481D01*
X73070468Y-76523547D01*
X73072314Y-76558603D01*
X73049234Y-76653442D01*
X72987241Y-76732973D01*
X72897198Y-76783423D01*
X72894265Y-76784317D01*
X72868389Y-76790173D01*
X72868389Y-77039503D01*
X73000657Y-77011601D01*
X73110539Y-76959410D01*
X73188539Y-76895579D01*
X73273118Y-76777567D01*
X73318314Y-76638842D01*
X73322400Y-76491290D01*
X73283646Y-76346796D01*
G36*
X73298432Y-78686753D02*
G01*
X73240837Y-78556478D01*
X73144666Y-78457581D01*
X73009771Y-78389918D01*
X72836004Y-78353345D01*
X72808874Y-78350724D01*
X72617592Y-78348670D01*
X72449927Y-78375301D01*
X72314033Y-78428999D01*
X72270319Y-78457753D01*
X72177802Y-78557909D01*
X72117881Y-78685463D01*
X72093015Y-78828163D01*
X72105661Y-78973760D01*
X72144609Y-79084438D01*
X72210245Y-79179616D01*
X72296301Y-79257406D01*
X72298315Y-79258751D01*
X72351430Y-79290343D01*
X72404840Y-79310873D01*
X72472246Y-79323305D01*
X72567347Y-79330603D01*
X72645334Y-79333818D01*
X72716056Y-79335156D01*
X72716056Y-79086186D01*
X72645652Y-79083753D01*
X72551932Y-79074920D01*
X72491786Y-79059336D01*
X72448994Y-79031234D01*
X72423998Y-79004914D01*
X72371662Y-78911608D01*
X72364667Y-78813980D01*
X72402324Y-78723058D01*
X72444521Y-78677598D01*
X72487044Y-78644838D01*
X72527733Y-78625677D01*
X72580686Y-78617267D01*
X72660003Y-78616763D01*
X72733050Y-78619355D01*
X72837399Y-78624929D01*
X72905080Y-78633766D01*
X72949226Y-78649693D01*
X72982969Y-78676538D01*
X73002254Y-78697811D01*
X73052914Y-78786794D01*
X73055440Y-78882789D01*
X73025433Y-78963281D01*
X72962769Y-79031947D01*
X72859832Y-79072856D01*
X72716056Y-79086186D01*
X72716056Y-79335156D01*
X72800418Y-79336754D01*
X72916400Y-79331740D01*
X73003633Y-79316717D01*
X73072470Y-79289624D01*
X73133263Y-79248400D01*
X73151314Y-79233115D01*
X73241254Y-79137546D01*
X73293789Y-79035039D01*
X73315799Y-78909679D01*
X73317598Y-78848550D01*
X73298432Y-78686753D01*
X73298432Y-78686753D01*
G37*
X73298432Y-78686753D02*
X73240837Y-78556478D01*
X73144666Y-78457581D01*
X73009771Y-78389918D01*
X72836004Y-78353345D01*
X72808874Y-78350724D01*
X72617592Y-78348670D01*
X72449927Y-78375301D01*
X72314033Y-78428999D01*
X72270319Y-78457753D01*
X72177802Y-78557909D01*
X72117881Y-78685463D01*
X72093015Y-78828163D01*
X72105661Y-78973760D01*
X72144609Y-79084438D01*
X72210245Y-79179616D01*
X72296301Y-79257406D01*
X72298315Y-79258751D01*
X72351430Y-79290343D01*
X72404840Y-79310873D01*
X72472246Y-79323305D01*
X72567347Y-79330603D01*
X72645334Y-79333818D01*
X72716056Y-79335156D01*
X72716056Y-79086186D01*
X72645652Y-79083753D01*
X72551932Y-79074920D01*
X72491786Y-79059336D01*
X72448994Y-79031234D01*
X72423998Y-79004914D01*
X72371662Y-78911608D01*
X72364667Y-78813980D01*
X72402324Y-78723058D01*
X72444521Y-78677598D01*
X72487044Y-78644838D01*
X72527733Y-78625677D01*
X72580686Y-78617267D01*
X72660003Y-78616763D01*
X72733050Y-78619355D01*
X72837399Y-78624929D01*
X72905080Y-78633766D01*
X72949226Y-78649693D01*
X72982969Y-78676538D01*
X73002254Y-78697811D01*
X73052914Y-78786794D01*
X73055440Y-78882789D01*
X73025433Y-78963281D01*
X72962769Y-79031947D01*
X72859832Y-79072856D01*
X72716056Y-79086186D01*
X72716056Y-79335156D01*
X72800418Y-79336754D01*
X72916400Y-79331740D01*
X73003633Y-79316717D01*
X73072470Y-79289624D01*
X73133263Y-79248400D01*
X73151314Y-79233115D01*
X73241254Y-79137546D01*
X73293789Y-79035039D01*
X73315799Y-78909679D01*
X73317598Y-78848550D01*
X73298432Y-78686753D01*
G36*
X71437216Y-69634693D02*
G01*
X71406269Y-69515663D01*
X71342400Y-69415979D01*
X71294687Y-69367712D01*
X71181894Y-69288592D01*
X71051050Y-69243248D01*
X70890208Y-69227670D01*
X70877206Y-69227590D01*
X70746470Y-69227451D01*
X70746470Y-69979909D01*
X70677990Y-69963870D01*
X70615969Y-69934909D01*
X70551346Y-69884222D01*
X70541029Y-69873621D01*
X70485195Y-69782506D01*
X70475725Y-69678600D01*
X70512460Y-69559000D01*
X70522353Y-69538726D01*
X70552426Y-69476544D01*
X70569560Y-69434894D01*
X70571145Y-69427627D01*
X70555758Y-69402260D01*
X70518113Y-69353880D01*
X70497541Y-69329321D01*
X70450286Y-69278430D01*
X70419083Y-69261719D01*
X70390380Y-69273317D01*
X70382532Y-69279517D01*
X70348181Y-69321507D01*
X70306435Y-69390794D01*
X70282065Y-69439118D01*
X70239127Y-69576289D01*
X70225214Y-69728153D01*
X70241700Y-69871976D01*
X70253504Y-69912255D01*
X70320311Y-70036922D01*
X70423108Y-70129329D01*
X70562895Y-70190010D01*
X70740670Y-70219502D01*
X70833627Y-70222740D01*
X70968967Y-70213286D01*
X70968967Y-69974510D01*
X70958962Y-69951416D01*
X70951112Y-69889338D01*
X70946479Y-69799086D01*
X70945686Y-69737942D01*
X70946451Y-69627960D01*
X70950030Y-69558543D01*
X70958351Y-69520462D01*
X70973343Y-69504485D01*
X70995097Y-69501373D01*
X71062108Y-69522722D01*
X71128336Y-69576471D01*
X71179168Y-69647178D01*
X71199962Y-69717911D01*
X71181516Y-69813984D01*
X71128189Y-69897151D01*
X71051323Y-69954814D01*
X70968967Y-69974510D01*
X70968967Y-70213286D01*
X71030709Y-70208972D01*
X71187729Y-70166480D01*
X71305931Y-70094365D01*
X71386560Y-69991727D01*
X71430861Y-69857668D01*
X71439393Y-69785043D01*
X71437216Y-69634693D01*
X71437216Y-69634693D01*
G37*
X71437216Y-69634693D02*
X71406269Y-69515663D01*
X71342400Y-69415979D01*
X71294687Y-69367712D01*
X71181894Y-69288592D01*
X71051050Y-69243248D01*
X70890208Y-69227670D01*
X70877206Y-69227590D01*
X70746470Y-69227451D01*
X70746470Y-69979909D01*
X70677990Y-69963870D01*
X70615969Y-69934909D01*
X70551346Y-69884222D01*
X70541029Y-69873621D01*
X70485195Y-69782506D01*
X70475725Y-69678600D01*
X70512460Y-69559000D01*
X70522353Y-69538726D01*
X70552426Y-69476544D01*
X70569560Y-69434894D01*
X70571145Y-69427627D01*
X70555758Y-69402260D01*
X70518113Y-69353880D01*
X70497541Y-69329321D01*
X70450286Y-69278430D01*
X70419083Y-69261719D01*
X70390380Y-69273317D01*
X70382532Y-69279517D01*
X70348181Y-69321507D01*
X70306435Y-69390794D01*
X70282065Y-69439118D01*
X70239127Y-69576289D01*
X70225214Y-69728153D01*
X70241700Y-69871976D01*
X70253504Y-69912255D01*
X70320311Y-70036922D01*
X70423108Y-70129329D01*
X70562895Y-70190010D01*
X70740670Y-70219502D01*
X70833627Y-70222740D01*
X70968967Y-70213286D01*
X70968967Y-69974510D01*
X70958962Y-69951416D01*
X70951112Y-69889338D01*
X70946479Y-69799086D01*
X70945686Y-69737942D01*
X70946451Y-69627960D01*
X70950030Y-69558543D01*
X70958351Y-69520462D01*
X70973343Y-69504485D01*
X70995097Y-69501373D01*
X71062108Y-69522722D01*
X71128336Y-69576471D01*
X71179168Y-69647178D01*
X71199962Y-69717911D01*
X71181516Y-69813984D01*
X71128189Y-69897151D01*
X71051323Y-69954814D01*
X70968967Y-69974510D01*
X70968967Y-70213286D01*
X71030709Y-70208972D01*
X71187729Y-70166480D01*
X71305931Y-70094365D01*
X71386560Y-69991727D01*
X71430861Y-69857668D01*
X71439393Y-69785043D01*
X71437216Y-69634693D01*
G36*
X71444117Y-70421554D02*
G01*
X71425245Y-70325823D01*
X71397301Y-70271323D01*
X71350877Y-70213992D01*
X71247889Y-70295559D01*
X71185521Y-70345850D01*
X71155093Y-70379999D01*
X71150445Y-70413937D01*
X71165414Y-70463594D01*
X71173883Y-70486904D01*
X71186378Y-70581937D01*
X71159594Y-70668968D01*
X71099085Y-70732862D01*
X71079792Y-70743241D01*
X71028686Y-70754544D01*
X70934500Y-70763268D01*
X70803911Y-70769003D01*
X70643595Y-70771340D01*
X70620789Y-70771373D01*
X70223529Y-70771373D01*
X70223529Y-71045295D01*
X71443725Y-71045295D01*
X71443725Y-70908334D01*
X71441663Y-70829362D01*
X71432487Y-70788221D01*
X71411710Y-70773008D01*
X71392114Y-70771373D01*
X71340503Y-70771373D01*
X71392114Y-70705760D01*
X71427325Y-70630525D01*
X71444735Y-70529456D01*
X71444117Y-70421554D01*
X71444117Y-70421554D01*
G37*
X71444117Y-70421554D02*
X71425245Y-70325823D01*
X71397301Y-70271323D01*
X71350877Y-70213992D01*
X71247889Y-70295559D01*
X71185521Y-70345850D01*
X71155093Y-70379999D01*
X71150445Y-70413937D01*
X71165414Y-70463594D01*
X71173883Y-70486904D01*
X71186378Y-70581937D01*
X71159594Y-70668968D01*
X71099085Y-70732862D01*
X71079792Y-70743241D01*
X71028686Y-70754544D01*
X70934500Y-70763268D01*
X70803911Y-70769003D01*
X70643595Y-70771340D01*
X70620789Y-70771373D01*
X70223529Y-70771373D01*
X70223529Y-71045295D01*
X71443725Y-71045295D01*
X71443725Y-70908334D01*
X71441663Y-70829362D01*
X71432487Y-70788221D01*
X71411710Y-70773008D01*
X71392114Y-70771373D01*
X71340503Y-70771373D01*
X71392114Y-70705760D01*
X71427325Y-70630525D01*
X71444735Y-70529456D01*
X71444117Y-70421554D01*
G36*
X71436331Y-71603541D02*
G01*
X71410837Y-71498580D01*
X71397331Y-71468239D01*
X71361954Y-71409427D01*
X71322110Y-71364291D01*
X71270880Y-71330894D01*
X71201346Y-71307299D01*
X71106591Y-71291567D01*
X70979695Y-71281761D01*
X70813742Y-71275943D01*
X70702892Y-71273734D01*
X70223529Y-71265604D01*
X70223529Y-71404469D01*
X70227062Y-71488713D01*
X70239134Y-71532116D01*
X70259406Y-71543334D01*
X70281326Y-71549256D01*
X70277135Y-71575734D01*
X70259559Y-71611814D01*
X70232618Y-71702138D01*
X70225358Y-71818223D01*
X70237233Y-71940320D01*
X70267695Y-72048679D01*
X70271923Y-72058398D01*
X70341495Y-72157432D01*
X70438211Y-72222719D01*
X70551262Y-72252760D01*
X70591878Y-72250465D01*
X70591878Y-72005367D01*
X70537218Y-71983771D01*
X70498048Y-71919741D01*
X70477026Y-71816435D01*
X70474234Y-71761226D01*
X70481380Y-71669218D01*
X70509152Y-71608059D01*
X70522353Y-71593138D01*
X70594171Y-71552713D01*
X70659314Y-71543334D01*
X70746470Y-71543334D01*
X70746470Y-71664731D01*
X70739278Y-71805847D01*
X70716655Y-71904827D01*
X70677036Y-71967367D01*
X70659372Y-71981369D01*
X70591878Y-72005367D01*
X70591878Y-72250465D01*
X70669843Y-72246059D01*
X70783145Y-72201120D01*
X70859715Y-72139804D01*
X70892819Y-72102668D01*
X70914575Y-72066313D01*
X70927839Y-72019010D01*
X70935472Y-71949027D01*
X70940330Y-71844636D01*
X70941727Y-71803230D01*
X70950220Y-71543334D01*
X71028884Y-71543715D01*
X71111572Y-71553781D01*
X71161569Y-71590171D01*
X71193511Y-71663689D01*
X71194080Y-71665661D01*
X71206639Y-71769895D01*
X71190234Y-71871892D01*
X71150343Y-71947695D01*
X71130646Y-71978110D01*
X71133371Y-72010868D01*
X71161909Y-72061279D01*
X71182050Y-72090881D01*
X71225081Y-72148782D01*
X71257338Y-72184648D01*
X71266573Y-72190403D01*
X71314364Y-72166705D01*
X71371438Y-72096687D01*
X71390695Y-72066275D01*
X71423860Y-71978845D01*
X71442650Y-71861017D01*
X71446871Y-71730134D01*
X71436331Y-71603541D01*
X71436331Y-71603541D01*
G37*
X71436331Y-71603541D02*
X71410837Y-71498580D01*
X71397331Y-71468239D01*
X71361954Y-71409427D01*
X71322110Y-71364291D01*
X71270880Y-71330894D01*
X71201346Y-71307299D01*
X71106591Y-71291567D01*
X70979695Y-71281761D01*
X70813742Y-71275943D01*
X70702892Y-71273734D01*
X70223529Y-71265604D01*
X70223529Y-71404469D01*
X70227062Y-71488713D01*
X70239134Y-71532116D01*
X70259406Y-71543334D01*
X70281326Y-71549256D01*
X70277135Y-71575734D01*
X70259559Y-71611814D01*
X70232618Y-71702138D01*
X70225358Y-71818223D01*
X70237233Y-71940320D01*
X70267695Y-72048679D01*
X70271923Y-72058398D01*
X70341495Y-72157432D01*
X70438211Y-72222719D01*
X70551262Y-72252760D01*
X70591878Y-72250465D01*
X70591878Y-72005367D01*
X70537218Y-71983771D01*
X70498048Y-71919741D01*
X70477026Y-71816435D01*
X70474234Y-71761226D01*
X70481380Y-71669218D01*
X70509152Y-71608059D01*
X70522353Y-71593138D01*
X70594171Y-71552713D01*
X70659314Y-71543334D01*
X70746470Y-71543334D01*
X70746470Y-71664731D01*
X70739278Y-71805847D01*
X70716655Y-71904827D01*
X70677036Y-71967367D01*
X70659372Y-71981369D01*
X70591878Y-72005367D01*
X70591878Y-72250465D01*
X70669843Y-72246059D01*
X70783145Y-72201120D01*
X70859715Y-72139804D01*
X70892819Y-72102668D01*
X70914575Y-72066313D01*
X70927839Y-72019010D01*
X70935472Y-71949027D01*
X70940330Y-71844636D01*
X70941727Y-71803230D01*
X70950220Y-71543334D01*
X71028884Y-71543715D01*
X71111572Y-71553781D01*
X71161569Y-71590171D01*
X71193511Y-71663689D01*
X71194080Y-71665661D01*
X71206639Y-71769895D01*
X71190234Y-71871892D01*
X71150343Y-71947695D01*
X71130646Y-71978110D01*
X71133371Y-72010868D01*
X71161909Y-72061279D01*
X71182050Y-72090881D01*
X71225081Y-72148782D01*
X71257338Y-72184648D01*
X71266573Y-72190403D01*
X71314364Y-72166705D01*
X71371438Y-72096687D01*
X71390695Y-72066275D01*
X71423860Y-71978845D01*
X71442650Y-71861017D01*
X71446871Y-71730134D01*
X71436331Y-71603541D01*
G36*
X71438668Y-73102472D02*
G01*
X71431274Y-73003986D01*
X71045294Y-72875224D01*
X70659314Y-72746463D01*
X70796274Y-72706089D01*
X70880917Y-72681793D01*
X70995303Y-72649833D01*
X71121037Y-72615321D01*
X71188480Y-72597072D01*
X71443725Y-72528429D01*
X71443725Y-72245227D01*
X71176029Y-72329878D01*
X71044362Y-72371565D01*
X70885542Y-72421926D01*
X70719872Y-72474519D01*
X70572157Y-72521470D01*
X70235980Y-72628411D01*
X70220956Y-72859339D01*
X70427684Y-72921950D01*
X70556104Y-72960562D01*
X70697678Y-73002700D01*
X70822715Y-73039528D01*
X70827691Y-73040982D01*
X70912414Y-73068489D01*
X70970222Y-73092758D01*
X70992082Y-73109757D01*
X70989554Y-73113250D01*
X70955664Y-73125510D01*
X70883070Y-73148805D01*
X70780899Y-73180300D01*
X70658280Y-73217158D01*
X70590833Y-73237101D01*
X70223529Y-73345105D01*
X70223529Y-73574321D01*
X70802500Y-73757561D01*
X70964909Y-73809037D01*
X71112398Y-73855930D01*
X71238040Y-73896023D01*
X71334905Y-73927103D01*
X71396066Y-73946955D01*
X71413935Y-73952989D01*
X71432232Y-73948212D01*
X71440245Y-73910703D01*
X71439443Y-73832645D01*
X71438837Y-73820426D01*
X71431274Y-73675674D01*
X71082647Y-73580870D01*
X70955503Y-73546023D01*
X70843735Y-73514883D01*
X70757047Y-73490191D01*
X70705144Y-73474688D01*
X70696682Y-73471824D01*
X70706413Y-73459954D01*
X70756828Y-73436017D01*
X70841065Y-73402761D01*
X70952259Y-73362936D01*
X71052703Y-73329270D01*
X71446061Y-73200959D01*
X71438668Y-73102472D01*
X71438668Y-73102472D01*
G37*
X71438668Y-73102472D02*
X71431274Y-73003986D01*
X71045294Y-72875224D01*
X70659314Y-72746463D01*
X70796274Y-72706089D01*
X70880917Y-72681793D01*
X70995303Y-72649833D01*
X71121037Y-72615321D01*
X71188480Y-72597072D01*
X71443725Y-72528429D01*
X71443725Y-72245227D01*
X71176029Y-72329878D01*
X71044362Y-72371565D01*
X70885542Y-72421926D01*
X70719872Y-72474519D01*
X70572157Y-72521470D01*
X70235980Y-72628411D01*
X70220956Y-72859339D01*
X70427684Y-72921950D01*
X70556104Y-72960562D01*
X70697678Y-73002700D01*
X70822715Y-73039528D01*
X70827691Y-73040982D01*
X70912414Y-73068489D01*
X70970222Y-73092758D01*
X70992082Y-73109757D01*
X70989554Y-73113250D01*
X70955664Y-73125510D01*
X70883070Y-73148805D01*
X70780899Y-73180300D01*
X70658280Y-73217158D01*
X70590833Y-73237101D01*
X70223529Y-73345105D01*
X70223529Y-73574321D01*
X70802500Y-73757561D01*
X70964909Y-73809037D01*
X71112398Y-73855930D01*
X71238040Y-73896023D01*
X71334905Y-73927103D01*
X71396066Y-73946955D01*
X71413935Y-73952989D01*
X71432232Y-73948212D01*
X71440245Y-73910703D01*
X71439443Y-73832645D01*
X71438837Y-73820426D01*
X71431274Y-73675674D01*
X71082647Y-73580870D01*
X70955503Y-73546023D01*
X70843735Y-73514883D01*
X70757047Y-73490191D01*
X70705144Y-73474688D01*
X70696682Y-73471824D01*
X70706413Y-73459954D01*
X70756828Y-73436017D01*
X70841065Y-73402761D01*
X70952259Y-73362936D01*
X71052703Y-73329270D01*
X71446061Y-73200959D01*
X71438668Y-73102472D01*
G36*
X70223529Y-74058432D02*
G01*
X70223529Y-74195393D01*
X70225860Y-74274889D01*
X70235512Y-74316292D01*
X70256475Y-74331199D01*
X70270649Y-74332353D01*
X70299073Y-74334867D01*
X70304525Y-74350720D01*
X70287002Y-74392379D01*
X70270649Y-74424776D01*
X70231897Y-74549151D01*
X70229654Y-74684354D01*
X70258556Y-74794274D01*
X70328381Y-74896634D01*
X70431445Y-74974660D01*
X70553011Y-75017386D01*
X70559808Y-75018474D01*
X70633968Y-75024822D01*
X70740430Y-75027979D01*
X70820948Y-75027725D01*
X70820948Y-74755711D01*
X70713930Y-74749410D01*
X70625722Y-74735075D01*
X70575910Y-74715669D01*
X70507838Y-74642254D01*
X70483436Y-74555086D01*
X70503169Y-74465196D01*
X70562032Y-74388383D01*
X70601621Y-74359292D01*
X70648862Y-74342283D01*
X70717819Y-74334316D01*
X70821393Y-74332353D01*
X70923961Y-74335866D01*
X71014079Y-74345143D01*
X71074387Y-74358294D01*
X71079792Y-74360486D01*
X71144060Y-74413522D01*
X71179344Y-74490933D01*
X71185041Y-74577546D01*
X71160547Y-74658193D01*
X71105258Y-74717703D01*
X71094257Y-74723876D01*
X71027173Y-74743199D01*
X70930716Y-74753726D01*
X70820948Y-74755711D01*
X70820948Y-75027725D01*
X70861775Y-75027596D01*
X70927082Y-75025806D01*
X71088645Y-75013627D01*
X71209947Y-74988315D01*
X71299621Y-74946207D01*
X71366301Y-74883641D01*
X71405443Y-74822900D01*
X71432960Y-74738036D01*
X71442397Y-74632485D01*
X71434710Y-74524402D01*
X71410854Y-74431942D01*
X71382315Y-74383090D01*
X71336399Y-74332353D01*
X71916863Y-74332353D01*
X71916863Y-74058432D01*
X70223529Y-74058432D01*
X70223529Y-74058432D01*
G37*
X70223529Y-74058432D02*
X70223529Y-74195393D01*
X70225860Y-74274889D01*
X70235512Y-74316292D01*
X70256475Y-74331199D01*
X70270649Y-74332353D01*
X70299073Y-74334867D01*
X70304525Y-74350720D01*
X70287002Y-74392379D01*
X70270649Y-74424776D01*
X70231897Y-74549151D01*
X70229654Y-74684354D01*
X70258556Y-74794274D01*
X70328381Y-74896634D01*
X70431445Y-74974660D01*
X70553011Y-75017386D01*
X70559808Y-75018474D01*
X70633968Y-75024822D01*
X70740430Y-75027979D01*
X70820948Y-75027725D01*
X70820948Y-74755711D01*
X70713930Y-74749410D01*
X70625722Y-74735075D01*
X70575910Y-74715669D01*
X70507838Y-74642254D01*
X70483436Y-74555086D01*
X70503169Y-74465196D01*
X70562032Y-74388383D01*
X70601621Y-74359292D01*
X70648862Y-74342283D01*
X70717819Y-74334316D01*
X70821393Y-74332353D01*
X70923961Y-74335866D01*
X71014079Y-74345143D01*
X71074387Y-74358294D01*
X71079792Y-74360486D01*
X71144060Y-74413522D01*
X71179344Y-74490933D01*
X71185041Y-74577546D01*
X71160547Y-74658193D01*
X71105258Y-74717703D01*
X71094257Y-74723876D01*
X71027173Y-74743199D01*
X70930716Y-74753726D01*
X70820948Y-74755711D01*
X70820948Y-75027725D01*
X70861775Y-75027596D01*
X70927082Y-75025806D01*
X71088645Y-75013627D01*
X71209947Y-74988315D01*
X71299621Y-74946207D01*
X71366301Y-74883641D01*
X71405443Y-74822900D01*
X71432960Y-74738036D01*
X71442397Y-74632485D01*
X71434710Y-74524402D01*
X71410854Y-74431942D01*
X71382315Y-74383090D01*
X71336399Y-74332353D01*
X71916863Y-74332353D01*
X71916863Y-74058432D01*
X70223529Y-74058432D01*
G36*
X71441079Y-75627236D02*
G01*
X71429909Y-75589970D01*
X71405367Y-75577957D01*
X71394288Y-75577451D01*
X71363428Y-75575296D01*
X71358583Y-75560449D01*
X71379740Y-75520343D01*
X71394194Y-75496520D01*
X71425150Y-75421362D01*
X71440456Y-75331594D01*
X71441633Y-75237471D01*
X71430201Y-75149246D01*
X71407680Y-75077174D01*
X71375591Y-75031508D01*
X71335455Y-75022502D01*
X71324585Y-75027047D01*
X71279466Y-75060179D01*
X71223974Y-75111555D01*
X71215004Y-75120848D01*
X71173755Y-75169818D01*
X71160428Y-75212069D01*
X71169729Y-75271159D01*
X71175910Y-75294831D01*
X71190754Y-75368496D01*
X71184079Y-75420290D01*
X71160535Y-75464031D01*
X71128939Y-75504098D01*
X71089202Y-75533608D01*
X71033748Y-75554116D01*
X70954997Y-75567176D01*
X70845371Y-75574344D01*
X70697294Y-75577176D01*
X70607889Y-75577451D01*
X70223529Y-75577451D01*
X70223529Y-75826471D01*
X71443725Y-75826471D01*
X71443725Y-75701961D01*
X71441079Y-75627236D01*
X71441079Y-75627236D01*
G37*
X71441079Y-75627236D02*
X71429909Y-75589970D01*
X71405367Y-75577957D01*
X71394288Y-75577451D01*
X71363428Y-75575296D01*
X71358583Y-75560449D01*
X71379740Y-75520343D01*
X71394194Y-75496520D01*
X71425150Y-75421362D01*
X71440456Y-75331594D01*
X71441633Y-75237471D01*
X71430201Y-75149246D01*
X71407680Y-75077174D01*
X71375591Y-75031508D01*
X71335455Y-75022502D01*
X71324585Y-75027047D01*
X71279466Y-75060179D01*
X71223974Y-75111555D01*
X71215004Y-75120848D01*
X71173755Y-75169818D01*
X71160428Y-75212069D01*
X71169729Y-75271159D01*
X71175910Y-75294831D01*
X71190754Y-75368496D01*
X71184079Y-75420290D01*
X71160535Y-75464031D01*
X71128939Y-75504098D01*
X71089202Y-75533608D01*
X71033748Y-75554116D01*
X70954997Y-75567176D01*
X70845371Y-75574344D01*
X70697294Y-75577176D01*
X70607889Y-75577451D01*
X70223529Y-75577451D01*
X70223529Y-75826471D01*
X71443725Y-75826471D01*
X71443725Y-75701961D01*
X71441079Y-75627236D01*
G36*
X71434078Y-76401280D02*
G01*
X71402820Y-76284130D01*
X71346163Y-76194949D01*
X71271955Y-76132016D01*
X71240284Y-76112452D01*
X71207109Y-76098008D01*
X71164671Y-76087911D01*
X71105212Y-76081385D01*
X71020971Y-76077658D01*
X70904190Y-76075954D01*
X70747110Y-76075500D01*
X70705435Y-76075491D01*
X70223529Y-76075491D01*
X70223529Y-76195020D01*
X70228869Y-76271261D01*
X70242396Y-76327634D01*
X70250738Y-76341758D01*
X70265136Y-76380370D01*
X70250738Y-76419808D01*
X70232763Y-76484738D01*
X70225528Y-76579055D01*
X70228667Y-76683593D01*
X70241814Y-76779189D01*
X70258682Y-76835000D01*
X70328014Y-76943002D01*
X70424228Y-77010497D01*
X70552156Y-77040841D01*
X70555441Y-77041123D01*
X70612192Y-77038460D01*
X70612192Y-76797647D01*
X70547642Y-76776595D01*
X70511314Y-76742303D01*
X70483838Y-76673468D01*
X70472871Y-76582610D01*
X70478269Y-76489958D01*
X70499890Y-76415744D01*
X70513761Y-76394951D01*
X70577857Y-76358619D01*
X70650722Y-76349412D01*
X70746470Y-76349412D01*
X70746470Y-76487173D01*
X70736395Y-76618047D01*
X70707852Y-76717259D01*
X70663361Y-76778977D01*
X70612192Y-76797647D01*
X70612192Y-77038460D01*
X70695210Y-77034564D01*
X70805718Y-76988466D01*
X70889288Y-76901800D01*
X70896890Y-76889821D01*
X70921643Y-76838345D01*
X70936632Y-76774632D01*
X70943918Y-76685565D01*
X70945593Y-76579755D01*
X70945686Y-76349412D01*
X71042245Y-76349412D01*
X71117164Y-76359183D01*
X71167356Y-76384116D01*
X71170028Y-76387035D01*
X71191985Y-76442519D01*
X71200495Y-76526273D01*
X71196313Y-76618833D01*
X71180191Y-76700730D01*
X71156010Y-76749327D01*
X71136641Y-76775659D01*
X71132943Y-76803465D01*
X71148812Y-76841839D01*
X71188145Y-76899875D01*
X71254836Y-76986669D01*
X71261084Y-76994635D01*
X71284200Y-76990553D01*
X71322648Y-76956499D01*
X71365373Y-76904740D01*
X71401321Y-76847545D01*
X71409809Y-76829575D01*
X71426748Y-76764028D01*
X71438830Y-76667980D01*
X71443677Y-76560671D01*
X71443687Y-76555653D01*
X71434078Y-76401280D01*
X71434078Y-76401280D01*
G37*
X71434078Y-76401280D02*
X71402820Y-76284130D01*
X71346163Y-76194949D01*
X71271955Y-76132016D01*
X71240284Y-76112452D01*
X71207109Y-76098008D01*
X71164671Y-76087911D01*
X71105212Y-76081385D01*
X71020971Y-76077658D01*
X70904190Y-76075954D01*
X70747110Y-76075500D01*
X70705435Y-76075491D01*
X70223529Y-76075491D01*
X70223529Y-76195020D01*
X70228869Y-76271261D01*
X70242396Y-76327634D01*
X70250738Y-76341758D01*
X70265136Y-76380370D01*
X70250738Y-76419808D01*
X70232763Y-76484738D01*
X70225528Y-76579055D01*
X70228667Y-76683593D01*
X70241814Y-76779189D01*
X70258682Y-76835000D01*
X70328014Y-76943002D01*
X70424228Y-77010497D01*
X70552156Y-77040841D01*
X70555441Y-77041123D01*
X70612192Y-77038460D01*
X70612192Y-76797647D01*
X70547642Y-76776595D01*
X70511314Y-76742303D01*
X70483838Y-76673468D01*
X70472871Y-76582610D01*
X70478269Y-76489958D01*
X70499890Y-76415744D01*
X70513761Y-76394951D01*
X70577857Y-76358619D01*
X70650722Y-76349412D01*
X70746470Y-76349412D01*
X70746470Y-76487173D01*
X70736395Y-76618047D01*
X70707852Y-76717259D01*
X70663361Y-76778977D01*
X70612192Y-76797647D01*
X70612192Y-77038460D01*
X70695210Y-77034564D01*
X70805718Y-76988466D01*
X70889288Y-76901800D01*
X70896890Y-76889821D01*
X70921643Y-76838345D01*
X70936632Y-76774632D01*
X70943918Y-76685565D01*
X70945593Y-76579755D01*
X70945686Y-76349412D01*
X71042245Y-76349412D01*
X71117164Y-76359183D01*
X71167356Y-76384116D01*
X71170028Y-76387035D01*
X71191985Y-76442519D01*
X71200495Y-76526273D01*
X71196313Y-76618833D01*
X71180191Y-76700730D01*
X71156010Y-76749327D01*
X71136641Y-76775659D01*
X71132943Y-76803465D01*
X71148812Y-76841839D01*
X71188145Y-76899875D01*
X71254836Y-76986669D01*
X71261084Y-76994635D01*
X71284200Y-76990553D01*
X71322648Y-76956499D01*
X71365373Y-76904740D01*
X71401321Y-76847545D01*
X71409809Y-76829575D01*
X71426748Y-76764028D01*
X71438830Y-76667980D01*
X71443677Y-76560671D01*
X71443687Y-76555653D01*
X71434078Y-76401280D01*
G36*
X73290440Y-77440091D02*
G01*
X73264501Y-77387588D01*
X73219300Y-77322842D01*
X73170009Y-77275653D01*
X73108115Y-77243335D01*
X73025104Y-77223203D01*
X72912462Y-77212570D01*
X72761676Y-77208753D01*
X72696851Y-77208530D01*
X72554779Y-77209182D01*
X72453243Y-77211888D01*
X72382985Y-77217776D01*
X72334744Y-77227973D01*
X72299262Y-77243606D01*
X72275057Y-77259872D01*
X72172071Y-77363705D01*
X72110126Y-77485979D01*
X72091494Y-77617886D01*
X72118451Y-77750616D01*
X72137514Y-77792667D01*
X72189985Y-77893334D01*
X71367741Y-77893334D01*
X71405733Y-77819865D01*
X71435128Y-77723059D01*
X71442658Y-77604072D01*
X71428755Y-77485255D01*
X71397524Y-77395527D01*
X71338046Y-77321101D01*
X71252934Y-77257510D01*
X71244195Y-77252729D01*
X71203034Y-77232563D01*
X71161546Y-77217835D01*
X71111287Y-77207697D01*
X71043816Y-77201301D01*
X70950691Y-77197799D01*
X70823469Y-77196342D01*
X70680299Y-77196079D01*
X70223529Y-77196079D01*
X70223529Y-77470000D01*
X71065769Y-77470000D01*
X71130237Y-77546617D01*
X71181806Y-77626207D01*
X71191182Y-77701578D01*
X71167053Y-77777367D01*
X71143426Y-77817759D01*
X71109773Y-77847821D01*
X71058913Y-77869203D01*
X70983666Y-77883550D01*
X70876854Y-77892510D01*
X70731296Y-77897730D01*
X70634412Y-77899569D01*
X70235980Y-77905785D01*
X70228453Y-78036520D01*
X70220927Y-78167255D01*
X72693418Y-78167255D01*
X72693418Y-77893334D01*
X72555577Y-77886350D01*
X72459893Y-77862818D01*
X72400359Y-77818865D01*
X72370971Y-77750618D01*
X72365098Y-77681667D01*
X72371846Y-77603614D01*
X72398406Y-77551811D01*
X72433501Y-77519417D01*
X72471248Y-77493916D01*
X72513300Y-77478735D01*
X72572221Y-77471981D01*
X72660572Y-77471759D01*
X72734552Y-77474032D01*
X72846000Y-77479251D01*
X72919167Y-77487021D01*
X72965578Y-77500105D01*
X72996756Y-77521268D01*
X73014777Y-77541240D01*
X73054075Y-77624686D01*
X73060421Y-77723449D01*
X73046884Y-77780159D01*
X72998767Y-77836308D01*
X72905167Y-77873501D01*
X72766746Y-77891528D01*
X72693418Y-77893334D01*
X72693418Y-78167255D01*
X73311372Y-78167255D01*
X73311372Y-78030295D01*
X73308121Y-77948065D01*
X73296574Y-77905640D01*
X73274048Y-77893339D01*
X73273380Y-77893334D01*
X73251319Y-77887626D01*
X73253824Y-77862453D01*
X73278065Y-77812402D01*
X73315149Y-77695781D01*
X73319047Y-77564571D01*
X73290440Y-77440091D01*
X73290440Y-77440091D01*
G37*
X73290440Y-77440091D02*
X73264501Y-77387588D01*
X73219300Y-77322842D01*
X73170009Y-77275653D01*
X73108115Y-77243335D01*
X73025104Y-77223203D01*
X72912462Y-77212570D01*
X72761676Y-77208753D01*
X72696851Y-77208530D01*
X72554779Y-77209182D01*
X72453243Y-77211888D01*
X72382985Y-77217776D01*
X72334744Y-77227973D01*
X72299262Y-77243606D01*
X72275057Y-77259872D01*
X72172071Y-77363705D01*
X72110126Y-77485979D01*
X72091494Y-77617886D01*
X72118451Y-77750616D01*
X72137514Y-77792667D01*
X72189985Y-77893334D01*
X71367741Y-77893334D01*
X71405733Y-77819865D01*
X71435128Y-77723059D01*
X71442658Y-77604072D01*
X71428755Y-77485255D01*
X71397524Y-77395527D01*
X71338046Y-77321101D01*
X71252934Y-77257510D01*
X71244195Y-77252729D01*
X71203034Y-77232563D01*
X71161546Y-77217835D01*
X71111287Y-77207697D01*
X71043816Y-77201301D01*
X70950691Y-77197799D01*
X70823469Y-77196342D01*
X70680299Y-77196079D01*
X70223529Y-77196079D01*
X70223529Y-77470000D01*
X71065769Y-77470000D01*
X71130237Y-77546617D01*
X71181806Y-77626207D01*
X71191182Y-77701578D01*
X71167053Y-77777367D01*
X71143426Y-77817759D01*
X71109773Y-77847821D01*
X71058913Y-77869203D01*
X70983666Y-77883550D01*
X70876854Y-77892510D01*
X70731296Y-77897730D01*
X70634412Y-77899569D01*
X70235980Y-77905785D01*
X70228453Y-78036520D01*
X70220927Y-78167255D01*
X72693418Y-78167255D01*
X72693418Y-77893334D01*
X72555577Y-77886350D01*
X72459893Y-77862818D01*
X72400359Y-77818865D01*
X72370971Y-77750618D01*
X72365098Y-77681667D01*
X72371846Y-77603614D01*
X72398406Y-77551811D01*
X72433501Y-77519417D01*
X72471248Y-77493916D01*
X72513300Y-77478735D01*
X72572221Y-77471981D01*
X72660572Y-77471759D01*
X72734552Y-77474032D01*
X72846000Y-77479251D01*
X72919167Y-77487021D01*
X72965578Y-77500105D01*
X72996756Y-77521268D01*
X73014777Y-77541240D01*
X73054075Y-77624686D01*
X73060421Y-77723449D01*
X73046884Y-77780159D01*
X72998767Y-77836308D01*
X72905167Y-77873501D01*
X72766746Y-77891528D01*
X72693418Y-77893334D01*
X72693418Y-78167255D01*
X73311372Y-78167255D01*
X73311372Y-78030295D01*
X73308121Y-77948065D01*
X73296574Y-77905640D01*
X73274048Y-77893339D01*
X73273380Y-77893334D01*
X73251319Y-77887626D01*
X73253824Y-77862453D01*
X73278065Y-77812402D01*
X73315149Y-77695781D01*
X73319047Y-77564571D01*
X73290440Y-77440091D01*
D13*
X100330000Y-111760000D02*
X92710000Y-111760000D01*
X92710000Y-116840000D02*
X92710000Y-111760000D01*
X100330000Y-116840000D02*
X92710000Y-116840000D01*
X100330000Y-111760000D02*
X100330000Y-116840000D01*
X90805000Y-90170000D02*
X102235000Y-90170000D01*
X90805000Y-76200000D02*
X90805000Y-90170000D01*
X102235000Y-76200000D02*
X90805000Y-76200000D01*
X102235000Y-90170000D02*
X102235000Y-76200000D01*
X89535000Y-91440000D02*
X89535000Y-67310000D01*
X103505000Y-91440000D02*
X89535000Y-91440000D01*
X103505000Y-67310000D02*
X103505000Y-91440000D01*
X109220000Y-113030000D02*
X109220000Y-69850000D01*
X86360000Y-115570000D02*
X106680000Y-115570000D01*
X83820000Y-69850000D02*
X83820000Y-113030000D01*
X106680000Y-67310000D02*
X86360000Y-67310000D01*
X109220000Y-69850000D02*
G75*
G03X106680000Y-67310000I-2540000J0D01*
G01*
X86360000Y-67310000D02*
G75*
G03X83820000Y-69850000I0J-2540000D01*
G01*
X83820000Y-113030000D02*
G75*
G03X86360000Y-115570000I2540000J0D01*
G01*
X106680000Y-115570000D02*
G75*
G03X109220000Y-113030000I0J2540000D01*
G01*
X108099903Y-113030000D02*
G75*
G03X108099903Y-113030000I-1419903J0D01*
G01*
X87779903Y-113030000D02*
G75*
G03X87779903Y-113030000I-1419903J0D01*
G01*
X87779903Y-69850000D02*
G75*
G03X87779903Y-69850000I-1419903J0D01*
G01*
X108099903Y-69850000D02*
G75*
G03X108099903Y-69850000I-1419903J0D01*
G01*
D11*
X116510000Y-53720000D02*
X78510000Y-53720000D01*
X116510000Y-37720000D02*
X116510000Y-53720000D01*
X78510000Y-37720000D02*
X116510000Y-37720000D01*
X78510000Y-53720000D02*
X78510000Y-37720000D01*
X107441904Y-65492380D02*
X107441904Y-66301904D01*
X107394285Y-66397142D01*
X107346666Y-66444761D01*
X107251428Y-66492380D01*
X107060952Y-66492380D01*
X106965714Y-66444761D01*
X106918095Y-66397142D01*
X106870476Y-66301904D01*
X106870476Y-65492380D01*
X105870476Y-66492380D02*
X106441904Y-66492380D01*
X106156190Y-66492380D02*
X106156190Y-65492380D01*
X106251428Y-65635238D01*
X106346666Y-65730476D01*
X106441904Y-65778095D01*
X88868095Y-108672380D02*
X88249047Y-108672380D01*
X88582380Y-109053333D01*
X88439523Y-109053333D01*
X88344285Y-109100952D01*
X88296666Y-109148571D01*
X88249047Y-109243809D01*
X88249047Y-109481904D01*
X88296666Y-109577142D01*
X88344285Y-109624761D01*
X88439523Y-109672380D01*
X88725238Y-109672380D01*
X88820476Y-109624761D01*
X88868095Y-109577142D01*
X87963333Y-108672380D02*
X87630000Y-109672380D01*
X87296666Y-108672380D01*
X87058571Y-108672380D02*
X86439523Y-108672380D01*
X86772857Y-109053333D01*
X86630000Y-109053333D01*
X86534761Y-109100952D01*
X86487142Y-109148571D01*
X86439523Y-109243809D01*
X86439523Y-109481904D01*
X86487142Y-109577142D01*
X86534761Y-109624761D01*
X86630000Y-109672380D01*
X86915714Y-109672380D01*
X87010952Y-109624761D01*
X87058571Y-109577142D01*
X88391904Y-106180000D02*
X88487142Y-106132380D01*
X88630000Y-106132380D01*
X88772857Y-106180000D01*
X88868095Y-106275238D01*
X88915714Y-106370476D01*
X88963333Y-106560952D01*
X88963333Y-106703809D01*
X88915714Y-106894285D01*
X88868095Y-106989523D01*
X88772857Y-107084761D01*
X88630000Y-107132380D01*
X88534761Y-107132380D01*
X88391904Y-107084761D01*
X88344285Y-107037142D01*
X88344285Y-106703809D01*
X88534761Y-106703809D01*
X87915714Y-107132380D02*
X87915714Y-106132380D01*
X87344285Y-107132380D01*
X87344285Y-106132380D01*
X86868095Y-107132380D02*
X86868095Y-106132380D01*
X86630000Y-106132380D01*
X86487142Y-106180000D01*
X86391904Y-106275238D01*
X86344285Y-106370476D01*
X86296666Y-106560952D01*
X86296666Y-106703809D01*
X86344285Y-106894285D01*
X86391904Y-106989523D01*
X86487142Y-107084761D01*
X86630000Y-107132380D01*
X86868095Y-107132380D01*
X87756904Y-103592380D02*
X87185476Y-103592380D01*
X87471190Y-104592380D02*
X87471190Y-103592380D01*
X86947380Y-103592380D02*
X86280714Y-104592380D01*
X86280714Y-103592380D02*
X86947380Y-104592380D01*
X87161666Y-102052380D02*
X87495000Y-101576190D01*
X87733095Y-102052380D02*
X87733095Y-101052380D01*
X87352142Y-101052380D01*
X87256904Y-101100000D01*
X87209285Y-101147619D01*
X87161666Y-101242857D01*
X87161666Y-101385714D01*
X87209285Y-101480952D01*
X87256904Y-101528571D01*
X87352142Y-101576190D01*
X87733095Y-101576190D01*
X86828333Y-101052380D02*
X86161666Y-102052380D01*
X86161666Y-101052380D02*
X86828333Y-102052380D01*
X87733095Y-99512380D02*
X87733095Y-98512380D01*
X87495000Y-98512380D01*
X87352142Y-98560000D01*
X87256904Y-98655238D01*
X87209285Y-98750476D01*
X87161666Y-98940952D01*
X87161666Y-99083809D01*
X87209285Y-99274285D01*
X87256904Y-99369523D01*
X87352142Y-99464761D01*
X87495000Y-99512380D01*
X87733095Y-99512380D01*
X86590238Y-98940952D02*
X86685476Y-98893333D01*
X86733095Y-98845714D01*
X86780714Y-98750476D01*
X86780714Y-98702857D01*
X86733095Y-98607619D01*
X86685476Y-98560000D01*
X86590238Y-98512380D01*
X86399761Y-98512380D01*
X86304523Y-98560000D01*
X86256904Y-98607619D01*
X86209285Y-98702857D01*
X86209285Y-98750476D01*
X86256904Y-98845714D01*
X86304523Y-98893333D01*
X86399761Y-98940952D01*
X86590238Y-98940952D01*
X86685476Y-98988571D01*
X86733095Y-99036190D01*
X86780714Y-99131428D01*
X86780714Y-99321904D01*
X86733095Y-99417142D01*
X86685476Y-99464761D01*
X86590238Y-99512380D01*
X86399761Y-99512380D01*
X86304523Y-99464761D01*
X86256904Y-99417142D01*
X86209285Y-99321904D01*
X86209285Y-99131428D01*
X86256904Y-99036190D01*
X86304523Y-98988571D01*
X86399761Y-98940952D01*
X87733095Y-96972380D02*
X87733095Y-95972380D01*
X87495000Y-95972380D01*
X87352142Y-96020000D01*
X87256904Y-96115238D01*
X87209285Y-96210476D01*
X87161666Y-96400952D01*
X87161666Y-96543809D01*
X87209285Y-96734285D01*
X87256904Y-96829523D01*
X87352142Y-96924761D01*
X87495000Y-96972380D01*
X87733095Y-96972380D01*
X86828333Y-95972380D02*
X86161666Y-95972380D01*
X86590238Y-96972380D01*
X87733095Y-94432380D02*
X87733095Y-93432380D01*
X87495000Y-93432380D01*
X87352142Y-93480000D01*
X87256904Y-93575238D01*
X87209285Y-93670476D01*
X87161666Y-93860952D01*
X87161666Y-94003809D01*
X87209285Y-94194285D01*
X87256904Y-94289523D01*
X87352142Y-94384761D01*
X87495000Y-94432380D01*
X87733095Y-94432380D01*
X86304523Y-93432380D02*
X86495000Y-93432380D01*
X86590238Y-93480000D01*
X86637857Y-93527619D01*
X86733095Y-93670476D01*
X86780714Y-93860952D01*
X86780714Y-94241904D01*
X86733095Y-94337142D01*
X86685476Y-94384761D01*
X86590238Y-94432380D01*
X86399761Y-94432380D01*
X86304523Y-94384761D01*
X86256904Y-94337142D01*
X86209285Y-94241904D01*
X86209285Y-94003809D01*
X86256904Y-93908571D01*
X86304523Y-93860952D01*
X86399761Y-93813333D01*
X86590238Y-93813333D01*
X86685476Y-93860952D01*
X86733095Y-93908571D01*
X86780714Y-94003809D01*
X87733095Y-91892380D02*
X87733095Y-90892380D01*
X87495000Y-90892380D01*
X87352142Y-90940000D01*
X87256904Y-91035238D01*
X87209285Y-91130476D01*
X87161666Y-91320952D01*
X87161666Y-91463809D01*
X87209285Y-91654285D01*
X87256904Y-91749523D01*
X87352142Y-91844761D01*
X87495000Y-91892380D01*
X87733095Y-91892380D01*
X86256904Y-90892380D02*
X86733095Y-90892380D01*
X86780714Y-91368571D01*
X86733095Y-91320952D01*
X86637857Y-91273333D01*
X86399761Y-91273333D01*
X86304523Y-91320952D01*
X86256904Y-91368571D01*
X86209285Y-91463809D01*
X86209285Y-91701904D01*
X86256904Y-91797142D01*
X86304523Y-91844761D01*
X86399761Y-91892380D01*
X86637857Y-91892380D01*
X86733095Y-91844761D01*
X86780714Y-91797142D01*
X88391904Y-88400000D02*
X88487142Y-88352380D01*
X88630000Y-88352380D01*
X88772857Y-88400000D01*
X88868095Y-88495238D01*
X88915714Y-88590476D01*
X88963333Y-88780952D01*
X88963333Y-88923809D01*
X88915714Y-89114285D01*
X88868095Y-89209523D01*
X88772857Y-89304761D01*
X88630000Y-89352380D01*
X88534761Y-89352380D01*
X88391904Y-89304761D01*
X88344285Y-89257142D01*
X88344285Y-88923809D01*
X88534761Y-88923809D01*
X87915714Y-89352380D02*
X87915714Y-88352380D01*
X87344285Y-89352380D01*
X87344285Y-88352380D01*
X86868095Y-89352380D02*
X86868095Y-88352380D01*
X86630000Y-88352380D01*
X86487142Y-88400000D01*
X86391904Y-88495238D01*
X86344285Y-88590476D01*
X86296666Y-88780952D01*
X86296666Y-88923809D01*
X86344285Y-89114285D01*
X86391904Y-89209523D01*
X86487142Y-89304761D01*
X86630000Y-89352380D01*
X86868095Y-89352380D01*
X88868095Y-85812380D02*
X88249047Y-85812380D01*
X88582380Y-86193333D01*
X88439523Y-86193333D01*
X88344285Y-86240952D01*
X88296666Y-86288571D01*
X88249047Y-86383809D01*
X88249047Y-86621904D01*
X88296666Y-86717142D01*
X88344285Y-86764761D01*
X88439523Y-86812380D01*
X88725238Y-86812380D01*
X88820476Y-86764761D01*
X88868095Y-86717142D01*
X87963333Y-85812380D02*
X87630000Y-86812380D01*
X87296666Y-85812380D01*
X87058571Y-85812380D02*
X86439523Y-85812380D01*
X86772857Y-86193333D01*
X86630000Y-86193333D01*
X86534761Y-86240952D01*
X86487142Y-86288571D01*
X86439523Y-86383809D01*
X86439523Y-86621904D01*
X86487142Y-86717142D01*
X86534761Y-86764761D01*
X86630000Y-86812380D01*
X86915714Y-86812380D01*
X87010952Y-86764761D01*
X87058571Y-86717142D01*
X87733095Y-84272380D02*
X87733095Y-83272380D01*
X87495000Y-83272380D01*
X87352142Y-83320000D01*
X87256904Y-83415238D01*
X87209285Y-83510476D01*
X87161666Y-83700952D01*
X87161666Y-83843809D01*
X87209285Y-84034285D01*
X87256904Y-84129523D01*
X87352142Y-84224761D01*
X87495000Y-84272380D01*
X87733095Y-84272380D01*
X86304523Y-83605714D02*
X86304523Y-84272380D01*
X86542619Y-83224761D02*
X86780714Y-83939047D01*
X86161666Y-83939047D01*
X87733095Y-81732380D02*
X87733095Y-80732380D01*
X87495000Y-80732380D01*
X87352142Y-80780000D01*
X87256904Y-80875238D01*
X87209285Y-80970476D01*
X87161666Y-81160952D01*
X87161666Y-81303809D01*
X87209285Y-81494285D01*
X87256904Y-81589523D01*
X87352142Y-81684761D01*
X87495000Y-81732380D01*
X87733095Y-81732380D01*
X86828333Y-80732380D02*
X86209285Y-80732380D01*
X86542619Y-81113333D01*
X86399761Y-81113333D01*
X86304523Y-81160952D01*
X86256904Y-81208571D01*
X86209285Y-81303809D01*
X86209285Y-81541904D01*
X86256904Y-81637142D01*
X86304523Y-81684761D01*
X86399761Y-81732380D01*
X86685476Y-81732380D01*
X86780714Y-81684761D01*
X86828333Y-81637142D01*
X87733095Y-79192380D02*
X87733095Y-78192380D01*
X87495000Y-78192380D01*
X87352142Y-78240000D01*
X87256904Y-78335238D01*
X87209285Y-78430476D01*
X87161666Y-78620952D01*
X87161666Y-78763809D01*
X87209285Y-78954285D01*
X87256904Y-79049523D01*
X87352142Y-79144761D01*
X87495000Y-79192380D01*
X87733095Y-79192380D01*
X86780714Y-78287619D02*
X86733095Y-78240000D01*
X86637857Y-78192380D01*
X86399761Y-78192380D01*
X86304523Y-78240000D01*
X86256904Y-78287619D01*
X86209285Y-78382857D01*
X86209285Y-78478095D01*
X86256904Y-78620952D01*
X86828333Y-79192380D01*
X86209285Y-79192380D01*
X87733095Y-76652380D02*
X87733095Y-75652380D01*
X87495000Y-75652380D01*
X87352142Y-75700000D01*
X87256904Y-75795238D01*
X87209285Y-75890476D01*
X87161666Y-76080952D01*
X87161666Y-76223809D01*
X87209285Y-76414285D01*
X87256904Y-76509523D01*
X87352142Y-76604761D01*
X87495000Y-76652380D01*
X87733095Y-76652380D01*
X86209285Y-76652380D02*
X86780714Y-76652380D01*
X86495000Y-76652380D02*
X86495000Y-75652380D01*
X86590238Y-75795238D01*
X86685476Y-75890476D01*
X86780714Y-75938095D01*
X87733095Y-74112380D02*
X87733095Y-73112380D01*
X87495000Y-73112380D01*
X87352142Y-73160000D01*
X87256904Y-73255238D01*
X87209285Y-73350476D01*
X87161666Y-73540952D01*
X87161666Y-73683809D01*
X87209285Y-73874285D01*
X87256904Y-73969523D01*
X87352142Y-74064761D01*
X87495000Y-74112380D01*
X87733095Y-74112380D01*
X86542619Y-73112380D02*
X86447380Y-73112380D01*
X86352142Y-73160000D01*
X86304523Y-73207619D01*
X86256904Y-73302857D01*
X86209285Y-73493333D01*
X86209285Y-73731428D01*
X86256904Y-73921904D01*
X86304523Y-74017142D01*
X86352142Y-74064761D01*
X86447380Y-74112380D01*
X86542619Y-74112380D01*
X86637857Y-74064761D01*
X86685476Y-74017142D01*
X86733095Y-73921904D01*
X86780714Y-73731428D01*
X86780714Y-73493333D01*
X86733095Y-73302857D01*
X86685476Y-73207619D01*
X86637857Y-73160000D01*
X86542619Y-73112380D01*
X106505238Y-108672380D02*
X106171904Y-109672380D01*
X105838571Y-108672380D01*
X105505238Y-109672380D02*
X105505238Y-108672380D01*
X105029047Y-109672380D02*
X105029047Y-108672380D01*
X104457619Y-109672380D01*
X104457619Y-108672380D01*
X106171904Y-106180000D02*
X106267142Y-106132380D01*
X106410000Y-106132380D01*
X106552857Y-106180000D01*
X106648095Y-106275238D01*
X106695714Y-106370476D01*
X106743333Y-106560952D01*
X106743333Y-106703809D01*
X106695714Y-106894285D01*
X106648095Y-106989523D01*
X106552857Y-107084761D01*
X106410000Y-107132380D01*
X106314761Y-107132380D01*
X106171904Y-107084761D01*
X106124285Y-107037142D01*
X106124285Y-106703809D01*
X106314761Y-106703809D01*
X105695714Y-107132380D02*
X105695714Y-106132380D01*
X105124285Y-107132380D01*
X105124285Y-106132380D01*
X104648095Y-107132380D02*
X104648095Y-106132380D01*
X104410000Y-106132380D01*
X104267142Y-106180000D01*
X104171904Y-106275238D01*
X104124285Y-106370476D01*
X104076666Y-106560952D01*
X104076666Y-106703809D01*
X104124285Y-106894285D01*
X104171904Y-106989523D01*
X104267142Y-107084761D01*
X104410000Y-107132380D01*
X104648095Y-107132380D01*
X105957619Y-104592380D02*
X106290952Y-104116190D01*
X106529047Y-104592380D02*
X106529047Y-103592380D01*
X106148095Y-103592380D01*
X106052857Y-103640000D01*
X106005238Y-103687619D01*
X105957619Y-103782857D01*
X105957619Y-103925714D01*
X106005238Y-104020952D01*
X106052857Y-104068571D01*
X106148095Y-104116190D01*
X106529047Y-104116190D01*
X105576666Y-104544761D02*
X105433809Y-104592380D01*
X105195714Y-104592380D01*
X105100476Y-104544761D01*
X105052857Y-104497142D01*
X105005238Y-104401904D01*
X105005238Y-104306666D01*
X105052857Y-104211428D01*
X105100476Y-104163809D01*
X105195714Y-104116190D01*
X105386190Y-104068571D01*
X105481428Y-104020952D01*
X105529047Y-103973333D01*
X105576666Y-103878095D01*
X105576666Y-103782857D01*
X105529047Y-103687619D01*
X105481428Y-103640000D01*
X105386190Y-103592380D01*
X105148095Y-103592380D01*
X105005238Y-103640000D01*
X104719523Y-103592380D02*
X104148095Y-103592380D01*
X104433809Y-104592380D02*
X104433809Y-103592380D01*
X106148095Y-101528571D02*
X105814761Y-101528571D01*
X105671904Y-102052380D02*
X106148095Y-102052380D01*
X106148095Y-101052380D01*
X105671904Y-101052380D01*
X105243333Y-102052380D02*
X105243333Y-101052380D01*
X104671904Y-102052380D01*
X104671904Y-101052380D01*
X106648095Y-98512380D02*
X106029047Y-98512380D01*
X106362380Y-98893333D01*
X106219523Y-98893333D01*
X106124285Y-98940952D01*
X106076666Y-98988571D01*
X106029047Y-99083809D01*
X106029047Y-99321904D01*
X106076666Y-99417142D01*
X106124285Y-99464761D01*
X106219523Y-99512380D01*
X106505238Y-99512380D01*
X106600476Y-99464761D01*
X106648095Y-99417142D01*
X105743333Y-98512380D02*
X105410000Y-99512380D01*
X105076666Y-98512380D01*
X104838571Y-98512380D02*
X104219523Y-98512380D01*
X104552857Y-98893333D01*
X104410000Y-98893333D01*
X104314761Y-98940952D01*
X104267142Y-98988571D01*
X104219523Y-99083809D01*
X104219523Y-99321904D01*
X104267142Y-99417142D01*
X104314761Y-99464761D01*
X104410000Y-99512380D01*
X104695714Y-99512380D01*
X104790952Y-99464761D01*
X104838571Y-99417142D01*
X106171904Y-96020000D02*
X106267142Y-95972380D01*
X106410000Y-95972380D01*
X106552857Y-96020000D01*
X106648095Y-96115238D01*
X106695714Y-96210476D01*
X106743333Y-96400952D01*
X106743333Y-96543809D01*
X106695714Y-96734285D01*
X106648095Y-96829523D01*
X106552857Y-96924761D01*
X106410000Y-96972380D01*
X106314761Y-96972380D01*
X106171904Y-96924761D01*
X106124285Y-96877142D01*
X106124285Y-96543809D01*
X106314761Y-96543809D01*
X105695714Y-96972380D02*
X105695714Y-95972380D01*
X105124285Y-96972380D01*
X105124285Y-95972380D01*
X104648095Y-96972380D02*
X104648095Y-95972380D01*
X104410000Y-95972380D01*
X104267142Y-96020000D01*
X104171904Y-96115238D01*
X104124285Y-96210476D01*
X104076666Y-96400952D01*
X104076666Y-96543809D01*
X104124285Y-96734285D01*
X104171904Y-96829523D01*
X104267142Y-96924761D01*
X104410000Y-96972380D01*
X104648095Y-96972380D01*
X106005238Y-94337142D02*
X106052857Y-94384761D01*
X106195714Y-94432380D01*
X106290952Y-94432380D01*
X106433809Y-94384761D01*
X106529047Y-94289523D01*
X106576666Y-94194285D01*
X106624285Y-94003809D01*
X106624285Y-93860952D01*
X106576666Y-93670476D01*
X106529047Y-93575238D01*
X106433809Y-93480000D01*
X106290952Y-93432380D01*
X106195714Y-93432380D01*
X106052857Y-93480000D01*
X106005238Y-93527619D01*
X105100476Y-94432380D02*
X105576666Y-94432380D01*
X105576666Y-93432380D01*
X104767142Y-94432380D02*
X104767142Y-93432380D01*
X104195714Y-94432380D02*
X104624285Y-93860952D01*
X104195714Y-93432380D02*
X104767142Y-94003809D01*
X106671904Y-91844761D02*
X106529047Y-91892380D01*
X106290952Y-91892380D01*
X106195714Y-91844761D01*
X106148095Y-91797142D01*
X106100476Y-91701904D01*
X106100476Y-91606666D01*
X106148095Y-91511428D01*
X106195714Y-91463809D01*
X106290952Y-91416190D01*
X106481428Y-91368571D01*
X106576666Y-91320952D01*
X106624285Y-91273333D01*
X106671904Y-91178095D01*
X106671904Y-91082857D01*
X106624285Y-90987619D01*
X106576666Y-90940000D01*
X106481428Y-90892380D01*
X106243333Y-90892380D01*
X106100476Y-90940000D01*
X105671904Y-91892380D02*
X105671904Y-90892380D01*
X105433809Y-90892380D01*
X105290952Y-90940000D01*
X105195714Y-91035238D01*
X105148095Y-91130476D01*
X105100476Y-91320952D01*
X105100476Y-91463809D01*
X105148095Y-91654285D01*
X105195714Y-91749523D01*
X105290952Y-91844761D01*
X105433809Y-91892380D01*
X105671904Y-91892380D01*
X104481428Y-90892380D02*
X104386190Y-90892380D01*
X104290952Y-90940000D01*
X104243333Y-90987619D01*
X104195714Y-91082857D01*
X104148095Y-91273333D01*
X104148095Y-91511428D01*
X104195714Y-91701904D01*
X104243333Y-91797142D01*
X104290952Y-91844761D01*
X104386190Y-91892380D01*
X104481428Y-91892380D01*
X104576666Y-91844761D01*
X104624285Y-91797142D01*
X104671904Y-91701904D01*
X104719523Y-91511428D01*
X104719523Y-91273333D01*
X104671904Y-91082857D01*
X104624285Y-90987619D01*
X104576666Y-90940000D01*
X104481428Y-90892380D01*
X106171904Y-89257142D02*
X106219523Y-89304761D01*
X106362380Y-89352380D01*
X106457619Y-89352380D01*
X106600476Y-89304761D01*
X106695714Y-89209523D01*
X106743333Y-89114285D01*
X106790952Y-88923809D01*
X106790952Y-88780952D01*
X106743333Y-88590476D01*
X106695714Y-88495238D01*
X106600476Y-88400000D01*
X106457619Y-88352380D01*
X106362380Y-88352380D01*
X106219523Y-88400000D01*
X106171904Y-88447619D01*
X105743333Y-89352380D02*
X105743333Y-88352380D01*
X105410000Y-89066666D01*
X105076666Y-88352380D01*
X105076666Y-89352380D01*
X104600476Y-89352380D02*
X104600476Y-88352380D01*
X104362380Y-88352380D01*
X104219523Y-88400000D01*
X104124285Y-88495238D01*
X104076666Y-88590476D01*
X104029047Y-88780952D01*
X104029047Y-88923809D01*
X104076666Y-89114285D01*
X104124285Y-89209523D01*
X104219523Y-89304761D01*
X104362380Y-89352380D01*
X104600476Y-89352380D01*
X106671904Y-86764761D02*
X106529047Y-86812380D01*
X106290952Y-86812380D01*
X106195714Y-86764761D01*
X106148095Y-86717142D01*
X106100476Y-86621904D01*
X106100476Y-86526666D01*
X106148095Y-86431428D01*
X106195714Y-86383809D01*
X106290952Y-86336190D01*
X106481428Y-86288571D01*
X106576666Y-86240952D01*
X106624285Y-86193333D01*
X106671904Y-86098095D01*
X106671904Y-86002857D01*
X106624285Y-85907619D01*
X106576666Y-85860000D01*
X106481428Y-85812380D01*
X106243333Y-85812380D01*
X106100476Y-85860000D01*
X105671904Y-86812380D02*
X105671904Y-85812380D01*
X105433809Y-85812380D01*
X105290952Y-85860000D01*
X105195714Y-85955238D01*
X105148095Y-86050476D01*
X105100476Y-86240952D01*
X105100476Y-86383809D01*
X105148095Y-86574285D01*
X105195714Y-86669523D01*
X105290952Y-86764761D01*
X105433809Y-86812380D01*
X105671904Y-86812380D01*
X104148095Y-86812380D02*
X104719523Y-86812380D01*
X104433809Y-86812380D02*
X104433809Y-85812380D01*
X104529047Y-85955238D01*
X104624285Y-86050476D01*
X104719523Y-86098095D01*
X106671904Y-84224761D02*
X106529047Y-84272380D01*
X106290952Y-84272380D01*
X106195714Y-84224761D01*
X106148095Y-84177142D01*
X106100476Y-84081904D01*
X106100476Y-83986666D01*
X106148095Y-83891428D01*
X106195714Y-83843809D01*
X106290952Y-83796190D01*
X106481428Y-83748571D01*
X106576666Y-83700952D01*
X106624285Y-83653333D01*
X106671904Y-83558095D01*
X106671904Y-83462857D01*
X106624285Y-83367619D01*
X106576666Y-83320000D01*
X106481428Y-83272380D01*
X106243333Y-83272380D01*
X106100476Y-83320000D01*
X105671904Y-84272380D02*
X105671904Y-83272380D01*
X105433809Y-83272380D01*
X105290952Y-83320000D01*
X105195714Y-83415238D01*
X105148095Y-83510476D01*
X105100476Y-83700952D01*
X105100476Y-83843809D01*
X105148095Y-84034285D01*
X105195714Y-84129523D01*
X105290952Y-84224761D01*
X105433809Y-84272380D01*
X105671904Y-84272380D01*
X104719523Y-83367619D02*
X104671904Y-83320000D01*
X104576666Y-83272380D01*
X104338571Y-83272380D01*
X104243333Y-83320000D01*
X104195714Y-83367619D01*
X104148095Y-83462857D01*
X104148095Y-83558095D01*
X104195714Y-83700952D01*
X104767142Y-84272380D01*
X104148095Y-84272380D01*
X106671904Y-81684761D02*
X106529047Y-81732380D01*
X106290952Y-81732380D01*
X106195714Y-81684761D01*
X106148095Y-81637142D01*
X106100476Y-81541904D01*
X106100476Y-81446666D01*
X106148095Y-81351428D01*
X106195714Y-81303809D01*
X106290952Y-81256190D01*
X106481428Y-81208571D01*
X106576666Y-81160952D01*
X106624285Y-81113333D01*
X106671904Y-81018095D01*
X106671904Y-80922857D01*
X106624285Y-80827619D01*
X106576666Y-80780000D01*
X106481428Y-80732380D01*
X106243333Y-80732380D01*
X106100476Y-80780000D01*
X105671904Y-81732380D02*
X105671904Y-80732380D01*
X105433809Y-80732380D01*
X105290952Y-80780000D01*
X105195714Y-80875238D01*
X105148095Y-80970476D01*
X105100476Y-81160952D01*
X105100476Y-81303809D01*
X105148095Y-81494285D01*
X105195714Y-81589523D01*
X105290952Y-81684761D01*
X105433809Y-81732380D01*
X105671904Y-81732380D01*
X104767142Y-80732380D02*
X104148095Y-80732380D01*
X104481428Y-81113333D01*
X104338571Y-81113333D01*
X104243333Y-81160952D01*
X104195714Y-81208571D01*
X104148095Y-81303809D01*
X104148095Y-81541904D01*
X104195714Y-81637142D01*
X104243333Y-81684761D01*
X104338571Y-81732380D01*
X104624285Y-81732380D01*
X104719523Y-81684761D01*
X104767142Y-81637142D01*
X106005238Y-79192380D02*
X106338571Y-78716190D01*
X106576666Y-79192380D02*
X106576666Y-78192380D01*
X106195714Y-78192380D01*
X106100476Y-78240000D01*
X106052857Y-78287619D01*
X106005238Y-78382857D01*
X106005238Y-78525714D01*
X106052857Y-78620952D01*
X106100476Y-78668571D01*
X106195714Y-78716190D01*
X106576666Y-78716190D01*
X105624285Y-79144761D02*
X105481428Y-79192380D01*
X105243333Y-79192380D01*
X105148095Y-79144761D01*
X105100476Y-79097142D01*
X105052857Y-79001904D01*
X105052857Y-78906666D01*
X105100476Y-78811428D01*
X105148095Y-78763809D01*
X105243333Y-78716190D01*
X105433809Y-78668571D01*
X105529047Y-78620952D01*
X105576666Y-78573333D01*
X105624285Y-78478095D01*
X105624285Y-78382857D01*
X105576666Y-78287619D01*
X105529047Y-78240000D01*
X105433809Y-78192380D01*
X105195714Y-78192380D01*
X105052857Y-78240000D01*
X104767142Y-78192380D02*
X104433809Y-79192380D01*
X104100476Y-78192380D01*
X106005238Y-76652380D02*
X106338571Y-76176190D01*
X106576666Y-76652380D02*
X106576666Y-75652380D01*
X106195714Y-75652380D01*
X106100476Y-75700000D01*
X106052857Y-75747619D01*
X106005238Y-75842857D01*
X106005238Y-75985714D01*
X106052857Y-76080952D01*
X106100476Y-76128571D01*
X106195714Y-76176190D01*
X106576666Y-76176190D01*
X105624285Y-76604761D02*
X105481428Y-76652380D01*
X105243333Y-76652380D01*
X105148095Y-76604761D01*
X105100476Y-76557142D01*
X105052857Y-76461904D01*
X105052857Y-76366666D01*
X105100476Y-76271428D01*
X105148095Y-76223809D01*
X105243333Y-76176190D01*
X105433809Y-76128571D01*
X105529047Y-76080952D01*
X105576666Y-76033333D01*
X105624285Y-75938095D01*
X105624285Y-75842857D01*
X105576666Y-75747619D01*
X105529047Y-75700000D01*
X105433809Y-75652380D01*
X105195714Y-75652380D01*
X105052857Y-75700000D01*
X104767142Y-75652380D02*
X104433809Y-76652380D01*
X104100476Y-75652380D01*
X106759285Y-73826666D02*
X106283095Y-73826666D01*
X106854523Y-74112380D02*
X106521190Y-73112380D01*
X106187857Y-74112380D01*
X105664047Y-73112380D02*
X105568809Y-73112380D01*
X105473571Y-73160000D01*
X105425952Y-73207619D01*
X105378333Y-73302857D01*
X105330714Y-73493333D01*
X105330714Y-73731428D01*
X105378333Y-73921904D01*
X105425952Y-74017142D01*
X105473571Y-74064761D01*
X105568809Y-74112380D01*
X105664047Y-74112380D01*
X105759285Y-74064761D01*
X105806904Y-74017142D01*
X105854523Y-73921904D01*
X105902142Y-73731428D01*
X105902142Y-73493333D01*
X105854523Y-73302857D01*
X105806904Y-73207619D01*
X105759285Y-73160000D01*
X105664047Y-73112380D01*
X78017619Y-40131904D02*
X77208095Y-40131904D01*
X77112857Y-40084285D01*
X77065238Y-40036666D01*
X77017619Y-39941428D01*
X77017619Y-39750952D01*
X77065238Y-39655714D01*
X77112857Y-39608095D01*
X77208095Y-39560476D01*
X78017619Y-39560476D01*
X78017619Y-38655714D02*
X78017619Y-38846190D01*
X77970000Y-38941428D01*
X77922380Y-38989047D01*
X77779523Y-39084285D01*
X77589047Y-39131904D01*
X77208095Y-39131904D01*
X77112857Y-39084285D01*
X77065238Y-39036666D01*
X77017619Y-38941428D01*
X77017619Y-38750952D01*
X77065238Y-38655714D01*
X77112857Y-38608095D01*
X77208095Y-38560476D01*
X77446190Y-38560476D01*
X77541428Y-38608095D01*
X77589047Y-38655714D01*
X77636666Y-38750952D01*
X77636666Y-38941428D01*
X77589047Y-39036666D01*
X77541428Y-39084285D01*
X77446190Y-39131904D01*
X84113571Y-39298571D02*
X83970714Y-39346190D01*
X83923095Y-39393809D01*
X83875476Y-39489047D01*
X83875476Y-39631904D01*
X83923095Y-39727142D01*
X83970714Y-39774761D01*
X84065952Y-39822380D01*
X84446904Y-39822380D01*
X84446904Y-38822380D01*
X84113571Y-38822380D01*
X84018333Y-38870000D01*
X83970714Y-38917619D01*
X83923095Y-39012857D01*
X83923095Y-39108095D01*
X83970714Y-39203333D01*
X84018333Y-39250952D01*
X84113571Y-39298571D01*
X84446904Y-39298571D01*
X82875476Y-39822380D02*
X83208809Y-39346190D01*
X83446904Y-39822380D02*
X83446904Y-38822380D01*
X83065952Y-38822380D01*
X82970714Y-38870000D01*
X82923095Y-38917619D01*
X82875476Y-39012857D01*
X82875476Y-39155714D01*
X82923095Y-39250952D01*
X82970714Y-39298571D01*
X83065952Y-39346190D01*
X83446904Y-39346190D01*
X82446904Y-39822380D02*
X82446904Y-38822380D01*
X81875476Y-39822380D02*
X82304047Y-39250952D01*
X81875476Y-38822380D02*
X82446904Y-39393809D01*
X83851666Y-42362380D02*
X84185000Y-41886190D01*
X84423095Y-42362380D02*
X84423095Y-41362380D01*
X84042142Y-41362380D01*
X83946904Y-41410000D01*
X83899285Y-41457619D01*
X83851666Y-41552857D01*
X83851666Y-41695714D01*
X83899285Y-41790952D01*
X83946904Y-41838571D01*
X84042142Y-41886190D01*
X84423095Y-41886190D01*
X83518333Y-41362380D02*
X82851666Y-42362380D01*
X82851666Y-41362380D02*
X83518333Y-42362380D01*
X82470714Y-42362380D02*
X82470714Y-41362380D01*
X82232619Y-41362380D01*
X82089761Y-41410000D01*
X81994523Y-41505238D01*
X81946904Y-41600476D01*
X81899285Y-41790952D01*
X81899285Y-41933809D01*
X81946904Y-42124285D01*
X81994523Y-42219523D01*
X82089761Y-42314761D01*
X82232619Y-42362380D01*
X82470714Y-42362380D01*
X84446904Y-43902380D02*
X83875476Y-43902380D01*
X84161190Y-44902380D02*
X84161190Y-43902380D01*
X83637380Y-43902380D02*
X82970714Y-44902380D01*
X82970714Y-43902380D02*
X83637380Y-44902380D01*
X82589761Y-44902380D02*
X82589761Y-43902380D01*
X82351666Y-43902380D01*
X82208809Y-43950000D01*
X82113571Y-44045238D01*
X82065952Y-44140476D01*
X82018333Y-44330952D01*
X82018333Y-44473809D01*
X82065952Y-44664285D01*
X82113571Y-44759523D01*
X82208809Y-44854761D01*
X82351666Y-44902380D01*
X82589761Y-44902380D01*
X83946904Y-46490000D02*
X84042142Y-46442380D01*
X84185000Y-46442380D01*
X84327857Y-46490000D01*
X84423095Y-46585238D01*
X84470714Y-46680476D01*
X84518333Y-46870952D01*
X84518333Y-47013809D01*
X84470714Y-47204285D01*
X84423095Y-47299523D01*
X84327857Y-47394761D01*
X84185000Y-47442380D01*
X84089761Y-47442380D01*
X83946904Y-47394761D01*
X83899285Y-47347142D01*
X83899285Y-47013809D01*
X84089761Y-47013809D01*
X83470714Y-47442380D02*
X83470714Y-46442380D01*
X82899285Y-47442380D01*
X82899285Y-46442380D01*
X82423095Y-47442380D02*
X82423095Y-46442380D01*
X82185000Y-46442380D01*
X82042142Y-46490000D01*
X81946904Y-46585238D01*
X81899285Y-46680476D01*
X81851666Y-46870952D01*
X81851666Y-47013809D01*
X81899285Y-47204285D01*
X81946904Y-47299523D01*
X82042142Y-47394761D01*
X82185000Y-47442380D01*
X82423095Y-47442380D01*
X84518333Y-48982380D02*
X84185000Y-49982380D01*
X83851666Y-48982380D01*
X82946904Y-49887142D02*
X82994523Y-49934761D01*
X83137380Y-49982380D01*
X83232619Y-49982380D01*
X83375476Y-49934761D01*
X83470714Y-49839523D01*
X83518333Y-49744285D01*
X83565952Y-49553809D01*
X83565952Y-49410952D01*
X83518333Y-49220476D01*
X83470714Y-49125238D01*
X83375476Y-49030000D01*
X83232619Y-48982380D01*
X83137380Y-48982380D01*
X82994523Y-49030000D01*
X82946904Y-49077619D01*
X81946904Y-49887142D02*
X81994523Y-49934761D01*
X82137380Y-49982380D01*
X82232619Y-49982380D01*
X82375476Y-49934761D01*
X82470714Y-49839523D01*
X82518333Y-49744285D01*
X82565952Y-49553809D01*
X82565952Y-49410952D01*
X82518333Y-49220476D01*
X82470714Y-49125238D01*
X82375476Y-49030000D01*
X82232619Y-48982380D01*
X82137380Y-48982380D01*
X81994523Y-49030000D01*
X81946904Y-49077619D01*
X85748571Y-52474761D02*
X85605714Y-52522380D01*
X85367619Y-52522380D01*
X85272380Y-52474761D01*
X85224761Y-52427142D01*
X85177142Y-52331904D01*
X85177142Y-52236666D01*
X85224761Y-52141428D01*
X85272380Y-52093809D01*
X85367619Y-52046190D01*
X85558095Y-51998571D01*
X85653333Y-51950952D01*
X85700952Y-51903333D01*
X85748571Y-51808095D01*
X85748571Y-51712857D01*
X85700952Y-51617619D01*
X85653333Y-51570000D01*
X85558095Y-51522380D01*
X85320000Y-51522380D01*
X85177142Y-51570000D01*
X84891428Y-51522380D02*
X84320000Y-51522380D01*
X84605714Y-52522380D02*
X84605714Y-51522380D01*
X84034285Y-52236666D02*
X83558095Y-52236666D01*
X84129523Y-52522380D02*
X83796190Y-51522380D01*
X83462857Y-52522380D01*
X83272380Y-51522380D02*
X82700952Y-51522380D01*
X82986666Y-52522380D02*
X82986666Y-51522380D01*
X82367619Y-51998571D02*
X82034285Y-51998571D01*
X81891428Y-52522380D02*
X82367619Y-52522380D01*
X82367619Y-51522380D01*
X81891428Y-51522380D01*
M02*
