G04 #@! TF.GenerationSoftware,KiCad,Pcbnew,(5.1.2)-1*
G04 #@! TF.CreationDate,2019-07-31T22:00:42+02:00*
G04 #@! TF.ProjectId,OpenMQTTGatewayPCB,4f70656e-4d51-4545-9447-617465776179,1*
G04 #@! TF.SameCoordinates,Original*
G04 #@! TF.FileFunction,Copper,L1,Top*
G04 #@! TF.FilePolarity,Positive*
%FSLAX46Y46*%
G04 Gerber Fmt 4.6, Leading zero omitted, Abs format (unit mm)*
G04 Created by KiCad (PCBNEW (5.1.2)-1) date 2019-07-31 22:00:42*
%MOMM*%
%LPD*%
G04 APERTURE LIST*
%ADD10C,1.524000*%
%ADD11C,2.250000*%
%ADD12C,2.050000*%
%ADD13O,1.700000X2.000000*%
%ADD14C,0.100000*%
%ADD15C,1.700000*%
%ADD16C,1.425000*%
%ADD17C,1.800000*%
%ADD18R,1.800000X1.800000*%
%ADD19R,1.500000X2.000000*%
%ADD20R,3.800000X2.000000*%
%ADD21C,0.800000*%
%ADD22C,0.500000*%
%ADD23C,0.250000*%
%ADD24C,0.254000*%
G04 APERTURE END LIST*
D10*
X85090000Y-109220000D03*
X85090000Y-106680000D03*
X85090000Y-104140000D03*
X85090000Y-101600000D03*
X85090000Y-99060000D03*
X85090000Y-96520000D03*
X85090000Y-93980000D03*
X85090000Y-91440000D03*
X85090000Y-88900000D03*
X85090000Y-86360000D03*
X85090000Y-83820000D03*
X85090000Y-81280000D03*
X85090000Y-78740000D03*
X85090000Y-76200000D03*
X85090000Y-73660000D03*
X107950000Y-109220000D03*
X107950000Y-106680000D03*
X107950000Y-104140000D03*
X107950000Y-101600000D03*
X107950000Y-99060000D03*
X107950000Y-96520000D03*
X107950000Y-93980000D03*
X107950000Y-91440000D03*
X107950000Y-88900000D03*
X107950000Y-86360000D03*
X107950000Y-83820000D03*
X107950000Y-81280000D03*
X107950000Y-78740000D03*
X107950000Y-76200000D03*
X107950000Y-73660000D03*
X79375000Y-88011000D03*
X79375000Y-85471000D03*
X79375000Y-66675000D03*
X79375000Y-64135000D03*
X79375000Y-61595000D03*
X79375000Y-59055000D03*
D11*
X113980000Y-93120000D03*
X119060000Y-93120000D03*
X119060000Y-98200000D03*
X113980000Y-98200000D03*
D12*
X116520000Y-95660000D03*
D11*
X73980000Y-93120000D03*
X79060000Y-93120000D03*
X79060000Y-98200000D03*
X73980000Y-98200000D03*
D12*
X76520000Y-95660000D03*
D10*
X122174000Y-85852000D03*
X114935000Y-73025000D03*
X117475000Y-73025000D03*
X120015000Y-73025000D03*
D13*
X95544000Y-104140000D03*
D14*
G36*
X98668504Y-103141204D02*
G01*
X98692773Y-103144804D01*
X98716571Y-103150765D01*
X98739671Y-103159030D01*
X98761849Y-103169520D01*
X98782893Y-103182133D01*
X98802598Y-103196747D01*
X98820777Y-103213223D01*
X98837253Y-103231402D01*
X98851867Y-103251107D01*
X98864480Y-103272151D01*
X98874970Y-103294329D01*
X98883235Y-103317429D01*
X98889196Y-103341227D01*
X98892796Y-103365496D01*
X98894000Y-103390000D01*
X98894000Y-104890000D01*
X98892796Y-104914504D01*
X98889196Y-104938773D01*
X98883235Y-104962571D01*
X98874970Y-104985671D01*
X98864480Y-105007849D01*
X98851867Y-105028893D01*
X98837253Y-105048598D01*
X98820777Y-105066777D01*
X98802598Y-105083253D01*
X98782893Y-105097867D01*
X98761849Y-105110480D01*
X98739671Y-105120970D01*
X98716571Y-105129235D01*
X98692773Y-105135196D01*
X98668504Y-105138796D01*
X98644000Y-105140000D01*
X97444000Y-105140000D01*
X97419496Y-105138796D01*
X97395227Y-105135196D01*
X97371429Y-105129235D01*
X97348329Y-105120970D01*
X97326151Y-105110480D01*
X97305107Y-105097867D01*
X97285402Y-105083253D01*
X97267223Y-105066777D01*
X97250747Y-105048598D01*
X97236133Y-105028893D01*
X97223520Y-105007849D01*
X97213030Y-104985671D01*
X97204765Y-104962571D01*
X97198804Y-104938773D01*
X97195204Y-104914504D01*
X97194000Y-104890000D01*
X97194000Y-103390000D01*
X97195204Y-103365496D01*
X97198804Y-103341227D01*
X97204765Y-103317429D01*
X97213030Y-103294329D01*
X97223520Y-103272151D01*
X97236133Y-103251107D01*
X97250747Y-103231402D01*
X97267223Y-103213223D01*
X97285402Y-103196747D01*
X97305107Y-103182133D01*
X97326151Y-103169520D01*
X97348329Y-103159030D01*
X97371429Y-103150765D01*
X97395227Y-103144804D01*
X97419496Y-103141204D01*
X97444000Y-103140000D01*
X98644000Y-103140000D01*
X98668504Y-103141204D01*
X98668504Y-103141204D01*
G37*
D15*
X98044000Y-104140000D03*
D14*
G36*
X98712004Y-110886204D02*
G01*
X98736273Y-110889804D01*
X98760071Y-110895765D01*
X98783171Y-110904030D01*
X98805349Y-110914520D01*
X98826393Y-110927133D01*
X98846098Y-110941747D01*
X98864277Y-110958223D01*
X98880753Y-110976402D01*
X98895367Y-110996107D01*
X98907980Y-111017151D01*
X98918470Y-111039329D01*
X98926735Y-111062429D01*
X98932696Y-111086227D01*
X98936296Y-111110496D01*
X98937500Y-111135000D01*
X98937500Y-112385000D01*
X98936296Y-112409504D01*
X98932696Y-112433773D01*
X98926735Y-112457571D01*
X98918470Y-112480671D01*
X98907980Y-112502849D01*
X98895367Y-112523893D01*
X98880753Y-112543598D01*
X98864277Y-112561777D01*
X98846098Y-112578253D01*
X98826393Y-112592867D01*
X98805349Y-112605480D01*
X98783171Y-112615970D01*
X98760071Y-112624235D01*
X98736273Y-112630196D01*
X98712004Y-112633796D01*
X98687500Y-112635000D01*
X97762500Y-112635000D01*
X97737996Y-112633796D01*
X97713727Y-112630196D01*
X97689929Y-112624235D01*
X97666829Y-112615970D01*
X97644651Y-112605480D01*
X97623607Y-112592867D01*
X97603902Y-112578253D01*
X97585723Y-112561777D01*
X97569247Y-112543598D01*
X97554633Y-112523893D01*
X97542020Y-112502849D01*
X97531530Y-112480671D01*
X97523265Y-112457571D01*
X97517304Y-112433773D01*
X97513704Y-112409504D01*
X97512500Y-112385000D01*
X97512500Y-111135000D01*
X97513704Y-111110496D01*
X97517304Y-111086227D01*
X97523265Y-111062429D01*
X97531530Y-111039329D01*
X97542020Y-111017151D01*
X97554633Y-110996107D01*
X97569247Y-110976402D01*
X97585723Y-110958223D01*
X97603902Y-110941747D01*
X97623607Y-110927133D01*
X97644651Y-110914520D01*
X97666829Y-110904030D01*
X97689929Y-110895765D01*
X97713727Y-110889804D01*
X97737996Y-110886204D01*
X97762500Y-110885000D01*
X98687500Y-110885000D01*
X98712004Y-110886204D01*
X98712004Y-110886204D01*
G37*
D16*
X98225000Y-111760000D03*
D14*
G36*
X95737004Y-110886204D02*
G01*
X95761273Y-110889804D01*
X95785071Y-110895765D01*
X95808171Y-110904030D01*
X95830349Y-110914520D01*
X95851393Y-110927133D01*
X95871098Y-110941747D01*
X95889277Y-110958223D01*
X95905753Y-110976402D01*
X95920367Y-110996107D01*
X95932980Y-111017151D01*
X95943470Y-111039329D01*
X95951735Y-111062429D01*
X95957696Y-111086227D01*
X95961296Y-111110496D01*
X95962500Y-111135000D01*
X95962500Y-112385000D01*
X95961296Y-112409504D01*
X95957696Y-112433773D01*
X95951735Y-112457571D01*
X95943470Y-112480671D01*
X95932980Y-112502849D01*
X95920367Y-112523893D01*
X95905753Y-112543598D01*
X95889277Y-112561777D01*
X95871098Y-112578253D01*
X95851393Y-112592867D01*
X95830349Y-112605480D01*
X95808171Y-112615970D01*
X95785071Y-112624235D01*
X95761273Y-112630196D01*
X95737004Y-112633796D01*
X95712500Y-112635000D01*
X94787500Y-112635000D01*
X94762996Y-112633796D01*
X94738727Y-112630196D01*
X94714929Y-112624235D01*
X94691829Y-112615970D01*
X94669651Y-112605480D01*
X94648607Y-112592867D01*
X94628902Y-112578253D01*
X94610723Y-112561777D01*
X94594247Y-112543598D01*
X94579633Y-112523893D01*
X94567020Y-112502849D01*
X94556530Y-112480671D01*
X94548265Y-112457571D01*
X94542304Y-112433773D01*
X94538704Y-112409504D01*
X94537500Y-112385000D01*
X94537500Y-111135000D01*
X94538704Y-111110496D01*
X94542304Y-111086227D01*
X94548265Y-111062429D01*
X94556530Y-111039329D01*
X94567020Y-111017151D01*
X94579633Y-110996107D01*
X94594247Y-110976402D01*
X94610723Y-110958223D01*
X94628902Y-110941747D01*
X94648607Y-110927133D01*
X94669651Y-110914520D01*
X94691829Y-110904030D01*
X94714929Y-110895765D01*
X94738727Y-110889804D01*
X94762996Y-110886204D01*
X94787500Y-110885000D01*
X95712500Y-110885000D01*
X95737004Y-110886204D01*
X95737004Y-110886204D01*
G37*
D16*
X95250000Y-111760000D03*
D17*
X97790000Y-116840000D03*
D18*
X95250000Y-116840000D03*
D10*
X80010000Y-39370000D03*
X80010000Y-41910000D03*
X80010000Y-44450000D03*
X80010000Y-46990000D03*
X80010000Y-49530000D03*
X80010000Y-52070000D03*
X99060000Y-68580000D03*
X96520000Y-68580000D03*
X93980000Y-68580000D03*
X92710000Y-86360000D03*
X95250000Y-86360000D03*
X97790000Y-86360000D03*
X100330000Y-86360000D03*
D14*
G36*
X122464599Y-100582225D02*
G01*
X122488868Y-100585825D01*
X122512666Y-100591786D01*
X122535766Y-100600051D01*
X122557944Y-100610541D01*
X122578988Y-100623154D01*
X122598693Y-100637768D01*
X122616872Y-100654244D01*
X123500756Y-101538128D01*
X123517232Y-101556307D01*
X123531846Y-101576012D01*
X123544459Y-101597056D01*
X123554949Y-101619234D01*
X123563214Y-101642334D01*
X123569175Y-101666132D01*
X123572775Y-101690401D01*
X123573979Y-101714905D01*
X123572775Y-101739409D01*
X123569175Y-101763678D01*
X123563214Y-101787476D01*
X123554949Y-101810576D01*
X123544459Y-101832754D01*
X123531846Y-101853798D01*
X123517232Y-101873503D01*
X123500756Y-101891682D01*
X122846682Y-102545756D01*
X122828503Y-102562232D01*
X122808798Y-102576846D01*
X122787754Y-102589459D01*
X122765576Y-102599949D01*
X122742476Y-102608214D01*
X122718678Y-102614175D01*
X122694409Y-102617775D01*
X122669905Y-102618979D01*
X122645401Y-102617775D01*
X122621132Y-102614175D01*
X122597334Y-102608214D01*
X122574234Y-102599949D01*
X122552056Y-102589459D01*
X122531012Y-102576846D01*
X122511307Y-102562232D01*
X122493128Y-102545756D01*
X121609244Y-101661872D01*
X121592768Y-101643693D01*
X121578154Y-101623988D01*
X121565541Y-101602944D01*
X121555051Y-101580766D01*
X121546786Y-101557666D01*
X121540825Y-101533868D01*
X121537225Y-101509599D01*
X121536021Y-101485095D01*
X121537225Y-101460591D01*
X121540825Y-101436322D01*
X121546786Y-101412524D01*
X121555051Y-101389424D01*
X121565541Y-101367246D01*
X121578154Y-101346202D01*
X121592768Y-101326497D01*
X121609244Y-101308318D01*
X122263318Y-100654244D01*
X122281497Y-100637768D01*
X122301202Y-100623154D01*
X122322246Y-100610541D01*
X122344424Y-100600051D01*
X122367524Y-100591786D01*
X122391322Y-100585825D01*
X122415591Y-100582225D01*
X122440095Y-100581021D01*
X122464599Y-100582225D01*
X122464599Y-100582225D01*
G37*
D16*
X122555000Y-101600000D03*
D14*
G36*
X124568241Y-98478583D02*
G01*
X124592510Y-98482183D01*
X124616308Y-98488144D01*
X124639408Y-98496409D01*
X124661586Y-98506899D01*
X124682630Y-98519512D01*
X124702335Y-98534126D01*
X124720514Y-98550602D01*
X125604398Y-99434486D01*
X125620874Y-99452665D01*
X125635488Y-99472370D01*
X125648101Y-99493414D01*
X125658591Y-99515592D01*
X125666856Y-99538692D01*
X125672817Y-99562490D01*
X125676417Y-99586759D01*
X125677621Y-99611263D01*
X125676417Y-99635767D01*
X125672817Y-99660036D01*
X125666856Y-99683834D01*
X125658591Y-99706934D01*
X125648101Y-99729112D01*
X125635488Y-99750156D01*
X125620874Y-99769861D01*
X125604398Y-99788040D01*
X124950324Y-100442114D01*
X124932145Y-100458590D01*
X124912440Y-100473204D01*
X124891396Y-100485817D01*
X124869218Y-100496307D01*
X124846118Y-100504572D01*
X124822320Y-100510533D01*
X124798051Y-100514133D01*
X124773547Y-100515337D01*
X124749043Y-100514133D01*
X124724774Y-100510533D01*
X124700976Y-100504572D01*
X124677876Y-100496307D01*
X124655698Y-100485817D01*
X124634654Y-100473204D01*
X124614949Y-100458590D01*
X124596770Y-100442114D01*
X123712886Y-99558230D01*
X123696410Y-99540051D01*
X123681796Y-99520346D01*
X123669183Y-99499302D01*
X123658693Y-99477124D01*
X123650428Y-99454024D01*
X123644467Y-99430226D01*
X123640867Y-99405957D01*
X123639663Y-99381453D01*
X123640867Y-99356949D01*
X123644467Y-99332680D01*
X123650428Y-99308882D01*
X123658693Y-99285782D01*
X123669183Y-99263604D01*
X123681796Y-99242560D01*
X123696410Y-99222855D01*
X123712886Y-99204676D01*
X124366960Y-98550602D01*
X124385139Y-98534126D01*
X124404844Y-98519512D01*
X124425888Y-98506899D01*
X124448066Y-98496409D01*
X124471166Y-98488144D01*
X124494964Y-98482183D01*
X124519233Y-98478583D01*
X124543737Y-98477379D01*
X124568241Y-98478583D01*
X124568241Y-98478583D01*
G37*
D16*
X124658642Y-99496358D03*
D14*
G36*
X135269504Y-74653704D02*
G01*
X135293773Y-74657304D01*
X135317571Y-74663265D01*
X135340671Y-74671530D01*
X135362849Y-74682020D01*
X135383893Y-74694633D01*
X135403598Y-74709247D01*
X135421777Y-74725723D01*
X135438253Y-74743902D01*
X135452867Y-74763607D01*
X135465480Y-74784651D01*
X135475970Y-74806829D01*
X135484235Y-74829929D01*
X135490196Y-74853727D01*
X135493796Y-74877996D01*
X135495000Y-74902500D01*
X135495000Y-75827500D01*
X135493796Y-75852004D01*
X135490196Y-75876273D01*
X135484235Y-75900071D01*
X135475970Y-75923171D01*
X135465480Y-75945349D01*
X135452867Y-75966393D01*
X135438253Y-75986098D01*
X135421777Y-76004277D01*
X135403598Y-76020753D01*
X135383893Y-76035367D01*
X135362849Y-76047980D01*
X135340671Y-76058470D01*
X135317571Y-76066735D01*
X135293773Y-76072696D01*
X135269504Y-76076296D01*
X135245000Y-76077500D01*
X133995000Y-76077500D01*
X133970496Y-76076296D01*
X133946227Y-76072696D01*
X133922429Y-76066735D01*
X133899329Y-76058470D01*
X133877151Y-76047980D01*
X133856107Y-76035367D01*
X133836402Y-76020753D01*
X133818223Y-76004277D01*
X133801747Y-75986098D01*
X133787133Y-75966393D01*
X133774520Y-75945349D01*
X133764030Y-75923171D01*
X133755765Y-75900071D01*
X133749804Y-75876273D01*
X133746204Y-75852004D01*
X133745000Y-75827500D01*
X133745000Y-74902500D01*
X133746204Y-74877996D01*
X133749804Y-74853727D01*
X133755765Y-74829929D01*
X133764030Y-74806829D01*
X133774520Y-74784651D01*
X133787133Y-74763607D01*
X133801747Y-74743902D01*
X133818223Y-74725723D01*
X133836402Y-74709247D01*
X133856107Y-74694633D01*
X133877151Y-74682020D01*
X133899329Y-74671530D01*
X133922429Y-74663265D01*
X133946227Y-74657304D01*
X133970496Y-74653704D01*
X133995000Y-74652500D01*
X135245000Y-74652500D01*
X135269504Y-74653704D01*
X135269504Y-74653704D01*
G37*
D16*
X134620000Y-75365000D03*
D14*
G36*
X135269504Y-71678704D02*
G01*
X135293773Y-71682304D01*
X135317571Y-71688265D01*
X135340671Y-71696530D01*
X135362849Y-71707020D01*
X135383893Y-71719633D01*
X135403598Y-71734247D01*
X135421777Y-71750723D01*
X135438253Y-71768902D01*
X135452867Y-71788607D01*
X135465480Y-71809651D01*
X135475970Y-71831829D01*
X135484235Y-71854929D01*
X135490196Y-71878727D01*
X135493796Y-71902996D01*
X135495000Y-71927500D01*
X135495000Y-72852500D01*
X135493796Y-72877004D01*
X135490196Y-72901273D01*
X135484235Y-72925071D01*
X135475970Y-72948171D01*
X135465480Y-72970349D01*
X135452867Y-72991393D01*
X135438253Y-73011098D01*
X135421777Y-73029277D01*
X135403598Y-73045753D01*
X135383893Y-73060367D01*
X135362849Y-73072980D01*
X135340671Y-73083470D01*
X135317571Y-73091735D01*
X135293773Y-73097696D01*
X135269504Y-73101296D01*
X135245000Y-73102500D01*
X133995000Y-73102500D01*
X133970496Y-73101296D01*
X133946227Y-73097696D01*
X133922429Y-73091735D01*
X133899329Y-73083470D01*
X133877151Y-73072980D01*
X133856107Y-73060367D01*
X133836402Y-73045753D01*
X133818223Y-73029277D01*
X133801747Y-73011098D01*
X133787133Y-72991393D01*
X133774520Y-72970349D01*
X133764030Y-72948171D01*
X133755765Y-72925071D01*
X133749804Y-72901273D01*
X133746204Y-72877004D01*
X133745000Y-72852500D01*
X133745000Y-71927500D01*
X133746204Y-71902996D01*
X133749804Y-71878727D01*
X133755765Y-71854929D01*
X133764030Y-71831829D01*
X133774520Y-71809651D01*
X133787133Y-71788607D01*
X133801747Y-71768902D01*
X133818223Y-71750723D01*
X133836402Y-71734247D01*
X133856107Y-71719633D01*
X133877151Y-71707020D01*
X133899329Y-71696530D01*
X133922429Y-71688265D01*
X133946227Y-71682304D01*
X133970496Y-71678704D01*
X133995000Y-71677500D01*
X135245000Y-71677500D01*
X135269504Y-71678704D01*
X135269504Y-71678704D01*
G37*
D16*
X134620000Y-72390000D03*
D14*
G36*
X124798051Y-46805867D02*
G01*
X124822320Y-46809467D01*
X124846118Y-46815428D01*
X124869218Y-46823693D01*
X124891396Y-46834183D01*
X124912440Y-46846796D01*
X124932145Y-46861410D01*
X124950324Y-46877886D01*
X125604398Y-47531960D01*
X125620874Y-47550139D01*
X125635488Y-47569844D01*
X125648101Y-47590888D01*
X125658591Y-47613066D01*
X125666856Y-47636166D01*
X125672817Y-47659964D01*
X125676417Y-47684233D01*
X125677621Y-47708737D01*
X125676417Y-47733241D01*
X125672817Y-47757510D01*
X125666856Y-47781308D01*
X125658591Y-47804408D01*
X125648101Y-47826586D01*
X125635488Y-47847630D01*
X125620874Y-47867335D01*
X125604398Y-47885514D01*
X124720514Y-48769398D01*
X124702335Y-48785874D01*
X124682630Y-48800488D01*
X124661586Y-48813101D01*
X124639408Y-48823591D01*
X124616308Y-48831856D01*
X124592510Y-48837817D01*
X124568241Y-48841417D01*
X124543737Y-48842621D01*
X124519233Y-48841417D01*
X124494964Y-48837817D01*
X124471166Y-48831856D01*
X124448066Y-48823591D01*
X124425888Y-48813101D01*
X124404844Y-48800488D01*
X124385139Y-48785874D01*
X124366960Y-48769398D01*
X123712886Y-48115324D01*
X123696410Y-48097145D01*
X123681796Y-48077440D01*
X123669183Y-48056396D01*
X123658693Y-48034218D01*
X123650428Y-48011118D01*
X123644467Y-47987320D01*
X123640867Y-47963051D01*
X123639663Y-47938547D01*
X123640867Y-47914043D01*
X123644467Y-47889774D01*
X123650428Y-47865976D01*
X123658693Y-47842876D01*
X123669183Y-47820698D01*
X123681796Y-47799654D01*
X123696410Y-47779949D01*
X123712886Y-47761770D01*
X124596770Y-46877886D01*
X124614949Y-46861410D01*
X124634654Y-46846796D01*
X124655698Y-46834183D01*
X124677876Y-46823693D01*
X124700976Y-46815428D01*
X124724774Y-46809467D01*
X124749043Y-46805867D01*
X124773547Y-46804663D01*
X124798051Y-46805867D01*
X124798051Y-46805867D01*
G37*
D16*
X124658642Y-47823642D03*
D14*
G36*
X122694409Y-44702225D02*
G01*
X122718678Y-44705825D01*
X122742476Y-44711786D01*
X122765576Y-44720051D01*
X122787754Y-44730541D01*
X122808798Y-44743154D01*
X122828503Y-44757768D01*
X122846682Y-44774244D01*
X123500756Y-45428318D01*
X123517232Y-45446497D01*
X123531846Y-45466202D01*
X123544459Y-45487246D01*
X123554949Y-45509424D01*
X123563214Y-45532524D01*
X123569175Y-45556322D01*
X123572775Y-45580591D01*
X123573979Y-45605095D01*
X123572775Y-45629599D01*
X123569175Y-45653868D01*
X123563214Y-45677666D01*
X123554949Y-45700766D01*
X123544459Y-45722944D01*
X123531846Y-45743988D01*
X123517232Y-45763693D01*
X123500756Y-45781872D01*
X122616872Y-46665756D01*
X122598693Y-46682232D01*
X122578988Y-46696846D01*
X122557944Y-46709459D01*
X122535766Y-46719949D01*
X122512666Y-46728214D01*
X122488868Y-46734175D01*
X122464599Y-46737775D01*
X122440095Y-46738979D01*
X122415591Y-46737775D01*
X122391322Y-46734175D01*
X122367524Y-46728214D01*
X122344424Y-46719949D01*
X122322246Y-46709459D01*
X122301202Y-46696846D01*
X122281497Y-46682232D01*
X122263318Y-46665756D01*
X121609244Y-46011682D01*
X121592768Y-45993503D01*
X121578154Y-45973798D01*
X121565541Y-45952754D01*
X121555051Y-45930576D01*
X121546786Y-45907476D01*
X121540825Y-45883678D01*
X121537225Y-45859409D01*
X121536021Y-45834905D01*
X121537225Y-45810401D01*
X121540825Y-45786132D01*
X121546786Y-45762334D01*
X121555051Y-45739234D01*
X121565541Y-45717056D01*
X121578154Y-45696012D01*
X121592768Y-45676307D01*
X121609244Y-45658128D01*
X122493128Y-44774244D01*
X122511307Y-44757768D01*
X122531012Y-44743154D01*
X122552056Y-44730541D01*
X122574234Y-44720051D01*
X122597334Y-44711786D01*
X122621132Y-44705825D01*
X122645401Y-44702225D01*
X122669905Y-44701021D01*
X122694409Y-44702225D01*
X122694409Y-44702225D01*
G37*
D16*
X122555000Y-45720000D03*
D14*
G36*
X98277004Y-34686204D02*
G01*
X98301273Y-34689804D01*
X98325071Y-34695765D01*
X98348171Y-34704030D01*
X98370349Y-34714520D01*
X98391393Y-34727133D01*
X98411098Y-34741747D01*
X98429277Y-34758223D01*
X98445753Y-34776402D01*
X98460367Y-34796107D01*
X98472980Y-34817151D01*
X98483470Y-34839329D01*
X98491735Y-34862429D01*
X98497696Y-34886227D01*
X98501296Y-34910496D01*
X98502500Y-34935000D01*
X98502500Y-36185000D01*
X98501296Y-36209504D01*
X98497696Y-36233773D01*
X98491735Y-36257571D01*
X98483470Y-36280671D01*
X98472980Y-36302849D01*
X98460367Y-36323893D01*
X98445753Y-36343598D01*
X98429277Y-36361777D01*
X98411098Y-36378253D01*
X98391393Y-36392867D01*
X98370349Y-36405480D01*
X98348171Y-36415970D01*
X98325071Y-36424235D01*
X98301273Y-36430196D01*
X98277004Y-36433796D01*
X98252500Y-36435000D01*
X97327500Y-36435000D01*
X97302996Y-36433796D01*
X97278727Y-36430196D01*
X97254929Y-36424235D01*
X97231829Y-36415970D01*
X97209651Y-36405480D01*
X97188607Y-36392867D01*
X97168902Y-36378253D01*
X97150723Y-36361777D01*
X97134247Y-36343598D01*
X97119633Y-36323893D01*
X97107020Y-36302849D01*
X97096530Y-36280671D01*
X97088265Y-36257571D01*
X97082304Y-36233773D01*
X97078704Y-36209504D01*
X97077500Y-36185000D01*
X97077500Y-34935000D01*
X97078704Y-34910496D01*
X97082304Y-34886227D01*
X97088265Y-34862429D01*
X97096530Y-34839329D01*
X97107020Y-34817151D01*
X97119633Y-34796107D01*
X97134247Y-34776402D01*
X97150723Y-34758223D01*
X97168902Y-34741747D01*
X97188607Y-34727133D01*
X97209651Y-34714520D01*
X97231829Y-34704030D01*
X97254929Y-34695765D01*
X97278727Y-34689804D01*
X97302996Y-34686204D01*
X97327500Y-34685000D01*
X98252500Y-34685000D01*
X98277004Y-34686204D01*
X98277004Y-34686204D01*
G37*
D16*
X97790000Y-35560000D03*
D14*
G36*
X95302004Y-34686204D02*
G01*
X95326273Y-34689804D01*
X95350071Y-34695765D01*
X95373171Y-34704030D01*
X95395349Y-34714520D01*
X95416393Y-34727133D01*
X95436098Y-34741747D01*
X95454277Y-34758223D01*
X95470753Y-34776402D01*
X95485367Y-34796107D01*
X95497980Y-34817151D01*
X95508470Y-34839329D01*
X95516735Y-34862429D01*
X95522696Y-34886227D01*
X95526296Y-34910496D01*
X95527500Y-34935000D01*
X95527500Y-36185000D01*
X95526296Y-36209504D01*
X95522696Y-36233773D01*
X95516735Y-36257571D01*
X95508470Y-36280671D01*
X95497980Y-36302849D01*
X95485367Y-36323893D01*
X95470753Y-36343598D01*
X95454277Y-36361777D01*
X95436098Y-36378253D01*
X95416393Y-36392867D01*
X95395349Y-36405480D01*
X95373171Y-36415970D01*
X95350071Y-36424235D01*
X95326273Y-36430196D01*
X95302004Y-36433796D01*
X95277500Y-36435000D01*
X94352500Y-36435000D01*
X94327996Y-36433796D01*
X94303727Y-36430196D01*
X94279929Y-36424235D01*
X94256829Y-36415970D01*
X94234651Y-36405480D01*
X94213607Y-36392867D01*
X94193902Y-36378253D01*
X94175723Y-36361777D01*
X94159247Y-36343598D01*
X94144633Y-36323893D01*
X94132020Y-36302849D01*
X94121530Y-36280671D01*
X94113265Y-36257571D01*
X94107304Y-36233773D01*
X94103704Y-36209504D01*
X94102500Y-36185000D01*
X94102500Y-34935000D01*
X94103704Y-34910496D01*
X94107304Y-34886227D01*
X94113265Y-34862429D01*
X94121530Y-34839329D01*
X94132020Y-34817151D01*
X94144633Y-34796107D01*
X94159247Y-34776402D01*
X94175723Y-34758223D01*
X94193902Y-34741747D01*
X94213607Y-34727133D01*
X94234651Y-34714520D01*
X94256829Y-34704030D01*
X94279929Y-34695765D01*
X94303727Y-34689804D01*
X94327996Y-34686204D01*
X94352500Y-34685000D01*
X95277500Y-34685000D01*
X95302004Y-34686204D01*
X95302004Y-34686204D01*
G37*
D16*
X94815000Y-35560000D03*
D14*
G36*
X70394599Y-44702225D02*
G01*
X70418868Y-44705825D01*
X70442666Y-44711786D01*
X70465766Y-44720051D01*
X70487944Y-44730541D01*
X70508988Y-44743154D01*
X70528693Y-44757768D01*
X70546872Y-44774244D01*
X71430756Y-45658128D01*
X71447232Y-45676307D01*
X71461846Y-45696012D01*
X71474459Y-45717056D01*
X71484949Y-45739234D01*
X71493214Y-45762334D01*
X71499175Y-45786132D01*
X71502775Y-45810401D01*
X71503979Y-45834905D01*
X71502775Y-45859409D01*
X71499175Y-45883678D01*
X71493214Y-45907476D01*
X71484949Y-45930576D01*
X71474459Y-45952754D01*
X71461846Y-45973798D01*
X71447232Y-45993503D01*
X71430756Y-46011682D01*
X70776682Y-46665756D01*
X70758503Y-46682232D01*
X70738798Y-46696846D01*
X70717754Y-46709459D01*
X70695576Y-46719949D01*
X70672476Y-46728214D01*
X70648678Y-46734175D01*
X70624409Y-46737775D01*
X70599905Y-46738979D01*
X70575401Y-46737775D01*
X70551132Y-46734175D01*
X70527334Y-46728214D01*
X70504234Y-46719949D01*
X70482056Y-46709459D01*
X70461012Y-46696846D01*
X70441307Y-46682232D01*
X70423128Y-46665756D01*
X69539244Y-45781872D01*
X69522768Y-45763693D01*
X69508154Y-45743988D01*
X69495541Y-45722944D01*
X69485051Y-45700766D01*
X69476786Y-45677666D01*
X69470825Y-45653868D01*
X69467225Y-45629599D01*
X69466021Y-45605095D01*
X69467225Y-45580591D01*
X69470825Y-45556322D01*
X69476786Y-45532524D01*
X69485051Y-45509424D01*
X69495541Y-45487246D01*
X69508154Y-45466202D01*
X69522768Y-45446497D01*
X69539244Y-45428318D01*
X70193318Y-44774244D01*
X70211497Y-44757768D01*
X70231202Y-44743154D01*
X70252246Y-44730541D01*
X70274424Y-44720051D01*
X70297524Y-44711786D01*
X70321322Y-44705825D01*
X70345591Y-44702225D01*
X70370095Y-44701021D01*
X70394599Y-44702225D01*
X70394599Y-44702225D01*
G37*
D16*
X70485000Y-45720000D03*
D14*
G36*
X68290957Y-46805867D02*
G01*
X68315226Y-46809467D01*
X68339024Y-46815428D01*
X68362124Y-46823693D01*
X68384302Y-46834183D01*
X68405346Y-46846796D01*
X68425051Y-46861410D01*
X68443230Y-46877886D01*
X69327114Y-47761770D01*
X69343590Y-47779949D01*
X69358204Y-47799654D01*
X69370817Y-47820698D01*
X69381307Y-47842876D01*
X69389572Y-47865976D01*
X69395533Y-47889774D01*
X69399133Y-47914043D01*
X69400337Y-47938547D01*
X69399133Y-47963051D01*
X69395533Y-47987320D01*
X69389572Y-48011118D01*
X69381307Y-48034218D01*
X69370817Y-48056396D01*
X69358204Y-48077440D01*
X69343590Y-48097145D01*
X69327114Y-48115324D01*
X68673040Y-48769398D01*
X68654861Y-48785874D01*
X68635156Y-48800488D01*
X68614112Y-48813101D01*
X68591934Y-48823591D01*
X68568834Y-48831856D01*
X68545036Y-48837817D01*
X68520767Y-48841417D01*
X68496263Y-48842621D01*
X68471759Y-48841417D01*
X68447490Y-48837817D01*
X68423692Y-48831856D01*
X68400592Y-48823591D01*
X68378414Y-48813101D01*
X68357370Y-48800488D01*
X68337665Y-48785874D01*
X68319486Y-48769398D01*
X67435602Y-47885514D01*
X67419126Y-47867335D01*
X67404512Y-47847630D01*
X67391899Y-47826586D01*
X67381409Y-47804408D01*
X67373144Y-47781308D01*
X67367183Y-47757510D01*
X67363583Y-47733241D01*
X67362379Y-47708737D01*
X67363583Y-47684233D01*
X67367183Y-47659964D01*
X67373144Y-47636166D01*
X67381409Y-47613066D01*
X67391899Y-47590888D01*
X67404512Y-47569844D01*
X67419126Y-47550139D01*
X67435602Y-47531960D01*
X68089676Y-46877886D01*
X68107855Y-46861410D01*
X68127560Y-46846796D01*
X68148604Y-46834183D01*
X68170782Y-46823693D01*
X68193882Y-46815428D01*
X68217680Y-46809467D01*
X68241949Y-46805867D01*
X68266453Y-46804663D01*
X68290957Y-46805867D01*
X68290957Y-46805867D01*
G37*
D16*
X68381358Y-47823642D03*
D14*
G36*
X59069504Y-71678704D02*
G01*
X59093773Y-71682304D01*
X59117571Y-71688265D01*
X59140671Y-71696530D01*
X59162849Y-71707020D01*
X59183893Y-71719633D01*
X59203598Y-71734247D01*
X59221777Y-71750723D01*
X59238253Y-71768902D01*
X59252867Y-71788607D01*
X59265480Y-71809651D01*
X59275970Y-71831829D01*
X59284235Y-71854929D01*
X59290196Y-71878727D01*
X59293796Y-71902996D01*
X59295000Y-71927500D01*
X59295000Y-72852500D01*
X59293796Y-72877004D01*
X59290196Y-72901273D01*
X59284235Y-72925071D01*
X59275970Y-72948171D01*
X59265480Y-72970349D01*
X59252867Y-72991393D01*
X59238253Y-73011098D01*
X59221777Y-73029277D01*
X59203598Y-73045753D01*
X59183893Y-73060367D01*
X59162849Y-73072980D01*
X59140671Y-73083470D01*
X59117571Y-73091735D01*
X59093773Y-73097696D01*
X59069504Y-73101296D01*
X59045000Y-73102500D01*
X57795000Y-73102500D01*
X57770496Y-73101296D01*
X57746227Y-73097696D01*
X57722429Y-73091735D01*
X57699329Y-73083470D01*
X57677151Y-73072980D01*
X57656107Y-73060367D01*
X57636402Y-73045753D01*
X57618223Y-73029277D01*
X57601747Y-73011098D01*
X57587133Y-72991393D01*
X57574520Y-72970349D01*
X57564030Y-72948171D01*
X57555765Y-72925071D01*
X57549804Y-72901273D01*
X57546204Y-72877004D01*
X57545000Y-72852500D01*
X57545000Y-71927500D01*
X57546204Y-71902996D01*
X57549804Y-71878727D01*
X57555765Y-71854929D01*
X57564030Y-71831829D01*
X57574520Y-71809651D01*
X57587133Y-71788607D01*
X57601747Y-71768902D01*
X57618223Y-71750723D01*
X57636402Y-71734247D01*
X57656107Y-71719633D01*
X57677151Y-71707020D01*
X57699329Y-71696530D01*
X57722429Y-71688265D01*
X57746227Y-71682304D01*
X57770496Y-71678704D01*
X57795000Y-71677500D01*
X59045000Y-71677500D01*
X59069504Y-71678704D01*
X59069504Y-71678704D01*
G37*
D16*
X58420000Y-72390000D03*
D14*
G36*
X59069504Y-74653704D02*
G01*
X59093773Y-74657304D01*
X59117571Y-74663265D01*
X59140671Y-74671530D01*
X59162849Y-74682020D01*
X59183893Y-74694633D01*
X59203598Y-74709247D01*
X59221777Y-74725723D01*
X59238253Y-74743902D01*
X59252867Y-74763607D01*
X59265480Y-74784651D01*
X59275970Y-74806829D01*
X59284235Y-74829929D01*
X59290196Y-74853727D01*
X59293796Y-74877996D01*
X59295000Y-74902500D01*
X59295000Y-75827500D01*
X59293796Y-75852004D01*
X59290196Y-75876273D01*
X59284235Y-75900071D01*
X59275970Y-75923171D01*
X59265480Y-75945349D01*
X59252867Y-75966393D01*
X59238253Y-75986098D01*
X59221777Y-76004277D01*
X59203598Y-76020753D01*
X59183893Y-76035367D01*
X59162849Y-76047980D01*
X59140671Y-76058470D01*
X59117571Y-76066735D01*
X59093773Y-76072696D01*
X59069504Y-76076296D01*
X59045000Y-76077500D01*
X57795000Y-76077500D01*
X57770496Y-76076296D01*
X57746227Y-76072696D01*
X57722429Y-76066735D01*
X57699329Y-76058470D01*
X57677151Y-76047980D01*
X57656107Y-76035367D01*
X57636402Y-76020753D01*
X57618223Y-76004277D01*
X57601747Y-75986098D01*
X57587133Y-75966393D01*
X57574520Y-75945349D01*
X57564030Y-75923171D01*
X57555765Y-75900071D01*
X57549804Y-75876273D01*
X57546204Y-75852004D01*
X57545000Y-75827500D01*
X57545000Y-74902500D01*
X57546204Y-74877996D01*
X57549804Y-74853727D01*
X57555765Y-74829929D01*
X57564030Y-74806829D01*
X57574520Y-74784651D01*
X57587133Y-74763607D01*
X57601747Y-74743902D01*
X57618223Y-74725723D01*
X57636402Y-74709247D01*
X57656107Y-74694633D01*
X57677151Y-74682020D01*
X57699329Y-74671530D01*
X57722429Y-74663265D01*
X57746227Y-74657304D01*
X57770496Y-74653704D01*
X57795000Y-74652500D01*
X59045000Y-74652500D01*
X59069504Y-74653704D01*
X59069504Y-74653704D01*
G37*
D16*
X58420000Y-75365000D03*
D14*
G36*
X68520767Y-98677225D02*
G01*
X68545036Y-98680825D01*
X68568834Y-98686786D01*
X68591934Y-98695051D01*
X68614112Y-98705541D01*
X68635156Y-98718154D01*
X68654861Y-98732768D01*
X68673040Y-98749244D01*
X69327114Y-99403318D01*
X69343590Y-99421497D01*
X69358204Y-99441202D01*
X69370817Y-99462246D01*
X69381307Y-99484424D01*
X69389572Y-99507524D01*
X69395533Y-99531322D01*
X69399133Y-99555591D01*
X69400337Y-99580095D01*
X69399133Y-99604599D01*
X69395533Y-99628868D01*
X69389572Y-99652666D01*
X69381307Y-99675766D01*
X69370817Y-99697944D01*
X69358204Y-99718988D01*
X69343590Y-99738693D01*
X69327114Y-99756872D01*
X68443230Y-100640756D01*
X68425051Y-100657232D01*
X68405346Y-100671846D01*
X68384302Y-100684459D01*
X68362124Y-100694949D01*
X68339024Y-100703214D01*
X68315226Y-100709175D01*
X68290957Y-100712775D01*
X68266453Y-100713979D01*
X68241949Y-100712775D01*
X68217680Y-100709175D01*
X68193882Y-100703214D01*
X68170782Y-100694949D01*
X68148604Y-100684459D01*
X68127560Y-100671846D01*
X68107855Y-100657232D01*
X68089676Y-100640756D01*
X67435602Y-99986682D01*
X67419126Y-99968503D01*
X67404512Y-99948798D01*
X67391899Y-99927754D01*
X67381409Y-99905576D01*
X67373144Y-99882476D01*
X67367183Y-99858678D01*
X67363583Y-99834409D01*
X67362379Y-99809905D01*
X67363583Y-99785401D01*
X67367183Y-99761132D01*
X67373144Y-99737334D01*
X67381409Y-99714234D01*
X67391899Y-99692056D01*
X67404512Y-99671012D01*
X67419126Y-99651307D01*
X67435602Y-99633128D01*
X68319486Y-98749244D01*
X68337665Y-98732768D01*
X68357370Y-98718154D01*
X68378414Y-98705541D01*
X68400592Y-98695051D01*
X68423692Y-98686786D01*
X68447490Y-98680825D01*
X68471759Y-98677225D01*
X68496263Y-98676021D01*
X68520767Y-98677225D01*
X68520767Y-98677225D01*
G37*
D16*
X68381358Y-99695000D03*
D14*
G36*
X70624409Y-100780867D02*
G01*
X70648678Y-100784467D01*
X70672476Y-100790428D01*
X70695576Y-100798693D01*
X70717754Y-100809183D01*
X70738798Y-100821796D01*
X70758503Y-100836410D01*
X70776682Y-100852886D01*
X71430756Y-101506960D01*
X71447232Y-101525139D01*
X71461846Y-101544844D01*
X71474459Y-101565888D01*
X71484949Y-101588066D01*
X71493214Y-101611166D01*
X71499175Y-101634964D01*
X71502775Y-101659233D01*
X71503979Y-101683737D01*
X71502775Y-101708241D01*
X71499175Y-101732510D01*
X71493214Y-101756308D01*
X71484949Y-101779408D01*
X71474459Y-101801586D01*
X71461846Y-101822630D01*
X71447232Y-101842335D01*
X71430756Y-101860514D01*
X70546872Y-102744398D01*
X70528693Y-102760874D01*
X70508988Y-102775488D01*
X70487944Y-102788101D01*
X70465766Y-102798591D01*
X70442666Y-102806856D01*
X70418868Y-102812817D01*
X70394599Y-102816417D01*
X70370095Y-102817621D01*
X70345591Y-102816417D01*
X70321322Y-102812817D01*
X70297524Y-102806856D01*
X70274424Y-102798591D01*
X70252246Y-102788101D01*
X70231202Y-102775488D01*
X70211497Y-102760874D01*
X70193318Y-102744398D01*
X69539244Y-102090324D01*
X69522768Y-102072145D01*
X69508154Y-102052440D01*
X69495541Y-102031396D01*
X69485051Y-102009218D01*
X69476786Y-101986118D01*
X69470825Y-101962320D01*
X69467225Y-101938051D01*
X69466021Y-101913547D01*
X69467225Y-101889043D01*
X69470825Y-101864774D01*
X69476786Y-101840976D01*
X69485051Y-101817876D01*
X69495541Y-101795698D01*
X69508154Y-101774654D01*
X69522768Y-101754949D01*
X69539244Y-101736770D01*
X70423128Y-100852886D01*
X70441307Y-100836410D01*
X70461012Y-100821796D01*
X70482056Y-100809183D01*
X70504234Y-100798693D01*
X70527334Y-100790428D01*
X70551132Y-100784467D01*
X70575401Y-100780867D01*
X70599905Y-100779663D01*
X70624409Y-100780867D01*
X70624409Y-100780867D01*
G37*
D16*
X70485000Y-101798642D03*
D14*
G36*
X106059504Y-46496204D02*
G01*
X106083773Y-46499804D01*
X106107571Y-46505765D01*
X106130671Y-46514030D01*
X106152849Y-46524520D01*
X106173893Y-46537133D01*
X106193598Y-46551747D01*
X106211777Y-46568223D01*
X106228253Y-46586402D01*
X106242867Y-46606107D01*
X106255480Y-46627151D01*
X106265970Y-46649329D01*
X106274235Y-46672429D01*
X106280196Y-46696227D01*
X106283796Y-46720496D01*
X106285000Y-46745000D01*
X106285000Y-47670000D01*
X106283796Y-47694504D01*
X106280196Y-47718773D01*
X106274235Y-47742571D01*
X106265970Y-47765671D01*
X106255480Y-47787849D01*
X106242867Y-47808893D01*
X106228253Y-47828598D01*
X106211777Y-47846777D01*
X106193598Y-47863253D01*
X106173893Y-47877867D01*
X106152849Y-47890480D01*
X106130671Y-47900970D01*
X106107571Y-47909235D01*
X106083773Y-47915196D01*
X106059504Y-47918796D01*
X106035000Y-47920000D01*
X104785000Y-47920000D01*
X104760496Y-47918796D01*
X104736227Y-47915196D01*
X104712429Y-47909235D01*
X104689329Y-47900970D01*
X104667151Y-47890480D01*
X104646107Y-47877867D01*
X104626402Y-47863253D01*
X104608223Y-47846777D01*
X104591747Y-47828598D01*
X104577133Y-47808893D01*
X104564520Y-47787849D01*
X104554030Y-47765671D01*
X104545765Y-47742571D01*
X104539804Y-47718773D01*
X104536204Y-47694504D01*
X104535000Y-47670000D01*
X104535000Y-46745000D01*
X104536204Y-46720496D01*
X104539804Y-46696227D01*
X104545765Y-46672429D01*
X104554030Y-46649329D01*
X104564520Y-46627151D01*
X104577133Y-46606107D01*
X104591747Y-46586402D01*
X104608223Y-46568223D01*
X104626402Y-46551747D01*
X104646107Y-46537133D01*
X104667151Y-46524520D01*
X104689329Y-46514030D01*
X104712429Y-46505765D01*
X104736227Y-46499804D01*
X104760496Y-46496204D01*
X104785000Y-46495000D01*
X106035000Y-46495000D01*
X106059504Y-46496204D01*
X106059504Y-46496204D01*
G37*
D16*
X105410000Y-47207500D03*
D14*
G36*
X106059504Y-43521204D02*
G01*
X106083773Y-43524804D01*
X106107571Y-43530765D01*
X106130671Y-43539030D01*
X106152849Y-43549520D01*
X106173893Y-43562133D01*
X106193598Y-43576747D01*
X106211777Y-43593223D01*
X106228253Y-43611402D01*
X106242867Y-43631107D01*
X106255480Y-43652151D01*
X106265970Y-43674329D01*
X106274235Y-43697429D01*
X106280196Y-43721227D01*
X106283796Y-43745496D01*
X106285000Y-43770000D01*
X106285000Y-44695000D01*
X106283796Y-44719504D01*
X106280196Y-44743773D01*
X106274235Y-44767571D01*
X106265970Y-44790671D01*
X106255480Y-44812849D01*
X106242867Y-44833893D01*
X106228253Y-44853598D01*
X106211777Y-44871777D01*
X106193598Y-44888253D01*
X106173893Y-44902867D01*
X106152849Y-44915480D01*
X106130671Y-44925970D01*
X106107571Y-44934235D01*
X106083773Y-44940196D01*
X106059504Y-44943796D01*
X106035000Y-44945000D01*
X104785000Y-44945000D01*
X104760496Y-44943796D01*
X104736227Y-44940196D01*
X104712429Y-44934235D01*
X104689329Y-44925970D01*
X104667151Y-44915480D01*
X104646107Y-44902867D01*
X104626402Y-44888253D01*
X104608223Y-44871777D01*
X104591747Y-44853598D01*
X104577133Y-44833893D01*
X104564520Y-44812849D01*
X104554030Y-44790671D01*
X104545765Y-44767571D01*
X104539804Y-44743773D01*
X104536204Y-44719504D01*
X104535000Y-44695000D01*
X104535000Y-43770000D01*
X104536204Y-43745496D01*
X104539804Y-43721227D01*
X104545765Y-43697429D01*
X104554030Y-43674329D01*
X104564520Y-43652151D01*
X104577133Y-43631107D01*
X104591747Y-43611402D01*
X104608223Y-43593223D01*
X104626402Y-43576747D01*
X104646107Y-43562133D01*
X104667151Y-43549520D01*
X104689329Y-43539030D01*
X104712429Y-43530765D01*
X104736227Y-43524804D01*
X104760496Y-43521204D01*
X104785000Y-43520000D01*
X106035000Y-43520000D01*
X106059504Y-43521204D01*
X106059504Y-43521204D01*
G37*
D16*
X105410000Y-44232500D03*
D19*
X94220000Y-48870000D03*
X98820000Y-48870000D03*
X96520000Y-48870000D03*
D20*
X96520000Y-42570000D03*
D17*
X126473949Y-105301051D03*
X128270000Y-103505000D03*
D14*
G36*
X128270000Y-102232208D02*
G01*
X129542792Y-103505000D01*
X128270000Y-104777792D01*
X126997208Y-103505000D01*
X128270000Y-102232208D01*
X128270000Y-102232208D01*
G37*
D17*
X139700000Y-74930000D03*
D18*
X139700000Y-72390000D03*
D17*
X128161051Y-43706051D03*
X126365000Y-41910000D03*
D14*
G36*
X125092208Y-41910000D02*
G01*
X126365000Y-40637208D01*
X127637792Y-41910000D01*
X126365000Y-43182792D01*
X125092208Y-41910000D01*
X125092208Y-41910000D01*
G37*
D17*
X97790000Y-30480000D03*
D18*
X95250000Y-30480000D03*
D17*
X66566051Y-42018949D03*
X64770000Y-43815000D03*
D14*
G36*
X64770000Y-45087792D02*
G01*
X63497208Y-43815000D01*
X64770000Y-42542208D01*
X66042792Y-43815000D01*
X64770000Y-45087792D01*
X64770000Y-45087792D01*
G37*
D17*
X53340000Y-72390000D03*
D18*
X53340000Y-74930000D03*
D17*
X64878949Y-103613949D03*
X66675000Y-105410000D03*
D14*
G36*
X67947792Y-105410000D02*
G01*
X66675000Y-106682792D01*
X65402208Y-105410000D01*
X66675000Y-104137208D01*
X67947792Y-105410000D01*
X67947792Y-105410000D01*
G37*
D17*
X88900000Y-46990000D03*
X88900000Y-44450000D03*
D18*
X88900000Y-41910000D03*
D21*
X123190000Y-42545000D03*
X137160000Y-70485000D03*
X127635000Y-99695000D03*
X93345000Y-114935000D03*
X69850000Y-104775000D03*
X56515000Y-76835000D03*
X65405000Y-47625000D03*
X93345000Y-33655000D03*
X114808000Y-62992000D03*
X93980000Y-59055000D03*
X100330000Y-59055000D03*
X106680000Y-59055000D03*
X112395000Y-59055000D03*
X112395000Y-53975000D03*
X73025000Y-61595000D03*
X73025000Y-67945000D03*
X73025000Y-73660000D03*
X73025000Y-78740000D03*
X73025000Y-83185000D03*
X73025000Y-87630000D03*
X88900000Y-107315000D03*
X93345000Y-107315000D03*
X114300000Y-78105000D03*
X104140000Y-67945000D03*
X110490000Y-67945000D03*
X92075000Y-39370000D03*
X100965000Y-39370000D03*
X118110000Y-59055000D03*
X89535000Y-92075000D03*
X104140000Y-96520000D03*
X95250000Y-96520000D03*
X104140000Y-86360000D03*
X116205000Y-102235000D03*
X86995000Y-51435000D03*
X112395000Y-50165000D03*
X112395000Y-45720000D03*
X114300000Y-82550000D03*
X100330000Y-111125000D03*
X102870000Y-111125000D03*
X134620000Y-80010000D03*
X132080000Y-75565000D03*
X72390000Y-43815000D03*
X74295000Y-41910000D03*
X88900000Y-54610000D03*
D22*
X66873642Y-105410000D02*
X66675000Y-105410000D01*
X70485000Y-101798642D02*
X66873642Y-105410000D01*
X53775000Y-75365000D02*
X53340000Y-74930000D01*
X58420000Y-75365000D02*
X53775000Y-75365000D01*
X64770000Y-44212284D02*
X64770000Y-43815000D01*
X68381358Y-47823642D02*
X64770000Y-44212284D01*
X94815000Y-30915000D02*
X95250000Y-30480000D01*
X94815000Y-35560000D02*
X94815000Y-30915000D01*
X122555000Y-45720000D02*
X123244429Y-45030571D01*
X123244429Y-45030571D02*
X126365000Y-41910000D01*
X134620000Y-72390000D02*
X139700000Y-72390000D01*
X128270000Y-103107716D02*
X128270000Y-103505000D01*
X124658642Y-99496358D02*
X128270000Y-103107716D01*
X97790000Y-30480000D02*
X106680000Y-30480000D01*
X106680000Y-30480000D02*
X112395000Y-36195000D01*
X119380000Y-38735000D02*
X123190000Y-42545000D01*
X116840000Y-36195000D02*
X119380000Y-38735000D01*
X112395000Y-36195000D02*
X116840000Y-36195000D01*
X128161051Y-44978843D02*
X133985000Y-50802792D01*
X128161051Y-43706051D02*
X128161051Y-44978843D01*
X133985000Y-50802792D02*
X133985000Y-64135000D01*
X133985000Y-64135000D02*
X137160000Y-67310000D01*
X137160000Y-67310000D02*
X137160000Y-70485000D01*
X138800001Y-75829999D02*
X138800001Y-86624999D01*
X139700000Y-74930000D02*
X138800001Y-75829999D01*
X138800001Y-86624999D02*
X131445000Y-93980000D01*
X131445000Y-93980000D02*
X131445000Y-95885000D01*
X131445000Y-95885000D02*
X127635000Y-99695000D01*
X125201157Y-105301051D02*
X117472208Y-113030000D01*
X126473949Y-105301051D02*
X125201157Y-105301051D01*
X101600000Y-113030000D02*
X97790000Y-116840000D01*
X117472208Y-113030000D02*
X101600000Y-113030000D01*
X64878949Y-102341157D02*
X59690000Y-97152208D01*
X64878949Y-103613949D02*
X64878949Y-102341157D01*
X59690000Y-97152208D02*
X59690000Y-82550000D01*
X59690000Y-82550000D02*
X56515000Y-79375000D01*
X56515000Y-79375000D02*
X56515000Y-76835000D01*
X54239999Y-71490001D02*
X54239999Y-65775001D01*
X53340000Y-72390000D02*
X54239999Y-71490001D01*
X54239999Y-65775001D02*
X61595000Y-58420000D01*
X61595000Y-58420000D02*
X61595000Y-51435000D01*
X61595000Y-51435000D02*
X65405000Y-47625000D01*
X66566051Y-42018949D02*
X69741051Y-42018949D01*
X78105000Y-33655000D02*
X93345000Y-33655000D01*
X69741051Y-42018949D02*
X78105000Y-33655000D01*
X72498949Y-42018949D02*
X66566051Y-42018949D01*
X80010000Y-49530000D02*
X72498949Y-42018949D01*
X102870000Y-104140000D02*
X107950000Y-109220000D01*
X98044000Y-104140000D02*
X102870000Y-104140000D01*
X101600000Y-106746000D02*
X101600000Y-113030000D01*
X98994000Y-104140000D02*
X101600000Y-106746000D01*
X98044000Y-104140000D02*
X98994000Y-104140000D01*
X93980000Y-80010000D02*
X100330000Y-86360000D01*
X93980000Y-68580000D02*
X93980000Y-80010000D01*
X98044000Y-100711000D02*
X98044000Y-104140000D01*
X100330000Y-86360000D02*
X100330000Y-98425000D01*
X100330000Y-98425000D02*
X98044000Y-100711000D01*
X85090000Y-44450000D02*
X88900000Y-44450000D01*
X80010000Y-49530000D02*
X85090000Y-44450000D01*
X93980000Y-68580000D02*
X99568000Y-62992000D01*
X99568000Y-62992000D02*
X114808000Y-62992000D01*
X115316000Y-62992000D02*
X117066000Y-62992000D01*
X132179000Y-78105000D02*
X136525000Y-78105000D01*
X136525000Y-78105000D02*
X139700000Y-74930000D01*
X117066000Y-62992000D02*
X132179000Y-78105000D01*
X114808000Y-62992000D02*
X115316000Y-62992000D01*
X117475000Y-65659000D02*
X114808000Y-62992000D01*
X117475000Y-73025000D02*
X117475000Y-65659000D01*
X92075000Y-66675000D02*
X79375000Y-66675000D01*
X93980000Y-68580000D02*
X92075000Y-66675000D01*
X93345000Y-114935000D02*
X80010000Y-114935000D01*
X80010000Y-114935000D02*
X69850000Y-104775000D01*
D23*
X94220000Y-49120000D02*
X94220000Y-48870000D01*
X95295001Y-50195001D02*
X94220000Y-49120000D01*
X102422499Y-50195001D02*
X95295001Y-50195001D01*
X105410000Y-47207500D02*
X102422499Y-50195001D01*
D22*
X96520000Y-36830000D02*
X97790000Y-35560000D01*
X96520000Y-42570000D02*
X96520000Y-36830000D01*
D23*
X70485000Y-45720000D02*
X70485000Y-49530000D01*
X70485000Y-49530000D02*
X64770000Y-55245000D01*
X64770000Y-66040000D02*
X58420000Y-72390000D01*
X64770000Y-55245000D02*
X64770000Y-66040000D01*
X68381358Y-98605332D02*
X68381358Y-99695000D01*
X68381358Y-83163858D02*
X68381358Y-98605332D01*
X58420000Y-73202500D02*
X68381358Y-83163858D01*
X58420000Y-72390000D02*
X58420000Y-73202500D01*
X98225000Y-111760000D02*
X99695000Y-111760000D01*
X99695000Y-111760000D02*
X100330000Y-111125000D01*
X107653762Y-111125000D02*
X108288762Y-111760000D01*
X102870000Y-111125000D02*
X107653762Y-111125000D01*
X112395000Y-111760000D02*
X122555000Y-101600000D01*
X108288762Y-111760000D02*
X112395000Y-111760000D01*
X122555000Y-101600000D02*
X122555000Y-98425000D01*
X122555000Y-98425000D02*
X134620000Y-86360000D01*
X134620000Y-86360000D02*
X134620000Y-80010000D01*
X134420000Y-75565000D02*
X134620000Y-75365000D01*
X132080000Y-75565000D02*
X134420000Y-75565000D01*
X132080000Y-55245000D02*
X124658642Y-47823642D01*
X132080000Y-75565000D02*
X132080000Y-55245000D01*
X70485000Y-45720000D02*
X72390000Y-43815000D01*
X79375000Y-36830000D02*
X96520000Y-36830000D01*
X74295000Y-41910000D02*
X79375000Y-36830000D01*
X98561347Y-36331347D02*
X109991347Y-36331347D01*
X97790000Y-35560000D02*
X98561347Y-36331347D01*
X121483642Y-47823642D02*
X124658642Y-47823642D01*
X109991347Y-36331347D02*
X121483642Y-47823642D01*
D22*
X96520000Y-48870000D02*
X96520000Y-42570000D01*
D23*
X97453653Y-110988653D02*
X98225000Y-111760000D01*
X92005010Y-110559990D02*
X97024990Y-110559990D01*
X71120000Y-99695000D02*
X72390000Y-100965000D01*
X97024990Y-110559990D02*
X97453653Y-110988653D01*
X68381358Y-99695000D02*
X71120000Y-99695000D01*
X72390000Y-100965000D02*
X72390000Y-106045000D01*
X72390000Y-106045000D02*
X78740000Y-112395000D01*
X78740000Y-112395000D02*
X90170000Y-112395000D01*
X90170000Y-112395000D02*
X92005010Y-110559990D01*
X106181347Y-45003847D02*
X105410000Y-44232500D01*
X106610010Y-45432510D02*
X106181347Y-45003847D01*
X106610010Y-50234990D02*
X106610010Y-45432510D01*
X102235000Y-54610000D02*
X106610010Y-50234990D01*
X88900000Y-54610000D02*
X102235000Y-54610000D01*
X84328001Y-75438001D02*
X85090000Y-76200000D01*
X78287999Y-69397999D02*
X84328001Y-75438001D01*
X78287999Y-62682001D02*
X78287999Y-69397999D01*
X79375000Y-61595000D02*
X78287999Y-62682001D01*
X90170000Y-78740000D02*
X85090000Y-78740000D01*
X97790000Y-86360000D02*
X90170000Y-78740000D01*
D22*
X95250000Y-111760000D02*
X95250000Y-116840000D01*
D23*
X76520000Y-90866000D02*
X79375000Y-88011000D01*
X76520000Y-95660000D02*
X76520000Y-90866000D01*
X116520000Y-91506000D02*
X122174000Y-85852000D01*
X116520000Y-95660000D02*
X116520000Y-91506000D01*
D24*
G36*
X98412361Y-37080350D02*
G01*
X98524014Y-37091347D01*
X98524023Y-37091347D01*
X98561346Y-37095023D01*
X98598669Y-37091347D01*
X109676546Y-37091347D01*
X120919847Y-48334650D01*
X120943641Y-48363643D01*
X120972634Y-48387437D01*
X120972638Y-48387441D01*
X121035656Y-48439158D01*
X121059366Y-48458616D01*
X121191395Y-48529188D01*
X121334656Y-48572645D01*
X121446309Y-48583642D01*
X121446318Y-48583642D01*
X121483641Y-48587318D01*
X121520964Y-48583642D01*
X123278834Y-48583642D01*
X123915775Y-49220583D01*
X124050351Y-49331026D01*
X124203887Y-49413093D01*
X124370483Y-49463629D01*
X124543737Y-49480693D01*
X124716991Y-49463629D01*
X124883587Y-49413093D01*
X125037123Y-49331026D01*
X125066838Y-49306639D01*
X131320001Y-55559803D01*
X131320001Y-55753000D01*
X125095000Y-55753000D01*
X125070224Y-55755440D01*
X125046399Y-55762667D01*
X125024443Y-55774403D01*
X125005197Y-55790197D01*
X124989403Y-55809443D01*
X124977667Y-55831399D01*
X124970440Y-55855224D01*
X124968000Y-55880000D01*
X124968000Y-69642422D01*
X117722534Y-62396956D01*
X117694817Y-62363183D01*
X117560059Y-62252589D01*
X117406313Y-62170411D01*
X117239490Y-62119805D01*
X117109477Y-62107000D01*
X117109469Y-62107000D01*
X117066000Y-62102719D01*
X117022531Y-62107000D01*
X115346454Y-62107000D01*
X115298256Y-62074795D01*
X115109898Y-61996774D01*
X114909939Y-61957000D01*
X114706061Y-61957000D01*
X114506102Y-61996774D01*
X114317744Y-62074795D01*
X114269546Y-62107000D01*
X99611465Y-62107000D01*
X99567999Y-62102719D01*
X99524533Y-62107000D01*
X99524523Y-62107000D01*
X99394510Y-62119805D01*
X99227687Y-62170411D01*
X99073941Y-62252589D01*
X99073939Y-62252590D01*
X99073940Y-62252590D01*
X98972953Y-62335468D01*
X98972951Y-62335470D01*
X98939183Y-62363183D01*
X98911470Y-62396951D01*
X94124123Y-67184299D01*
X94117592Y-67183000D01*
X93842408Y-67183000D01*
X93835878Y-67184299D01*
X92731534Y-66079956D01*
X92703817Y-66046183D01*
X92569059Y-65935589D01*
X92415313Y-65853411D01*
X92248490Y-65802805D01*
X92118477Y-65790000D01*
X92118469Y-65790000D01*
X92075000Y-65785719D01*
X92031531Y-65790000D01*
X80463818Y-65790000D01*
X80460120Y-65784465D01*
X80265535Y-65589880D01*
X80036727Y-65436995D01*
X79959485Y-65405000D01*
X80036727Y-65373005D01*
X80265535Y-65220120D01*
X80460120Y-65025535D01*
X80613005Y-64796727D01*
X80718314Y-64542490D01*
X80772000Y-64272592D01*
X80772000Y-63997408D01*
X80718314Y-63727510D01*
X80613005Y-63473273D01*
X80460120Y-63244465D01*
X80265535Y-63049880D01*
X80036727Y-62896995D01*
X79959485Y-62865000D01*
X80036727Y-62833005D01*
X80265535Y-62680120D01*
X80460120Y-62485535D01*
X80613005Y-62256727D01*
X80718314Y-62002490D01*
X80772000Y-61732592D01*
X80772000Y-61457408D01*
X80718314Y-61187510D01*
X80613005Y-60933273D01*
X80460120Y-60704465D01*
X80265535Y-60509880D01*
X80036727Y-60356995D01*
X79965057Y-60327308D01*
X79978023Y-60322636D01*
X80093980Y-60260656D01*
X80160960Y-60020565D01*
X79375000Y-59234605D01*
X78589040Y-60020565D01*
X78656020Y-60260656D01*
X78791760Y-60324485D01*
X78713273Y-60356995D01*
X78484465Y-60509880D01*
X78289880Y-60704465D01*
X78136995Y-60933273D01*
X78031686Y-61187510D01*
X77978000Y-61457408D01*
X77978000Y-61732592D01*
X78008628Y-61886571D01*
X77777001Y-62118197D01*
X77747998Y-62142000D01*
X77692870Y-62209175D01*
X77653025Y-62257725D01*
X77613203Y-62332226D01*
X77582453Y-62389755D01*
X77538996Y-62533016D01*
X77527999Y-62644669D01*
X77527999Y-62644679D01*
X77524323Y-62682001D01*
X77527999Y-62719324D01*
X77528000Y-69360667D01*
X77524323Y-69397999D01*
X77538997Y-69546984D01*
X77582453Y-69690245D01*
X77653025Y-69822275D01*
X77719075Y-69902756D01*
X77747999Y-69938000D01*
X77776997Y-69961798D01*
X83723628Y-75908430D01*
X83693000Y-76062408D01*
X83693000Y-76337592D01*
X83746686Y-76607490D01*
X83851995Y-76861727D01*
X84004880Y-77090535D01*
X84199465Y-77285120D01*
X84428273Y-77438005D01*
X84505515Y-77470000D01*
X84428273Y-77501995D01*
X84199465Y-77654880D01*
X84004880Y-77849465D01*
X83851995Y-78078273D01*
X83746686Y-78332510D01*
X83693000Y-78602408D01*
X83693000Y-78877592D01*
X83746686Y-79147490D01*
X83851995Y-79401727D01*
X84004880Y-79630535D01*
X84199465Y-79825120D01*
X84428273Y-79978005D01*
X84505515Y-80010000D01*
X84428273Y-80041995D01*
X84199465Y-80194880D01*
X84004880Y-80389465D01*
X83851995Y-80618273D01*
X83746686Y-80872510D01*
X83693000Y-81142408D01*
X83693000Y-81417592D01*
X83746686Y-81687490D01*
X83851995Y-81941727D01*
X84004880Y-82170535D01*
X84199465Y-82365120D01*
X84428273Y-82518005D01*
X84505515Y-82550000D01*
X84428273Y-82581995D01*
X84199465Y-82734880D01*
X84004880Y-82929465D01*
X83851995Y-83158273D01*
X83746686Y-83412510D01*
X83693000Y-83682408D01*
X83693000Y-83957592D01*
X83746686Y-84227490D01*
X83851995Y-84481727D01*
X84004880Y-84710535D01*
X84199465Y-84905120D01*
X84428273Y-85058005D01*
X84505515Y-85090000D01*
X84428273Y-85121995D01*
X84199465Y-85274880D01*
X84004880Y-85469465D01*
X83851995Y-85698273D01*
X83746686Y-85952510D01*
X83693000Y-86222408D01*
X83693000Y-86497592D01*
X83746686Y-86767490D01*
X83851995Y-87021727D01*
X84004880Y-87250535D01*
X84199465Y-87445120D01*
X84428273Y-87598005D01*
X84499943Y-87627692D01*
X84486977Y-87632364D01*
X84371020Y-87694344D01*
X84304040Y-87934435D01*
X85090000Y-88720395D01*
X85875960Y-87934435D01*
X85808980Y-87694344D01*
X85673240Y-87630515D01*
X85751727Y-87598005D01*
X85980535Y-87445120D01*
X86100090Y-87325565D01*
X91924040Y-87325565D01*
X91991020Y-87565656D01*
X92240048Y-87682756D01*
X92507135Y-87749023D01*
X92782017Y-87761910D01*
X93054133Y-87720922D01*
X93313023Y-87627636D01*
X93428980Y-87565656D01*
X93495960Y-87325565D01*
X92710000Y-86539605D01*
X91924040Y-87325565D01*
X86100090Y-87325565D01*
X86175120Y-87250535D01*
X86328005Y-87021727D01*
X86433314Y-86767490D01*
X86487000Y-86497592D01*
X86487000Y-86432017D01*
X91308090Y-86432017D01*
X91349078Y-86704133D01*
X91442364Y-86963023D01*
X91504344Y-87078980D01*
X91744435Y-87145960D01*
X92530395Y-86360000D01*
X91744435Y-85574040D01*
X91504344Y-85641020D01*
X91387244Y-85890048D01*
X91320977Y-86157135D01*
X91308090Y-86432017D01*
X86487000Y-86432017D01*
X86487000Y-86222408D01*
X86433314Y-85952510D01*
X86328005Y-85698273D01*
X86175120Y-85469465D01*
X86100090Y-85394435D01*
X91924040Y-85394435D01*
X92710000Y-86180395D01*
X93495960Y-85394435D01*
X93428980Y-85154344D01*
X93179952Y-85037244D01*
X92912865Y-84970977D01*
X92637983Y-84958090D01*
X92365867Y-84999078D01*
X92106977Y-85092364D01*
X91991020Y-85154344D01*
X91924040Y-85394435D01*
X86100090Y-85394435D01*
X85980535Y-85274880D01*
X85751727Y-85121995D01*
X85674485Y-85090000D01*
X85751727Y-85058005D01*
X85980535Y-84905120D01*
X86175120Y-84710535D01*
X86328005Y-84481727D01*
X86433314Y-84227490D01*
X86487000Y-83957592D01*
X86487000Y-83682408D01*
X86433314Y-83412510D01*
X86328005Y-83158273D01*
X86175120Y-82929465D01*
X85980535Y-82734880D01*
X85751727Y-82581995D01*
X85674485Y-82550000D01*
X85751727Y-82518005D01*
X85980535Y-82365120D01*
X86175120Y-82170535D01*
X86328005Y-81941727D01*
X86433314Y-81687490D01*
X86487000Y-81417592D01*
X86487000Y-81142408D01*
X86433314Y-80872510D01*
X86328005Y-80618273D01*
X86175120Y-80389465D01*
X85980535Y-80194880D01*
X85751727Y-80041995D01*
X85674485Y-80010000D01*
X85751727Y-79978005D01*
X85980535Y-79825120D01*
X86175120Y-79630535D01*
X86262341Y-79500000D01*
X89855199Y-79500000D01*
X95318198Y-84963000D01*
X95112408Y-84963000D01*
X94842510Y-85016686D01*
X94588273Y-85121995D01*
X94359465Y-85274880D01*
X94164880Y-85469465D01*
X94011995Y-85698273D01*
X93982308Y-85769943D01*
X93977636Y-85756977D01*
X93915656Y-85641020D01*
X93675565Y-85574040D01*
X92889605Y-86360000D01*
X93675565Y-87145960D01*
X93915656Y-87078980D01*
X93979485Y-86943240D01*
X94011995Y-87021727D01*
X94164880Y-87250535D01*
X94359465Y-87445120D01*
X94588273Y-87598005D01*
X94842510Y-87703314D01*
X95112408Y-87757000D01*
X95387592Y-87757000D01*
X95657490Y-87703314D01*
X95911727Y-87598005D01*
X96140535Y-87445120D01*
X96335120Y-87250535D01*
X96488005Y-87021727D01*
X96520000Y-86944485D01*
X96551995Y-87021727D01*
X96704880Y-87250535D01*
X96899465Y-87445120D01*
X97128273Y-87598005D01*
X97382510Y-87703314D01*
X97652408Y-87757000D01*
X97927592Y-87757000D01*
X98197490Y-87703314D01*
X98451727Y-87598005D01*
X98680535Y-87445120D01*
X98875120Y-87250535D01*
X99028005Y-87021727D01*
X99060000Y-86944485D01*
X99091995Y-87021727D01*
X99244880Y-87250535D01*
X99439465Y-87445120D01*
X99445000Y-87448818D01*
X99445001Y-98058420D01*
X97448956Y-100054466D01*
X97415183Y-100082183D01*
X97304589Y-100216942D01*
X97222411Y-100370688D01*
X97187157Y-100486904D01*
X97171805Y-100537510D01*
X97171488Y-100540725D01*
X97159000Y-100667524D01*
X97159000Y-100667531D01*
X97154719Y-100711000D01*
X97159000Y-100754469D01*
X97159001Y-102552889D01*
X97104150Y-102569528D01*
X96950614Y-102651595D01*
X96816038Y-102762038D01*
X96705595Y-102896614D01*
X96651086Y-102998593D01*
X96650802Y-102998205D01*
X96436046Y-102801336D01*
X96187009Y-102650146D01*
X95913261Y-102550446D01*
X95900890Y-102548524D01*
X95671000Y-102669845D01*
X95671000Y-104013000D01*
X95691000Y-104013000D01*
X95691000Y-104267000D01*
X95671000Y-104267000D01*
X95671000Y-105610155D01*
X95900890Y-105731476D01*
X95913261Y-105729554D01*
X96187009Y-105629854D01*
X96436046Y-105478664D01*
X96650802Y-105281795D01*
X96651086Y-105281407D01*
X96705595Y-105383386D01*
X96816038Y-105517962D01*
X96950614Y-105628405D01*
X97104150Y-105710472D01*
X97270746Y-105761008D01*
X97444000Y-105778072D01*
X98644000Y-105778072D01*
X98817254Y-105761008D01*
X98983850Y-105710472D01*
X99137386Y-105628405D01*
X99188708Y-105586286D01*
X100715000Y-107112579D01*
X100715001Y-110164196D01*
X100631898Y-110129774D01*
X100431939Y-110090000D01*
X100228061Y-110090000D01*
X100028102Y-110129774D01*
X99839744Y-110207795D01*
X99670226Y-110321063D01*
X99526063Y-110465226D01*
X99416148Y-110629725D01*
X99315462Y-110507038D01*
X99180886Y-110396595D01*
X99027350Y-110314528D01*
X98860754Y-110263992D01*
X98687500Y-110246928D01*
X97786729Y-110246928D01*
X97588794Y-110048993D01*
X97564991Y-110019989D01*
X97449266Y-109925016D01*
X97317237Y-109854444D01*
X97173976Y-109810987D01*
X97062323Y-109799990D01*
X97062312Y-109799990D01*
X97024990Y-109796314D01*
X96987668Y-109799990D01*
X92042332Y-109799990D01*
X92005009Y-109796314D01*
X91967686Y-109799990D01*
X91967677Y-109799990D01*
X91856024Y-109810987D01*
X91731313Y-109848817D01*
X91712763Y-109854444D01*
X91580733Y-109925016D01*
X91497093Y-109993658D01*
X91465009Y-110019989D01*
X91441211Y-110048987D01*
X89855199Y-111635000D01*
X79054802Y-111635000D01*
X76502210Y-109082408D01*
X83693000Y-109082408D01*
X83693000Y-109357592D01*
X83746686Y-109627490D01*
X83851995Y-109881727D01*
X84004880Y-110110535D01*
X84199465Y-110305120D01*
X84428273Y-110458005D01*
X84682510Y-110563314D01*
X84952408Y-110617000D01*
X85227592Y-110617000D01*
X85497490Y-110563314D01*
X85751727Y-110458005D01*
X85980535Y-110305120D01*
X86175120Y-110110535D01*
X86328005Y-109881727D01*
X86433314Y-109627490D01*
X86487000Y-109357592D01*
X86487000Y-109082408D01*
X86433314Y-108812510D01*
X86328005Y-108558273D01*
X86175120Y-108329465D01*
X85980535Y-108134880D01*
X85751727Y-107981995D01*
X85680057Y-107952308D01*
X85693023Y-107947636D01*
X85808980Y-107885656D01*
X85875960Y-107645565D01*
X85090000Y-106859605D01*
X84304040Y-107645565D01*
X84371020Y-107885656D01*
X84506760Y-107949485D01*
X84428273Y-107981995D01*
X84199465Y-108134880D01*
X84004880Y-108329465D01*
X83851995Y-108558273D01*
X83746686Y-108812510D01*
X83693000Y-109082408D01*
X76502210Y-109082408D01*
X73150000Y-105730199D01*
X73150000Y-105439872D01*
X78285000Y-105439872D01*
X78285000Y-105880128D01*
X78370890Y-106311925D01*
X78539369Y-106718669D01*
X78783962Y-107084729D01*
X79095271Y-107396038D01*
X79461331Y-107640631D01*
X79868075Y-107809110D01*
X80299872Y-107895000D01*
X80740128Y-107895000D01*
X81171925Y-107809110D01*
X81578669Y-107640631D01*
X81944729Y-107396038D01*
X82256038Y-107084729D01*
X82478348Y-106752017D01*
X83688090Y-106752017D01*
X83729078Y-107024133D01*
X83822364Y-107283023D01*
X83884344Y-107398980D01*
X84124435Y-107465960D01*
X84910395Y-106680000D01*
X85269605Y-106680000D01*
X86055565Y-107465960D01*
X86295656Y-107398980D01*
X86412756Y-107149952D01*
X86479023Y-106882865D01*
X86491910Y-106607983D01*
X86450922Y-106335867D01*
X86357636Y-106076977D01*
X86295656Y-105961020D01*
X86055565Y-105894040D01*
X85269605Y-106680000D01*
X84910395Y-106680000D01*
X84124435Y-105894040D01*
X83884344Y-105961020D01*
X83767244Y-106210048D01*
X83700977Y-106477135D01*
X83688090Y-106752017D01*
X82478348Y-106752017D01*
X82500631Y-106718669D01*
X82669110Y-106311925D01*
X82755000Y-105880128D01*
X82755000Y-105439872D01*
X82669110Y-105008075D01*
X82500631Y-104601331D01*
X82256038Y-104235271D01*
X81944729Y-103923962D01*
X81578669Y-103679369D01*
X81171925Y-103510890D01*
X80740128Y-103425000D01*
X80299872Y-103425000D01*
X79868075Y-103510890D01*
X79461331Y-103679369D01*
X79095271Y-103923962D01*
X78783962Y-104235271D01*
X78539369Y-104601331D01*
X78370890Y-105008075D01*
X78285000Y-105439872D01*
X73150000Y-105439872D01*
X73150000Y-101002322D01*
X73153676Y-100964999D01*
X73150000Y-100927676D01*
X73150000Y-100927667D01*
X73139003Y-100816014D01*
X73095546Y-100672753D01*
X73024974Y-100540724D01*
X72930001Y-100424999D01*
X72901004Y-100401202D01*
X71924333Y-99424531D01*
X72935074Y-99424531D01*
X73045921Y-99701714D01*
X73356840Y-99855089D01*
X73691705Y-99944860D01*
X74037650Y-99967576D01*
X74381380Y-99922366D01*
X74709685Y-99810966D01*
X74914079Y-99701714D01*
X75024926Y-99424531D01*
X78015074Y-99424531D01*
X78125921Y-99701714D01*
X78436840Y-99855089D01*
X78771705Y-99944860D01*
X79117650Y-99967576D01*
X79461380Y-99922366D01*
X79789685Y-99810966D01*
X79994079Y-99701714D01*
X80104926Y-99424531D01*
X79060000Y-98379605D01*
X78015074Y-99424531D01*
X75024926Y-99424531D01*
X73980000Y-98379605D01*
X72935074Y-99424531D01*
X71924333Y-99424531D01*
X71683804Y-99184003D01*
X71660001Y-99154999D01*
X71544276Y-99060026D01*
X71412247Y-98989454D01*
X71268986Y-98945997D01*
X71157333Y-98935000D01*
X71157322Y-98935000D01*
X71120000Y-98931324D01*
X71082678Y-98935000D01*
X69761166Y-98935000D01*
X69141358Y-98315192D01*
X69141358Y-98257650D01*
X72212424Y-98257650D01*
X72257634Y-98601380D01*
X72369034Y-98929685D01*
X72478286Y-99134079D01*
X72755469Y-99244926D01*
X73800395Y-98200000D01*
X74159605Y-98200000D01*
X75204531Y-99244926D01*
X75481714Y-99134079D01*
X75635089Y-98823160D01*
X75724860Y-98488295D01*
X75740004Y-98257650D01*
X77292424Y-98257650D01*
X77337634Y-98601380D01*
X77449034Y-98929685D01*
X77558286Y-99134079D01*
X77835469Y-99244926D01*
X78880395Y-98200000D01*
X79239605Y-98200000D01*
X80284531Y-99244926D01*
X80561714Y-99134079D01*
X80715089Y-98823160D01*
X80804860Y-98488295D01*
X80827576Y-98142350D01*
X80782366Y-97798620D01*
X80670966Y-97470315D01*
X80561714Y-97265921D01*
X80284531Y-97155074D01*
X79239605Y-98200000D01*
X78880395Y-98200000D01*
X77835469Y-97155074D01*
X77558286Y-97265921D01*
X77404911Y-97576840D01*
X77315140Y-97911705D01*
X77292424Y-98257650D01*
X75740004Y-98257650D01*
X75747576Y-98142350D01*
X75702366Y-97798620D01*
X75590966Y-97470315D01*
X75481714Y-97265921D01*
X75204531Y-97155074D01*
X74159605Y-98200000D01*
X73800395Y-98200000D01*
X72755469Y-97155074D01*
X72478286Y-97265921D01*
X72324911Y-97576840D01*
X72235140Y-97911705D01*
X72212424Y-98257650D01*
X69141358Y-98257650D01*
X69141358Y-96975469D01*
X72935074Y-96975469D01*
X73980000Y-98020395D01*
X75024926Y-96975469D01*
X74914079Y-96698286D01*
X74603160Y-96544911D01*
X74268295Y-96455140D01*
X73922350Y-96432424D01*
X73578620Y-96477634D01*
X73250315Y-96589034D01*
X73045921Y-96698286D01*
X72935074Y-96975469D01*
X69141358Y-96975469D01*
X69141358Y-95496504D01*
X74860000Y-95496504D01*
X74860000Y-95823496D01*
X74923793Y-96144204D01*
X75048927Y-96446305D01*
X75230594Y-96718188D01*
X75461812Y-96949406D01*
X75733695Y-97131073D01*
X76035796Y-97256207D01*
X76356504Y-97320000D01*
X76683496Y-97320000D01*
X77004204Y-97256207D01*
X77306305Y-97131073D01*
X77539182Y-96975469D01*
X78015074Y-96975469D01*
X79060000Y-98020395D01*
X80104926Y-96975469D01*
X79994079Y-96698286D01*
X79683160Y-96544911D01*
X79348295Y-96455140D01*
X79002350Y-96432424D01*
X78658620Y-96477634D01*
X78330315Y-96589034D01*
X78125921Y-96698286D01*
X78015074Y-96975469D01*
X77539182Y-96975469D01*
X77578188Y-96949406D01*
X77809406Y-96718188D01*
X77991073Y-96446305D01*
X78116207Y-96144204D01*
X78180000Y-95823496D01*
X78180000Y-95496504D01*
X78116207Y-95175796D01*
X77991073Y-94873695D01*
X77809406Y-94601812D01*
X77578188Y-94370594D01*
X77539183Y-94344531D01*
X78015074Y-94344531D01*
X78125921Y-94621714D01*
X78436840Y-94775089D01*
X78771705Y-94864860D01*
X79117650Y-94887576D01*
X79461380Y-94842366D01*
X79789685Y-94730966D01*
X79994079Y-94621714D01*
X80104926Y-94344531D01*
X79060000Y-93299605D01*
X78015074Y-94344531D01*
X77539183Y-94344531D01*
X77306305Y-94188927D01*
X77280000Y-94178031D01*
X77280000Y-93177650D01*
X77292424Y-93177650D01*
X77337634Y-93521380D01*
X77449034Y-93849685D01*
X77558286Y-94054079D01*
X77835469Y-94164926D01*
X78880395Y-93120000D01*
X79239605Y-93120000D01*
X80284531Y-94164926D01*
X80561714Y-94054079D01*
X80715089Y-93743160D01*
X80804860Y-93408295D01*
X80827576Y-93062350D01*
X80782366Y-92718620D01*
X80670966Y-92390315D01*
X80561714Y-92185921D01*
X80284531Y-92075074D01*
X79239605Y-93120000D01*
X78880395Y-93120000D01*
X77835469Y-92075074D01*
X77558286Y-92185921D01*
X77404911Y-92496840D01*
X77315140Y-92831705D01*
X77292424Y-93177650D01*
X77280000Y-93177650D01*
X77280000Y-91895469D01*
X78015074Y-91895469D01*
X79060000Y-92940395D01*
X80104926Y-91895469D01*
X79994079Y-91618286D01*
X79683160Y-91464911D01*
X79348295Y-91375140D01*
X79002350Y-91352424D01*
X78658620Y-91397634D01*
X78330315Y-91509034D01*
X78125921Y-91618286D01*
X78015074Y-91895469D01*
X77280000Y-91895469D01*
X77280000Y-91302408D01*
X83693000Y-91302408D01*
X83693000Y-91577592D01*
X83746686Y-91847490D01*
X83851995Y-92101727D01*
X84004880Y-92330535D01*
X84199465Y-92525120D01*
X84428273Y-92678005D01*
X84505515Y-92710000D01*
X84428273Y-92741995D01*
X84199465Y-92894880D01*
X84004880Y-93089465D01*
X83851995Y-93318273D01*
X83746686Y-93572510D01*
X83693000Y-93842408D01*
X83693000Y-94117592D01*
X83746686Y-94387490D01*
X83851995Y-94641727D01*
X84004880Y-94870535D01*
X84199465Y-95065120D01*
X84428273Y-95218005D01*
X84505515Y-95250000D01*
X84428273Y-95281995D01*
X84199465Y-95434880D01*
X84004880Y-95629465D01*
X83851995Y-95858273D01*
X83746686Y-96112510D01*
X83693000Y-96382408D01*
X83693000Y-96657592D01*
X83746686Y-96927490D01*
X83851995Y-97181727D01*
X84004880Y-97410535D01*
X84199465Y-97605120D01*
X84428273Y-97758005D01*
X84505515Y-97790000D01*
X84428273Y-97821995D01*
X84199465Y-97974880D01*
X84004880Y-98169465D01*
X83851995Y-98398273D01*
X83746686Y-98652510D01*
X83693000Y-98922408D01*
X83693000Y-99197592D01*
X83746686Y-99467490D01*
X83851995Y-99721727D01*
X84004880Y-99950535D01*
X84199465Y-100145120D01*
X84428273Y-100298005D01*
X84505515Y-100330000D01*
X84428273Y-100361995D01*
X84199465Y-100514880D01*
X84004880Y-100709465D01*
X83851995Y-100938273D01*
X83746686Y-101192510D01*
X83693000Y-101462408D01*
X83693000Y-101737592D01*
X83746686Y-102007490D01*
X83851995Y-102261727D01*
X84004880Y-102490535D01*
X84199465Y-102685120D01*
X84428273Y-102838005D01*
X84505515Y-102870000D01*
X84428273Y-102901995D01*
X84199465Y-103054880D01*
X84004880Y-103249465D01*
X83851995Y-103478273D01*
X83746686Y-103732510D01*
X83693000Y-104002408D01*
X83693000Y-104277592D01*
X83746686Y-104547490D01*
X83851995Y-104801727D01*
X84004880Y-105030535D01*
X84199465Y-105225120D01*
X84428273Y-105378005D01*
X84499943Y-105407692D01*
X84486977Y-105412364D01*
X84371020Y-105474344D01*
X84304040Y-105714435D01*
X85090000Y-106500395D01*
X85875960Y-105714435D01*
X85808980Y-105474344D01*
X85673240Y-105410515D01*
X85751727Y-105378005D01*
X85980535Y-105225120D01*
X86175120Y-105030535D01*
X86328005Y-104801727D01*
X86433314Y-104547490D01*
X86442811Y-104499742D01*
X94072715Y-104499742D01*
X94141904Y-104782745D01*
X94264975Y-105046812D01*
X94437198Y-105281795D01*
X94651954Y-105478664D01*
X94900991Y-105629854D01*
X95174739Y-105729554D01*
X95187110Y-105731476D01*
X95417000Y-105610155D01*
X95417000Y-104267000D01*
X94216768Y-104267000D01*
X94072715Y-104499742D01*
X86442811Y-104499742D01*
X86487000Y-104277592D01*
X86487000Y-104002408D01*
X86442812Y-103780258D01*
X94072715Y-103780258D01*
X94216768Y-104013000D01*
X95417000Y-104013000D01*
X95417000Y-102669845D01*
X95187110Y-102548524D01*
X95174739Y-102550446D01*
X94900991Y-102650146D01*
X94651954Y-102801336D01*
X94437198Y-102998205D01*
X94264975Y-103233188D01*
X94141904Y-103497255D01*
X94072715Y-103780258D01*
X86442812Y-103780258D01*
X86433314Y-103732510D01*
X86328005Y-103478273D01*
X86175120Y-103249465D01*
X85980535Y-103054880D01*
X85751727Y-102901995D01*
X85674485Y-102870000D01*
X85751727Y-102838005D01*
X85980535Y-102685120D01*
X86175120Y-102490535D01*
X86328005Y-102261727D01*
X86433314Y-102007490D01*
X86487000Y-101737592D01*
X86487000Y-101462408D01*
X86433314Y-101192510D01*
X86328005Y-100938273D01*
X86175120Y-100709465D01*
X85980535Y-100514880D01*
X85751727Y-100361995D01*
X85674485Y-100330000D01*
X85751727Y-100298005D01*
X85980535Y-100145120D01*
X86175120Y-99950535D01*
X86328005Y-99721727D01*
X86433314Y-99467490D01*
X86487000Y-99197592D01*
X86487000Y-98922408D01*
X86433314Y-98652510D01*
X86328005Y-98398273D01*
X86175120Y-98169465D01*
X85980535Y-97974880D01*
X85751727Y-97821995D01*
X85674485Y-97790000D01*
X85751727Y-97758005D01*
X85980535Y-97605120D01*
X86175120Y-97410535D01*
X86328005Y-97181727D01*
X86433314Y-96927490D01*
X86487000Y-96657592D01*
X86487000Y-96382408D01*
X86433314Y-96112510D01*
X86328005Y-95858273D01*
X86175120Y-95629465D01*
X85980535Y-95434880D01*
X85751727Y-95281995D01*
X85674485Y-95250000D01*
X85751727Y-95218005D01*
X85980535Y-95065120D01*
X86175120Y-94870535D01*
X86328005Y-94641727D01*
X86433314Y-94387490D01*
X86487000Y-94117592D01*
X86487000Y-93842408D01*
X86433314Y-93572510D01*
X86328005Y-93318273D01*
X86175120Y-93089465D01*
X85980535Y-92894880D01*
X85751727Y-92741995D01*
X85674485Y-92710000D01*
X85751727Y-92678005D01*
X85980535Y-92525120D01*
X86175120Y-92330535D01*
X86328005Y-92101727D01*
X86433314Y-91847490D01*
X86487000Y-91577592D01*
X86487000Y-91302408D01*
X86433314Y-91032510D01*
X86328005Y-90778273D01*
X86175120Y-90549465D01*
X85980535Y-90354880D01*
X85751727Y-90201995D01*
X85680057Y-90172308D01*
X85693023Y-90167636D01*
X85808980Y-90105656D01*
X85875960Y-89865565D01*
X85090000Y-89079605D01*
X84304040Y-89865565D01*
X84371020Y-90105656D01*
X84506760Y-90169485D01*
X84428273Y-90201995D01*
X84199465Y-90354880D01*
X84004880Y-90549465D01*
X83851995Y-90778273D01*
X83746686Y-91032510D01*
X83693000Y-91302408D01*
X77280000Y-91302408D01*
X77280000Y-91180801D01*
X79083430Y-89377372D01*
X79237408Y-89408000D01*
X79512592Y-89408000D01*
X79782490Y-89354314D01*
X80036727Y-89249005D01*
X80265535Y-89096120D01*
X80389638Y-88972017D01*
X83688090Y-88972017D01*
X83729078Y-89244133D01*
X83822364Y-89503023D01*
X83884344Y-89618980D01*
X84124435Y-89685960D01*
X84910395Y-88900000D01*
X85269605Y-88900000D01*
X86055565Y-89685960D01*
X86295656Y-89618980D01*
X86412756Y-89369952D01*
X86479023Y-89102865D01*
X86491910Y-88827983D01*
X86450922Y-88555867D01*
X86357636Y-88296977D01*
X86295656Y-88181020D01*
X86055565Y-88114040D01*
X85269605Y-88900000D01*
X84910395Y-88900000D01*
X84124435Y-88114040D01*
X83884344Y-88181020D01*
X83767244Y-88430048D01*
X83700977Y-88697135D01*
X83688090Y-88972017D01*
X80389638Y-88972017D01*
X80460120Y-88901535D01*
X80613005Y-88672727D01*
X80718314Y-88418490D01*
X80772000Y-88148592D01*
X80772000Y-87873408D01*
X80718314Y-87603510D01*
X80613005Y-87349273D01*
X80460120Y-87120465D01*
X80265535Y-86925880D01*
X80036727Y-86772995D01*
X79965057Y-86743308D01*
X79978023Y-86738636D01*
X80093980Y-86676656D01*
X80160960Y-86436565D01*
X79375000Y-85650605D01*
X78589040Y-86436565D01*
X78656020Y-86676656D01*
X78791760Y-86740485D01*
X78713273Y-86772995D01*
X78484465Y-86925880D01*
X78289880Y-87120465D01*
X78136995Y-87349273D01*
X78031686Y-87603510D01*
X77978000Y-87873408D01*
X77978000Y-88148592D01*
X78008628Y-88302570D01*
X76008998Y-90302201D01*
X75980000Y-90325999D01*
X75956202Y-90354997D01*
X75956201Y-90354998D01*
X75885026Y-90441724D01*
X75814454Y-90573754D01*
X75784180Y-90673558D01*
X75770998Y-90717014D01*
X75762780Y-90800454D01*
X75756324Y-90866000D01*
X75760001Y-90903332D01*
X75760000Y-94178031D01*
X75733695Y-94188927D01*
X75461812Y-94370594D01*
X75230594Y-94601812D01*
X75048927Y-94873695D01*
X74923793Y-95175796D01*
X74860000Y-95496504D01*
X69141358Y-95496504D01*
X69141358Y-94344531D01*
X72935074Y-94344531D01*
X73045921Y-94621714D01*
X73356840Y-94775089D01*
X73691705Y-94864860D01*
X74037650Y-94887576D01*
X74381380Y-94842366D01*
X74709685Y-94730966D01*
X74914079Y-94621714D01*
X75024926Y-94344531D01*
X73980000Y-93299605D01*
X72935074Y-94344531D01*
X69141358Y-94344531D01*
X69141358Y-93177650D01*
X72212424Y-93177650D01*
X72257634Y-93521380D01*
X72369034Y-93849685D01*
X72478286Y-94054079D01*
X72755469Y-94164926D01*
X73800395Y-93120000D01*
X74159605Y-93120000D01*
X75204531Y-94164926D01*
X75481714Y-94054079D01*
X75635089Y-93743160D01*
X75724860Y-93408295D01*
X75747576Y-93062350D01*
X75702366Y-92718620D01*
X75590966Y-92390315D01*
X75481714Y-92185921D01*
X75204531Y-92075074D01*
X74159605Y-93120000D01*
X73800395Y-93120000D01*
X72755469Y-92075074D01*
X72478286Y-92185921D01*
X72324911Y-92496840D01*
X72235140Y-92831705D01*
X72212424Y-93177650D01*
X69141358Y-93177650D01*
X69141358Y-91895469D01*
X72935074Y-91895469D01*
X73980000Y-92940395D01*
X75024926Y-91895469D01*
X74914079Y-91618286D01*
X74603160Y-91464911D01*
X74268295Y-91375140D01*
X73922350Y-91352424D01*
X73578620Y-91397634D01*
X73250315Y-91509034D01*
X73045921Y-91618286D01*
X72935074Y-91895469D01*
X69141358Y-91895469D01*
X69141358Y-85543017D01*
X77973090Y-85543017D01*
X78014078Y-85815133D01*
X78107364Y-86074023D01*
X78169344Y-86189980D01*
X78409435Y-86256960D01*
X79195395Y-85471000D01*
X79554605Y-85471000D01*
X80340565Y-86256960D01*
X80580656Y-86189980D01*
X80697756Y-85940952D01*
X80764023Y-85673865D01*
X80776910Y-85398983D01*
X80735922Y-85126867D01*
X80642636Y-84867977D01*
X80580656Y-84752020D01*
X80340565Y-84685040D01*
X79554605Y-85471000D01*
X79195395Y-85471000D01*
X78409435Y-84685040D01*
X78169344Y-84752020D01*
X78052244Y-85001048D01*
X77985977Y-85268135D01*
X77973090Y-85543017D01*
X69141358Y-85543017D01*
X69141358Y-84505435D01*
X78589040Y-84505435D01*
X79375000Y-85291395D01*
X80160960Y-84505435D01*
X80093980Y-84265344D01*
X79844952Y-84148244D01*
X79577865Y-84081977D01*
X79302983Y-84069090D01*
X79030867Y-84110078D01*
X78771977Y-84203364D01*
X78656020Y-84265344D01*
X78589040Y-84505435D01*
X69141358Y-84505435D01*
X69141358Y-83201191D01*
X69145035Y-83163858D01*
X69130361Y-83014872D01*
X69086904Y-82871611D01*
X69016332Y-82739582D01*
X68945157Y-82652855D01*
X68921359Y-82623857D01*
X68892362Y-82600060D01*
X68707000Y-82414698D01*
X68707000Y-59127017D01*
X77973090Y-59127017D01*
X78014078Y-59399133D01*
X78107364Y-59658023D01*
X78169344Y-59773980D01*
X78409435Y-59840960D01*
X79195395Y-59055000D01*
X79554605Y-59055000D01*
X80340565Y-59840960D01*
X80580656Y-59773980D01*
X80697756Y-59524952D01*
X80764023Y-59257865D01*
X80776910Y-58982983D01*
X80735922Y-58710867D01*
X80642636Y-58451977D01*
X80580656Y-58336020D01*
X80340565Y-58269040D01*
X79554605Y-59055000D01*
X79195395Y-59055000D01*
X78409435Y-58269040D01*
X78169344Y-58336020D01*
X78052244Y-58585048D01*
X77985977Y-58852135D01*
X77973090Y-59127017D01*
X68707000Y-59127017D01*
X68707000Y-58089435D01*
X78589040Y-58089435D01*
X79375000Y-58875395D01*
X80160960Y-58089435D01*
X80093980Y-57849344D01*
X79844952Y-57732244D01*
X79577865Y-57665977D01*
X79302983Y-57653090D01*
X79030867Y-57694078D01*
X78771977Y-57787364D01*
X78656020Y-57849344D01*
X78589040Y-58089435D01*
X68707000Y-58089435D01*
X68707000Y-55880000D01*
X68704560Y-55855224D01*
X68697333Y-55831399D01*
X68685597Y-55809443D01*
X68669803Y-55790197D01*
X68650557Y-55774403D01*
X68628601Y-55762667D01*
X68604776Y-55755440D01*
X68580000Y-55753000D01*
X65530000Y-55753000D01*
X65530000Y-55559801D01*
X69649929Y-51439872D01*
X72285000Y-51439872D01*
X72285000Y-51880128D01*
X72370890Y-52311925D01*
X72539369Y-52718669D01*
X72783962Y-53084729D01*
X73095271Y-53396038D01*
X73461331Y-53640631D01*
X73868075Y-53809110D01*
X74299872Y-53895000D01*
X74740128Y-53895000D01*
X75171925Y-53809110D01*
X75578669Y-53640631D01*
X75944729Y-53396038D01*
X76256038Y-53084729D01*
X76500631Y-52718669D01*
X76669110Y-52311925D01*
X76755000Y-51880128D01*
X76755000Y-51439872D01*
X76669110Y-51008075D01*
X76500631Y-50601331D01*
X76256038Y-50235271D01*
X75944729Y-49923962D01*
X75578669Y-49679369D01*
X75171925Y-49510890D01*
X74740128Y-49425000D01*
X74299872Y-49425000D01*
X73868075Y-49510890D01*
X73461331Y-49679369D01*
X73095271Y-49923962D01*
X72783962Y-50235271D01*
X72539369Y-50601331D01*
X72370890Y-51008075D01*
X72285000Y-51439872D01*
X69649929Y-51439872D01*
X70996003Y-50093799D01*
X71025001Y-50070001D01*
X71119974Y-49954276D01*
X71190546Y-49822247D01*
X71234003Y-49678986D01*
X71245000Y-49567333D01*
X71248677Y-49530000D01*
X71245000Y-49492667D01*
X71245000Y-47099808D01*
X71881941Y-46462867D01*
X71992384Y-46328291D01*
X72074451Y-46174755D01*
X72124987Y-46008159D01*
X72142051Y-45834905D01*
X72124987Y-45661651D01*
X72074451Y-45495055D01*
X71992384Y-45341519D01*
X71967998Y-45311804D01*
X72429802Y-44850000D01*
X72491939Y-44850000D01*
X72691898Y-44810226D01*
X72880256Y-44732205D01*
X73049774Y-44618937D01*
X73193937Y-44474774D01*
X73307205Y-44305256D01*
X73373538Y-44145116D01*
X78614299Y-49385878D01*
X78613000Y-49392408D01*
X78613000Y-49667592D01*
X78666686Y-49937490D01*
X78771995Y-50191727D01*
X78924880Y-50420535D01*
X79119465Y-50615120D01*
X79348273Y-50768005D01*
X79425515Y-50800000D01*
X79348273Y-50831995D01*
X79119465Y-50984880D01*
X78924880Y-51179465D01*
X78771995Y-51408273D01*
X78666686Y-51662510D01*
X78613000Y-51932408D01*
X78613000Y-52207592D01*
X78666686Y-52477490D01*
X78771995Y-52731727D01*
X78924880Y-52960535D01*
X79119465Y-53155120D01*
X79348273Y-53308005D01*
X79602510Y-53413314D01*
X79872408Y-53467000D01*
X80147592Y-53467000D01*
X80417490Y-53413314D01*
X80671727Y-53308005D01*
X80900535Y-53155120D01*
X81095120Y-52960535D01*
X81248005Y-52731727D01*
X81353314Y-52477490D01*
X81407000Y-52207592D01*
X81407000Y-51932408D01*
X81353314Y-51662510D01*
X81248005Y-51408273D01*
X81095120Y-51179465D01*
X80900535Y-50984880D01*
X80671727Y-50831995D01*
X80594485Y-50800000D01*
X80671727Y-50768005D01*
X80900535Y-50615120D01*
X81095120Y-50420535D01*
X81248005Y-50191727D01*
X81353314Y-49937490D01*
X81407000Y-49667592D01*
X81407000Y-49392408D01*
X81405701Y-49385877D01*
X82737498Y-48054080D01*
X88015525Y-48054080D01*
X88099208Y-48308261D01*
X88371775Y-48439158D01*
X88664642Y-48514365D01*
X88966553Y-48530991D01*
X89265907Y-48488397D01*
X89551199Y-48388222D01*
X89700792Y-48308261D01*
X89784475Y-48054080D01*
X88900000Y-47169605D01*
X88015525Y-48054080D01*
X82737498Y-48054080D01*
X83735025Y-47056553D01*
X87359009Y-47056553D01*
X87401603Y-47355907D01*
X87501778Y-47641199D01*
X87581739Y-47790792D01*
X87835920Y-47874475D01*
X88720395Y-46990000D01*
X89079605Y-46990000D01*
X89964080Y-47874475D01*
X90218261Y-47790792D01*
X90349158Y-47518225D01*
X90424365Y-47225358D01*
X90440991Y-46923447D01*
X90398397Y-46624093D01*
X90298222Y-46338801D01*
X90218261Y-46189208D01*
X89964080Y-46105525D01*
X89079605Y-46990000D01*
X88720395Y-46990000D01*
X87835920Y-46105525D01*
X87581739Y-46189208D01*
X87450842Y-46461775D01*
X87375635Y-46754642D01*
X87359009Y-47056553D01*
X83735025Y-47056553D01*
X85456579Y-45335000D01*
X87645210Y-45335000D01*
X87707688Y-45428505D01*
X87921495Y-45642312D01*
X88075105Y-45744951D01*
X88015525Y-45925920D01*
X88900000Y-46810395D01*
X89784475Y-45925920D01*
X89724895Y-45744951D01*
X89878505Y-45642312D01*
X90092312Y-45428505D01*
X90260299Y-45177095D01*
X90376011Y-44897743D01*
X90435000Y-44601184D01*
X90435000Y-44298816D01*
X90376011Y-44002257D01*
X90260299Y-43722905D01*
X90092312Y-43471495D01*
X90025873Y-43405056D01*
X90044180Y-43399502D01*
X90154494Y-43340537D01*
X90251185Y-43261185D01*
X90330537Y-43164494D01*
X90389502Y-43054180D01*
X90425812Y-42934482D01*
X90438072Y-42810000D01*
X90438072Y-41010000D01*
X90425812Y-40885518D01*
X90389502Y-40765820D01*
X90330537Y-40655506D01*
X90251185Y-40558815D01*
X90154494Y-40479463D01*
X90044180Y-40420498D01*
X89924482Y-40384188D01*
X89800000Y-40371928D01*
X88000000Y-40371928D01*
X87875518Y-40384188D01*
X87755820Y-40420498D01*
X87645506Y-40479463D01*
X87548815Y-40558815D01*
X87469463Y-40655506D01*
X87410498Y-40765820D01*
X87374188Y-40885518D01*
X87361928Y-41010000D01*
X87361928Y-42810000D01*
X87374188Y-42934482D01*
X87410498Y-43054180D01*
X87469463Y-43164494D01*
X87548815Y-43261185D01*
X87645506Y-43340537D01*
X87755820Y-43399502D01*
X87774127Y-43405056D01*
X87707688Y-43471495D01*
X87645210Y-43565000D01*
X85133469Y-43565000D01*
X85090000Y-43560719D01*
X85046531Y-43565000D01*
X85046523Y-43565000D01*
X84916510Y-43577805D01*
X84749687Y-43628411D01*
X84595941Y-43710589D01*
X84494953Y-43793468D01*
X84494951Y-43793470D01*
X84461183Y-43821183D01*
X84433470Y-43854951D01*
X81406481Y-46881941D01*
X81370922Y-46645867D01*
X81277636Y-46386977D01*
X81215656Y-46271020D01*
X80975565Y-46204040D01*
X80189605Y-46990000D01*
X80203748Y-47004143D01*
X80024143Y-47183748D01*
X80010000Y-47169605D01*
X79995858Y-47183748D01*
X79816253Y-47004143D01*
X79830395Y-46990000D01*
X79044435Y-46204040D01*
X78804344Y-46271020D01*
X78687244Y-46520048D01*
X78620977Y-46787135D01*
X78616397Y-46884819D01*
X74625116Y-42893538D01*
X74785256Y-42827205D01*
X74954774Y-42713937D01*
X75098937Y-42569774D01*
X75212205Y-42400256D01*
X75290226Y-42211898D01*
X75330000Y-42011939D01*
X75330000Y-41949801D01*
X78047393Y-39232408D01*
X78613000Y-39232408D01*
X78613000Y-39507592D01*
X78666686Y-39777490D01*
X78771995Y-40031727D01*
X78924880Y-40260535D01*
X79119465Y-40455120D01*
X79348273Y-40608005D01*
X79425515Y-40640000D01*
X79348273Y-40671995D01*
X79119465Y-40824880D01*
X78924880Y-41019465D01*
X78771995Y-41248273D01*
X78666686Y-41502510D01*
X78613000Y-41772408D01*
X78613000Y-42047592D01*
X78666686Y-42317490D01*
X78771995Y-42571727D01*
X78924880Y-42800535D01*
X79119465Y-42995120D01*
X79348273Y-43148005D01*
X79425515Y-43180000D01*
X79348273Y-43211995D01*
X79119465Y-43364880D01*
X78924880Y-43559465D01*
X78771995Y-43788273D01*
X78666686Y-44042510D01*
X78613000Y-44312408D01*
X78613000Y-44587592D01*
X78666686Y-44857490D01*
X78771995Y-45111727D01*
X78924880Y-45340535D01*
X79119465Y-45535120D01*
X79348273Y-45688005D01*
X79419943Y-45717692D01*
X79406977Y-45722364D01*
X79291020Y-45784344D01*
X79224040Y-46024435D01*
X80010000Y-46810395D01*
X80795960Y-46024435D01*
X80728980Y-45784344D01*
X80593240Y-45720515D01*
X80671727Y-45688005D01*
X80900535Y-45535120D01*
X81095120Y-45340535D01*
X81248005Y-45111727D01*
X81353314Y-44857490D01*
X81407000Y-44587592D01*
X81407000Y-44312408D01*
X81353314Y-44042510D01*
X81248005Y-43788273D01*
X81095120Y-43559465D01*
X80900535Y-43364880D01*
X80671727Y-43211995D01*
X80594485Y-43180000D01*
X80671727Y-43148005D01*
X80900535Y-42995120D01*
X81095120Y-42800535D01*
X81248005Y-42571727D01*
X81353314Y-42317490D01*
X81407000Y-42047592D01*
X81407000Y-41772408D01*
X81353314Y-41502510D01*
X81248005Y-41248273D01*
X81095120Y-41019465D01*
X80900535Y-40824880D01*
X80671727Y-40671995D01*
X80594485Y-40640000D01*
X80671727Y-40608005D01*
X80900535Y-40455120D01*
X81095120Y-40260535D01*
X81248005Y-40031727D01*
X81353314Y-39777490D01*
X81407000Y-39507592D01*
X81407000Y-39232408D01*
X81353314Y-38962510D01*
X81248005Y-38708273D01*
X81095120Y-38479465D01*
X80900535Y-38284880D01*
X80671727Y-38131995D01*
X80417490Y-38026686D01*
X80147592Y-37973000D01*
X79872408Y-37973000D01*
X79602510Y-38026686D01*
X79348273Y-38131995D01*
X79119465Y-38284880D01*
X78924880Y-38479465D01*
X78771995Y-38708273D01*
X78666686Y-38962510D01*
X78613000Y-39232408D01*
X78047393Y-39232408D01*
X79689802Y-37590000D01*
X95635001Y-37590000D01*
X95635000Y-40931928D01*
X94620000Y-40931928D01*
X94495518Y-40944188D01*
X94375820Y-40980498D01*
X94265506Y-41039463D01*
X94168815Y-41118815D01*
X94089463Y-41215506D01*
X94030498Y-41325820D01*
X93994188Y-41445518D01*
X93981928Y-41570000D01*
X93981928Y-43570000D01*
X93994188Y-43694482D01*
X94030498Y-43814180D01*
X94089463Y-43924494D01*
X94168815Y-44021185D01*
X94265506Y-44100537D01*
X94375820Y-44159502D01*
X94495518Y-44195812D01*
X94620000Y-44208072D01*
X95635001Y-44208072D01*
X95635000Y-47247379D01*
X95525820Y-47280498D01*
X95415506Y-47339463D01*
X95370000Y-47376809D01*
X95324494Y-47339463D01*
X95214180Y-47280498D01*
X95094482Y-47244188D01*
X94970000Y-47231928D01*
X93470000Y-47231928D01*
X93345518Y-47244188D01*
X93225820Y-47280498D01*
X93115506Y-47339463D01*
X93018815Y-47418815D01*
X92939463Y-47515506D01*
X92880498Y-47625820D01*
X92844188Y-47745518D01*
X92831928Y-47870000D01*
X92831928Y-49870000D01*
X92844188Y-49994482D01*
X92880498Y-50114180D01*
X92939463Y-50224494D01*
X93018815Y-50321185D01*
X93115506Y-50400537D01*
X93225820Y-50459502D01*
X93345518Y-50495812D01*
X93470000Y-50508072D01*
X94533270Y-50508072D01*
X94731202Y-50706004D01*
X94755000Y-50735002D01*
X94784627Y-50759316D01*
X94870724Y-50829975D01*
X94945538Y-50869964D01*
X95002754Y-50900547D01*
X95146015Y-50944004D01*
X95257668Y-50955001D01*
X95257678Y-50955001D01*
X95295001Y-50958677D01*
X95332323Y-50955001D01*
X102385177Y-50955001D01*
X102422499Y-50958677D01*
X102459821Y-50955001D01*
X102459832Y-50955001D01*
X102571485Y-50944004D01*
X102714746Y-50900547D01*
X102846775Y-50829975D01*
X102962500Y-50735002D01*
X102986303Y-50705998D01*
X105134230Y-48558072D01*
X105850010Y-48558072D01*
X105850010Y-49920187D01*
X101920199Y-53850000D01*
X89603711Y-53850000D01*
X89559774Y-53806063D01*
X89390256Y-53692795D01*
X89201898Y-53614774D01*
X89001939Y-53575000D01*
X88798061Y-53575000D01*
X88598102Y-53614774D01*
X88409744Y-53692795D01*
X88240226Y-53806063D01*
X88096063Y-53950226D01*
X87982795Y-54119744D01*
X87904774Y-54308102D01*
X87865000Y-54508061D01*
X87865000Y-54711939D01*
X87904774Y-54911898D01*
X87982795Y-55100256D01*
X88096063Y-55269774D01*
X88240226Y-55413937D01*
X88409744Y-55527205D01*
X88598102Y-55605226D01*
X88798061Y-55645000D01*
X89001939Y-55645000D01*
X89201898Y-55605226D01*
X89390256Y-55527205D01*
X89559774Y-55413937D01*
X89603711Y-55370000D01*
X102197678Y-55370000D01*
X102235000Y-55373676D01*
X102272322Y-55370000D01*
X102272333Y-55370000D01*
X102383986Y-55359003D01*
X102527247Y-55315546D01*
X102659276Y-55244974D01*
X102775001Y-55150001D01*
X102798804Y-55120997D01*
X106479930Y-51439872D01*
X116285000Y-51439872D01*
X116285000Y-51880128D01*
X116370890Y-52311925D01*
X116539369Y-52718669D01*
X116783962Y-53084729D01*
X117095271Y-53396038D01*
X117461331Y-53640631D01*
X117868075Y-53809110D01*
X118299872Y-53895000D01*
X118740128Y-53895000D01*
X119171925Y-53809110D01*
X119578669Y-53640631D01*
X119944729Y-53396038D01*
X120256038Y-53084729D01*
X120500631Y-52718669D01*
X120669110Y-52311925D01*
X120755000Y-51880128D01*
X120755000Y-51439872D01*
X120669110Y-51008075D01*
X120500631Y-50601331D01*
X120256038Y-50235271D01*
X119944729Y-49923962D01*
X119578669Y-49679369D01*
X119171925Y-49510890D01*
X118740128Y-49425000D01*
X118299872Y-49425000D01*
X117868075Y-49510890D01*
X117461331Y-49679369D01*
X117095271Y-49923962D01*
X116783962Y-50235271D01*
X116539369Y-50601331D01*
X116370890Y-51008075D01*
X116285000Y-51439872D01*
X106479930Y-51439872D01*
X107121019Y-50798784D01*
X107150011Y-50774991D01*
X107173805Y-50745998D01*
X107173809Y-50745994D01*
X107244983Y-50659267D01*
X107244984Y-50659266D01*
X107315556Y-50527237D01*
X107359013Y-50383976D01*
X107370010Y-50272323D01*
X107370010Y-50272314D01*
X107373686Y-50234991D01*
X107370010Y-50197668D01*
X107370010Y-45469832D01*
X107373686Y-45432509D01*
X107370010Y-45395186D01*
X107370010Y-45395177D01*
X107359013Y-45283524D01*
X107315556Y-45140263D01*
X107286031Y-45085026D01*
X107244984Y-45008233D01*
X107202382Y-44956323D01*
X107150011Y-44892509D01*
X107121007Y-44868706D01*
X106923072Y-44670771D01*
X106923072Y-43770000D01*
X106906008Y-43596746D01*
X106855472Y-43430150D01*
X106773405Y-43276614D01*
X106662962Y-43142038D01*
X106528386Y-43031595D01*
X106374850Y-42949528D01*
X106208254Y-42898992D01*
X106035000Y-42881928D01*
X104785000Y-42881928D01*
X104611746Y-42898992D01*
X104445150Y-42949528D01*
X104291614Y-43031595D01*
X104157038Y-43142038D01*
X104046595Y-43276614D01*
X103964528Y-43430150D01*
X103913992Y-43596746D01*
X103896928Y-43770000D01*
X103896928Y-44695000D01*
X103913992Y-44868254D01*
X103964528Y-45034850D01*
X104046595Y-45188386D01*
X104157038Y-45322962D01*
X104291614Y-45433405D01*
X104445150Y-45515472D01*
X104611746Y-45566008D01*
X104785000Y-45583072D01*
X105685771Y-45583072D01*
X105850011Y-45747312D01*
X105850011Y-45856928D01*
X104785000Y-45856928D01*
X104611746Y-45873992D01*
X104445150Y-45924528D01*
X104291614Y-46006595D01*
X104157038Y-46117038D01*
X104046595Y-46251614D01*
X103964528Y-46405150D01*
X103913992Y-46571746D01*
X103896928Y-46745000D01*
X103896928Y-47645770D01*
X102107698Y-49435001D01*
X100206201Y-49435001D01*
X100205000Y-49155750D01*
X100046250Y-48997000D01*
X98947000Y-48997000D01*
X98947000Y-49017000D01*
X98693000Y-49017000D01*
X98693000Y-48997000D01*
X98673000Y-48997000D01*
X98673000Y-48743000D01*
X98693000Y-48743000D01*
X98693000Y-47393750D01*
X98947000Y-47393750D01*
X98947000Y-48743000D01*
X100046250Y-48743000D01*
X100205000Y-48584250D01*
X100208072Y-47870000D01*
X100195812Y-47745518D01*
X100159502Y-47625820D01*
X100100537Y-47515506D01*
X100021185Y-47418815D01*
X99924494Y-47339463D01*
X99814180Y-47280498D01*
X99694482Y-47244188D01*
X99570000Y-47231928D01*
X99105750Y-47235000D01*
X98947000Y-47393750D01*
X98693000Y-47393750D01*
X98534250Y-47235000D01*
X98070000Y-47231928D01*
X97945518Y-47244188D01*
X97825820Y-47280498D01*
X97715506Y-47339463D01*
X97670000Y-47376809D01*
X97624494Y-47339463D01*
X97514180Y-47280498D01*
X97405000Y-47247379D01*
X97405000Y-44208072D01*
X98420000Y-44208072D01*
X98544482Y-44195812D01*
X98664180Y-44159502D01*
X98774494Y-44100537D01*
X98871185Y-44021185D01*
X98950537Y-43924494D01*
X99009502Y-43814180D01*
X99045812Y-43694482D01*
X99058072Y-43570000D01*
X99058072Y-41570000D01*
X99045812Y-41445518D01*
X99009502Y-41325820D01*
X98950537Y-41215506D01*
X98871185Y-41118815D01*
X98774494Y-41039463D01*
X98664180Y-40980498D01*
X98544482Y-40944188D01*
X98420000Y-40931928D01*
X97405000Y-40931928D01*
X97405000Y-37196578D01*
X97528506Y-37073072D01*
X98252500Y-37073072D01*
X98355066Y-37062970D01*
X98412361Y-37080350D01*
X98412361Y-37080350D01*
G37*
X98412361Y-37080350D02*
X98524014Y-37091347D01*
X98524023Y-37091347D01*
X98561346Y-37095023D01*
X98598669Y-37091347D01*
X109676546Y-37091347D01*
X120919847Y-48334650D01*
X120943641Y-48363643D01*
X120972634Y-48387437D01*
X120972638Y-48387441D01*
X121035656Y-48439158D01*
X121059366Y-48458616D01*
X121191395Y-48529188D01*
X121334656Y-48572645D01*
X121446309Y-48583642D01*
X121446318Y-48583642D01*
X121483641Y-48587318D01*
X121520964Y-48583642D01*
X123278834Y-48583642D01*
X123915775Y-49220583D01*
X124050351Y-49331026D01*
X124203887Y-49413093D01*
X124370483Y-49463629D01*
X124543737Y-49480693D01*
X124716991Y-49463629D01*
X124883587Y-49413093D01*
X125037123Y-49331026D01*
X125066838Y-49306639D01*
X131320001Y-55559803D01*
X131320001Y-55753000D01*
X125095000Y-55753000D01*
X125070224Y-55755440D01*
X125046399Y-55762667D01*
X125024443Y-55774403D01*
X125005197Y-55790197D01*
X124989403Y-55809443D01*
X124977667Y-55831399D01*
X124970440Y-55855224D01*
X124968000Y-55880000D01*
X124968000Y-69642422D01*
X117722534Y-62396956D01*
X117694817Y-62363183D01*
X117560059Y-62252589D01*
X117406313Y-62170411D01*
X117239490Y-62119805D01*
X117109477Y-62107000D01*
X117109469Y-62107000D01*
X117066000Y-62102719D01*
X117022531Y-62107000D01*
X115346454Y-62107000D01*
X115298256Y-62074795D01*
X115109898Y-61996774D01*
X114909939Y-61957000D01*
X114706061Y-61957000D01*
X114506102Y-61996774D01*
X114317744Y-62074795D01*
X114269546Y-62107000D01*
X99611465Y-62107000D01*
X99567999Y-62102719D01*
X99524533Y-62107000D01*
X99524523Y-62107000D01*
X99394510Y-62119805D01*
X99227687Y-62170411D01*
X99073941Y-62252589D01*
X99073939Y-62252590D01*
X99073940Y-62252590D01*
X98972953Y-62335468D01*
X98972951Y-62335470D01*
X98939183Y-62363183D01*
X98911470Y-62396951D01*
X94124123Y-67184299D01*
X94117592Y-67183000D01*
X93842408Y-67183000D01*
X93835878Y-67184299D01*
X92731534Y-66079956D01*
X92703817Y-66046183D01*
X92569059Y-65935589D01*
X92415313Y-65853411D01*
X92248490Y-65802805D01*
X92118477Y-65790000D01*
X92118469Y-65790000D01*
X92075000Y-65785719D01*
X92031531Y-65790000D01*
X80463818Y-65790000D01*
X80460120Y-65784465D01*
X80265535Y-65589880D01*
X80036727Y-65436995D01*
X79959485Y-65405000D01*
X80036727Y-65373005D01*
X80265535Y-65220120D01*
X80460120Y-65025535D01*
X80613005Y-64796727D01*
X80718314Y-64542490D01*
X80772000Y-64272592D01*
X80772000Y-63997408D01*
X80718314Y-63727510D01*
X80613005Y-63473273D01*
X80460120Y-63244465D01*
X80265535Y-63049880D01*
X80036727Y-62896995D01*
X79959485Y-62865000D01*
X80036727Y-62833005D01*
X80265535Y-62680120D01*
X80460120Y-62485535D01*
X80613005Y-62256727D01*
X80718314Y-62002490D01*
X80772000Y-61732592D01*
X80772000Y-61457408D01*
X80718314Y-61187510D01*
X80613005Y-60933273D01*
X80460120Y-60704465D01*
X80265535Y-60509880D01*
X80036727Y-60356995D01*
X79965057Y-60327308D01*
X79978023Y-60322636D01*
X80093980Y-60260656D01*
X80160960Y-60020565D01*
X79375000Y-59234605D01*
X78589040Y-60020565D01*
X78656020Y-60260656D01*
X78791760Y-60324485D01*
X78713273Y-60356995D01*
X78484465Y-60509880D01*
X78289880Y-60704465D01*
X78136995Y-60933273D01*
X78031686Y-61187510D01*
X77978000Y-61457408D01*
X77978000Y-61732592D01*
X78008628Y-61886571D01*
X77777001Y-62118197D01*
X77747998Y-62142000D01*
X77692870Y-62209175D01*
X77653025Y-62257725D01*
X77613203Y-62332226D01*
X77582453Y-62389755D01*
X77538996Y-62533016D01*
X77527999Y-62644669D01*
X77527999Y-62644679D01*
X77524323Y-62682001D01*
X77527999Y-62719324D01*
X77528000Y-69360667D01*
X77524323Y-69397999D01*
X77538997Y-69546984D01*
X77582453Y-69690245D01*
X77653025Y-69822275D01*
X77719075Y-69902756D01*
X77747999Y-69938000D01*
X77776997Y-69961798D01*
X83723628Y-75908430D01*
X83693000Y-76062408D01*
X83693000Y-76337592D01*
X83746686Y-76607490D01*
X83851995Y-76861727D01*
X84004880Y-77090535D01*
X84199465Y-77285120D01*
X84428273Y-77438005D01*
X84505515Y-77470000D01*
X84428273Y-77501995D01*
X84199465Y-77654880D01*
X84004880Y-77849465D01*
X83851995Y-78078273D01*
X83746686Y-78332510D01*
X83693000Y-78602408D01*
X83693000Y-78877592D01*
X83746686Y-79147490D01*
X83851995Y-79401727D01*
X84004880Y-79630535D01*
X84199465Y-79825120D01*
X84428273Y-79978005D01*
X84505515Y-80010000D01*
X84428273Y-80041995D01*
X84199465Y-80194880D01*
X84004880Y-80389465D01*
X83851995Y-80618273D01*
X83746686Y-80872510D01*
X83693000Y-81142408D01*
X83693000Y-81417592D01*
X83746686Y-81687490D01*
X83851995Y-81941727D01*
X84004880Y-82170535D01*
X84199465Y-82365120D01*
X84428273Y-82518005D01*
X84505515Y-82550000D01*
X84428273Y-82581995D01*
X84199465Y-82734880D01*
X84004880Y-82929465D01*
X83851995Y-83158273D01*
X83746686Y-83412510D01*
X83693000Y-83682408D01*
X83693000Y-83957592D01*
X83746686Y-84227490D01*
X83851995Y-84481727D01*
X84004880Y-84710535D01*
X84199465Y-84905120D01*
X84428273Y-85058005D01*
X84505515Y-85090000D01*
X84428273Y-85121995D01*
X84199465Y-85274880D01*
X84004880Y-85469465D01*
X83851995Y-85698273D01*
X83746686Y-85952510D01*
X83693000Y-86222408D01*
X83693000Y-86497592D01*
X83746686Y-86767490D01*
X83851995Y-87021727D01*
X84004880Y-87250535D01*
X84199465Y-87445120D01*
X84428273Y-87598005D01*
X84499943Y-87627692D01*
X84486977Y-87632364D01*
X84371020Y-87694344D01*
X84304040Y-87934435D01*
X85090000Y-88720395D01*
X85875960Y-87934435D01*
X85808980Y-87694344D01*
X85673240Y-87630515D01*
X85751727Y-87598005D01*
X85980535Y-87445120D01*
X86100090Y-87325565D01*
X91924040Y-87325565D01*
X91991020Y-87565656D01*
X92240048Y-87682756D01*
X92507135Y-87749023D01*
X92782017Y-87761910D01*
X93054133Y-87720922D01*
X93313023Y-87627636D01*
X93428980Y-87565656D01*
X93495960Y-87325565D01*
X92710000Y-86539605D01*
X91924040Y-87325565D01*
X86100090Y-87325565D01*
X86175120Y-87250535D01*
X86328005Y-87021727D01*
X86433314Y-86767490D01*
X86487000Y-86497592D01*
X86487000Y-86432017D01*
X91308090Y-86432017D01*
X91349078Y-86704133D01*
X91442364Y-86963023D01*
X91504344Y-87078980D01*
X91744435Y-87145960D01*
X92530395Y-86360000D01*
X91744435Y-85574040D01*
X91504344Y-85641020D01*
X91387244Y-85890048D01*
X91320977Y-86157135D01*
X91308090Y-86432017D01*
X86487000Y-86432017D01*
X86487000Y-86222408D01*
X86433314Y-85952510D01*
X86328005Y-85698273D01*
X86175120Y-85469465D01*
X86100090Y-85394435D01*
X91924040Y-85394435D01*
X92710000Y-86180395D01*
X93495960Y-85394435D01*
X93428980Y-85154344D01*
X93179952Y-85037244D01*
X92912865Y-84970977D01*
X92637983Y-84958090D01*
X92365867Y-84999078D01*
X92106977Y-85092364D01*
X91991020Y-85154344D01*
X91924040Y-85394435D01*
X86100090Y-85394435D01*
X85980535Y-85274880D01*
X85751727Y-85121995D01*
X85674485Y-85090000D01*
X85751727Y-85058005D01*
X85980535Y-84905120D01*
X86175120Y-84710535D01*
X86328005Y-84481727D01*
X86433314Y-84227490D01*
X86487000Y-83957592D01*
X86487000Y-83682408D01*
X86433314Y-83412510D01*
X86328005Y-83158273D01*
X86175120Y-82929465D01*
X85980535Y-82734880D01*
X85751727Y-82581995D01*
X85674485Y-82550000D01*
X85751727Y-82518005D01*
X85980535Y-82365120D01*
X86175120Y-82170535D01*
X86328005Y-81941727D01*
X86433314Y-81687490D01*
X86487000Y-81417592D01*
X86487000Y-81142408D01*
X86433314Y-80872510D01*
X86328005Y-80618273D01*
X86175120Y-80389465D01*
X85980535Y-80194880D01*
X85751727Y-80041995D01*
X85674485Y-80010000D01*
X85751727Y-79978005D01*
X85980535Y-79825120D01*
X86175120Y-79630535D01*
X86262341Y-79500000D01*
X89855199Y-79500000D01*
X95318198Y-84963000D01*
X95112408Y-84963000D01*
X94842510Y-85016686D01*
X94588273Y-85121995D01*
X94359465Y-85274880D01*
X94164880Y-85469465D01*
X94011995Y-85698273D01*
X93982308Y-85769943D01*
X93977636Y-85756977D01*
X93915656Y-85641020D01*
X93675565Y-85574040D01*
X92889605Y-86360000D01*
X93675565Y-87145960D01*
X93915656Y-87078980D01*
X93979485Y-86943240D01*
X94011995Y-87021727D01*
X94164880Y-87250535D01*
X94359465Y-87445120D01*
X94588273Y-87598005D01*
X94842510Y-87703314D01*
X95112408Y-87757000D01*
X95387592Y-87757000D01*
X95657490Y-87703314D01*
X95911727Y-87598005D01*
X96140535Y-87445120D01*
X96335120Y-87250535D01*
X96488005Y-87021727D01*
X96520000Y-86944485D01*
X96551995Y-87021727D01*
X96704880Y-87250535D01*
X96899465Y-87445120D01*
X97128273Y-87598005D01*
X97382510Y-87703314D01*
X97652408Y-87757000D01*
X97927592Y-87757000D01*
X98197490Y-87703314D01*
X98451727Y-87598005D01*
X98680535Y-87445120D01*
X98875120Y-87250535D01*
X99028005Y-87021727D01*
X99060000Y-86944485D01*
X99091995Y-87021727D01*
X99244880Y-87250535D01*
X99439465Y-87445120D01*
X99445000Y-87448818D01*
X99445001Y-98058420D01*
X97448956Y-100054466D01*
X97415183Y-100082183D01*
X97304589Y-100216942D01*
X97222411Y-100370688D01*
X97187157Y-100486904D01*
X97171805Y-100537510D01*
X97171488Y-100540725D01*
X97159000Y-100667524D01*
X97159000Y-100667531D01*
X97154719Y-100711000D01*
X97159000Y-100754469D01*
X97159001Y-102552889D01*
X97104150Y-102569528D01*
X96950614Y-102651595D01*
X96816038Y-102762038D01*
X96705595Y-102896614D01*
X96651086Y-102998593D01*
X96650802Y-102998205D01*
X96436046Y-102801336D01*
X96187009Y-102650146D01*
X95913261Y-102550446D01*
X95900890Y-102548524D01*
X95671000Y-102669845D01*
X95671000Y-104013000D01*
X95691000Y-104013000D01*
X95691000Y-104267000D01*
X95671000Y-104267000D01*
X95671000Y-105610155D01*
X95900890Y-105731476D01*
X95913261Y-105729554D01*
X96187009Y-105629854D01*
X96436046Y-105478664D01*
X96650802Y-105281795D01*
X96651086Y-105281407D01*
X96705595Y-105383386D01*
X96816038Y-105517962D01*
X96950614Y-105628405D01*
X97104150Y-105710472D01*
X97270746Y-105761008D01*
X97444000Y-105778072D01*
X98644000Y-105778072D01*
X98817254Y-105761008D01*
X98983850Y-105710472D01*
X99137386Y-105628405D01*
X99188708Y-105586286D01*
X100715000Y-107112579D01*
X100715001Y-110164196D01*
X100631898Y-110129774D01*
X100431939Y-110090000D01*
X100228061Y-110090000D01*
X100028102Y-110129774D01*
X99839744Y-110207795D01*
X99670226Y-110321063D01*
X99526063Y-110465226D01*
X99416148Y-110629725D01*
X99315462Y-110507038D01*
X99180886Y-110396595D01*
X99027350Y-110314528D01*
X98860754Y-110263992D01*
X98687500Y-110246928D01*
X97786729Y-110246928D01*
X97588794Y-110048993D01*
X97564991Y-110019989D01*
X97449266Y-109925016D01*
X97317237Y-109854444D01*
X97173976Y-109810987D01*
X97062323Y-109799990D01*
X97062312Y-109799990D01*
X97024990Y-109796314D01*
X96987668Y-109799990D01*
X92042332Y-109799990D01*
X92005009Y-109796314D01*
X91967686Y-109799990D01*
X91967677Y-109799990D01*
X91856024Y-109810987D01*
X91731313Y-109848817D01*
X91712763Y-109854444D01*
X91580733Y-109925016D01*
X91497093Y-109993658D01*
X91465009Y-110019989D01*
X91441211Y-110048987D01*
X89855199Y-111635000D01*
X79054802Y-111635000D01*
X76502210Y-109082408D01*
X83693000Y-109082408D01*
X83693000Y-109357592D01*
X83746686Y-109627490D01*
X83851995Y-109881727D01*
X84004880Y-110110535D01*
X84199465Y-110305120D01*
X84428273Y-110458005D01*
X84682510Y-110563314D01*
X84952408Y-110617000D01*
X85227592Y-110617000D01*
X85497490Y-110563314D01*
X85751727Y-110458005D01*
X85980535Y-110305120D01*
X86175120Y-110110535D01*
X86328005Y-109881727D01*
X86433314Y-109627490D01*
X86487000Y-109357592D01*
X86487000Y-109082408D01*
X86433314Y-108812510D01*
X86328005Y-108558273D01*
X86175120Y-108329465D01*
X85980535Y-108134880D01*
X85751727Y-107981995D01*
X85680057Y-107952308D01*
X85693023Y-107947636D01*
X85808980Y-107885656D01*
X85875960Y-107645565D01*
X85090000Y-106859605D01*
X84304040Y-107645565D01*
X84371020Y-107885656D01*
X84506760Y-107949485D01*
X84428273Y-107981995D01*
X84199465Y-108134880D01*
X84004880Y-108329465D01*
X83851995Y-108558273D01*
X83746686Y-108812510D01*
X83693000Y-109082408D01*
X76502210Y-109082408D01*
X73150000Y-105730199D01*
X73150000Y-105439872D01*
X78285000Y-105439872D01*
X78285000Y-105880128D01*
X78370890Y-106311925D01*
X78539369Y-106718669D01*
X78783962Y-107084729D01*
X79095271Y-107396038D01*
X79461331Y-107640631D01*
X79868075Y-107809110D01*
X80299872Y-107895000D01*
X80740128Y-107895000D01*
X81171925Y-107809110D01*
X81578669Y-107640631D01*
X81944729Y-107396038D01*
X82256038Y-107084729D01*
X82478348Y-106752017D01*
X83688090Y-106752017D01*
X83729078Y-107024133D01*
X83822364Y-107283023D01*
X83884344Y-107398980D01*
X84124435Y-107465960D01*
X84910395Y-106680000D01*
X85269605Y-106680000D01*
X86055565Y-107465960D01*
X86295656Y-107398980D01*
X86412756Y-107149952D01*
X86479023Y-106882865D01*
X86491910Y-106607983D01*
X86450922Y-106335867D01*
X86357636Y-106076977D01*
X86295656Y-105961020D01*
X86055565Y-105894040D01*
X85269605Y-106680000D01*
X84910395Y-106680000D01*
X84124435Y-105894040D01*
X83884344Y-105961020D01*
X83767244Y-106210048D01*
X83700977Y-106477135D01*
X83688090Y-106752017D01*
X82478348Y-106752017D01*
X82500631Y-106718669D01*
X82669110Y-106311925D01*
X82755000Y-105880128D01*
X82755000Y-105439872D01*
X82669110Y-105008075D01*
X82500631Y-104601331D01*
X82256038Y-104235271D01*
X81944729Y-103923962D01*
X81578669Y-103679369D01*
X81171925Y-103510890D01*
X80740128Y-103425000D01*
X80299872Y-103425000D01*
X79868075Y-103510890D01*
X79461331Y-103679369D01*
X79095271Y-103923962D01*
X78783962Y-104235271D01*
X78539369Y-104601331D01*
X78370890Y-105008075D01*
X78285000Y-105439872D01*
X73150000Y-105439872D01*
X73150000Y-101002322D01*
X73153676Y-100964999D01*
X73150000Y-100927676D01*
X73150000Y-100927667D01*
X73139003Y-100816014D01*
X73095546Y-100672753D01*
X73024974Y-100540724D01*
X72930001Y-100424999D01*
X72901004Y-100401202D01*
X71924333Y-99424531D01*
X72935074Y-99424531D01*
X73045921Y-99701714D01*
X73356840Y-99855089D01*
X73691705Y-99944860D01*
X74037650Y-99967576D01*
X74381380Y-99922366D01*
X74709685Y-99810966D01*
X74914079Y-99701714D01*
X75024926Y-99424531D01*
X78015074Y-99424531D01*
X78125921Y-99701714D01*
X78436840Y-99855089D01*
X78771705Y-99944860D01*
X79117650Y-99967576D01*
X79461380Y-99922366D01*
X79789685Y-99810966D01*
X79994079Y-99701714D01*
X80104926Y-99424531D01*
X79060000Y-98379605D01*
X78015074Y-99424531D01*
X75024926Y-99424531D01*
X73980000Y-98379605D01*
X72935074Y-99424531D01*
X71924333Y-99424531D01*
X71683804Y-99184003D01*
X71660001Y-99154999D01*
X71544276Y-99060026D01*
X71412247Y-98989454D01*
X71268986Y-98945997D01*
X71157333Y-98935000D01*
X71157322Y-98935000D01*
X71120000Y-98931324D01*
X71082678Y-98935000D01*
X69761166Y-98935000D01*
X69141358Y-98315192D01*
X69141358Y-98257650D01*
X72212424Y-98257650D01*
X72257634Y-98601380D01*
X72369034Y-98929685D01*
X72478286Y-99134079D01*
X72755469Y-99244926D01*
X73800395Y-98200000D01*
X74159605Y-98200000D01*
X75204531Y-99244926D01*
X75481714Y-99134079D01*
X75635089Y-98823160D01*
X75724860Y-98488295D01*
X75740004Y-98257650D01*
X77292424Y-98257650D01*
X77337634Y-98601380D01*
X77449034Y-98929685D01*
X77558286Y-99134079D01*
X77835469Y-99244926D01*
X78880395Y-98200000D01*
X79239605Y-98200000D01*
X80284531Y-99244926D01*
X80561714Y-99134079D01*
X80715089Y-98823160D01*
X80804860Y-98488295D01*
X80827576Y-98142350D01*
X80782366Y-97798620D01*
X80670966Y-97470315D01*
X80561714Y-97265921D01*
X80284531Y-97155074D01*
X79239605Y-98200000D01*
X78880395Y-98200000D01*
X77835469Y-97155074D01*
X77558286Y-97265921D01*
X77404911Y-97576840D01*
X77315140Y-97911705D01*
X77292424Y-98257650D01*
X75740004Y-98257650D01*
X75747576Y-98142350D01*
X75702366Y-97798620D01*
X75590966Y-97470315D01*
X75481714Y-97265921D01*
X75204531Y-97155074D01*
X74159605Y-98200000D01*
X73800395Y-98200000D01*
X72755469Y-97155074D01*
X72478286Y-97265921D01*
X72324911Y-97576840D01*
X72235140Y-97911705D01*
X72212424Y-98257650D01*
X69141358Y-98257650D01*
X69141358Y-96975469D01*
X72935074Y-96975469D01*
X73980000Y-98020395D01*
X75024926Y-96975469D01*
X74914079Y-96698286D01*
X74603160Y-96544911D01*
X74268295Y-96455140D01*
X73922350Y-96432424D01*
X73578620Y-96477634D01*
X73250315Y-96589034D01*
X73045921Y-96698286D01*
X72935074Y-96975469D01*
X69141358Y-96975469D01*
X69141358Y-95496504D01*
X74860000Y-95496504D01*
X74860000Y-95823496D01*
X74923793Y-96144204D01*
X75048927Y-96446305D01*
X75230594Y-96718188D01*
X75461812Y-96949406D01*
X75733695Y-97131073D01*
X76035796Y-97256207D01*
X76356504Y-97320000D01*
X76683496Y-97320000D01*
X77004204Y-97256207D01*
X77306305Y-97131073D01*
X77539182Y-96975469D01*
X78015074Y-96975469D01*
X79060000Y-98020395D01*
X80104926Y-96975469D01*
X79994079Y-96698286D01*
X79683160Y-96544911D01*
X79348295Y-96455140D01*
X79002350Y-96432424D01*
X78658620Y-96477634D01*
X78330315Y-96589034D01*
X78125921Y-96698286D01*
X78015074Y-96975469D01*
X77539182Y-96975469D01*
X77578188Y-96949406D01*
X77809406Y-96718188D01*
X77991073Y-96446305D01*
X78116207Y-96144204D01*
X78180000Y-95823496D01*
X78180000Y-95496504D01*
X78116207Y-95175796D01*
X77991073Y-94873695D01*
X77809406Y-94601812D01*
X77578188Y-94370594D01*
X77539183Y-94344531D01*
X78015074Y-94344531D01*
X78125921Y-94621714D01*
X78436840Y-94775089D01*
X78771705Y-94864860D01*
X79117650Y-94887576D01*
X79461380Y-94842366D01*
X79789685Y-94730966D01*
X79994079Y-94621714D01*
X80104926Y-94344531D01*
X79060000Y-93299605D01*
X78015074Y-94344531D01*
X77539183Y-94344531D01*
X77306305Y-94188927D01*
X77280000Y-94178031D01*
X77280000Y-93177650D01*
X77292424Y-93177650D01*
X77337634Y-93521380D01*
X77449034Y-93849685D01*
X77558286Y-94054079D01*
X77835469Y-94164926D01*
X78880395Y-93120000D01*
X79239605Y-93120000D01*
X80284531Y-94164926D01*
X80561714Y-94054079D01*
X80715089Y-93743160D01*
X80804860Y-93408295D01*
X80827576Y-93062350D01*
X80782366Y-92718620D01*
X80670966Y-92390315D01*
X80561714Y-92185921D01*
X80284531Y-92075074D01*
X79239605Y-93120000D01*
X78880395Y-93120000D01*
X77835469Y-92075074D01*
X77558286Y-92185921D01*
X77404911Y-92496840D01*
X77315140Y-92831705D01*
X77292424Y-93177650D01*
X77280000Y-93177650D01*
X77280000Y-91895469D01*
X78015074Y-91895469D01*
X79060000Y-92940395D01*
X80104926Y-91895469D01*
X79994079Y-91618286D01*
X79683160Y-91464911D01*
X79348295Y-91375140D01*
X79002350Y-91352424D01*
X78658620Y-91397634D01*
X78330315Y-91509034D01*
X78125921Y-91618286D01*
X78015074Y-91895469D01*
X77280000Y-91895469D01*
X77280000Y-91302408D01*
X83693000Y-91302408D01*
X83693000Y-91577592D01*
X83746686Y-91847490D01*
X83851995Y-92101727D01*
X84004880Y-92330535D01*
X84199465Y-92525120D01*
X84428273Y-92678005D01*
X84505515Y-92710000D01*
X84428273Y-92741995D01*
X84199465Y-92894880D01*
X84004880Y-93089465D01*
X83851995Y-93318273D01*
X83746686Y-93572510D01*
X83693000Y-93842408D01*
X83693000Y-94117592D01*
X83746686Y-94387490D01*
X83851995Y-94641727D01*
X84004880Y-94870535D01*
X84199465Y-95065120D01*
X84428273Y-95218005D01*
X84505515Y-95250000D01*
X84428273Y-95281995D01*
X84199465Y-95434880D01*
X84004880Y-95629465D01*
X83851995Y-95858273D01*
X83746686Y-96112510D01*
X83693000Y-96382408D01*
X83693000Y-96657592D01*
X83746686Y-96927490D01*
X83851995Y-97181727D01*
X84004880Y-97410535D01*
X84199465Y-97605120D01*
X84428273Y-97758005D01*
X84505515Y-97790000D01*
X84428273Y-97821995D01*
X84199465Y-97974880D01*
X84004880Y-98169465D01*
X83851995Y-98398273D01*
X83746686Y-98652510D01*
X83693000Y-98922408D01*
X83693000Y-99197592D01*
X83746686Y-99467490D01*
X83851995Y-99721727D01*
X84004880Y-99950535D01*
X84199465Y-100145120D01*
X84428273Y-100298005D01*
X84505515Y-100330000D01*
X84428273Y-100361995D01*
X84199465Y-100514880D01*
X84004880Y-100709465D01*
X83851995Y-100938273D01*
X83746686Y-101192510D01*
X83693000Y-101462408D01*
X83693000Y-101737592D01*
X83746686Y-102007490D01*
X83851995Y-102261727D01*
X84004880Y-102490535D01*
X84199465Y-102685120D01*
X84428273Y-102838005D01*
X84505515Y-102870000D01*
X84428273Y-102901995D01*
X84199465Y-103054880D01*
X84004880Y-103249465D01*
X83851995Y-103478273D01*
X83746686Y-103732510D01*
X83693000Y-104002408D01*
X83693000Y-104277592D01*
X83746686Y-104547490D01*
X83851995Y-104801727D01*
X84004880Y-105030535D01*
X84199465Y-105225120D01*
X84428273Y-105378005D01*
X84499943Y-105407692D01*
X84486977Y-105412364D01*
X84371020Y-105474344D01*
X84304040Y-105714435D01*
X85090000Y-106500395D01*
X85875960Y-105714435D01*
X85808980Y-105474344D01*
X85673240Y-105410515D01*
X85751727Y-105378005D01*
X85980535Y-105225120D01*
X86175120Y-105030535D01*
X86328005Y-104801727D01*
X86433314Y-104547490D01*
X86442811Y-104499742D01*
X94072715Y-104499742D01*
X94141904Y-104782745D01*
X94264975Y-105046812D01*
X94437198Y-105281795D01*
X94651954Y-105478664D01*
X94900991Y-105629854D01*
X95174739Y-105729554D01*
X95187110Y-105731476D01*
X95417000Y-105610155D01*
X95417000Y-104267000D01*
X94216768Y-104267000D01*
X94072715Y-104499742D01*
X86442811Y-104499742D01*
X86487000Y-104277592D01*
X86487000Y-104002408D01*
X86442812Y-103780258D01*
X94072715Y-103780258D01*
X94216768Y-104013000D01*
X95417000Y-104013000D01*
X95417000Y-102669845D01*
X95187110Y-102548524D01*
X95174739Y-102550446D01*
X94900991Y-102650146D01*
X94651954Y-102801336D01*
X94437198Y-102998205D01*
X94264975Y-103233188D01*
X94141904Y-103497255D01*
X94072715Y-103780258D01*
X86442812Y-103780258D01*
X86433314Y-103732510D01*
X86328005Y-103478273D01*
X86175120Y-103249465D01*
X85980535Y-103054880D01*
X85751727Y-102901995D01*
X85674485Y-102870000D01*
X85751727Y-102838005D01*
X85980535Y-102685120D01*
X86175120Y-102490535D01*
X86328005Y-102261727D01*
X86433314Y-102007490D01*
X86487000Y-101737592D01*
X86487000Y-101462408D01*
X86433314Y-101192510D01*
X86328005Y-100938273D01*
X86175120Y-100709465D01*
X85980535Y-100514880D01*
X85751727Y-100361995D01*
X85674485Y-100330000D01*
X85751727Y-100298005D01*
X85980535Y-100145120D01*
X86175120Y-99950535D01*
X86328005Y-99721727D01*
X86433314Y-99467490D01*
X86487000Y-99197592D01*
X86487000Y-98922408D01*
X86433314Y-98652510D01*
X86328005Y-98398273D01*
X86175120Y-98169465D01*
X85980535Y-97974880D01*
X85751727Y-97821995D01*
X85674485Y-97790000D01*
X85751727Y-97758005D01*
X85980535Y-97605120D01*
X86175120Y-97410535D01*
X86328005Y-97181727D01*
X86433314Y-96927490D01*
X86487000Y-96657592D01*
X86487000Y-96382408D01*
X86433314Y-96112510D01*
X86328005Y-95858273D01*
X86175120Y-95629465D01*
X85980535Y-95434880D01*
X85751727Y-95281995D01*
X85674485Y-95250000D01*
X85751727Y-95218005D01*
X85980535Y-95065120D01*
X86175120Y-94870535D01*
X86328005Y-94641727D01*
X86433314Y-94387490D01*
X86487000Y-94117592D01*
X86487000Y-93842408D01*
X86433314Y-93572510D01*
X86328005Y-93318273D01*
X86175120Y-93089465D01*
X85980535Y-92894880D01*
X85751727Y-92741995D01*
X85674485Y-92710000D01*
X85751727Y-92678005D01*
X85980535Y-92525120D01*
X86175120Y-92330535D01*
X86328005Y-92101727D01*
X86433314Y-91847490D01*
X86487000Y-91577592D01*
X86487000Y-91302408D01*
X86433314Y-91032510D01*
X86328005Y-90778273D01*
X86175120Y-90549465D01*
X85980535Y-90354880D01*
X85751727Y-90201995D01*
X85680057Y-90172308D01*
X85693023Y-90167636D01*
X85808980Y-90105656D01*
X85875960Y-89865565D01*
X85090000Y-89079605D01*
X84304040Y-89865565D01*
X84371020Y-90105656D01*
X84506760Y-90169485D01*
X84428273Y-90201995D01*
X84199465Y-90354880D01*
X84004880Y-90549465D01*
X83851995Y-90778273D01*
X83746686Y-91032510D01*
X83693000Y-91302408D01*
X77280000Y-91302408D01*
X77280000Y-91180801D01*
X79083430Y-89377372D01*
X79237408Y-89408000D01*
X79512592Y-89408000D01*
X79782490Y-89354314D01*
X80036727Y-89249005D01*
X80265535Y-89096120D01*
X80389638Y-88972017D01*
X83688090Y-88972017D01*
X83729078Y-89244133D01*
X83822364Y-89503023D01*
X83884344Y-89618980D01*
X84124435Y-89685960D01*
X84910395Y-88900000D01*
X85269605Y-88900000D01*
X86055565Y-89685960D01*
X86295656Y-89618980D01*
X86412756Y-89369952D01*
X86479023Y-89102865D01*
X86491910Y-88827983D01*
X86450922Y-88555867D01*
X86357636Y-88296977D01*
X86295656Y-88181020D01*
X86055565Y-88114040D01*
X85269605Y-88900000D01*
X84910395Y-88900000D01*
X84124435Y-88114040D01*
X83884344Y-88181020D01*
X83767244Y-88430048D01*
X83700977Y-88697135D01*
X83688090Y-88972017D01*
X80389638Y-88972017D01*
X80460120Y-88901535D01*
X80613005Y-88672727D01*
X80718314Y-88418490D01*
X80772000Y-88148592D01*
X80772000Y-87873408D01*
X80718314Y-87603510D01*
X80613005Y-87349273D01*
X80460120Y-87120465D01*
X80265535Y-86925880D01*
X80036727Y-86772995D01*
X79965057Y-86743308D01*
X79978023Y-86738636D01*
X80093980Y-86676656D01*
X80160960Y-86436565D01*
X79375000Y-85650605D01*
X78589040Y-86436565D01*
X78656020Y-86676656D01*
X78791760Y-86740485D01*
X78713273Y-86772995D01*
X78484465Y-86925880D01*
X78289880Y-87120465D01*
X78136995Y-87349273D01*
X78031686Y-87603510D01*
X77978000Y-87873408D01*
X77978000Y-88148592D01*
X78008628Y-88302570D01*
X76008998Y-90302201D01*
X75980000Y-90325999D01*
X75956202Y-90354997D01*
X75956201Y-90354998D01*
X75885026Y-90441724D01*
X75814454Y-90573754D01*
X75784180Y-90673558D01*
X75770998Y-90717014D01*
X75762780Y-90800454D01*
X75756324Y-90866000D01*
X75760001Y-90903332D01*
X75760000Y-94178031D01*
X75733695Y-94188927D01*
X75461812Y-94370594D01*
X75230594Y-94601812D01*
X75048927Y-94873695D01*
X74923793Y-95175796D01*
X74860000Y-95496504D01*
X69141358Y-95496504D01*
X69141358Y-94344531D01*
X72935074Y-94344531D01*
X73045921Y-94621714D01*
X73356840Y-94775089D01*
X73691705Y-94864860D01*
X74037650Y-94887576D01*
X74381380Y-94842366D01*
X74709685Y-94730966D01*
X74914079Y-94621714D01*
X75024926Y-94344531D01*
X73980000Y-93299605D01*
X72935074Y-94344531D01*
X69141358Y-94344531D01*
X69141358Y-93177650D01*
X72212424Y-93177650D01*
X72257634Y-93521380D01*
X72369034Y-93849685D01*
X72478286Y-94054079D01*
X72755469Y-94164926D01*
X73800395Y-93120000D01*
X74159605Y-93120000D01*
X75204531Y-94164926D01*
X75481714Y-94054079D01*
X75635089Y-93743160D01*
X75724860Y-93408295D01*
X75747576Y-93062350D01*
X75702366Y-92718620D01*
X75590966Y-92390315D01*
X75481714Y-92185921D01*
X75204531Y-92075074D01*
X74159605Y-93120000D01*
X73800395Y-93120000D01*
X72755469Y-92075074D01*
X72478286Y-92185921D01*
X72324911Y-92496840D01*
X72235140Y-92831705D01*
X72212424Y-93177650D01*
X69141358Y-93177650D01*
X69141358Y-91895469D01*
X72935074Y-91895469D01*
X73980000Y-92940395D01*
X75024926Y-91895469D01*
X74914079Y-91618286D01*
X74603160Y-91464911D01*
X74268295Y-91375140D01*
X73922350Y-91352424D01*
X73578620Y-91397634D01*
X73250315Y-91509034D01*
X73045921Y-91618286D01*
X72935074Y-91895469D01*
X69141358Y-91895469D01*
X69141358Y-85543017D01*
X77973090Y-85543017D01*
X78014078Y-85815133D01*
X78107364Y-86074023D01*
X78169344Y-86189980D01*
X78409435Y-86256960D01*
X79195395Y-85471000D01*
X79554605Y-85471000D01*
X80340565Y-86256960D01*
X80580656Y-86189980D01*
X80697756Y-85940952D01*
X80764023Y-85673865D01*
X80776910Y-85398983D01*
X80735922Y-85126867D01*
X80642636Y-84867977D01*
X80580656Y-84752020D01*
X80340565Y-84685040D01*
X79554605Y-85471000D01*
X79195395Y-85471000D01*
X78409435Y-84685040D01*
X78169344Y-84752020D01*
X78052244Y-85001048D01*
X77985977Y-85268135D01*
X77973090Y-85543017D01*
X69141358Y-85543017D01*
X69141358Y-84505435D01*
X78589040Y-84505435D01*
X79375000Y-85291395D01*
X80160960Y-84505435D01*
X80093980Y-84265344D01*
X79844952Y-84148244D01*
X79577865Y-84081977D01*
X79302983Y-84069090D01*
X79030867Y-84110078D01*
X78771977Y-84203364D01*
X78656020Y-84265344D01*
X78589040Y-84505435D01*
X69141358Y-84505435D01*
X69141358Y-83201191D01*
X69145035Y-83163858D01*
X69130361Y-83014872D01*
X69086904Y-82871611D01*
X69016332Y-82739582D01*
X68945157Y-82652855D01*
X68921359Y-82623857D01*
X68892362Y-82600060D01*
X68707000Y-82414698D01*
X68707000Y-59127017D01*
X77973090Y-59127017D01*
X78014078Y-59399133D01*
X78107364Y-59658023D01*
X78169344Y-59773980D01*
X78409435Y-59840960D01*
X79195395Y-59055000D01*
X79554605Y-59055000D01*
X80340565Y-59840960D01*
X80580656Y-59773980D01*
X80697756Y-59524952D01*
X80764023Y-59257865D01*
X80776910Y-58982983D01*
X80735922Y-58710867D01*
X80642636Y-58451977D01*
X80580656Y-58336020D01*
X80340565Y-58269040D01*
X79554605Y-59055000D01*
X79195395Y-59055000D01*
X78409435Y-58269040D01*
X78169344Y-58336020D01*
X78052244Y-58585048D01*
X77985977Y-58852135D01*
X77973090Y-59127017D01*
X68707000Y-59127017D01*
X68707000Y-58089435D01*
X78589040Y-58089435D01*
X79375000Y-58875395D01*
X80160960Y-58089435D01*
X80093980Y-57849344D01*
X79844952Y-57732244D01*
X79577865Y-57665977D01*
X79302983Y-57653090D01*
X79030867Y-57694078D01*
X78771977Y-57787364D01*
X78656020Y-57849344D01*
X78589040Y-58089435D01*
X68707000Y-58089435D01*
X68707000Y-55880000D01*
X68704560Y-55855224D01*
X68697333Y-55831399D01*
X68685597Y-55809443D01*
X68669803Y-55790197D01*
X68650557Y-55774403D01*
X68628601Y-55762667D01*
X68604776Y-55755440D01*
X68580000Y-55753000D01*
X65530000Y-55753000D01*
X65530000Y-55559801D01*
X69649929Y-51439872D01*
X72285000Y-51439872D01*
X72285000Y-51880128D01*
X72370890Y-52311925D01*
X72539369Y-52718669D01*
X72783962Y-53084729D01*
X73095271Y-53396038D01*
X73461331Y-53640631D01*
X73868075Y-53809110D01*
X74299872Y-53895000D01*
X74740128Y-53895000D01*
X75171925Y-53809110D01*
X75578669Y-53640631D01*
X75944729Y-53396038D01*
X76256038Y-53084729D01*
X76500631Y-52718669D01*
X76669110Y-52311925D01*
X76755000Y-51880128D01*
X76755000Y-51439872D01*
X76669110Y-51008075D01*
X76500631Y-50601331D01*
X76256038Y-50235271D01*
X75944729Y-49923962D01*
X75578669Y-49679369D01*
X75171925Y-49510890D01*
X74740128Y-49425000D01*
X74299872Y-49425000D01*
X73868075Y-49510890D01*
X73461331Y-49679369D01*
X73095271Y-49923962D01*
X72783962Y-50235271D01*
X72539369Y-50601331D01*
X72370890Y-51008075D01*
X72285000Y-51439872D01*
X69649929Y-51439872D01*
X70996003Y-50093799D01*
X71025001Y-50070001D01*
X71119974Y-49954276D01*
X71190546Y-49822247D01*
X71234003Y-49678986D01*
X71245000Y-49567333D01*
X71248677Y-49530000D01*
X71245000Y-49492667D01*
X71245000Y-47099808D01*
X71881941Y-46462867D01*
X71992384Y-46328291D01*
X72074451Y-46174755D01*
X72124987Y-46008159D01*
X72142051Y-45834905D01*
X72124987Y-45661651D01*
X72074451Y-45495055D01*
X71992384Y-45341519D01*
X71967998Y-45311804D01*
X72429802Y-44850000D01*
X72491939Y-44850000D01*
X72691898Y-44810226D01*
X72880256Y-44732205D01*
X73049774Y-44618937D01*
X73193937Y-44474774D01*
X73307205Y-44305256D01*
X73373538Y-44145116D01*
X78614299Y-49385878D01*
X78613000Y-49392408D01*
X78613000Y-49667592D01*
X78666686Y-49937490D01*
X78771995Y-50191727D01*
X78924880Y-50420535D01*
X79119465Y-50615120D01*
X79348273Y-50768005D01*
X79425515Y-50800000D01*
X79348273Y-50831995D01*
X79119465Y-50984880D01*
X78924880Y-51179465D01*
X78771995Y-51408273D01*
X78666686Y-51662510D01*
X78613000Y-51932408D01*
X78613000Y-52207592D01*
X78666686Y-52477490D01*
X78771995Y-52731727D01*
X78924880Y-52960535D01*
X79119465Y-53155120D01*
X79348273Y-53308005D01*
X79602510Y-53413314D01*
X79872408Y-53467000D01*
X80147592Y-53467000D01*
X80417490Y-53413314D01*
X80671727Y-53308005D01*
X80900535Y-53155120D01*
X81095120Y-52960535D01*
X81248005Y-52731727D01*
X81353314Y-52477490D01*
X81407000Y-52207592D01*
X81407000Y-51932408D01*
X81353314Y-51662510D01*
X81248005Y-51408273D01*
X81095120Y-51179465D01*
X80900535Y-50984880D01*
X80671727Y-50831995D01*
X80594485Y-50800000D01*
X80671727Y-50768005D01*
X80900535Y-50615120D01*
X81095120Y-50420535D01*
X81248005Y-50191727D01*
X81353314Y-49937490D01*
X81407000Y-49667592D01*
X81407000Y-49392408D01*
X81405701Y-49385877D01*
X82737498Y-48054080D01*
X88015525Y-48054080D01*
X88099208Y-48308261D01*
X88371775Y-48439158D01*
X88664642Y-48514365D01*
X88966553Y-48530991D01*
X89265907Y-48488397D01*
X89551199Y-48388222D01*
X89700792Y-48308261D01*
X89784475Y-48054080D01*
X88900000Y-47169605D01*
X88015525Y-48054080D01*
X82737498Y-48054080D01*
X83735025Y-47056553D01*
X87359009Y-47056553D01*
X87401603Y-47355907D01*
X87501778Y-47641199D01*
X87581739Y-47790792D01*
X87835920Y-47874475D01*
X88720395Y-46990000D01*
X89079605Y-46990000D01*
X89964080Y-47874475D01*
X90218261Y-47790792D01*
X90349158Y-47518225D01*
X90424365Y-47225358D01*
X90440991Y-46923447D01*
X90398397Y-46624093D01*
X90298222Y-46338801D01*
X90218261Y-46189208D01*
X89964080Y-46105525D01*
X89079605Y-46990000D01*
X88720395Y-46990000D01*
X87835920Y-46105525D01*
X87581739Y-46189208D01*
X87450842Y-46461775D01*
X87375635Y-46754642D01*
X87359009Y-47056553D01*
X83735025Y-47056553D01*
X85456579Y-45335000D01*
X87645210Y-45335000D01*
X87707688Y-45428505D01*
X87921495Y-45642312D01*
X88075105Y-45744951D01*
X88015525Y-45925920D01*
X88900000Y-46810395D01*
X89784475Y-45925920D01*
X89724895Y-45744951D01*
X89878505Y-45642312D01*
X90092312Y-45428505D01*
X90260299Y-45177095D01*
X90376011Y-44897743D01*
X90435000Y-44601184D01*
X90435000Y-44298816D01*
X90376011Y-44002257D01*
X90260299Y-43722905D01*
X90092312Y-43471495D01*
X90025873Y-43405056D01*
X90044180Y-43399502D01*
X90154494Y-43340537D01*
X90251185Y-43261185D01*
X90330537Y-43164494D01*
X90389502Y-43054180D01*
X90425812Y-42934482D01*
X90438072Y-42810000D01*
X90438072Y-41010000D01*
X90425812Y-40885518D01*
X90389502Y-40765820D01*
X90330537Y-40655506D01*
X90251185Y-40558815D01*
X90154494Y-40479463D01*
X90044180Y-40420498D01*
X89924482Y-40384188D01*
X89800000Y-40371928D01*
X88000000Y-40371928D01*
X87875518Y-40384188D01*
X87755820Y-40420498D01*
X87645506Y-40479463D01*
X87548815Y-40558815D01*
X87469463Y-40655506D01*
X87410498Y-40765820D01*
X87374188Y-40885518D01*
X87361928Y-41010000D01*
X87361928Y-42810000D01*
X87374188Y-42934482D01*
X87410498Y-43054180D01*
X87469463Y-43164494D01*
X87548815Y-43261185D01*
X87645506Y-43340537D01*
X87755820Y-43399502D01*
X87774127Y-43405056D01*
X87707688Y-43471495D01*
X87645210Y-43565000D01*
X85133469Y-43565000D01*
X85090000Y-43560719D01*
X85046531Y-43565000D01*
X85046523Y-43565000D01*
X84916510Y-43577805D01*
X84749687Y-43628411D01*
X84595941Y-43710589D01*
X84494953Y-43793468D01*
X84494951Y-43793470D01*
X84461183Y-43821183D01*
X84433470Y-43854951D01*
X81406481Y-46881941D01*
X81370922Y-46645867D01*
X81277636Y-46386977D01*
X81215656Y-46271020D01*
X80975565Y-46204040D01*
X80189605Y-46990000D01*
X80203748Y-47004143D01*
X80024143Y-47183748D01*
X80010000Y-47169605D01*
X79995858Y-47183748D01*
X79816253Y-47004143D01*
X79830395Y-46990000D01*
X79044435Y-46204040D01*
X78804344Y-46271020D01*
X78687244Y-46520048D01*
X78620977Y-46787135D01*
X78616397Y-46884819D01*
X74625116Y-42893538D01*
X74785256Y-42827205D01*
X74954774Y-42713937D01*
X75098937Y-42569774D01*
X75212205Y-42400256D01*
X75290226Y-42211898D01*
X75330000Y-42011939D01*
X75330000Y-41949801D01*
X78047393Y-39232408D01*
X78613000Y-39232408D01*
X78613000Y-39507592D01*
X78666686Y-39777490D01*
X78771995Y-40031727D01*
X78924880Y-40260535D01*
X79119465Y-40455120D01*
X79348273Y-40608005D01*
X79425515Y-40640000D01*
X79348273Y-40671995D01*
X79119465Y-40824880D01*
X78924880Y-41019465D01*
X78771995Y-41248273D01*
X78666686Y-41502510D01*
X78613000Y-41772408D01*
X78613000Y-42047592D01*
X78666686Y-42317490D01*
X78771995Y-42571727D01*
X78924880Y-42800535D01*
X79119465Y-42995120D01*
X79348273Y-43148005D01*
X79425515Y-43180000D01*
X79348273Y-43211995D01*
X79119465Y-43364880D01*
X78924880Y-43559465D01*
X78771995Y-43788273D01*
X78666686Y-44042510D01*
X78613000Y-44312408D01*
X78613000Y-44587592D01*
X78666686Y-44857490D01*
X78771995Y-45111727D01*
X78924880Y-45340535D01*
X79119465Y-45535120D01*
X79348273Y-45688005D01*
X79419943Y-45717692D01*
X79406977Y-45722364D01*
X79291020Y-45784344D01*
X79224040Y-46024435D01*
X80010000Y-46810395D01*
X80795960Y-46024435D01*
X80728980Y-45784344D01*
X80593240Y-45720515D01*
X80671727Y-45688005D01*
X80900535Y-45535120D01*
X81095120Y-45340535D01*
X81248005Y-45111727D01*
X81353314Y-44857490D01*
X81407000Y-44587592D01*
X81407000Y-44312408D01*
X81353314Y-44042510D01*
X81248005Y-43788273D01*
X81095120Y-43559465D01*
X80900535Y-43364880D01*
X80671727Y-43211995D01*
X80594485Y-43180000D01*
X80671727Y-43148005D01*
X80900535Y-42995120D01*
X81095120Y-42800535D01*
X81248005Y-42571727D01*
X81353314Y-42317490D01*
X81407000Y-42047592D01*
X81407000Y-41772408D01*
X81353314Y-41502510D01*
X81248005Y-41248273D01*
X81095120Y-41019465D01*
X80900535Y-40824880D01*
X80671727Y-40671995D01*
X80594485Y-40640000D01*
X80671727Y-40608005D01*
X80900535Y-40455120D01*
X81095120Y-40260535D01*
X81248005Y-40031727D01*
X81353314Y-39777490D01*
X81407000Y-39507592D01*
X81407000Y-39232408D01*
X81353314Y-38962510D01*
X81248005Y-38708273D01*
X81095120Y-38479465D01*
X80900535Y-38284880D01*
X80671727Y-38131995D01*
X80417490Y-38026686D01*
X80147592Y-37973000D01*
X79872408Y-37973000D01*
X79602510Y-38026686D01*
X79348273Y-38131995D01*
X79119465Y-38284880D01*
X78924880Y-38479465D01*
X78771995Y-38708273D01*
X78666686Y-38962510D01*
X78613000Y-39232408D01*
X78047393Y-39232408D01*
X79689802Y-37590000D01*
X95635001Y-37590000D01*
X95635000Y-40931928D01*
X94620000Y-40931928D01*
X94495518Y-40944188D01*
X94375820Y-40980498D01*
X94265506Y-41039463D01*
X94168815Y-41118815D01*
X94089463Y-41215506D01*
X94030498Y-41325820D01*
X93994188Y-41445518D01*
X93981928Y-41570000D01*
X93981928Y-43570000D01*
X93994188Y-43694482D01*
X94030498Y-43814180D01*
X94089463Y-43924494D01*
X94168815Y-44021185D01*
X94265506Y-44100537D01*
X94375820Y-44159502D01*
X94495518Y-44195812D01*
X94620000Y-44208072D01*
X95635001Y-44208072D01*
X95635000Y-47247379D01*
X95525820Y-47280498D01*
X95415506Y-47339463D01*
X95370000Y-47376809D01*
X95324494Y-47339463D01*
X95214180Y-47280498D01*
X95094482Y-47244188D01*
X94970000Y-47231928D01*
X93470000Y-47231928D01*
X93345518Y-47244188D01*
X93225820Y-47280498D01*
X93115506Y-47339463D01*
X93018815Y-47418815D01*
X92939463Y-47515506D01*
X92880498Y-47625820D01*
X92844188Y-47745518D01*
X92831928Y-47870000D01*
X92831928Y-49870000D01*
X92844188Y-49994482D01*
X92880498Y-50114180D01*
X92939463Y-50224494D01*
X93018815Y-50321185D01*
X93115506Y-50400537D01*
X93225820Y-50459502D01*
X93345518Y-50495812D01*
X93470000Y-50508072D01*
X94533270Y-50508072D01*
X94731202Y-50706004D01*
X94755000Y-50735002D01*
X94784627Y-50759316D01*
X94870724Y-50829975D01*
X94945538Y-50869964D01*
X95002754Y-50900547D01*
X95146015Y-50944004D01*
X95257668Y-50955001D01*
X95257678Y-50955001D01*
X95295001Y-50958677D01*
X95332323Y-50955001D01*
X102385177Y-50955001D01*
X102422499Y-50958677D01*
X102459821Y-50955001D01*
X102459832Y-50955001D01*
X102571485Y-50944004D01*
X102714746Y-50900547D01*
X102846775Y-50829975D01*
X102962500Y-50735002D01*
X102986303Y-50705998D01*
X105134230Y-48558072D01*
X105850010Y-48558072D01*
X105850010Y-49920187D01*
X101920199Y-53850000D01*
X89603711Y-53850000D01*
X89559774Y-53806063D01*
X89390256Y-53692795D01*
X89201898Y-53614774D01*
X89001939Y-53575000D01*
X88798061Y-53575000D01*
X88598102Y-53614774D01*
X88409744Y-53692795D01*
X88240226Y-53806063D01*
X88096063Y-53950226D01*
X87982795Y-54119744D01*
X87904774Y-54308102D01*
X87865000Y-54508061D01*
X87865000Y-54711939D01*
X87904774Y-54911898D01*
X87982795Y-55100256D01*
X88096063Y-55269774D01*
X88240226Y-55413937D01*
X88409744Y-55527205D01*
X88598102Y-55605226D01*
X88798061Y-55645000D01*
X89001939Y-55645000D01*
X89201898Y-55605226D01*
X89390256Y-55527205D01*
X89559774Y-55413937D01*
X89603711Y-55370000D01*
X102197678Y-55370000D01*
X102235000Y-55373676D01*
X102272322Y-55370000D01*
X102272333Y-55370000D01*
X102383986Y-55359003D01*
X102527247Y-55315546D01*
X102659276Y-55244974D01*
X102775001Y-55150001D01*
X102798804Y-55120997D01*
X106479930Y-51439872D01*
X116285000Y-51439872D01*
X116285000Y-51880128D01*
X116370890Y-52311925D01*
X116539369Y-52718669D01*
X116783962Y-53084729D01*
X117095271Y-53396038D01*
X117461331Y-53640631D01*
X117868075Y-53809110D01*
X118299872Y-53895000D01*
X118740128Y-53895000D01*
X119171925Y-53809110D01*
X119578669Y-53640631D01*
X119944729Y-53396038D01*
X120256038Y-53084729D01*
X120500631Y-52718669D01*
X120669110Y-52311925D01*
X120755000Y-51880128D01*
X120755000Y-51439872D01*
X120669110Y-51008075D01*
X120500631Y-50601331D01*
X120256038Y-50235271D01*
X119944729Y-49923962D01*
X119578669Y-49679369D01*
X119171925Y-49510890D01*
X118740128Y-49425000D01*
X118299872Y-49425000D01*
X117868075Y-49510890D01*
X117461331Y-49679369D01*
X117095271Y-49923962D01*
X116783962Y-50235271D01*
X116539369Y-50601331D01*
X116370890Y-51008075D01*
X116285000Y-51439872D01*
X106479930Y-51439872D01*
X107121019Y-50798784D01*
X107150011Y-50774991D01*
X107173805Y-50745998D01*
X107173809Y-50745994D01*
X107244983Y-50659267D01*
X107244984Y-50659266D01*
X107315556Y-50527237D01*
X107359013Y-50383976D01*
X107370010Y-50272323D01*
X107370010Y-50272314D01*
X107373686Y-50234991D01*
X107370010Y-50197668D01*
X107370010Y-45469832D01*
X107373686Y-45432509D01*
X107370010Y-45395186D01*
X107370010Y-45395177D01*
X107359013Y-45283524D01*
X107315556Y-45140263D01*
X107286031Y-45085026D01*
X107244984Y-45008233D01*
X107202382Y-44956323D01*
X107150011Y-44892509D01*
X107121007Y-44868706D01*
X106923072Y-44670771D01*
X106923072Y-43770000D01*
X106906008Y-43596746D01*
X106855472Y-43430150D01*
X106773405Y-43276614D01*
X106662962Y-43142038D01*
X106528386Y-43031595D01*
X106374850Y-42949528D01*
X106208254Y-42898992D01*
X106035000Y-42881928D01*
X104785000Y-42881928D01*
X104611746Y-42898992D01*
X104445150Y-42949528D01*
X104291614Y-43031595D01*
X104157038Y-43142038D01*
X104046595Y-43276614D01*
X103964528Y-43430150D01*
X103913992Y-43596746D01*
X103896928Y-43770000D01*
X103896928Y-44695000D01*
X103913992Y-44868254D01*
X103964528Y-45034850D01*
X104046595Y-45188386D01*
X104157038Y-45322962D01*
X104291614Y-45433405D01*
X104445150Y-45515472D01*
X104611746Y-45566008D01*
X104785000Y-45583072D01*
X105685771Y-45583072D01*
X105850011Y-45747312D01*
X105850011Y-45856928D01*
X104785000Y-45856928D01*
X104611746Y-45873992D01*
X104445150Y-45924528D01*
X104291614Y-46006595D01*
X104157038Y-46117038D01*
X104046595Y-46251614D01*
X103964528Y-46405150D01*
X103913992Y-46571746D01*
X103896928Y-46745000D01*
X103896928Y-47645770D01*
X102107698Y-49435001D01*
X100206201Y-49435001D01*
X100205000Y-49155750D01*
X100046250Y-48997000D01*
X98947000Y-48997000D01*
X98947000Y-49017000D01*
X98693000Y-49017000D01*
X98693000Y-48997000D01*
X98673000Y-48997000D01*
X98673000Y-48743000D01*
X98693000Y-48743000D01*
X98693000Y-47393750D01*
X98947000Y-47393750D01*
X98947000Y-48743000D01*
X100046250Y-48743000D01*
X100205000Y-48584250D01*
X100208072Y-47870000D01*
X100195812Y-47745518D01*
X100159502Y-47625820D01*
X100100537Y-47515506D01*
X100021185Y-47418815D01*
X99924494Y-47339463D01*
X99814180Y-47280498D01*
X99694482Y-47244188D01*
X99570000Y-47231928D01*
X99105750Y-47235000D01*
X98947000Y-47393750D01*
X98693000Y-47393750D01*
X98534250Y-47235000D01*
X98070000Y-47231928D01*
X97945518Y-47244188D01*
X97825820Y-47280498D01*
X97715506Y-47339463D01*
X97670000Y-47376809D01*
X97624494Y-47339463D01*
X97514180Y-47280498D01*
X97405000Y-47247379D01*
X97405000Y-44208072D01*
X98420000Y-44208072D01*
X98544482Y-44195812D01*
X98664180Y-44159502D01*
X98774494Y-44100537D01*
X98871185Y-44021185D01*
X98950537Y-43924494D01*
X99009502Y-43814180D01*
X99045812Y-43694482D01*
X99058072Y-43570000D01*
X99058072Y-41570000D01*
X99045812Y-41445518D01*
X99009502Y-41325820D01*
X98950537Y-41215506D01*
X98871185Y-41118815D01*
X98774494Y-41039463D01*
X98664180Y-40980498D01*
X98544482Y-40944188D01*
X98420000Y-40931928D01*
X97405000Y-40931928D01*
X97405000Y-37196578D01*
X97528506Y-37073072D01*
X98252500Y-37073072D01*
X98355066Y-37062970D01*
X98412361Y-37080350D01*
G36*
X114317744Y-63909205D02*
G01*
X114506102Y-63987226D01*
X114562957Y-63998535D01*
X116590001Y-66025580D01*
X116590000Y-71936182D01*
X116584465Y-71939880D01*
X116389880Y-72134465D01*
X116236995Y-72363273D01*
X116207308Y-72434943D01*
X116202636Y-72421977D01*
X116140656Y-72306020D01*
X115900565Y-72239040D01*
X115114605Y-73025000D01*
X115900565Y-73810960D01*
X116140656Y-73743980D01*
X116204485Y-73608240D01*
X116236995Y-73686727D01*
X116389880Y-73915535D01*
X116584465Y-74110120D01*
X116813273Y-74263005D01*
X117067510Y-74368314D01*
X117337408Y-74422000D01*
X117612592Y-74422000D01*
X117882490Y-74368314D01*
X118136727Y-74263005D01*
X118365535Y-74110120D01*
X118560120Y-73915535D01*
X118713005Y-73686727D01*
X118745000Y-73609485D01*
X118776995Y-73686727D01*
X118929880Y-73915535D01*
X119124465Y-74110120D01*
X119353273Y-74263005D01*
X119607510Y-74368314D01*
X119877408Y-74422000D01*
X120152592Y-74422000D01*
X120422490Y-74368314D01*
X120676727Y-74263005D01*
X120905535Y-74110120D01*
X121100120Y-73915535D01*
X121253005Y-73686727D01*
X121358314Y-73432490D01*
X121412000Y-73162592D01*
X121412000Y-72887408D01*
X121358314Y-72617510D01*
X121253005Y-72363273D01*
X121100120Y-72134465D01*
X120905535Y-71939880D01*
X120676727Y-71786995D01*
X120422490Y-71681686D01*
X120152592Y-71628000D01*
X119877408Y-71628000D01*
X119607510Y-71681686D01*
X119353273Y-71786995D01*
X119124465Y-71939880D01*
X118929880Y-72134465D01*
X118776995Y-72363273D01*
X118745000Y-72440515D01*
X118713005Y-72363273D01*
X118560120Y-72134465D01*
X118365535Y-71939880D01*
X118360000Y-71936182D01*
X118360000Y-65702469D01*
X118364281Y-65659000D01*
X118360000Y-65615531D01*
X118360000Y-65615523D01*
X118351485Y-65529063D01*
X124968000Y-72145579D01*
X124968000Y-91440000D01*
X124970440Y-91464776D01*
X124977667Y-91488601D01*
X124989403Y-91510557D01*
X125005197Y-91529803D01*
X125024443Y-91545597D01*
X125046399Y-91557333D01*
X125070224Y-91564560D01*
X125095000Y-91567000D01*
X128338198Y-91567000D01*
X122043998Y-97861201D01*
X122015000Y-97884999D01*
X121991202Y-97913997D01*
X121991201Y-97913998D01*
X121920026Y-98000724D01*
X121849454Y-98132754D01*
X121805998Y-98276015D01*
X121791324Y-98425000D01*
X121795001Y-98462332D01*
X121795000Y-100220192D01*
X121158059Y-100857133D01*
X121047616Y-100991709D01*
X120965549Y-101145245D01*
X120915013Y-101311841D01*
X120897949Y-101485095D01*
X120915013Y-101658349D01*
X120965549Y-101824945D01*
X121047616Y-101978481D01*
X121072002Y-102008196D01*
X112080199Y-111000000D01*
X108603564Y-111000000D01*
X108217565Y-110614002D01*
X108201441Y-110594354D01*
X108357490Y-110563314D01*
X108611727Y-110458005D01*
X108840535Y-110305120D01*
X109035120Y-110110535D01*
X109188005Y-109881727D01*
X109293314Y-109627490D01*
X109347000Y-109357592D01*
X109347000Y-109082408D01*
X109293314Y-108812510D01*
X109188005Y-108558273D01*
X109035120Y-108329465D01*
X108840535Y-108134880D01*
X108611727Y-107981995D01*
X108540057Y-107952308D01*
X108553023Y-107947636D01*
X108668980Y-107885656D01*
X108735960Y-107645565D01*
X107950000Y-106859605D01*
X107935858Y-106873748D01*
X107756253Y-106694143D01*
X107770395Y-106680000D01*
X108129605Y-106680000D01*
X108915565Y-107465960D01*
X109155656Y-107398980D01*
X109272756Y-107149952D01*
X109339023Y-106882865D01*
X109351910Y-106607983D01*
X109310922Y-106335867D01*
X109217636Y-106076977D01*
X109155656Y-105961020D01*
X108915565Y-105894040D01*
X108129605Y-106680000D01*
X107770395Y-106680000D01*
X106984435Y-105894040D01*
X106744344Y-105961020D01*
X106627244Y-106210048D01*
X106560977Y-106477135D01*
X106556397Y-106574819D01*
X103526534Y-103544956D01*
X103498817Y-103511183D01*
X103364059Y-103400589D01*
X103210313Y-103318411D01*
X103043490Y-103267805D01*
X102913477Y-103255000D01*
X102913469Y-103255000D01*
X102870000Y-103250719D01*
X102826531Y-103255000D01*
X99518776Y-103255000D01*
X99515008Y-103216746D01*
X99464472Y-103050150D01*
X99382405Y-102896614D01*
X99271962Y-102762038D01*
X99137386Y-102651595D01*
X98983850Y-102569528D01*
X98929000Y-102552890D01*
X98929000Y-101077578D01*
X100925049Y-99081530D01*
X100958817Y-99053817D01*
X101012177Y-98988799D01*
X101060690Y-98929685D01*
X101066662Y-98922408D01*
X106553000Y-98922408D01*
X106553000Y-99197592D01*
X106606686Y-99467490D01*
X106711995Y-99721727D01*
X106864880Y-99950535D01*
X107059465Y-100145120D01*
X107288273Y-100298005D01*
X107365515Y-100330000D01*
X107288273Y-100361995D01*
X107059465Y-100514880D01*
X106864880Y-100709465D01*
X106711995Y-100938273D01*
X106606686Y-101192510D01*
X106553000Y-101462408D01*
X106553000Y-101737592D01*
X106606686Y-102007490D01*
X106711995Y-102261727D01*
X106864880Y-102490535D01*
X107059465Y-102685120D01*
X107288273Y-102838005D01*
X107365515Y-102870000D01*
X107288273Y-102901995D01*
X107059465Y-103054880D01*
X106864880Y-103249465D01*
X106711995Y-103478273D01*
X106606686Y-103732510D01*
X106553000Y-104002408D01*
X106553000Y-104277592D01*
X106606686Y-104547490D01*
X106711995Y-104801727D01*
X106864880Y-105030535D01*
X107059465Y-105225120D01*
X107288273Y-105378005D01*
X107359943Y-105407692D01*
X107346977Y-105412364D01*
X107231020Y-105474344D01*
X107164040Y-105714435D01*
X107950000Y-106500395D01*
X108735960Y-105714435D01*
X108668980Y-105474344D01*
X108595672Y-105439872D01*
X110285000Y-105439872D01*
X110285000Y-105880128D01*
X110370890Y-106311925D01*
X110539369Y-106718669D01*
X110783962Y-107084729D01*
X111095271Y-107396038D01*
X111461331Y-107640631D01*
X111868075Y-107809110D01*
X112299872Y-107895000D01*
X112740128Y-107895000D01*
X113171925Y-107809110D01*
X113578669Y-107640631D01*
X113944729Y-107396038D01*
X114256038Y-107084729D01*
X114500631Y-106718669D01*
X114669110Y-106311925D01*
X114755000Y-105880128D01*
X114755000Y-105439872D01*
X114669110Y-105008075D01*
X114500631Y-104601331D01*
X114256038Y-104235271D01*
X113944729Y-103923962D01*
X113578669Y-103679369D01*
X113171925Y-103510890D01*
X112740128Y-103425000D01*
X112299872Y-103425000D01*
X111868075Y-103510890D01*
X111461331Y-103679369D01*
X111095271Y-103923962D01*
X110783962Y-104235271D01*
X110539369Y-104601331D01*
X110370890Y-105008075D01*
X110285000Y-105439872D01*
X108595672Y-105439872D01*
X108533240Y-105410515D01*
X108611727Y-105378005D01*
X108840535Y-105225120D01*
X109035120Y-105030535D01*
X109188005Y-104801727D01*
X109293314Y-104547490D01*
X109347000Y-104277592D01*
X109347000Y-104002408D01*
X109293314Y-103732510D01*
X109188005Y-103478273D01*
X109035120Y-103249465D01*
X108840535Y-103054880D01*
X108611727Y-102901995D01*
X108534485Y-102870000D01*
X108611727Y-102838005D01*
X108840535Y-102685120D01*
X109035120Y-102490535D01*
X109188005Y-102261727D01*
X109293314Y-102007490D01*
X109347000Y-101737592D01*
X109347000Y-101462408D01*
X109293314Y-101192510D01*
X109188005Y-100938273D01*
X109035120Y-100709465D01*
X108840535Y-100514880D01*
X108611727Y-100361995D01*
X108534485Y-100330000D01*
X108611727Y-100298005D01*
X108840535Y-100145120D01*
X109035120Y-99950535D01*
X109188005Y-99721727D01*
X109293314Y-99467490D01*
X109301859Y-99424531D01*
X112935074Y-99424531D01*
X113045921Y-99701714D01*
X113356840Y-99855089D01*
X113691705Y-99944860D01*
X114037650Y-99967576D01*
X114381380Y-99922366D01*
X114709685Y-99810966D01*
X114914079Y-99701714D01*
X115024926Y-99424531D01*
X118015074Y-99424531D01*
X118125921Y-99701714D01*
X118436840Y-99855089D01*
X118771705Y-99944860D01*
X119117650Y-99967576D01*
X119461380Y-99922366D01*
X119789685Y-99810966D01*
X119994079Y-99701714D01*
X120104926Y-99424531D01*
X119060000Y-98379605D01*
X118015074Y-99424531D01*
X115024926Y-99424531D01*
X113980000Y-98379605D01*
X112935074Y-99424531D01*
X109301859Y-99424531D01*
X109347000Y-99197592D01*
X109347000Y-98922408D01*
X109293314Y-98652510D01*
X109188005Y-98398273D01*
X109094044Y-98257650D01*
X112212424Y-98257650D01*
X112257634Y-98601380D01*
X112369034Y-98929685D01*
X112478286Y-99134079D01*
X112755469Y-99244926D01*
X113800395Y-98200000D01*
X114159605Y-98200000D01*
X115204531Y-99244926D01*
X115481714Y-99134079D01*
X115635089Y-98823160D01*
X115724860Y-98488295D01*
X115740004Y-98257650D01*
X117292424Y-98257650D01*
X117337634Y-98601380D01*
X117449034Y-98929685D01*
X117558286Y-99134079D01*
X117835469Y-99244926D01*
X118880395Y-98200000D01*
X119239605Y-98200000D01*
X120284531Y-99244926D01*
X120561714Y-99134079D01*
X120715089Y-98823160D01*
X120804860Y-98488295D01*
X120827576Y-98142350D01*
X120782366Y-97798620D01*
X120670966Y-97470315D01*
X120561714Y-97265921D01*
X120284531Y-97155074D01*
X119239605Y-98200000D01*
X118880395Y-98200000D01*
X117835469Y-97155074D01*
X117558286Y-97265921D01*
X117404911Y-97576840D01*
X117315140Y-97911705D01*
X117292424Y-98257650D01*
X115740004Y-98257650D01*
X115747576Y-98142350D01*
X115702366Y-97798620D01*
X115590966Y-97470315D01*
X115481714Y-97265921D01*
X115204531Y-97155074D01*
X114159605Y-98200000D01*
X113800395Y-98200000D01*
X112755469Y-97155074D01*
X112478286Y-97265921D01*
X112324911Y-97576840D01*
X112235140Y-97911705D01*
X112212424Y-98257650D01*
X109094044Y-98257650D01*
X109035120Y-98169465D01*
X108840535Y-97974880D01*
X108611727Y-97821995D01*
X108540057Y-97792308D01*
X108553023Y-97787636D01*
X108668980Y-97725656D01*
X108735960Y-97485565D01*
X107950000Y-96699605D01*
X107164040Y-97485565D01*
X107231020Y-97725656D01*
X107366760Y-97789485D01*
X107288273Y-97821995D01*
X107059465Y-97974880D01*
X106864880Y-98169465D01*
X106711995Y-98398273D01*
X106606686Y-98652510D01*
X106553000Y-98922408D01*
X101066662Y-98922408D01*
X101069411Y-98919059D01*
X101151589Y-98765313D01*
X101202195Y-98598490D01*
X101215000Y-98468477D01*
X101215000Y-98468467D01*
X101219281Y-98425001D01*
X101215000Y-98381535D01*
X101215000Y-96592017D01*
X106548090Y-96592017D01*
X106589078Y-96864133D01*
X106682364Y-97123023D01*
X106744344Y-97238980D01*
X106984435Y-97305960D01*
X107770395Y-96520000D01*
X108129605Y-96520000D01*
X108915565Y-97305960D01*
X109155656Y-97238980D01*
X109272756Y-96989952D01*
X109276349Y-96975469D01*
X112935074Y-96975469D01*
X113980000Y-98020395D01*
X115024926Y-96975469D01*
X114914079Y-96698286D01*
X114603160Y-96544911D01*
X114268295Y-96455140D01*
X113922350Y-96432424D01*
X113578620Y-96477634D01*
X113250315Y-96589034D01*
X113045921Y-96698286D01*
X112935074Y-96975469D01*
X109276349Y-96975469D01*
X109339023Y-96722865D01*
X109351910Y-96447983D01*
X109310922Y-96175867D01*
X109217636Y-95916977D01*
X109155656Y-95801020D01*
X108915565Y-95734040D01*
X108129605Y-96520000D01*
X107770395Y-96520000D01*
X106984435Y-95734040D01*
X106744344Y-95801020D01*
X106627244Y-96050048D01*
X106560977Y-96317135D01*
X106548090Y-96592017D01*
X101215000Y-96592017D01*
X101215000Y-87448818D01*
X101220535Y-87445120D01*
X101415120Y-87250535D01*
X101568005Y-87021727D01*
X101673314Y-86767490D01*
X101727000Y-86497592D01*
X101727000Y-86222408D01*
X101673314Y-85952510D01*
X101568005Y-85698273D01*
X101415120Y-85469465D01*
X101220535Y-85274880D01*
X100991727Y-85121995D01*
X100737490Y-85016686D01*
X100467592Y-84963000D01*
X100192408Y-84963000D01*
X100185878Y-84964299D01*
X94865000Y-79643422D01*
X94865000Y-73522408D01*
X106553000Y-73522408D01*
X106553000Y-73797592D01*
X106606686Y-74067490D01*
X106711995Y-74321727D01*
X106864880Y-74550535D01*
X107059465Y-74745120D01*
X107288273Y-74898005D01*
X107365515Y-74930000D01*
X107288273Y-74961995D01*
X107059465Y-75114880D01*
X106864880Y-75309465D01*
X106711995Y-75538273D01*
X106606686Y-75792510D01*
X106553000Y-76062408D01*
X106553000Y-76337592D01*
X106606686Y-76607490D01*
X106711995Y-76861727D01*
X106864880Y-77090535D01*
X107059465Y-77285120D01*
X107288273Y-77438005D01*
X107365515Y-77470000D01*
X107288273Y-77501995D01*
X107059465Y-77654880D01*
X106864880Y-77849465D01*
X106711995Y-78078273D01*
X106606686Y-78332510D01*
X106553000Y-78602408D01*
X106553000Y-78877592D01*
X106606686Y-79147490D01*
X106711995Y-79401727D01*
X106864880Y-79630535D01*
X107059465Y-79825120D01*
X107288273Y-79978005D01*
X107365515Y-80010000D01*
X107288273Y-80041995D01*
X107059465Y-80194880D01*
X106864880Y-80389465D01*
X106711995Y-80618273D01*
X106606686Y-80872510D01*
X106553000Y-81142408D01*
X106553000Y-81417592D01*
X106606686Y-81687490D01*
X106711995Y-81941727D01*
X106864880Y-82170535D01*
X107059465Y-82365120D01*
X107288273Y-82518005D01*
X107365515Y-82550000D01*
X107288273Y-82581995D01*
X107059465Y-82734880D01*
X106864880Y-82929465D01*
X106711995Y-83158273D01*
X106606686Y-83412510D01*
X106553000Y-83682408D01*
X106553000Y-83957592D01*
X106606686Y-84227490D01*
X106711995Y-84481727D01*
X106864880Y-84710535D01*
X107059465Y-84905120D01*
X107288273Y-85058005D01*
X107365515Y-85090000D01*
X107288273Y-85121995D01*
X107059465Y-85274880D01*
X106864880Y-85469465D01*
X106711995Y-85698273D01*
X106606686Y-85952510D01*
X106553000Y-86222408D01*
X106553000Y-86497592D01*
X106606686Y-86767490D01*
X106711995Y-87021727D01*
X106864880Y-87250535D01*
X107059465Y-87445120D01*
X107288273Y-87598005D01*
X107365515Y-87630000D01*
X107288273Y-87661995D01*
X107059465Y-87814880D01*
X106864880Y-88009465D01*
X106711995Y-88238273D01*
X106606686Y-88492510D01*
X106553000Y-88762408D01*
X106553000Y-89037592D01*
X106606686Y-89307490D01*
X106711995Y-89561727D01*
X106864880Y-89790535D01*
X107059465Y-89985120D01*
X107288273Y-90138005D01*
X107365515Y-90170000D01*
X107288273Y-90201995D01*
X107059465Y-90354880D01*
X106864880Y-90549465D01*
X106711995Y-90778273D01*
X106606686Y-91032510D01*
X106553000Y-91302408D01*
X106553000Y-91577592D01*
X106606686Y-91847490D01*
X106711995Y-92101727D01*
X106864880Y-92330535D01*
X107059465Y-92525120D01*
X107288273Y-92678005D01*
X107365515Y-92710000D01*
X107288273Y-92741995D01*
X107059465Y-92894880D01*
X106864880Y-93089465D01*
X106711995Y-93318273D01*
X106606686Y-93572510D01*
X106553000Y-93842408D01*
X106553000Y-94117592D01*
X106606686Y-94387490D01*
X106711995Y-94641727D01*
X106864880Y-94870535D01*
X107059465Y-95065120D01*
X107288273Y-95218005D01*
X107359943Y-95247692D01*
X107346977Y-95252364D01*
X107231020Y-95314344D01*
X107164040Y-95554435D01*
X107950000Y-96340395D01*
X108735960Y-95554435D01*
X108719799Y-95496504D01*
X114860000Y-95496504D01*
X114860000Y-95823496D01*
X114923793Y-96144204D01*
X115048927Y-96446305D01*
X115230594Y-96718188D01*
X115461812Y-96949406D01*
X115733695Y-97131073D01*
X116035796Y-97256207D01*
X116356504Y-97320000D01*
X116683496Y-97320000D01*
X117004204Y-97256207D01*
X117306305Y-97131073D01*
X117539182Y-96975469D01*
X118015074Y-96975469D01*
X119060000Y-98020395D01*
X120104926Y-96975469D01*
X119994079Y-96698286D01*
X119683160Y-96544911D01*
X119348295Y-96455140D01*
X119002350Y-96432424D01*
X118658620Y-96477634D01*
X118330315Y-96589034D01*
X118125921Y-96698286D01*
X118015074Y-96975469D01*
X117539182Y-96975469D01*
X117578188Y-96949406D01*
X117809406Y-96718188D01*
X117991073Y-96446305D01*
X118116207Y-96144204D01*
X118180000Y-95823496D01*
X118180000Y-95496504D01*
X118116207Y-95175796D01*
X117991073Y-94873695D01*
X117809406Y-94601812D01*
X117578188Y-94370594D01*
X117539183Y-94344531D01*
X118015074Y-94344531D01*
X118125921Y-94621714D01*
X118436840Y-94775089D01*
X118771705Y-94864860D01*
X119117650Y-94887576D01*
X119461380Y-94842366D01*
X119789685Y-94730966D01*
X119994079Y-94621714D01*
X120104926Y-94344531D01*
X119060000Y-93299605D01*
X118015074Y-94344531D01*
X117539183Y-94344531D01*
X117306305Y-94188927D01*
X117280000Y-94178031D01*
X117280000Y-93177650D01*
X117292424Y-93177650D01*
X117337634Y-93521380D01*
X117449034Y-93849685D01*
X117558286Y-94054079D01*
X117835469Y-94164926D01*
X118880395Y-93120000D01*
X119239605Y-93120000D01*
X120284531Y-94164926D01*
X120561714Y-94054079D01*
X120715089Y-93743160D01*
X120804860Y-93408295D01*
X120827576Y-93062350D01*
X120782366Y-92718620D01*
X120670966Y-92390315D01*
X120561714Y-92185921D01*
X120284531Y-92075074D01*
X119239605Y-93120000D01*
X118880395Y-93120000D01*
X117835469Y-92075074D01*
X117558286Y-92185921D01*
X117404911Y-92496840D01*
X117315140Y-92831705D01*
X117292424Y-93177650D01*
X117280000Y-93177650D01*
X117280000Y-91895469D01*
X118015074Y-91895469D01*
X119060000Y-92940395D01*
X120104926Y-91895469D01*
X119994079Y-91618286D01*
X119683160Y-91464911D01*
X119348295Y-91375140D01*
X119002350Y-91352424D01*
X118658620Y-91397634D01*
X118330315Y-91509034D01*
X118125921Y-91618286D01*
X118015074Y-91895469D01*
X117280000Y-91895469D01*
X117280000Y-91820801D01*
X121882431Y-87218372D01*
X122036408Y-87249000D01*
X122311592Y-87249000D01*
X122581490Y-87195314D01*
X122835727Y-87090005D01*
X123064535Y-86937120D01*
X123259120Y-86742535D01*
X123412005Y-86513727D01*
X123517314Y-86259490D01*
X123571000Y-85989592D01*
X123571000Y-85714408D01*
X123517314Y-85444510D01*
X123412005Y-85190273D01*
X123259120Y-84961465D01*
X123064535Y-84766880D01*
X122835727Y-84613995D01*
X122581490Y-84508686D01*
X122311592Y-84455000D01*
X122036408Y-84455000D01*
X121766510Y-84508686D01*
X121512273Y-84613995D01*
X121283465Y-84766880D01*
X121088880Y-84961465D01*
X120935995Y-85190273D01*
X120830686Y-85444510D01*
X120777000Y-85714408D01*
X120777000Y-85989592D01*
X120807628Y-86143569D01*
X116008998Y-90942201D01*
X115980000Y-90965999D01*
X115956202Y-90994997D01*
X115956201Y-90994998D01*
X115885026Y-91081724D01*
X115814454Y-91213754D01*
X115791242Y-91290276D01*
X115770998Y-91357014D01*
X115760384Y-91464776D01*
X115756324Y-91506000D01*
X115760001Y-91543332D01*
X115760000Y-94178031D01*
X115733695Y-94188927D01*
X115461812Y-94370594D01*
X115230594Y-94601812D01*
X115048927Y-94873695D01*
X114923793Y-95175796D01*
X114860000Y-95496504D01*
X108719799Y-95496504D01*
X108668980Y-95314344D01*
X108533240Y-95250515D01*
X108611727Y-95218005D01*
X108840535Y-95065120D01*
X109035120Y-94870535D01*
X109188005Y-94641727D01*
X109293314Y-94387490D01*
X109301859Y-94344531D01*
X112935074Y-94344531D01*
X113045921Y-94621714D01*
X113356840Y-94775089D01*
X113691705Y-94864860D01*
X114037650Y-94887576D01*
X114381380Y-94842366D01*
X114709685Y-94730966D01*
X114914079Y-94621714D01*
X115024926Y-94344531D01*
X113980000Y-93299605D01*
X112935074Y-94344531D01*
X109301859Y-94344531D01*
X109347000Y-94117592D01*
X109347000Y-93842408D01*
X109293314Y-93572510D01*
X109188005Y-93318273D01*
X109094044Y-93177650D01*
X112212424Y-93177650D01*
X112257634Y-93521380D01*
X112369034Y-93849685D01*
X112478286Y-94054079D01*
X112755469Y-94164926D01*
X113800395Y-93120000D01*
X114159605Y-93120000D01*
X115204531Y-94164926D01*
X115481714Y-94054079D01*
X115635089Y-93743160D01*
X115724860Y-93408295D01*
X115747576Y-93062350D01*
X115702366Y-92718620D01*
X115590966Y-92390315D01*
X115481714Y-92185921D01*
X115204531Y-92075074D01*
X114159605Y-93120000D01*
X113800395Y-93120000D01*
X112755469Y-92075074D01*
X112478286Y-92185921D01*
X112324911Y-92496840D01*
X112235140Y-92831705D01*
X112212424Y-93177650D01*
X109094044Y-93177650D01*
X109035120Y-93089465D01*
X108840535Y-92894880D01*
X108611727Y-92741995D01*
X108534485Y-92710000D01*
X108611727Y-92678005D01*
X108840535Y-92525120D01*
X109035120Y-92330535D01*
X109188005Y-92101727D01*
X109273440Y-91895469D01*
X112935074Y-91895469D01*
X113980000Y-92940395D01*
X115024926Y-91895469D01*
X114914079Y-91618286D01*
X114603160Y-91464911D01*
X114268295Y-91375140D01*
X113922350Y-91352424D01*
X113578620Y-91397634D01*
X113250315Y-91509034D01*
X113045921Y-91618286D01*
X112935074Y-91895469D01*
X109273440Y-91895469D01*
X109293314Y-91847490D01*
X109347000Y-91577592D01*
X109347000Y-91302408D01*
X109293314Y-91032510D01*
X109188005Y-90778273D01*
X109035120Y-90549465D01*
X108840535Y-90354880D01*
X108611727Y-90201995D01*
X108534485Y-90170000D01*
X108611727Y-90138005D01*
X108840535Y-89985120D01*
X109035120Y-89790535D01*
X109188005Y-89561727D01*
X109293314Y-89307490D01*
X109347000Y-89037592D01*
X109347000Y-88762408D01*
X109293314Y-88492510D01*
X109188005Y-88238273D01*
X109035120Y-88009465D01*
X108840535Y-87814880D01*
X108611727Y-87661995D01*
X108534485Y-87630000D01*
X108611727Y-87598005D01*
X108840535Y-87445120D01*
X109035120Y-87250535D01*
X109188005Y-87021727D01*
X109293314Y-86767490D01*
X109347000Y-86497592D01*
X109347000Y-86222408D01*
X109293314Y-85952510D01*
X109188005Y-85698273D01*
X109035120Y-85469465D01*
X108840535Y-85274880D01*
X108611727Y-85121995D01*
X108534485Y-85090000D01*
X108611727Y-85058005D01*
X108840535Y-84905120D01*
X109035120Y-84710535D01*
X109188005Y-84481727D01*
X109293314Y-84227490D01*
X109347000Y-83957592D01*
X109347000Y-83682408D01*
X109293314Y-83412510D01*
X109188005Y-83158273D01*
X109035120Y-82929465D01*
X108840535Y-82734880D01*
X108611727Y-82581995D01*
X108534485Y-82550000D01*
X108611727Y-82518005D01*
X108840535Y-82365120D01*
X109035120Y-82170535D01*
X109188005Y-81941727D01*
X109293314Y-81687490D01*
X109347000Y-81417592D01*
X109347000Y-81142408D01*
X109293314Y-80872510D01*
X109188005Y-80618273D01*
X109035120Y-80389465D01*
X108840535Y-80194880D01*
X108611727Y-80041995D01*
X108534485Y-80010000D01*
X108611727Y-79978005D01*
X108840535Y-79825120D01*
X109035120Y-79630535D01*
X109188005Y-79401727D01*
X109293314Y-79147490D01*
X109347000Y-78877592D01*
X109347000Y-78602408D01*
X109293314Y-78332510D01*
X109188005Y-78078273D01*
X109035120Y-77849465D01*
X108840535Y-77654880D01*
X108611727Y-77501995D01*
X108534485Y-77470000D01*
X108611727Y-77438005D01*
X108840535Y-77285120D01*
X109035120Y-77090535D01*
X109188005Y-76861727D01*
X109293314Y-76607490D01*
X109347000Y-76337592D01*
X109347000Y-76062408D01*
X109293314Y-75792510D01*
X109188005Y-75538273D01*
X109035120Y-75309465D01*
X108840535Y-75114880D01*
X108611727Y-74961995D01*
X108534485Y-74930000D01*
X108611727Y-74898005D01*
X108840535Y-74745120D01*
X109035120Y-74550535D01*
X109188005Y-74321727D01*
X109293314Y-74067490D01*
X109308615Y-73990565D01*
X114149040Y-73990565D01*
X114216020Y-74230656D01*
X114465048Y-74347756D01*
X114732135Y-74414023D01*
X115007017Y-74426910D01*
X115279133Y-74385922D01*
X115538023Y-74292636D01*
X115653980Y-74230656D01*
X115720960Y-73990565D01*
X114935000Y-73204605D01*
X114149040Y-73990565D01*
X109308615Y-73990565D01*
X109347000Y-73797592D01*
X109347000Y-73522408D01*
X109293314Y-73252510D01*
X109228907Y-73097017D01*
X113533090Y-73097017D01*
X113574078Y-73369133D01*
X113667364Y-73628023D01*
X113729344Y-73743980D01*
X113969435Y-73810960D01*
X114755395Y-73025000D01*
X113969435Y-72239040D01*
X113729344Y-72306020D01*
X113612244Y-72555048D01*
X113545977Y-72822135D01*
X113533090Y-73097017D01*
X109228907Y-73097017D01*
X109188005Y-72998273D01*
X109035120Y-72769465D01*
X108840535Y-72574880D01*
X108611727Y-72421995D01*
X108357490Y-72316686D01*
X108087592Y-72263000D01*
X107812408Y-72263000D01*
X107542510Y-72316686D01*
X107288273Y-72421995D01*
X107059465Y-72574880D01*
X106864880Y-72769465D01*
X106711995Y-72998273D01*
X106606686Y-73252510D01*
X106553000Y-73522408D01*
X94865000Y-73522408D01*
X94865000Y-72059435D01*
X114149040Y-72059435D01*
X114935000Y-72845395D01*
X115720960Y-72059435D01*
X115653980Y-71819344D01*
X115404952Y-71702244D01*
X115137865Y-71635977D01*
X114862983Y-71623090D01*
X114590867Y-71664078D01*
X114331977Y-71757364D01*
X114216020Y-71819344D01*
X114149040Y-72059435D01*
X94865000Y-72059435D01*
X94865000Y-69668818D01*
X94870535Y-69665120D01*
X95065120Y-69470535D01*
X95218005Y-69241727D01*
X95250000Y-69164485D01*
X95281995Y-69241727D01*
X95434880Y-69470535D01*
X95629465Y-69665120D01*
X95858273Y-69818005D01*
X96112510Y-69923314D01*
X96382408Y-69977000D01*
X96657592Y-69977000D01*
X96927490Y-69923314D01*
X97181727Y-69818005D01*
X97410535Y-69665120D01*
X97530090Y-69545565D01*
X98274040Y-69545565D01*
X98341020Y-69785656D01*
X98590048Y-69902756D01*
X98857135Y-69969023D01*
X99132017Y-69981910D01*
X99404133Y-69940922D01*
X99663023Y-69847636D01*
X99778980Y-69785656D01*
X99845960Y-69545565D01*
X99060000Y-68759605D01*
X98274040Y-69545565D01*
X97530090Y-69545565D01*
X97605120Y-69470535D01*
X97758005Y-69241727D01*
X97787692Y-69170057D01*
X97792364Y-69183023D01*
X97854344Y-69298980D01*
X98094435Y-69365960D01*
X98880395Y-68580000D01*
X99239605Y-68580000D01*
X100025565Y-69365960D01*
X100265656Y-69298980D01*
X100382756Y-69049952D01*
X100449023Y-68782865D01*
X100461910Y-68507983D01*
X100420922Y-68235867D01*
X100327636Y-67976977D01*
X100265656Y-67861020D01*
X100025565Y-67794040D01*
X99239605Y-68580000D01*
X98880395Y-68580000D01*
X98094435Y-67794040D01*
X97854344Y-67861020D01*
X97790515Y-67996760D01*
X97758005Y-67918273D01*
X97605120Y-67689465D01*
X97530090Y-67614435D01*
X98274040Y-67614435D01*
X99060000Y-68400395D01*
X99845960Y-67614435D01*
X99778980Y-67374344D01*
X99529952Y-67257244D01*
X99262865Y-67190977D01*
X98987983Y-67178090D01*
X98715867Y-67219078D01*
X98456977Y-67312364D01*
X98341020Y-67374344D01*
X98274040Y-67614435D01*
X97530090Y-67614435D01*
X97410535Y-67494880D01*
X97181727Y-67341995D01*
X96927490Y-67236686D01*
X96657592Y-67183000D01*
X96628578Y-67183000D01*
X99934579Y-63877000D01*
X114269546Y-63877000D01*
X114317744Y-63909205D01*
X114317744Y-63909205D01*
G37*
X114317744Y-63909205D02*
X114506102Y-63987226D01*
X114562957Y-63998535D01*
X116590001Y-66025580D01*
X116590000Y-71936182D01*
X116584465Y-71939880D01*
X116389880Y-72134465D01*
X116236995Y-72363273D01*
X116207308Y-72434943D01*
X116202636Y-72421977D01*
X116140656Y-72306020D01*
X115900565Y-72239040D01*
X115114605Y-73025000D01*
X115900565Y-73810960D01*
X116140656Y-73743980D01*
X116204485Y-73608240D01*
X116236995Y-73686727D01*
X116389880Y-73915535D01*
X116584465Y-74110120D01*
X116813273Y-74263005D01*
X117067510Y-74368314D01*
X117337408Y-74422000D01*
X117612592Y-74422000D01*
X117882490Y-74368314D01*
X118136727Y-74263005D01*
X118365535Y-74110120D01*
X118560120Y-73915535D01*
X118713005Y-73686727D01*
X118745000Y-73609485D01*
X118776995Y-73686727D01*
X118929880Y-73915535D01*
X119124465Y-74110120D01*
X119353273Y-74263005D01*
X119607510Y-74368314D01*
X119877408Y-74422000D01*
X120152592Y-74422000D01*
X120422490Y-74368314D01*
X120676727Y-74263005D01*
X120905535Y-74110120D01*
X121100120Y-73915535D01*
X121253005Y-73686727D01*
X121358314Y-73432490D01*
X121412000Y-73162592D01*
X121412000Y-72887408D01*
X121358314Y-72617510D01*
X121253005Y-72363273D01*
X121100120Y-72134465D01*
X120905535Y-71939880D01*
X120676727Y-71786995D01*
X120422490Y-71681686D01*
X120152592Y-71628000D01*
X119877408Y-71628000D01*
X119607510Y-71681686D01*
X119353273Y-71786995D01*
X119124465Y-71939880D01*
X118929880Y-72134465D01*
X118776995Y-72363273D01*
X118745000Y-72440515D01*
X118713005Y-72363273D01*
X118560120Y-72134465D01*
X118365535Y-71939880D01*
X118360000Y-71936182D01*
X118360000Y-65702469D01*
X118364281Y-65659000D01*
X118360000Y-65615531D01*
X118360000Y-65615523D01*
X118351485Y-65529063D01*
X124968000Y-72145579D01*
X124968000Y-91440000D01*
X124970440Y-91464776D01*
X124977667Y-91488601D01*
X124989403Y-91510557D01*
X125005197Y-91529803D01*
X125024443Y-91545597D01*
X125046399Y-91557333D01*
X125070224Y-91564560D01*
X125095000Y-91567000D01*
X128338198Y-91567000D01*
X122043998Y-97861201D01*
X122015000Y-97884999D01*
X121991202Y-97913997D01*
X121991201Y-97913998D01*
X121920026Y-98000724D01*
X121849454Y-98132754D01*
X121805998Y-98276015D01*
X121791324Y-98425000D01*
X121795001Y-98462332D01*
X121795000Y-100220192D01*
X121158059Y-100857133D01*
X121047616Y-100991709D01*
X120965549Y-101145245D01*
X120915013Y-101311841D01*
X120897949Y-101485095D01*
X120915013Y-101658349D01*
X120965549Y-101824945D01*
X121047616Y-101978481D01*
X121072002Y-102008196D01*
X112080199Y-111000000D01*
X108603564Y-111000000D01*
X108217565Y-110614002D01*
X108201441Y-110594354D01*
X108357490Y-110563314D01*
X108611727Y-110458005D01*
X108840535Y-110305120D01*
X109035120Y-110110535D01*
X109188005Y-109881727D01*
X109293314Y-109627490D01*
X109347000Y-109357592D01*
X109347000Y-109082408D01*
X109293314Y-108812510D01*
X109188005Y-108558273D01*
X109035120Y-108329465D01*
X108840535Y-108134880D01*
X108611727Y-107981995D01*
X108540057Y-107952308D01*
X108553023Y-107947636D01*
X108668980Y-107885656D01*
X108735960Y-107645565D01*
X107950000Y-106859605D01*
X107935858Y-106873748D01*
X107756253Y-106694143D01*
X107770395Y-106680000D01*
X108129605Y-106680000D01*
X108915565Y-107465960D01*
X109155656Y-107398980D01*
X109272756Y-107149952D01*
X109339023Y-106882865D01*
X109351910Y-106607983D01*
X109310922Y-106335867D01*
X109217636Y-106076977D01*
X109155656Y-105961020D01*
X108915565Y-105894040D01*
X108129605Y-106680000D01*
X107770395Y-106680000D01*
X106984435Y-105894040D01*
X106744344Y-105961020D01*
X106627244Y-106210048D01*
X106560977Y-106477135D01*
X106556397Y-106574819D01*
X103526534Y-103544956D01*
X103498817Y-103511183D01*
X103364059Y-103400589D01*
X103210313Y-103318411D01*
X103043490Y-103267805D01*
X102913477Y-103255000D01*
X102913469Y-103255000D01*
X102870000Y-103250719D01*
X102826531Y-103255000D01*
X99518776Y-103255000D01*
X99515008Y-103216746D01*
X99464472Y-103050150D01*
X99382405Y-102896614D01*
X99271962Y-102762038D01*
X99137386Y-102651595D01*
X98983850Y-102569528D01*
X98929000Y-102552890D01*
X98929000Y-101077578D01*
X100925049Y-99081530D01*
X100958817Y-99053817D01*
X101012177Y-98988799D01*
X101060690Y-98929685D01*
X101066662Y-98922408D01*
X106553000Y-98922408D01*
X106553000Y-99197592D01*
X106606686Y-99467490D01*
X106711995Y-99721727D01*
X106864880Y-99950535D01*
X107059465Y-100145120D01*
X107288273Y-100298005D01*
X107365515Y-100330000D01*
X107288273Y-100361995D01*
X107059465Y-100514880D01*
X106864880Y-100709465D01*
X106711995Y-100938273D01*
X106606686Y-101192510D01*
X106553000Y-101462408D01*
X106553000Y-101737592D01*
X106606686Y-102007490D01*
X106711995Y-102261727D01*
X106864880Y-102490535D01*
X107059465Y-102685120D01*
X107288273Y-102838005D01*
X107365515Y-102870000D01*
X107288273Y-102901995D01*
X107059465Y-103054880D01*
X106864880Y-103249465D01*
X106711995Y-103478273D01*
X106606686Y-103732510D01*
X106553000Y-104002408D01*
X106553000Y-104277592D01*
X106606686Y-104547490D01*
X106711995Y-104801727D01*
X106864880Y-105030535D01*
X107059465Y-105225120D01*
X107288273Y-105378005D01*
X107359943Y-105407692D01*
X107346977Y-105412364D01*
X107231020Y-105474344D01*
X107164040Y-105714435D01*
X107950000Y-106500395D01*
X108735960Y-105714435D01*
X108668980Y-105474344D01*
X108595672Y-105439872D01*
X110285000Y-105439872D01*
X110285000Y-105880128D01*
X110370890Y-106311925D01*
X110539369Y-106718669D01*
X110783962Y-107084729D01*
X111095271Y-107396038D01*
X111461331Y-107640631D01*
X111868075Y-107809110D01*
X112299872Y-107895000D01*
X112740128Y-107895000D01*
X113171925Y-107809110D01*
X113578669Y-107640631D01*
X113944729Y-107396038D01*
X114256038Y-107084729D01*
X114500631Y-106718669D01*
X114669110Y-106311925D01*
X114755000Y-105880128D01*
X114755000Y-105439872D01*
X114669110Y-105008075D01*
X114500631Y-104601331D01*
X114256038Y-104235271D01*
X113944729Y-103923962D01*
X113578669Y-103679369D01*
X113171925Y-103510890D01*
X112740128Y-103425000D01*
X112299872Y-103425000D01*
X111868075Y-103510890D01*
X111461331Y-103679369D01*
X111095271Y-103923962D01*
X110783962Y-104235271D01*
X110539369Y-104601331D01*
X110370890Y-105008075D01*
X110285000Y-105439872D01*
X108595672Y-105439872D01*
X108533240Y-105410515D01*
X108611727Y-105378005D01*
X108840535Y-105225120D01*
X109035120Y-105030535D01*
X109188005Y-104801727D01*
X109293314Y-104547490D01*
X109347000Y-104277592D01*
X109347000Y-104002408D01*
X109293314Y-103732510D01*
X109188005Y-103478273D01*
X109035120Y-103249465D01*
X108840535Y-103054880D01*
X108611727Y-102901995D01*
X108534485Y-102870000D01*
X108611727Y-102838005D01*
X108840535Y-102685120D01*
X109035120Y-102490535D01*
X109188005Y-102261727D01*
X109293314Y-102007490D01*
X109347000Y-101737592D01*
X109347000Y-101462408D01*
X109293314Y-101192510D01*
X109188005Y-100938273D01*
X109035120Y-100709465D01*
X108840535Y-100514880D01*
X108611727Y-100361995D01*
X108534485Y-100330000D01*
X108611727Y-100298005D01*
X108840535Y-100145120D01*
X109035120Y-99950535D01*
X109188005Y-99721727D01*
X109293314Y-99467490D01*
X109301859Y-99424531D01*
X112935074Y-99424531D01*
X113045921Y-99701714D01*
X113356840Y-99855089D01*
X113691705Y-99944860D01*
X114037650Y-99967576D01*
X114381380Y-99922366D01*
X114709685Y-99810966D01*
X114914079Y-99701714D01*
X115024926Y-99424531D01*
X118015074Y-99424531D01*
X118125921Y-99701714D01*
X118436840Y-99855089D01*
X118771705Y-99944860D01*
X119117650Y-99967576D01*
X119461380Y-99922366D01*
X119789685Y-99810966D01*
X119994079Y-99701714D01*
X120104926Y-99424531D01*
X119060000Y-98379605D01*
X118015074Y-99424531D01*
X115024926Y-99424531D01*
X113980000Y-98379605D01*
X112935074Y-99424531D01*
X109301859Y-99424531D01*
X109347000Y-99197592D01*
X109347000Y-98922408D01*
X109293314Y-98652510D01*
X109188005Y-98398273D01*
X109094044Y-98257650D01*
X112212424Y-98257650D01*
X112257634Y-98601380D01*
X112369034Y-98929685D01*
X112478286Y-99134079D01*
X112755469Y-99244926D01*
X113800395Y-98200000D01*
X114159605Y-98200000D01*
X115204531Y-99244926D01*
X115481714Y-99134079D01*
X115635089Y-98823160D01*
X115724860Y-98488295D01*
X115740004Y-98257650D01*
X117292424Y-98257650D01*
X117337634Y-98601380D01*
X117449034Y-98929685D01*
X117558286Y-99134079D01*
X117835469Y-99244926D01*
X118880395Y-98200000D01*
X119239605Y-98200000D01*
X120284531Y-99244926D01*
X120561714Y-99134079D01*
X120715089Y-98823160D01*
X120804860Y-98488295D01*
X120827576Y-98142350D01*
X120782366Y-97798620D01*
X120670966Y-97470315D01*
X120561714Y-97265921D01*
X120284531Y-97155074D01*
X119239605Y-98200000D01*
X118880395Y-98200000D01*
X117835469Y-97155074D01*
X117558286Y-97265921D01*
X117404911Y-97576840D01*
X117315140Y-97911705D01*
X117292424Y-98257650D01*
X115740004Y-98257650D01*
X115747576Y-98142350D01*
X115702366Y-97798620D01*
X115590966Y-97470315D01*
X115481714Y-97265921D01*
X115204531Y-97155074D01*
X114159605Y-98200000D01*
X113800395Y-98200000D01*
X112755469Y-97155074D01*
X112478286Y-97265921D01*
X112324911Y-97576840D01*
X112235140Y-97911705D01*
X112212424Y-98257650D01*
X109094044Y-98257650D01*
X109035120Y-98169465D01*
X108840535Y-97974880D01*
X108611727Y-97821995D01*
X108540057Y-97792308D01*
X108553023Y-97787636D01*
X108668980Y-97725656D01*
X108735960Y-97485565D01*
X107950000Y-96699605D01*
X107164040Y-97485565D01*
X107231020Y-97725656D01*
X107366760Y-97789485D01*
X107288273Y-97821995D01*
X107059465Y-97974880D01*
X106864880Y-98169465D01*
X106711995Y-98398273D01*
X106606686Y-98652510D01*
X106553000Y-98922408D01*
X101066662Y-98922408D01*
X101069411Y-98919059D01*
X101151589Y-98765313D01*
X101202195Y-98598490D01*
X101215000Y-98468477D01*
X101215000Y-98468467D01*
X101219281Y-98425001D01*
X101215000Y-98381535D01*
X101215000Y-96592017D01*
X106548090Y-96592017D01*
X106589078Y-96864133D01*
X106682364Y-97123023D01*
X106744344Y-97238980D01*
X106984435Y-97305960D01*
X107770395Y-96520000D01*
X108129605Y-96520000D01*
X108915565Y-97305960D01*
X109155656Y-97238980D01*
X109272756Y-96989952D01*
X109276349Y-96975469D01*
X112935074Y-96975469D01*
X113980000Y-98020395D01*
X115024926Y-96975469D01*
X114914079Y-96698286D01*
X114603160Y-96544911D01*
X114268295Y-96455140D01*
X113922350Y-96432424D01*
X113578620Y-96477634D01*
X113250315Y-96589034D01*
X113045921Y-96698286D01*
X112935074Y-96975469D01*
X109276349Y-96975469D01*
X109339023Y-96722865D01*
X109351910Y-96447983D01*
X109310922Y-96175867D01*
X109217636Y-95916977D01*
X109155656Y-95801020D01*
X108915565Y-95734040D01*
X108129605Y-96520000D01*
X107770395Y-96520000D01*
X106984435Y-95734040D01*
X106744344Y-95801020D01*
X106627244Y-96050048D01*
X106560977Y-96317135D01*
X106548090Y-96592017D01*
X101215000Y-96592017D01*
X101215000Y-87448818D01*
X101220535Y-87445120D01*
X101415120Y-87250535D01*
X101568005Y-87021727D01*
X101673314Y-86767490D01*
X101727000Y-86497592D01*
X101727000Y-86222408D01*
X101673314Y-85952510D01*
X101568005Y-85698273D01*
X101415120Y-85469465D01*
X101220535Y-85274880D01*
X100991727Y-85121995D01*
X100737490Y-85016686D01*
X100467592Y-84963000D01*
X100192408Y-84963000D01*
X100185878Y-84964299D01*
X94865000Y-79643422D01*
X94865000Y-73522408D01*
X106553000Y-73522408D01*
X106553000Y-73797592D01*
X106606686Y-74067490D01*
X106711995Y-74321727D01*
X106864880Y-74550535D01*
X107059465Y-74745120D01*
X107288273Y-74898005D01*
X107365515Y-74930000D01*
X107288273Y-74961995D01*
X107059465Y-75114880D01*
X106864880Y-75309465D01*
X106711995Y-75538273D01*
X106606686Y-75792510D01*
X106553000Y-76062408D01*
X106553000Y-76337592D01*
X106606686Y-76607490D01*
X106711995Y-76861727D01*
X106864880Y-77090535D01*
X107059465Y-77285120D01*
X107288273Y-77438005D01*
X107365515Y-77470000D01*
X107288273Y-77501995D01*
X107059465Y-77654880D01*
X106864880Y-77849465D01*
X106711995Y-78078273D01*
X106606686Y-78332510D01*
X106553000Y-78602408D01*
X106553000Y-78877592D01*
X106606686Y-79147490D01*
X106711995Y-79401727D01*
X106864880Y-79630535D01*
X107059465Y-79825120D01*
X107288273Y-79978005D01*
X107365515Y-80010000D01*
X107288273Y-80041995D01*
X107059465Y-80194880D01*
X106864880Y-80389465D01*
X106711995Y-80618273D01*
X106606686Y-80872510D01*
X106553000Y-81142408D01*
X106553000Y-81417592D01*
X106606686Y-81687490D01*
X106711995Y-81941727D01*
X106864880Y-82170535D01*
X107059465Y-82365120D01*
X107288273Y-82518005D01*
X107365515Y-82550000D01*
X107288273Y-82581995D01*
X107059465Y-82734880D01*
X106864880Y-82929465D01*
X106711995Y-83158273D01*
X106606686Y-83412510D01*
X106553000Y-83682408D01*
X106553000Y-83957592D01*
X106606686Y-84227490D01*
X106711995Y-84481727D01*
X106864880Y-84710535D01*
X107059465Y-84905120D01*
X107288273Y-85058005D01*
X107365515Y-85090000D01*
X107288273Y-85121995D01*
X107059465Y-85274880D01*
X106864880Y-85469465D01*
X106711995Y-85698273D01*
X106606686Y-85952510D01*
X106553000Y-86222408D01*
X106553000Y-86497592D01*
X106606686Y-86767490D01*
X106711995Y-87021727D01*
X106864880Y-87250535D01*
X107059465Y-87445120D01*
X107288273Y-87598005D01*
X107365515Y-87630000D01*
X107288273Y-87661995D01*
X107059465Y-87814880D01*
X106864880Y-88009465D01*
X106711995Y-88238273D01*
X106606686Y-88492510D01*
X106553000Y-88762408D01*
X106553000Y-89037592D01*
X106606686Y-89307490D01*
X106711995Y-89561727D01*
X106864880Y-89790535D01*
X107059465Y-89985120D01*
X107288273Y-90138005D01*
X107365515Y-90170000D01*
X107288273Y-90201995D01*
X107059465Y-90354880D01*
X106864880Y-90549465D01*
X106711995Y-90778273D01*
X106606686Y-91032510D01*
X106553000Y-91302408D01*
X106553000Y-91577592D01*
X106606686Y-91847490D01*
X106711995Y-92101727D01*
X106864880Y-92330535D01*
X107059465Y-92525120D01*
X107288273Y-92678005D01*
X107365515Y-92710000D01*
X107288273Y-92741995D01*
X107059465Y-92894880D01*
X106864880Y-93089465D01*
X106711995Y-93318273D01*
X106606686Y-93572510D01*
X106553000Y-93842408D01*
X106553000Y-94117592D01*
X106606686Y-94387490D01*
X106711995Y-94641727D01*
X106864880Y-94870535D01*
X107059465Y-95065120D01*
X107288273Y-95218005D01*
X107359943Y-95247692D01*
X107346977Y-95252364D01*
X107231020Y-95314344D01*
X107164040Y-95554435D01*
X107950000Y-96340395D01*
X108735960Y-95554435D01*
X108719799Y-95496504D01*
X114860000Y-95496504D01*
X114860000Y-95823496D01*
X114923793Y-96144204D01*
X115048927Y-96446305D01*
X115230594Y-96718188D01*
X115461812Y-96949406D01*
X115733695Y-97131073D01*
X116035796Y-97256207D01*
X116356504Y-97320000D01*
X116683496Y-97320000D01*
X117004204Y-97256207D01*
X117306305Y-97131073D01*
X117539182Y-96975469D01*
X118015074Y-96975469D01*
X119060000Y-98020395D01*
X120104926Y-96975469D01*
X119994079Y-96698286D01*
X119683160Y-96544911D01*
X119348295Y-96455140D01*
X119002350Y-96432424D01*
X118658620Y-96477634D01*
X118330315Y-96589034D01*
X118125921Y-96698286D01*
X118015074Y-96975469D01*
X117539182Y-96975469D01*
X117578188Y-96949406D01*
X117809406Y-96718188D01*
X117991073Y-96446305D01*
X118116207Y-96144204D01*
X118180000Y-95823496D01*
X118180000Y-95496504D01*
X118116207Y-95175796D01*
X117991073Y-94873695D01*
X117809406Y-94601812D01*
X117578188Y-94370594D01*
X117539183Y-94344531D01*
X118015074Y-94344531D01*
X118125921Y-94621714D01*
X118436840Y-94775089D01*
X118771705Y-94864860D01*
X119117650Y-94887576D01*
X119461380Y-94842366D01*
X119789685Y-94730966D01*
X119994079Y-94621714D01*
X120104926Y-94344531D01*
X119060000Y-93299605D01*
X118015074Y-94344531D01*
X117539183Y-94344531D01*
X117306305Y-94188927D01*
X117280000Y-94178031D01*
X117280000Y-93177650D01*
X117292424Y-93177650D01*
X117337634Y-93521380D01*
X117449034Y-93849685D01*
X117558286Y-94054079D01*
X117835469Y-94164926D01*
X118880395Y-93120000D01*
X119239605Y-93120000D01*
X120284531Y-94164926D01*
X120561714Y-94054079D01*
X120715089Y-93743160D01*
X120804860Y-93408295D01*
X120827576Y-93062350D01*
X120782366Y-92718620D01*
X120670966Y-92390315D01*
X120561714Y-92185921D01*
X120284531Y-92075074D01*
X119239605Y-93120000D01*
X118880395Y-93120000D01*
X117835469Y-92075074D01*
X117558286Y-92185921D01*
X117404911Y-92496840D01*
X117315140Y-92831705D01*
X117292424Y-93177650D01*
X117280000Y-93177650D01*
X117280000Y-91895469D01*
X118015074Y-91895469D01*
X119060000Y-92940395D01*
X120104926Y-91895469D01*
X119994079Y-91618286D01*
X119683160Y-91464911D01*
X119348295Y-91375140D01*
X119002350Y-91352424D01*
X118658620Y-91397634D01*
X118330315Y-91509034D01*
X118125921Y-91618286D01*
X118015074Y-91895469D01*
X117280000Y-91895469D01*
X117280000Y-91820801D01*
X121882431Y-87218372D01*
X122036408Y-87249000D01*
X122311592Y-87249000D01*
X122581490Y-87195314D01*
X122835727Y-87090005D01*
X123064535Y-86937120D01*
X123259120Y-86742535D01*
X123412005Y-86513727D01*
X123517314Y-86259490D01*
X123571000Y-85989592D01*
X123571000Y-85714408D01*
X123517314Y-85444510D01*
X123412005Y-85190273D01*
X123259120Y-84961465D01*
X123064535Y-84766880D01*
X122835727Y-84613995D01*
X122581490Y-84508686D01*
X122311592Y-84455000D01*
X122036408Y-84455000D01*
X121766510Y-84508686D01*
X121512273Y-84613995D01*
X121283465Y-84766880D01*
X121088880Y-84961465D01*
X120935995Y-85190273D01*
X120830686Y-85444510D01*
X120777000Y-85714408D01*
X120777000Y-85989592D01*
X120807628Y-86143569D01*
X116008998Y-90942201D01*
X115980000Y-90965999D01*
X115956202Y-90994997D01*
X115956201Y-90994998D01*
X115885026Y-91081724D01*
X115814454Y-91213754D01*
X115791242Y-91290276D01*
X115770998Y-91357014D01*
X115760384Y-91464776D01*
X115756324Y-91506000D01*
X115760001Y-91543332D01*
X115760000Y-94178031D01*
X115733695Y-94188927D01*
X115461812Y-94370594D01*
X115230594Y-94601812D01*
X115048927Y-94873695D01*
X114923793Y-95175796D01*
X114860000Y-95496504D01*
X108719799Y-95496504D01*
X108668980Y-95314344D01*
X108533240Y-95250515D01*
X108611727Y-95218005D01*
X108840535Y-95065120D01*
X109035120Y-94870535D01*
X109188005Y-94641727D01*
X109293314Y-94387490D01*
X109301859Y-94344531D01*
X112935074Y-94344531D01*
X113045921Y-94621714D01*
X113356840Y-94775089D01*
X113691705Y-94864860D01*
X114037650Y-94887576D01*
X114381380Y-94842366D01*
X114709685Y-94730966D01*
X114914079Y-94621714D01*
X115024926Y-94344531D01*
X113980000Y-93299605D01*
X112935074Y-94344531D01*
X109301859Y-94344531D01*
X109347000Y-94117592D01*
X109347000Y-93842408D01*
X109293314Y-93572510D01*
X109188005Y-93318273D01*
X109094044Y-93177650D01*
X112212424Y-93177650D01*
X112257634Y-93521380D01*
X112369034Y-93849685D01*
X112478286Y-94054079D01*
X112755469Y-94164926D01*
X113800395Y-93120000D01*
X114159605Y-93120000D01*
X115204531Y-94164926D01*
X115481714Y-94054079D01*
X115635089Y-93743160D01*
X115724860Y-93408295D01*
X115747576Y-93062350D01*
X115702366Y-92718620D01*
X115590966Y-92390315D01*
X115481714Y-92185921D01*
X115204531Y-92075074D01*
X114159605Y-93120000D01*
X113800395Y-93120000D01*
X112755469Y-92075074D01*
X112478286Y-92185921D01*
X112324911Y-92496840D01*
X112235140Y-92831705D01*
X112212424Y-93177650D01*
X109094044Y-93177650D01*
X109035120Y-93089465D01*
X108840535Y-92894880D01*
X108611727Y-92741995D01*
X108534485Y-92710000D01*
X108611727Y-92678005D01*
X108840535Y-92525120D01*
X109035120Y-92330535D01*
X109188005Y-92101727D01*
X109273440Y-91895469D01*
X112935074Y-91895469D01*
X113980000Y-92940395D01*
X115024926Y-91895469D01*
X114914079Y-91618286D01*
X114603160Y-91464911D01*
X114268295Y-91375140D01*
X113922350Y-91352424D01*
X113578620Y-91397634D01*
X113250315Y-91509034D01*
X113045921Y-91618286D01*
X112935074Y-91895469D01*
X109273440Y-91895469D01*
X109293314Y-91847490D01*
X109347000Y-91577592D01*
X109347000Y-91302408D01*
X109293314Y-91032510D01*
X109188005Y-90778273D01*
X109035120Y-90549465D01*
X108840535Y-90354880D01*
X108611727Y-90201995D01*
X108534485Y-90170000D01*
X108611727Y-90138005D01*
X108840535Y-89985120D01*
X109035120Y-89790535D01*
X109188005Y-89561727D01*
X109293314Y-89307490D01*
X109347000Y-89037592D01*
X109347000Y-88762408D01*
X109293314Y-88492510D01*
X109188005Y-88238273D01*
X109035120Y-88009465D01*
X108840535Y-87814880D01*
X108611727Y-87661995D01*
X108534485Y-87630000D01*
X108611727Y-87598005D01*
X108840535Y-87445120D01*
X109035120Y-87250535D01*
X109188005Y-87021727D01*
X109293314Y-86767490D01*
X109347000Y-86497592D01*
X109347000Y-86222408D01*
X109293314Y-85952510D01*
X109188005Y-85698273D01*
X109035120Y-85469465D01*
X108840535Y-85274880D01*
X108611727Y-85121995D01*
X108534485Y-85090000D01*
X108611727Y-85058005D01*
X108840535Y-84905120D01*
X109035120Y-84710535D01*
X109188005Y-84481727D01*
X109293314Y-84227490D01*
X109347000Y-83957592D01*
X109347000Y-83682408D01*
X109293314Y-83412510D01*
X109188005Y-83158273D01*
X109035120Y-82929465D01*
X108840535Y-82734880D01*
X108611727Y-82581995D01*
X108534485Y-82550000D01*
X108611727Y-82518005D01*
X108840535Y-82365120D01*
X109035120Y-82170535D01*
X109188005Y-81941727D01*
X109293314Y-81687490D01*
X109347000Y-81417592D01*
X109347000Y-81142408D01*
X109293314Y-80872510D01*
X109188005Y-80618273D01*
X109035120Y-80389465D01*
X108840535Y-80194880D01*
X108611727Y-80041995D01*
X108534485Y-80010000D01*
X108611727Y-79978005D01*
X108840535Y-79825120D01*
X109035120Y-79630535D01*
X109188005Y-79401727D01*
X109293314Y-79147490D01*
X109347000Y-78877592D01*
X109347000Y-78602408D01*
X109293314Y-78332510D01*
X109188005Y-78078273D01*
X109035120Y-77849465D01*
X108840535Y-77654880D01*
X108611727Y-77501995D01*
X108534485Y-77470000D01*
X108611727Y-77438005D01*
X108840535Y-77285120D01*
X109035120Y-77090535D01*
X109188005Y-76861727D01*
X109293314Y-76607490D01*
X109347000Y-76337592D01*
X109347000Y-76062408D01*
X109293314Y-75792510D01*
X109188005Y-75538273D01*
X109035120Y-75309465D01*
X108840535Y-75114880D01*
X108611727Y-74961995D01*
X108534485Y-74930000D01*
X108611727Y-74898005D01*
X108840535Y-74745120D01*
X109035120Y-74550535D01*
X109188005Y-74321727D01*
X109293314Y-74067490D01*
X109308615Y-73990565D01*
X114149040Y-73990565D01*
X114216020Y-74230656D01*
X114465048Y-74347756D01*
X114732135Y-74414023D01*
X115007017Y-74426910D01*
X115279133Y-74385922D01*
X115538023Y-74292636D01*
X115653980Y-74230656D01*
X115720960Y-73990565D01*
X114935000Y-73204605D01*
X114149040Y-73990565D01*
X109308615Y-73990565D01*
X109347000Y-73797592D01*
X109347000Y-73522408D01*
X109293314Y-73252510D01*
X109228907Y-73097017D01*
X113533090Y-73097017D01*
X113574078Y-73369133D01*
X113667364Y-73628023D01*
X113729344Y-73743980D01*
X113969435Y-73810960D01*
X114755395Y-73025000D01*
X113969435Y-72239040D01*
X113729344Y-72306020D01*
X113612244Y-72555048D01*
X113545977Y-72822135D01*
X113533090Y-73097017D01*
X109228907Y-73097017D01*
X109188005Y-72998273D01*
X109035120Y-72769465D01*
X108840535Y-72574880D01*
X108611727Y-72421995D01*
X108357490Y-72316686D01*
X108087592Y-72263000D01*
X107812408Y-72263000D01*
X107542510Y-72316686D01*
X107288273Y-72421995D01*
X107059465Y-72574880D01*
X106864880Y-72769465D01*
X106711995Y-72998273D01*
X106606686Y-73252510D01*
X106553000Y-73522408D01*
X94865000Y-73522408D01*
X94865000Y-72059435D01*
X114149040Y-72059435D01*
X114935000Y-72845395D01*
X115720960Y-72059435D01*
X115653980Y-71819344D01*
X115404952Y-71702244D01*
X115137865Y-71635977D01*
X114862983Y-71623090D01*
X114590867Y-71664078D01*
X114331977Y-71757364D01*
X114216020Y-71819344D01*
X114149040Y-72059435D01*
X94865000Y-72059435D01*
X94865000Y-69668818D01*
X94870535Y-69665120D01*
X95065120Y-69470535D01*
X95218005Y-69241727D01*
X95250000Y-69164485D01*
X95281995Y-69241727D01*
X95434880Y-69470535D01*
X95629465Y-69665120D01*
X95858273Y-69818005D01*
X96112510Y-69923314D01*
X96382408Y-69977000D01*
X96657592Y-69977000D01*
X96927490Y-69923314D01*
X97181727Y-69818005D01*
X97410535Y-69665120D01*
X97530090Y-69545565D01*
X98274040Y-69545565D01*
X98341020Y-69785656D01*
X98590048Y-69902756D01*
X98857135Y-69969023D01*
X99132017Y-69981910D01*
X99404133Y-69940922D01*
X99663023Y-69847636D01*
X99778980Y-69785656D01*
X99845960Y-69545565D01*
X99060000Y-68759605D01*
X98274040Y-69545565D01*
X97530090Y-69545565D01*
X97605120Y-69470535D01*
X97758005Y-69241727D01*
X97787692Y-69170057D01*
X97792364Y-69183023D01*
X97854344Y-69298980D01*
X98094435Y-69365960D01*
X98880395Y-68580000D01*
X99239605Y-68580000D01*
X100025565Y-69365960D01*
X100265656Y-69298980D01*
X100382756Y-69049952D01*
X100449023Y-68782865D01*
X100461910Y-68507983D01*
X100420922Y-68235867D01*
X100327636Y-67976977D01*
X100265656Y-67861020D01*
X100025565Y-67794040D01*
X99239605Y-68580000D01*
X98880395Y-68580000D01*
X98094435Y-67794040D01*
X97854344Y-67861020D01*
X97790515Y-67996760D01*
X97758005Y-67918273D01*
X97605120Y-67689465D01*
X97530090Y-67614435D01*
X98274040Y-67614435D01*
X99060000Y-68400395D01*
X99845960Y-67614435D01*
X99778980Y-67374344D01*
X99529952Y-67257244D01*
X99262865Y-67190977D01*
X98987983Y-67178090D01*
X98715867Y-67219078D01*
X98456977Y-67312364D01*
X98341020Y-67374344D01*
X98274040Y-67614435D01*
X97530090Y-67614435D01*
X97410535Y-67494880D01*
X97181727Y-67341995D01*
X96927490Y-67236686D01*
X96657592Y-67183000D01*
X96628578Y-67183000D01*
X99934579Y-63877000D01*
X114269546Y-63877000D01*
X114317744Y-63909205D01*
M02*
